<?xml version="1.0" encoding="UTF-8" standalone="no"?>
<!DOCTYPE svg PUBLIC "-//W3C//DTD SVG 1.1//EN"
 "http://www.w3.org/Graphics/SVG/1.1/DTD/svg11.dtd">
<!-- Generated by graphviz version 2.43.0 (0)
 -->
<!-- Title: G Pages: 1 -->
<svg width="1412pt" height="741pt"
 viewBox="0.00 0.00 1412.20 740.58" xmlns="http://www.w3.org/2000/svg" xmlns:xlink="http://www.w3.org/1999/xlink">
<g id="graph0" class="graph" transform="scale(1 1) rotate(0) translate(21.6 718.98)">
<title>G</title>
<polygon fill="#111111" stroke="transparent" points="-21.6,21.6 -21.6,-718.98 1390.6,-718.98 1390.6,21.6 -21.6,21.6"/>
<!-- display/constants.ts -->
<g id="node1" class="node">
<title>display/constants.ts</title>
<path fill="none" stroke="#cfffac" d="M903.83,-468.91C903.83,-468.91 785.17,-468.91 785.17,-468.91 781.33,-468.91 777.5,-465.08 777.5,-461.25 777.5,-461.25 777.5,-453.58 777.5,-453.58 777.5,-449.75 781.33,-445.91 785.17,-445.91 785.17,-445.91 903.83,-445.91 903.83,-445.91 907.67,-445.91 911.5,-449.75 911.5,-453.58 911.5,-453.58 911.5,-461.25 911.5,-461.25 911.5,-465.08 907.67,-468.91 903.83,-468.91"/>
<text text-anchor="middle" x="844.5" y="-453.71" font-family="Arial" font-size="14.00" fill="#cfffac">display/constants.ts</text>
</g>
<!-- display/css/background.css.ts -->
<g id="node2" class="node">
<title>display/css/background.css.ts</title>
<path fill="none" stroke="#cfffac" d="M664.83,-550.91C664.83,-550.91 485.17,-550.91 485.17,-550.91 481.33,-550.91 477.5,-547.08 477.5,-543.25 477.5,-543.25 477.5,-535.58 477.5,-535.58 477.5,-531.75 481.33,-527.91 485.17,-527.91 485.17,-527.91 664.83,-527.91 664.83,-527.91 668.67,-527.91 672.5,-531.75 672.5,-535.58 672.5,-535.58 672.5,-543.25 672.5,-543.25 672.5,-547.08 668.67,-550.91 664.83,-550.91"/>
<text text-anchor="middle" x="575" y="-535.71" font-family="Arial" font-size="14.00" fill="#cfffac">display/css/background.css.ts</text>
</g>
<!-- display/css/basicHexagon.css.ts -->
<g id="node3" class="node">
<title>display/css/basicHexagon.css.ts</title>
<path fill="none" stroke="#cfffac" d="M941.83,-407.91C941.83,-407.91 747.17,-407.91 747.17,-407.91 743.33,-407.91 739.5,-404.08 739.5,-400.25 739.5,-400.25 739.5,-392.58 739.5,-392.58 739.5,-388.75 743.33,-384.91 747.17,-384.91 747.17,-384.91 941.83,-384.91 941.83,-384.91 945.67,-384.91 949.5,-388.75 949.5,-392.58 949.5,-392.58 949.5,-400.25 949.5,-400.25 949.5,-404.08 945.67,-407.91 941.83,-407.91"/>
<text text-anchor="middle" x="844.5" y="-392.71" font-family="Arial" font-size="14.00" fill="#cfffac">display/css/basicHexagon.css.ts</text>
</g>
<!-- display/css/container.css.ts -->
<g id="node4" class="node">
<title>display/css/container.css.ts</title>
<path fill="none" stroke="#cfffac" d="M656.83,-509.91C656.83,-509.91 493.17,-509.91 493.17,-509.91 489.33,-509.91 485.5,-506.08 485.5,-502.25 485.5,-502.25 485.5,-494.58 485.5,-494.58 485.5,-490.75 489.33,-486.91 493.17,-486.91 493.17,-486.91 656.83,-486.91 656.83,-486.91 660.67,-486.91 664.5,-490.75 664.5,-494.58 664.5,-494.58 664.5,-502.25 664.5,-502.25 664.5,-506.08 660.67,-509.91 656.83,-509.91"/>
<text text-anchor="middle" x="575" y="-494.71" font-family="Arial" font-size="14.00" fill="#cfffac">display/css/container.css.ts</text>
</g>
<!-- display/css/innerHexagon.css.ts -->
<g id="node5" class="node">
<title>display/css/innerHexagon.css.ts</title>
<path fill="none" stroke="#c6c5fe" d="M671.83,-386.91C671.83,-386.91 478.17,-386.91 478.17,-386.91 474.33,-386.91 470.5,-383.08 470.5,-379.25 470.5,-379.25 470.5,-371.58 470.5,-371.58 470.5,-367.75 474.33,-363.91 478.17,-363.91 478.17,-363.91 671.83,-363.91 671.83,-363.91 675.67,-363.91 679.5,-367.75 679.5,-371.58 679.5,-371.58 679.5,-379.25 679.5,-379.25 679.5,-383.08 675.67,-386.91 671.83,-386.91"/>
<text text-anchor="middle" x="575" y="-371.71" font-family="Arial" font-size="14.00" fill="#c6c5fe">display/css/innerHexagon.css.ts</text>
</g>
<!-- display/css/innerHexagon.css.ts&#45;&gt;display/css/basicHexagon.css.ts -->
<g id="edge1" class="edge">
<title>display/css/innerHexagon.css.ts&#45;&gt;display/css/basicHexagon.css.ts</title>
<path fill="none" stroke="#757575" d="M679.81,-383.56C695.98,-384.83 712.77,-386.15 729.17,-387.44"/>
<polygon fill="#757575" stroke="#757575" points="729.07,-390.94 739.31,-388.24 729.62,-383.96 729.07,-390.94"/>
</g>
<!-- display/css/mediaQueries.css.ts -->
<g id="node6" class="node">
<title>display/css/mediaQueries.css.ts</title>
<path fill="none" stroke="#c6c5fe" d="M672.33,-468.91C672.33,-468.91 477.67,-468.91 477.67,-468.91 473.83,-468.91 470,-465.08 470,-461.25 470,-461.25 470,-453.58 470,-453.58 470,-449.75 473.83,-445.91 477.67,-445.91 477.67,-445.91 672.33,-445.91 672.33,-445.91 676.17,-445.91 680,-449.75 680,-453.58 680,-453.58 680,-461.25 680,-461.25 680,-465.08 676.17,-468.91 672.33,-468.91"/>
<text text-anchor="middle" x="575" y="-453.71" font-family="Arial" font-size="14.00" fill="#c6c5fe">display/css/mediaQueries.css.ts</text>
</g>
<!-- display/css/mediaQueries.css.ts&#45;&gt;display/constants.ts -->
<g id="edge2" class="edge">
<title>display/css/mediaQueries.css.ts&#45;&gt;display/constants.ts</title>
<path fill="none" stroke="#757575" d="M680.19,-457.41C709.2,-457.41 740.16,-457.41 767.24,-457.41"/>
<polygon fill="#757575" stroke="#757575" points="767.41,-460.91 777.41,-457.41 767.41,-453.91 767.41,-460.91"/>
</g>
<!-- logic/utils.ts -->
<g id="node7" class="node">
<title>logic/utils.ts</title>
<path fill="none" stroke="#cfffac" d="M879.83,-549.91C879.83,-549.91 809.17,-549.91 809.17,-549.91 805.33,-549.91 801.5,-546.08 801.5,-542.25 801.5,-542.25 801.5,-534.58 801.5,-534.58 801.5,-530.75 805.33,-526.91 809.17,-526.91 809.17,-526.91 879.83,-526.91 879.83,-526.91 883.67,-526.91 887.5,-530.75 887.5,-534.58 887.5,-534.58 887.5,-542.25 887.5,-542.25 887.5,-546.08 883.67,-549.91 879.83,-549.91"/>
<text text-anchor="middle" x="844.5" y="-534.71" font-family="Arial" font-size="14.00" fill="#cfffac">logic/utils.ts</text>
</g>
<!-- display/css/mediaQueries.css.ts&#45;&gt;logic/utils.ts -->
<g id="edge3" class="edge">
<title>display/css/mediaQueries.css.ts&#45;&gt;logic/utils.ts</title>
<path fill="none" stroke="#757575" d="M641,-468.95C654,-471.7 667.5,-474.88 680,-478.41 724.17,-490.9 773.44,-509.67 806.24,-522.89"/>
<polygon fill="#757575" stroke="#757575" points="805.28,-526.28 815.86,-526.8 807.92,-519.79 805.28,-526.28"/>
</g>
<!-- display/css/outerHexagon.css.ts -->
<g id="node8" class="node">
<title>display/css/outerHexagon.css.ts</title>
<path fill="none" stroke="#c6c5fe" d="M671.83,-427.91C671.83,-427.91 478.17,-427.91 478.17,-427.91 474.33,-427.91 470.5,-424.08 470.5,-420.25 470.5,-420.25 470.5,-412.58 470.5,-412.58 470.5,-408.75 474.33,-404.91 478.17,-404.91 478.17,-404.91 671.83,-404.91 671.83,-404.91 675.67,-404.91 679.5,-408.75 679.5,-412.58 679.5,-412.58 679.5,-420.25 679.5,-420.25 679.5,-424.08 675.67,-427.91 671.83,-427.91"/>
<text text-anchor="middle" x="575" y="-412.71" font-family="Arial" font-size="14.00" fill="#c6c5fe">display/css/outerHexagon.css.ts</text>
</g>
<!-- display/css/outerHexagon.css.ts&#45;&gt;display/constants.ts -->
<g id="edge4" class="edge">
<title>display/css/outerHexagon.css.ts&#45;&gt;display/constants.ts</title>
<path fill="none" stroke="#757575" d="M651.23,-427.94C687.53,-433.51 730.99,-440.17 767.41,-445.75"/>
<polygon fill="#757575" stroke="#757575" points="767.06,-449.24 777.48,-447.3 768.13,-442.32 767.06,-449.24"/>
</g>
<!-- display/css/outerHexagon.css.ts&#45;&gt;display/css/basicHexagon.css.ts -->
<g id="edge5" class="edge">
<title>display/css/outerHexagon.css.ts&#45;&gt;display/css/basicHexagon.css.ts</title>
<path fill="none" stroke="#757575" d="M679.81,-408.65C695.98,-407.44 712.77,-406.19 729.17,-404.96"/>
<polygon fill="#757575" stroke="#757575" points="729.6,-408.44 739.31,-404.2 729.08,-401.46 729.6,-408.44"/>
</g>
<!-- display/css/outerHexagon.css.ts&#45;&gt;logic/utils.ts -->
<g id="edge6" class="edge">
<title>display/css/outerHexagon.css.ts&#45;&gt;logic/utils.ts</title>
<path fill="none" stroke="#757575" d="M659.02,-427.97C666.35,-430.52 673.46,-433.63 680,-437.41 700.99,-449.56 696.62,-463.83 716,-478.41 741.57,-497.65 774.29,-512.89 800.18,-523.2"/>
<polygon fill="#757575" stroke="#757575" points="799.15,-526.56 809.74,-526.91 801.69,-520.03 799.15,-526.56"/>
</g>
<!-- display/css/text.css.ts -->
<g id="node9" class="node">
<title>display/css/text.css.ts</title>
<path fill="none" stroke="#c6c5fe" d="M400.83,-488.91C400.83,-488.91 270.17,-488.91 270.17,-488.91 266.33,-488.91 262.5,-485.08 262.5,-481.25 262.5,-481.25 262.5,-473.58 262.5,-473.58 262.5,-469.75 266.33,-465.91 270.17,-465.91 270.17,-465.91 400.83,-465.91 400.83,-465.91 404.67,-465.91 408.5,-469.75 408.5,-473.58 408.5,-473.58 408.5,-481.25 408.5,-481.25 408.5,-485.08 404.67,-488.91 400.83,-488.91"/>
<text text-anchor="middle" x="335.5" y="-473.71" font-family="Arial" font-size="14.00" fill="#c6c5fe">display/css/text.css.ts</text>
</g>
<!-- display/css/text.css.ts&#45;&gt;display/css/background.css.ts -->
<g id="edge7" class="edge">
<title>display/css/text.css.ts&#45;&gt;display/css/background.css.ts</title>
<path fill="none" stroke="#757575" d="M369.39,-488.92C396.23,-498.03 435.25,-510.64 470,-519.41 479.06,-521.7 488.63,-523.87 498.14,-525.88"/>
<polygon fill="#757575" stroke="#757575" points="497.51,-529.32 508.01,-527.91 498.92,-522.46 497.51,-529.32"/>
</g>
<!-- display/css/text.css.ts&#45;&gt;display/css/container.css.ts -->
<g id="edge8" class="edge">
<title>display/css/text.css.ts&#45;&gt;display/css/container.css.ts</title>
<path fill="none" stroke="#757575" d="M408.73,-483.8C429.67,-485.65 452.91,-487.71 475.19,-489.68"/>
<polygon fill="#757575" stroke="#757575" points="475.08,-493.18 485.35,-490.58 475.7,-486.21 475.08,-493.18"/>
</g>
<!-- display/css/text.css.ts&#45;&gt;display/css/innerHexagon.css.ts -->
<g id="edge9" class="edge">
<title>display/css/text.css.ts&#45;&gt;display/css/innerHexagon.css.ts</title>
<path fill="none" stroke="#757575" d="M351.6,-465.81C375.43,-448.1 423.79,-414.46 470,-396.41 476.61,-393.83 483.58,-391.56 490.65,-389.55"/>
<polygon fill="#757575" stroke="#757575" points="491.58,-392.92 500.35,-386.97 489.78,-386.16 491.58,-392.92"/>
</g>
<!-- display/css/text.css.ts&#45;&gt;display/css/mediaQueries.css.ts -->
<g id="edge10" class="edge">
<title>display/css/text.css.ts&#45;&gt;display/css/mediaQueries.css.ts</title>
<path fill="none" stroke="#757575" d="M408.73,-471.33C424.81,-469.98 442.25,-468.51 459.57,-467.05"/>
<polygon fill="#757575" stroke="#757575" points="460.06,-470.52 469.74,-466.19 459.48,-463.55 460.06,-470.52"/>
</g>
<!-- display/css/text.css.ts&#45;&gt;display/css/outerHexagon.css.ts -->
<g id="edge11" class="edge">
<title>display/css/text.css.ts&#45;&gt;display/css/outerHexagon.css.ts</title>
<path fill="none" stroke="#757575" d="M371.67,-465.91C398.45,-457.39 436.32,-445.84 470,-437.41 480.4,-434.81 491.44,-432.31 502.3,-429.99"/>
<polygon fill="#757575" stroke="#757575" points="503.13,-433.4 512.2,-427.92 501.69,-426.54 503.13,-433.4"/>
</g>
<!-- display/hexagon.html.ts -->
<g id="node10" class="node">
<title>display/hexagon.html.ts</title>
<path fill="none" stroke="#cfffac" d="M406.83,-671.91C406.83,-671.91 264.17,-671.91 264.17,-671.91 260.33,-671.91 256.5,-668.08 256.5,-664.25 256.5,-664.25 256.5,-656.58 256.5,-656.58 256.5,-652.75 260.33,-648.91 264.17,-648.91 264.17,-648.91 406.83,-648.91 406.83,-648.91 410.67,-648.91 414.5,-652.75 414.5,-656.58 414.5,-656.58 414.5,-664.25 414.5,-664.25 414.5,-668.08 410.67,-671.91 406.83,-671.91"/>
<text text-anchor="middle" x="335.5" y="-656.71" font-family="Arial" font-size="14.00" fill="#cfffac">display/hexagon.html.ts</text>
</g>
<!-- display/hexagons/hexagon.ts -->
<g id="node11" class="node">
<title>display/hexagons/hexagon.ts</title>
<path fill="none" stroke="#cfffac" d="M662.83,-630.91C662.83,-630.91 487.17,-630.91 487.17,-630.91 483.33,-630.91 479.5,-627.08 479.5,-623.25 479.5,-623.25 479.5,-615.58 479.5,-615.58 479.5,-611.75 483.33,-607.91 487.17,-607.91 487.17,-607.91 662.83,-607.91 662.83,-607.91 666.67,-607.91 670.5,-611.75 670.5,-615.58 670.5,-615.58 670.5,-623.25 670.5,-623.25 670.5,-627.08 666.67,-630.91 662.83,-630.91"/>
<text text-anchor="middle" x="575" y="-615.71" font-family="Arial" font-size="14.00" fill="#cfffac">display/hexagons/hexagon.ts</text>
</g>
<!-- display/hexagons/hexagons.ts -->
<g id="node12" class="node">
<title>display/hexagons/hexagons.ts</title>
<path fill="none" stroke="#c6c5fe" d="M426.33,-630.91C426.33,-630.91 244.67,-630.91 244.67,-630.91 240.83,-630.91 237,-627.08 237,-623.25 237,-623.25 237,-615.58 237,-615.58 237,-611.75 240.83,-607.91 244.67,-607.91 244.67,-607.91 426.33,-607.91 426.33,-607.91 430.17,-607.91 434,-611.75 434,-615.58 434,-615.58 434,-623.25 434,-623.25 434,-627.08 430.17,-630.91 426.33,-630.91"/>
<text text-anchor="middle" x="335.5" y="-615.71" font-family="Arial" font-size="14.00" fill="#c6c5fe">display/hexagons/hexagons.ts</text>
</g>
<!-- display/hexagons/hexagons.ts&#45;&gt;display/hexagons/hexagon.ts -->
<g id="edge12" class="edge">
<title>display/hexagons/hexagons.ts&#45;&gt;display/hexagons/hexagon.ts</title>
<path fill="none" stroke="#757575" d="M434.13,-619.41C445.71,-619.41 457.56,-619.41 469.23,-619.41"/>
<polygon fill="#757575" stroke="#757575" points="469.43,-622.91 479.43,-619.41 469.43,-615.91 469.43,-622.91"/>
</g>
<!-- logic/display.ts -->
<g id="node13" class="node">
<title>logic/display.ts</title>
<path fill="none" stroke="#c6c5fe" d="M193.33,-671.91C193.33,-671.91 104.67,-671.91 104.67,-671.91 100.83,-671.91 97,-668.08 97,-664.25 97,-664.25 97,-656.58 97,-656.58 97,-652.75 100.83,-648.91 104.67,-648.91 104.67,-648.91 193.33,-648.91 193.33,-648.91 197.17,-648.91 201,-652.75 201,-656.58 201,-656.58 201,-664.25 201,-664.25 201,-668.08 197.17,-671.91 193.33,-671.91"/>
<text text-anchor="middle" x="149" y="-656.71" font-family="Arial" font-size="14.00" fill="#c6c5fe">logic/display.ts</text>
</g>
<!-- logic/display.ts&#45;&gt;logic/utils.ts -->
<g id="edge13" class="edge">
<title>logic/display.ts&#45;&gt;logic/utils.ts</title>
<path fill="none" stroke="#757575" d="M189.05,-671.93C203.92,-675.75 221.11,-679.52 237,-681.41 433.35,-704.78 495.05,-710.34 680,-640.41 734.69,-619.74 790.9,-579.76 821.07,-556.47"/>
<polygon fill="#757575" stroke="#757575" points="823.5,-559.01 829.22,-550.09 819.19,-553.5 823.5,-559.01"/>
</g>
<!-- logic/inputs/InputBase.ts -->
<g id="node14" class="node">
<title>logic/inputs/InputBase.ts</title>
<path fill="none" stroke="#ff6c60" d="M1361.33,-224.91C1361.33,-224.91 1213.67,-224.91 1213.67,-224.91 1209.83,-224.91 1206,-221.08 1206,-217.25 1206,-217.25 1206,-209.58 1206,-209.58 1206,-205.75 1209.83,-201.91 1213.67,-201.91 1213.67,-201.91 1361.33,-201.91 1361.33,-201.91 1365.17,-201.91 1369,-205.75 1369,-209.58 1369,-209.58 1369,-217.25 1369,-217.25 1369,-221.08 1365.17,-224.91 1361.33,-224.91"/>
<text text-anchor="middle" x="1287.5" y="-209.71" font-family="Arial" font-size="14.00" fill="#ff6c60">logic/inputs/InputBase.ts</text>
</g>
<!-- logic/main.ts -->
<g id="node15" class="node">
<title>logic/main.ts</title>
<path fill="none" stroke="#ff6c60" d="M187.33,-590.91C187.33,-590.91 110.67,-590.91 110.67,-590.91 106.83,-590.91 103,-587.08 103,-583.25 103,-583.25 103,-575.58 103,-575.58 103,-571.75 106.83,-567.91 110.67,-567.91 110.67,-567.91 187.33,-567.91 187.33,-567.91 191.17,-567.91 195,-571.75 195,-575.58 195,-575.58 195,-583.25 195,-583.25 195,-587.08 191.17,-590.91 187.33,-590.91"/>
<text text-anchor="middle" x="149" y="-575.71" font-family="Arial" font-size="14.00" fill="#ff6c60">logic/main.ts</text>
</g>
<!-- logic/inputs/InputBase.ts&#45;&gt;logic/main.ts -->
<g id="edge14" class="edge">
<title>logic/inputs/InputBase.ts&#45;&gt;logic/main.ts</title>
<path fill="none" stroke="#757575" d="M1269.54,-224.96C1247.55,-239.4 1207.55,-263.86 1170,-277.41 1166.1,-278.82 895.89,-335.41 845.5,-335.41 574,-335.41 574,-335.41 574,-335.41 414.71,-335.41 360.66,-357.01 237,-457.41 201.9,-485.91 174.36,-531.95 160.29,-558.57"/>
<polygon fill="#757575" stroke="#757575" points="157.03,-557.25 155.57,-567.75 163.26,-560.46 157.03,-557.25"/>
</g>
<!-- logic/main.ts&#45;&gt;logic/utils.ts -->
<g id="edge39" class="edge">
<title>logic/main.ts&#45;&gt;logic/utils.ts</title>
<path fill="none" stroke="#757575" d="M195.11,-579.28C286.68,-578.69 500.87,-575.64 680,-560.41 717.34,-557.24 759.22,-551.56 791.25,-546.77"/>
<polygon fill="#757575" stroke="#757575" points="791.92,-550.21 801.28,-545.25 790.87,-543.29 791.92,-550.21"/>
</g>
<!-- logic/main.ts&#45;&gt;display/css/text.css.ts -->
<g id="edge35" class="edge">
<title>logic/main.ts&#45;&gt;display/css/text.css.ts</title>
<path fill="none" stroke="#757575" d="M170.81,-567.91C203.47,-549.85 266.93,-514.77 304.52,-493.99"/>
<polygon fill="#757575" stroke="#757575" points="306.43,-496.93 313.49,-489.03 303.04,-490.81 306.43,-496.93"/>
</g>
<!-- logic/main.ts&#45;&gt;display/hexagon.html.ts -->
<g id="edge36" class="edge">
<title>logic/main.ts&#45;&gt;display/hexagon.html.ts</title>
<path fill="none" stroke="#757575" d="M162.82,-590.99C178.95,-604.91 208.03,-627.93 237,-640.41 241.74,-642.46 246.7,-644.29 251.76,-645.95"/>
<polygon fill="#757575" stroke="#757575" points="251.02,-649.38 261.6,-648.91 253.03,-642.67 251.02,-649.38"/>
</g>
<!-- logic/main.ts&#45;&gt;display/hexagons/hexagons.ts -->
<g id="edge37" class="edge">
<title>logic/main.ts&#45;&gt;display/hexagons/hexagons.ts</title>
<path fill="none" stroke="#757575" d="M195.13,-589.2C218.11,-594.18 246.43,-600.32 271.52,-605.76"/>
<polygon fill="#757575" stroke="#757575" points="270.8,-609.19 281.32,-607.88 272.29,-602.34 270.8,-609.19"/>
</g>
<!-- logic/inputs/inputElements.ts -->
<g id="node23" class="node">
<title>logic/inputs/inputElements.ts</title>
<path fill="none" stroke="#ff6c60" d="M421.83,-204.91C421.83,-204.91 249.17,-204.91 249.17,-204.91 245.33,-204.91 241.5,-201.08 241.5,-197.25 241.5,-197.25 241.5,-189.58 241.5,-189.58 241.5,-185.75 245.33,-181.91 249.17,-181.91 249.17,-181.91 421.83,-181.91 421.83,-181.91 425.67,-181.91 429.5,-185.75 429.5,-189.58 429.5,-189.58 429.5,-197.25 429.5,-197.25 429.5,-201.08 425.67,-204.91 421.83,-204.91"/>
<text text-anchor="middle" x="335.5" y="-189.71" font-family="Arial" font-size="14.00" fill="#ff6c60">logic/inputs/inputElements.ts</text>
</g>
<!-- logic/main.ts&#45;&gt;logic/inputs/inputElements.ts -->
<g id="edge38" class="edge">
<title>logic/main.ts&#45;&gt;logic/inputs/inputElements.ts</title>
<path fill="none" stroke="#757575" d="M152.48,-567.81C160.78,-530.46 189.67,-410.55 237,-321.41 259.26,-279.48 294.94,-236.81 316.41,-212.86"/>
<polygon fill="#757575" stroke="#757575" points="319.23,-214.96 323.36,-205.2 314.05,-210.25 319.23,-214.96"/>
</g>
<!-- logic/inputs/InputFirstRow.ts -->
<g id="node16" class="node">
<title>logic/inputs/InputFirstRow.ts</title>
<path fill="none" stroke="#ff6c60" d="M929.33,-224.91C929.33,-224.91 759.67,-224.91 759.67,-224.91 755.83,-224.91 752,-221.08 752,-217.25 752,-217.25 752,-209.58 752,-209.58 752,-205.75 755.83,-201.91 759.67,-201.91 759.67,-201.91 929.33,-201.91 929.33,-201.91 933.17,-201.91 937,-205.75 937,-209.58 937,-209.58 937,-217.25 937,-217.25 937,-221.08 933.17,-224.91 929.33,-224.91"/>
<text text-anchor="middle" x="844.5" y="-209.71" font-family="Arial" font-size="14.00" fill="#ff6c60">logic/inputs/InputFirstRow.ts</text>
</g>
<!-- logic/inputs/InputFirstRow.ts&#45;&gt;logic/inputs/InputBase.ts -->
<g id="edge15" class="edge">
<title>logic/inputs/InputFirstRow.ts&#45;&gt;logic/inputs/InputBase.ts</title>
<path fill="none" stroke="#757575" d="M937.14,-213.41C1012.82,-213.41 1119.71,-213.41 1195.27,-213.41"/>
<polygon fill="#757575" stroke="#757575" points="1195.72,-216.91 1205.72,-213.41 1195.72,-209.91 1195.72,-216.91"/>
</g>
<!-- logic/inputs/InputGap.ts -->
<g id="node17" class="node">
<title>logic/inputs/InputGap.ts</title>
<path fill="none" stroke="#ff6c60" d="M915.83,-26.91C915.83,-26.91 773.17,-26.91 773.17,-26.91 769.33,-26.91 765.5,-23.08 765.5,-19.25 765.5,-19.25 765.5,-11.58 765.5,-11.58 765.5,-7.75 769.33,-3.91 773.17,-3.91 773.17,-3.91 915.83,-3.91 915.83,-3.91 919.67,-3.91 923.5,-7.75 923.5,-11.58 923.5,-11.58 923.5,-19.25 923.5,-19.25 923.5,-23.08 919.67,-26.91 915.83,-26.91"/>
<text text-anchor="middle" x="844.5" y="-11.71" font-family="Arial" font-size="14.00" fill="#ff6c60">logic/inputs/InputGap.ts</text>
</g>
<!-- logic/inputs/InputGap.ts&#45;&gt;logic/inputs/InputBase.ts -->
<g id="edge16" class="edge">
<title>logic/inputs/InputGap.ts&#45;&gt;logic/inputs/InputBase.ts</title>
<path fill="none" stroke="#757575" d="M923.66,-21.4C992.51,-29.54 1093.47,-48.66 1170,-93.41 1214.36,-119.36 1253.07,-166.79 1272.74,-193.59"/>
<polygon fill="#757575" stroke="#757575" points="1269.98,-195.75 1278.66,-201.83 1275.66,-191.67 1269.98,-195.75"/>
</g>
<!-- logic/inputs/InputRoot.ts -->
<g id="node18" class="node">
<title>logic/inputs/InputRoot.ts</title>
<path fill="none" stroke="#ff6c60" d="M1162.33,-125.91C1162.33,-125.91 1016.67,-125.91 1016.67,-125.91 1012.83,-125.91 1009,-122.08 1009,-118.25 1009,-118.25 1009,-110.58 1009,-110.58 1009,-106.75 1012.83,-102.91 1016.67,-102.91 1016.67,-102.91 1162.33,-102.91 1162.33,-102.91 1166.17,-102.91 1170,-106.75 1170,-110.58 1170,-110.58 1170,-118.25 1170,-118.25 1170,-122.08 1166.17,-125.91 1162.33,-125.91"/>
<text text-anchor="middle" x="1089.5" y="-110.71" font-family="Arial" font-size="14.00" fill="#ff6c60">logic/inputs/InputRoot.ts</text>
</g>
<!-- logic/inputs/InputGap.ts&#45;&gt;logic/inputs/InputRoot.ts -->
<g id="edge17" class="edge">
<title>logic/inputs/InputGap.ts&#45;&gt;logic/inputs/InputRoot.ts</title>
<path fill="none" stroke="#757575" d="M923.68,-26.69C940.29,-30.37 957.49,-35.18 973,-41.41 1007.78,-55.4 1043.63,-79.94 1065.98,-96.67"/>
<polygon fill="#757575" stroke="#757575" points="1064.05,-99.6 1074.13,-102.87 1068.29,-94.03 1064.05,-99.6"/>
</g>
<!-- logic/inputs/InputRoot.ts&#45;&gt;logic/inputs/InputBase.ts -->
<g id="edge20" class="edge">
<title>logic/inputs/InputRoot.ts&#45;&gt;logic/inputs/InputBase.ts</title>
<path fill="none" stroke="#757575" d="M1113.37,-125.96C1148.24,-143.58 1214.83,-177.21 1254.49,-197.24"/>
<polygon fill="#757575" stroke="#757575" points="1252.97,-200.4 1263.48,-201.78 1256.13,-194.15 1252.97,-200.4"/>
</g>
<!-- logic/inputs/InputMediaQuery.ts -->
<g id="node19" class="node">
<title>logic/inputs/InputMediaQuery.ts</title>
<path fill="none" stroke="#ff6c60" d="M939.83,-306.91C939.83,-306.91 749.17,-306.91 749.17,-306.91 745.33,-306.91 741.5,-303.08 741.5,-299.25 741.5,-299.25 741.5,-291.58 741.5,-291.58 741.5,-287.75 745.33,-283.91 749.17,-283.91 749.17,-283.91 939.83,-283.91 939.83,-283.91 943.67,-283.91 947.5,-287.75 947.5,-291.58 947.5,-291.58 947.5,-299.25 947.5,-299.25 947.5,-303.08 943.67,-306.91 939.83,-306.91"/>
<text text-anchor="middle" x="844.5" y="-291.71" font-family="Arial" font-size="14.00" fill="#ff6c60">logic/inputs/InputMediaQuery.ts</text>
</g>
<!-- logic/inputs/InputMediaQuery.ts&#45;&gt;logic/inputs/InputBase.ts -->
<g id="edge18" class="edge">
<title>logic/inputs/InputMediaQuery.ts&#45;&gt;logic/inputs/InputBase.ts</title>
<path fill="none" stroke="#757575" d="M947.83,-285.13C1012.09,-277.63 1096.43,-265.89 1170,-249.41 1194.99,-243.82 1222.38,-235.47 1244.32,-228.23"/>
<polygon fill="#757575" stroke="#757575" points="1245.61,-231.48 1253.98,-224.99 1243.39,-224.84 1245.61,-231.48"/>
</g>
<!-- logic/inputs/InputNumberOfHexagons.ts -->
<g id="node20" class="node">
<title>logic/inputs/InputNumberOfHexagons.ts</title>
<path fill="none" stroke="#ff6c60" d="M965.33,-265.91C965.33,-265.91 723.67,-265.91 723.67,-265.91 719.83,-265.91 716,-262.08 716,-258.25 716,-258.25 716,-250.58 716,-250.58 716,-246.75 719.83,-242.91 723.67,-242.91 723.67,-242.91 965.33,-242.91 965.33,-242.91 969.17,-242.91 973,-246.75 973,-250.58 973,-250.58 973,-258.25 973,-258.25 973,-262.08 969.17,-265.91 965.33,-265.91"/>
<text text-anchor="middle" x="844.5" y="-250.71" font-family="Arial" font-size="14.00" fill="#ff6c60">logic/inputs/InputNumberOfHexagons.ts</text>
</g>
<!-- logic/inputs/InputNumberOfHexagons.ts&#45;&gt;logic/inputs/InputBase.ts -->
<g id="edge19" class="edge">
<title>logic/inputs/InputNumberOfHexagons.ts&#45;&gt;logic/inputs/InputBase.ts</title>
<path fill="none" stroke="#757575" d="M973.13,-244.88C1032.96,-240.13 1105.18,-234 1170,-227.41 1178.3,-226.57 1186.93,-225.64 1195.57,-224.67"/>
<polygon fill="#757575" stroke="#757575" points="1196.16,-228.12 1205.7,-223.51 1195.36,-221.17 1196.16,-228.12"/>
</g>
<!-- logic/inputs/factory.ts -->
<g id="node21" class="node">
<title>logic/inputs/factory.ts</title>
<path fill="none" stroke="#ff6c60" d="M638.33,-184.91C638.33,-184.91 511.67,-184.91 511.67,-184.91 507.83,-184.91 504,-181.08 504,-177.25 504,-177.25 504,-169.58 504,-169.58 504,-165.75 507.83,-161.91 511.67,-161.91 511.67,-161.91 638.33,-161.91 638.33,-161.91 642.17,-161.91 646,-165.75 646,-169.58 646,-169.58 646,-177.25 646,-177.25 646,-181.08 642.17,-184.91 638.33,-184.91"/>
<text text-anchor="middle" x="575" y="-169.71" font-family="Arial" font-size="14.00" fill="#ff6c60">logic/inputs/factory.ts</text>
</g>
<!-- logic/inputs/factory.ts&#45;&gt;logic/inputs/InputBase.ts -->
<g id="edge21" class="edge">
<title>logic/inputs/factory.ts&#45;&gt;logic/inputs/InputBase.ts</title>
<path fill="none" stroke="#757575" d="M646.3,-176.37C725.67,-179.81 858.64,-185.85 973,-192.41 1048.06,-196.72 1133.17,-202.48 1195.75,-206.88"/>
<polygon fill="#757575" stroke="#757575" points="1195.76,-210.39 1205.99,-207.6 1196.26,-203.4 1195.76,-210.39"/>
</g>
<!-- logic/inputs/factory.ts&#45;&gt;logic/inputs/InputFirstRow.ts -->
<g id="edge22" class="edge">
<title>logic/inputs/factory.ts&#45;&gt;logic/inputs/InputFirstRow.ts</title>
<path fill="none" stroke="#757575" d="M646.28,-183.92C679.96,-188.96 720.62,-195.04 756.25,-200.37"/>
<polygon fill="#757575" stroke="#757575" points="755.75,-203.83 766.16,-201.85 756.79,-196.91 755.75,-203.83"/>
</g>
<!-- logic/inputs/factory.ts&#45;&gt;logic/inputs/InputGap.ts -->
<g id="edge23" class="edge">
<title>logic/inputs/factory.ts&#45;&gt;logic/inputs/InputGap.ts</title>
<path fill="none" stroke="#757575" d="M590.53,-161.79C615.32,-142.27 667.81,-102.29 716,-74.41 744.92,-57.68 779.4,-41.96 805.21,-30.96"/>
<polygon fill="#757575" stroke="#757575" points="806.79,-34.09 814.65,-26.99 804.07,-27.64 806.79,-34.09"/>
</g>
<!-- logic/inputs/factory.ts&#45;&gt;logic/inputs/InputRoot.ts -->
<g id="edge26" class="edge">
<title>logic/inputs/factory.ts&#45;&gt;logic/inputs/InputRoot.ts</title>
<path fill="none" stroke="#757575" d="M646.19,-165.33C737.76,-154.79 898.11,-136.33 998.52,-124.77"/>
<polygon fill="#757575" stroke="#757575" points="999.11,-128.23 1008.64,-123.61 998.31,-121.27 999.11,-128.23"/>
</g>
<!-- logic/inputs/factory.ts&#45;&gt;logic/inputs/InputMediaQuery.ts -->
<g id="edge24" class="edge">
<title>logic/inputs/factory.ts&#45;&gt;logic/inputs/InputMediaQuery.ts</title>
<path fill="none" stroke="#757575" d="M587.91,-185.05C610.68,-206.55 662.87,-252.32 716,-274.41 722.12,-276.96 728.53,-279.2 735.08,-281.17"/>
<polygon fill="#757575" stroke="#757575" points="734.18,-284.55 744.76,-283.86 736.06,-277.81 734.18,-284.55"/>
</g>
<!-- logic/inputs/factory.ts&#45;&gt;logic/inputs/InputNumberOfHexagons.ts -->
<g id="edge25" class="edge">
<title>logic/inputs/factory.ts&#45;&gt;logic/inputs/InputNumberOfHexagons.ts</title>
<path fill="none" stroke="#757575" d="M598.65,-185.15C625.83,-198.75 673.1,-220.89 716,-233.41 725.71,-236.25 735.95,-238.74 746.24,-240.91"/>
<polygon fill="#757575" stroke="#757575" points="745.61,-244.36 756.11,-242.9 747,-237.49 745.61,-244.36"/>
</g>
<!-- logic/types.ts -->
<g id="node22" class="node">
<title>logic/types.ts</title>
<path fill="none" stroke="#cfffac" d="M884.33,-106.91C884.33,-106.91 804.67,-106.91 804.67,-106.91 800.83,-106.91 797,-103.08 797,-99.25 797,-99.25 797,-91.58 797,-91.58 797,-87.75 800.83,-83.91 804.67,-83.91 804.67,-83.91 884.33,-83.91 884.33,-83.91 888.17,-83.91 892,-87.75 892,-91.58 892,-91.58 892,-99.25 892,-99.25 892,-103.08 888.17,-106.91 884.33,-106.91"/>
<text text-anchor="middle" x="844.5" y="-91.71" font-family="Arial" font-size="14.00" fill="#cfffac">logic/types.ts</text>
</g>
<!-- logic/inputs/factory.ts&#45;&gt;logic/types.ts -->
<g id="edge27" class="edge">
<title>logic/inputs/factory.ts&#45;&gt;logic/types.ts</title>
<path fill="none" stroke="#757575" d="M603.21,-161.88C631.12,-150.39 675.99,-132.85 716,-121.41 738.89,-114.87 764.53,-109.31 786.79,-105.03"/>
<polygon fill="#757575" stroke="#757575" points="787.57,-108.45 796.75,-103.16 786.28,-101.57 787.57,-108.45"/>
</g>
<!-- logic/inputs/inputElements.ts&#45;&gt;logic/inputs/InputFirstRow.ts -->
<g id="edge28" class="edge">
<title>logic/inputs/inputElements.ts&#45;&gt;logic/inputs/InputFirstRow.ts</title>
<path fill="none" stroke="#757575" d="M429.79,-197.09C518.14,-200.58 650.48,-205.8 741.57,-209.39"/>
<polygon fill="#757575" stroke="#757575" points="741.51,-212.89 751.64,-209.79 741.78,-205.9 741.51,-212.89"/>
</g>
<!-- logic/inputs/inputElements.ts&#45;&gt;logic/inputs/InputGap.ts -->
<g id="edge29" class="edge">
<title>logic/inputs/inputElements.ts&#45;&gt;logic/inputs/InputGap.ts</title>
<path fill="none" stroke="#757575" d="M342.6,-181.52C358.69,-151.62 405.48,-73.37 470,-41.41 559.47,2.89 676.04,3.39 754.98,-3.3"/>
<polygon fill="#757575" stroke="#757575" points="755.1,-6.83 765.38,-4.24 755.73,0.15 755.1,-6.83"/>
</g>
<!-- logic/inputs/inputElements.ts&#45;&gt;logic/inputs/InputRoot.ts -->
<g id="edge32" class="edge">
<title>logic/inputs/inputElements.ts&#45;&gt;logic/inputs/InputRoot.ts</title>
<path fill="none" stroke="#757575" d="M351.12,-181.85C374.67,-163.86 423.13,-129.49 470,-112.41 680.65,-35.68 751.92,-37.22 973,-74.41 1000.89,-79.11 1031.05,-89.76 1053.55,-98.89"/>
<polygon fill="#757575" stroke="#757575" points="1052.43,-102.21 1063,-102.82 1055.11,-95.75 1052.43,-102.21"/>
</g>
<!-- logic/inputs/inputElements.ts&#45;&gt;logic/inputs/InputMediaQuery.ts -->
<g id="edge30" class="edge">
<title>logic/inputs/inputElements.ts&#45;&gt;logic/inputs/InputMediaQuery.ts</title>
<path fill="none" stroke="#757575" d="M362.55,-205.13C389.06,-216.58 431.62,-233.68 470,-243.41 556.22,-265.28 656.12,-278.58 730.9,-286.25"/>
<polygon fill="#757575" stroke="#757575" points="730.98,-289.78 741.28,-287.3 731.68,-282.81 730.98,-289.78"/>
</g>
<!-- logic/inputs/inputElements.ts&#45;&gt;logic/inputs/InputNumberOfHexagons.ts -->
<g id="edge31" class="edge">
<title>logic/inputs/inputElements.ts&#45;&gt;logic/inputs/InputNumberOfHexagons.ts</title>
<path fill="none" stroke="#757575" d="M394.83,-204.93C418.14,-209.27 445.28,-213.97 470,-217.41 547.66,-228.22 634.84,-237.05 705.42,-243.36"/>
<polygon fill="#757575" stroke="#757575" points="705.44,-246.88 715.71,-244.28 706.06,-239.91 705.44,-246.88"/>
</g>
<!-- logic/inputs/inputElements.ts&#45;&gt;logic/inputs/factory.ts -->
<g id="edge33" class="edge">
<title>logic/inputs/inputElements.ts&#45;&gt;logic/inputs/factory.ts</title>
<path fill="none" stroke="#757575" d="M429.68,-185.57C450.9,-183.78 473.27,-181.9 493.88,-180.16"/>
<polygon fill="#757575" stroke="#757575" points="494.18,-183.65 503.85,-179.32 493.6,-176.67 494.18,-183.65"/>
</g>
<!-- logic/inputs/inputElements.ts&#45;&gt;logic/types.ts -->
<g id="edge34" class="edge">
<title>logic/inputs/inputElements.ts&#45;&gt;logic/types.ts</title>
<path fill="none" stroke="#757575" d="M369.33,-181.86C396.13,-172.78 435.14,-160.38 470,-152.41 581,-127.04 713.2,-109.87 786.81,-101.45"/>
<polygon fill="#757575" stroke="#757575" points="787.25,-104.92 796.8,-100.31 786.47,-97.96 787.25,-104.92"/>
</g>
<!-- main.ts -->
<g id="node24" class="node">
<title>main.ts</title>
<path fill="none" stroke="#c6c5fe" d="M53.33,-610.91C53.33,-610.91 7.67,-610.91 7.67,-610.91 3.83,-610.91 0,-607.08 0,-603.25 0,-603.25 0,-595.58 0,-595.58 0,-591.75 3.83,-587.91 7.67,-587.91 7.67,-587.91 53.33,-587.91 53.33,-587.91 57.17,-587.91 61,-591.75 61,-595.58 61,-595.58 61,-603.25 61,-603.25 61,-607.08 57.17,-610.91 53.33,-610.91"/>
<text text-anchor="middle" x="30.5" y="-595.71" font-family="Arial" font-size="14.00" fill="#c6c5fe">main.ts</text>
</g>
<!-- main.ts&#45;&gt;logic/display.ts -->
<g id="edge40" class="edge">
<title>main.ts&#45;&gt;logic/display.ts</title>
<path fill="none" stroke="#757575" d="M53.69,-611.03C71.58,-620.4 96.97,-633.69 116.89,-644.13"/>
<polygon fill="#757575" stroke="#757575" points="115.41,-647.3 125.9,-648.84 118.66,-641.1 115.41,-647.3"/>
</g>
<!-- main.ts&#45;&gt;logic/main.ts -->
<g id="edge41" class="edge">
<title>main.ts&#45;&gt;logic/main.ts</title>
<path fill="none" stroke="#757575" d="M61.2,-594.32C70.9,-592.65 82.01,-590.74 92.97,-588.86"/>
<polygon fill="#757575" stroke="#757575" points="93.68,-592.29 102.94,-587.15 92.49,-585.39 93.68,-592.29"/>
</g>
</g>
</svg>
