<?xml version="1.0" encoding="UTF-8" standalone="no"?>
<!DOCTYPE svg PUBLIC "-//W3C//DTD SVG 1.1//EN"
 "http://www.w3.org/Graphics/SVG/1.1/DTD/svg11.dtd">
<!-- Generated by graphviz version 2.43.0 (0)
 -->
<!-- Title: G Pages: 1 -->
<svg width="1728pt" height="536pt"
 viewBox="0.00 0.00 1728.20 535.70" xmlns="http://www.w3.org/2000/svg" xmlns:xlink="http://www.w3.org/1999/xlink">
<g id="graph0" class="graph" transform="scale(1 1) rotate(0) translate(21.6 514.1)">
<title>G</title>
<polygon fill="#111111" stroke="transparent" points="-21.6,21.6 -21.6,-514.1 1706.6,-514.1 1706.6,21.6 -21.6,21.6"/>
<!-- display/constants.ts -->
<g id="node1" class="node">
<title>display/constants.ts</title>
<path fill="none" stroke="#cfffac" d="M1639.33,-379.5C1639.33,-379.5 1520.67,-379.5 1520.67,-379.5 1516.83,-379.5 1513,-375.67 1513,-371.83 1513,-371.83 1513,-364.17 1513,-364.17 1513,-360.33 1516.83,-356.5 1520.67,-356.5 1520.67,-356.5 1639.33,-356.5 1639.33,-356.5 1643.17,-356.5 1647,-360.33 1647,-364.17 1647,-364.17 1647,-371.83 1647,-371.83 1647,-375.67 1643.17,-379.5 1639.33,-379.5"/>
<text text-anchor="middle" x="1580" y="-364.3" font-family="Arial" font-size="14.00" fill="#cfffac">display/constants.ts</text>
</g>
<!-- display/css/background.css.ts -->
<g id="node2" class="node">
<title>display/css/background.css.ts</title>
<path fill="none" stroke="#cfffac" d="M1423.83,-328.5C1423.83,-328.5 1244.17,-328.5 1244.17,-328.5 1240.33,-328.5 1236.5,-324.67 1236.5,-320.83 1236.5,-320.83 1236.5,-313.17 1236.5,-313.17 1236.5,-309.33 1240.33,-305.5 1244.17,-305.5 1244.17,-305.5 1423.83,-305.5 1423.83,-305.5 1427.67,-305.5 1431.5,-309.33 1431.5,-313.17 1431.5,-313.17 1431.5,-320.83 1431.5,-320.83 1431.5,-324.67 1427.67,-328.5 1423.83,-328.5"/>
<text text-anchor="middle" x="1334" y="-313.3" font-family="Arial" font-size="14.00" fill="#cfffac">display/css/background.css.ts</text>
</g>
<!-- display/css/basicHexagon.css.ts -->
<g id="node3" class="node">
<title>display/css/basicHexagon.css.ts</title>
<path fill="none" stroke="#cfffac" d="M1677.33,-440.5C1677.33,-440.5 1482.67,-440.5 1482.67,-440.5 1478.83,-440.5 1475,-436.67 1475,-432.83 1475,-432.83 1475,-425.17 1475,-425.17 1475,-421.33 1478.83,-417.5 1482.67,-417.5 1482.67,-417.5 1677.33,-417.5 1677.33,-417.5 1681.17,-417.5 1685,-421.33 1685,-425.17 1685,-425.17 1685,-432.83 1685,-432.83 1685,-436.67 1681.17,-440.5 1677.33,-440.5"/>
<text text-anchor="middle" x="1580" y="-425.3" font-family="Arial" font-size="14.00" fill="#cfffac">display/css/basicHexagon.css.ts</text>
</g>
<!-- display/css/container.css.ts -->
<g id="node4" class="node">
<title>display/css/container.css.ts</title>
<path fill="none" stroke="#cfffac" d="M1415.83,-492.5C1415.83,-492.5 1252.17,-492.5 1252.17,-492.5 1248.33,-492.5 1244.5,-488.67 1244.5,-484.83 1244.5,-484.83 1244.5,-477.17 1244.5,-477.17 1244.5,-473.33 1248.33,-469.5 1252.17,-469.5 1252.17,-469.5 1415.83,-469.5 1415.83,-469.5 1419.67,-469.5 1423.5,-473.33 1423.5,-477.17 1423.5,-477.17 1423.5,-484.83 1423.5,-484.83 1423.5,-488.67 1419.67,-492.5 1415.83,-492.5"/>
<text text-anchor="middle" x="1334" y="-477.3" font-family="Arial" font-size="14.00" fill="#cfffac">display/css/container.css.ts</text>
</g>
<!-- display/css/innerHexagon.css.ts -->
<g id="node5" class="node">
<title>display/css/innerHexagon.css.ts</title>
<path fill="none" stroke="#c6c5fe" d="M1430.83,-451.5C1430.83,-451.5 1237.17,-451.5 1237.17,-451.5 1233.33,-451.5 1229.5,-447.67 1229.5,-443.83 1229.5,-443.83 1229.5,-436.17 1229.5,-436.17 1229.5,-432.33 1233.33,-428.5 1237.17,-428.5 1237.17,-428.5 1430.83,-428.5 1430.83,-428.5 1434.67,-428.5 1438.5,-432.33 1438.5,-436.17 1438.5,-436.17 1438.5,-443.83 1438.5,-443.83 1438.5,-447.67 1434.67,-451.5 1430.83,-451.5"/>
<text text-anchor="middle" x="1334" y="-436.3" font-family="Arial" font-size="14.00" fill="#c6c5fe">display/css/innerHexagon.css.ts</text>
</g>
<!-- display/css/innerHexagon.css.ts&#45;&gt;display/css/basicHexagon.css.ts -->
<g id="edge1" class="edge">
<title>display/css/innerHexagon.css.ts&#45;&gt;display/css/basicHexagon.css.ts</title>
<path fill="none" stroke="#757575" d="M1438.83,-435.32C1447.41,-434.93 1456.11,-434.54 1464.76,-434.15"/>
<polygon fill="#757575" stroke="#757575" points="1465.04,-437.64 1474.87,-433.69 1464.72,-430.65 1465.04,-437.64"/>
</g>
<!-- display/css/mediaQueries.css.ts -->
<g id="node6" class="node">
<title>display/css/mediaQueries.css.ts</title>
<path fill="none" stroke="#c6c5fe" d="M1431.33,-369.5C1431.33,-369.5 1236.67,-369.5 1236.67,-369.5 1232.83,-369.5 1229,-365.67 1229,-361.83 1229,-361.83 1229,-354.17 1229,-354.17 1229,-350.33 1232.83,-346.5 1236.67,-346.5 1236.67,-346.5 1431.33,-346.5 1431.33,-346.5 1435.17,-346.5 1439,-350.33 1439,-354.17 1439,-354.17 1439,-361.83 1439,-361.83 1439,-365.67 1435.17,-369.5 1431.33,-369.5"/>
<text text-anchor="middle" x="1334" y="-354.3" font-family="Arial" font-size="14.00" fill="#c6c5fe">display/css/mediaQueries.css.ts</text>
</g>
<!-- display/css/mediaQueries.css.ts&#45;&gt;display/constants.ts -->
<g id="edge2" class="edge">
<title>display/css/mediaQueries.css.ts&#45;&gt;display/constants.ts</title>
<path fill="none" stroke="#757575" d="M1439.19,-362.27C1460.57,-363.15 1482.7,-364.05 1502.88,-364.88"/>
<polygon fill="#757575" stroke="#757575" points="1502.79,-368.38 1512.92,-365.29 1503.07,-361.39 1502.79,-368.38"/>
</g>
<!-- logic/utils.ts -->
<g id="node7" class="node">
<title>logic/utils.ts</title>
<path fill="none" stroke="#cfffac" d="M1615.33,-318.5C1615.33,-318.5 1544.67,-318.5 1544.67,-318.5 1540.83,-318.5 1537,-314.67 1537,-310.83 1537,-310.83 1537,-303.17 1537,-303.17 1537,-299.33 1540.83,-295.5 1544.67,-295.5 1544.67,-295.5 1615.33,-295.5 1615.33,-295.5 1619.17,-295.5 1623,-299.33 1623,-303.17 1623,-303.17 1623,-310.83 1623,-310.83 1623,-314.67 1619.17,-318.5 1615.33,-318.5"/>
<text text-anchor="middle" x="1580" y="-303.3" font-family="Arial" font-size="14.00" fill="#cfffac">logic/utils.ts</text>
</g>
<!-- display/css/mediaQueries.css.ts&#45;&gt;logic/utils.ts -->
<g id="edge3" class="edge">
<title>display/css/mediaQueries.css.ts&#45;&gt;logic/utils.ts</title>
<path fill="none" stroke="#757575" d="M1396.37,-346.49C1410.4,-343.78 1425.23,-340.85 1439,-338 1468.18,-331.96 1500.68,-324.79 1527.02,-318.87"/>
<polygon fill="#757575" stroke="#757575" points="1527.81,-322.28 1536.79,-316.67 1526.27,-315.45 1527.81,-322.28"/>
</g>
<!-- display/css/outerHexagon.css.ts -->
<g id="node8" class="node">
<title>display/css/outerHexagon.css.ts</title>
<path fill="none" stroke="#c6c5fe" d="M1430.83,-410.5C1430.83,-410.5 1237.17,-410.5 1237.17,-410.5 1233.33,-410.5 1229.5,-406.67 1229.5,-402.83 1229.5,-402.83 1229.5,-395.17 1229.5,-395.17 1229.5,-391.33 1233.33,-387.5 1237.17,-387.5 1237.17,-387.5 1430.83,-387.5 1430.83,-387.5 1434.67,-387.5 1438.5,-391.33 1438.5,-395.17 1438.5,-395.17 1438.5,-402.83 1438.5,-402.83 1438.5,-406.67 1434.67,-410.5 1430.83,-410.5"/>
<text text-anchor="middle" x="1334" y="-395.3" font-family="Arial" font-size="14.00" fill="#c6c5fe">display/css/outerHexagon.css.ts</text>
</g>
<!-- display/css/outerHexagon.css.ts&#45;&gt;display/constants.ts -->
<g id="edge4" class="edge">
<title>display/css/outerHexagon.css.ts&#45;&gt;display/constants.ts</title>
<path fill="none" stroke="#757575" d="M1425.86,-387.46C1451.11,-384.25 1478.27,-380.8 1502.6,-377.71"/>
<polygon fill="#757575" stroke="#757575" points="1503.37,-381.14 1512.84,-376.41 1502.48,-374.19 1503.37,-381.14"/>
</g>
<!-- display/css/outerHexagon.css.ts&#45;&gt;display/css/basicHexagon.css.ts -->
<g id="edge5" class="edge">
<title>display/css/outerHexagon.css.ts&#45;&gt;display/css/basicHexagon.css.ts</title>
<path fill="none" stroke="#757575" d="M1428.64,-410.51C1443.85,-412.38 1459.69,-414.33 1475.13,-416.23"/>
<polygon fill="#757575" stroke="#757575" points="1474.86,-419.72 1485.21,-417.47 1475.71,-412.77 1474.86,-419.72"/>
</g>
<!-- display/css/outerHexagon.css.ts&#45;&gt;logic/utils.ts -->
<g id="edge6" class="edge">
<title>display/css/outerHexagon.css.ts&#45;&gt;logic/utils.ts</title>
<path fill="none" stroke="#757575" d="M1416.95,-387.49C1424.58,-385.16 1432.05,-382.36 1439,-379 1458.01,-369.81 1456.92,-358.91 1475,-348 1492.46,-337.46 1513.12,-328.66 1531.4,-321.95"/>
<polygon fill="#757575" stroke="#757575" points="1532.75,-325.19 1541,-318.54 1530.4,-318.59 1532.75,-325.19"/>
</g>
<!-- display/css/text.css.ts -->
<g id="node9" class="node">
<title>display/css/text.css.ts</title>
<path fill="none" stroke="#c6c5fe" d="M1176.83,-389.5C1176.83,-389.5 1046.17,-389.5 1046.17,-389.5 1042.33,-389.5 1038.5,-385.67 1038.5,-381.83 1038.5,-381.83 1038.5,-374.17 1038.5,-374.17 1038.5,-370.33 1042.33,-366.5 1046.17,-366.5 1046.17,-366.5 1176.83,-366.5 1176.83,-366.5 1180.67,-366.5 1184.5,-370.33 1184.5,-374.17 1184.5,-374.17 1184.5,-381.83 1184.5,-381.83 1184.5,-385.67 1180.67,-389.5 1176.83,-389.5"/>
<text text-anchor="middle" x="1111.5" y="-374.3" font-family="Arial" font-size="14.00" fill="#c6c5fe">display/css/text.css.ts</text>
</g>
<!-- display/css/text.css.ts&#45;&gt;display/css/background.css.ts -->
<g id="edge7" class="edge">
<title>display/css/text.css.ts&#45;&gt;display/css/background.css.ts</title>
<path fill="none" stroke="#757575" d="M1142.82,-366.36C1166.13,-357.71 1199.28,-346.06 1229,-338 1238.67,-335.38 1248.92,-332.92 1259.07,-330.68"/>
<polygon fill="#757575" stroke="#757575" points="1260.12,-334.03 1269.17,-328.51 1258.65,-327.19 1260.12,-334.03"/>
</g>
<!-- display/css/text.css.ts&#45;&gt;display/css/container.css.ts -->
<g id="edge8" class="edge">
<title>display/css/text.css.ts&#45;&gt;display/css/container.css.ts</title>
<path fill="none" stroke="#757575" d="M1124.99,-389.74C1145.19,-408.01 1186.99,-443.02 1229,-461 1233.74,-463.03 1238.69,-464.85 1243.74,-466.49"/>
<polygon fill="#757575" stroke="#757575" points="1242.98,-469.92 1253.56,-469.42 1244.98,-463.21 1242.98,-469.92"/>
</g>
<!-- display/css/text.css.ts&#45;&gt;display/css/innerHexagon.css.ts -->
<g id="edge9" class="edge">
<title>display/css/text.css.ts&#45;&gt;display/css/innerHexagon.css.ts</title>
<path fill="none" stroke="#757575" d="M1140.83,-389.62C1164.17,-398.85 1198.32,-411.57 1229,-420 1237.37,-422.3 1246.2,-424.43 1255.02,-426.38"/>
<polygon fill="#757575" stroke="#757575" points="1254.44,-429.83 1264.95,-428.5 1255.91,-422.99 1254.44,-429.83"/>
</g>
<!-- display/css/text.css.ts&#45;&gt;display/css/mediaQueries.css.ts -->
<g id="edge10" class="edge">
<title>display/css/text.css.ts&#45;&gt;display/css/mediaQueries.css.ts</title>
<path fill="none" stroke="#757575" d="M1184.7,-371.45C1195.58,-370.46 1207.02,-369.43 1218.53,-368.38"/>
<polygon fill="#757575" stroke="#757575" points="1219,-371.85 1228.64,-367.47 1218.37,-364.88 1219,-371.85"/>
</g>
<!-- display/css/text.css.ts&#45;&gt;display/css/outerHexagon.css.ts -->
<g id="edge11" class="edge">
<title>display/css/text.css.ts&#45;&gt;display/css/outerHexagon.css.ts</title>
<path fill="none" stroke="#757575" d="M1184.7,-384.88C1195.77,-385.93 1207.43,-387.04 1219.14,-388.16"/>
<polygon fill="#757575" stroke="#757575" points="1219.15,-391.67 1229.44,-389.14 1219.82,-384.7 1219.15,-391.67"/>
</g>
<!-- display/hexagon.html.ts -->
<g id="node10" class="node">
<title>display/hexagon.html.ts</title>
<path fill="none" stroke="#cfffac" d="M436.33,-229.5C436.33,-229.5 293.67,-229.5 293.67,-229.5 289.83,-229.5 286,-225.67 286,-221.83 286,-221.83 286,-214.17 286,-214.17 286,-210.33 289.83,-206.5 293.67,-206.5 293.67,-206.5 436.33,-206.5 436.33,-206.5 440.17,-206.5 444,-210.33 444,-214.17 444,-214.17 444,-221.83 444,-221.83 444,-225.67 440.17,-229.5 436.33,-229.5"/>
<text text-anchor="middle" x="365" y="-214.3" font-family="Arial" font-size="14.00" fill="#cfffac">display/hexagon.html.ts</text>
</g>
<!-- display/hexagons/hexagons.ts -->
<g id="node11" class="node">
<title>display/hexagons/hexagons.ts</title>
<path fill="none" stroke="#cfffac" d="M1670.83,-150.5C1670.83,-150.5 1489.17,-150.5 1489.17,-150.5 1485.33,-150.5 1481.5,-146.67 1481.5,-142.83 1481.5,-142.83 1481.5,-135.17 1481.5,-135.17 1481.5,-131.33 1485.33,-127.5 1489.17,-127.5 1489.17,-127.5 1670.83,-127.5 1670.83,-127.5 1674.67,-127.5 1678.5,-131.33 1678.5,-135.17 1678.5,-135.17 1678.5,-142.83 1678.5,-142.83 1678.5,-146.67 1674.67,-150.5 1670.83,-150.5"/>
<text text-anchor="middle" x="1580" y="-135.3" font-family="Arial" font-size="14.00" fill="#cfffac">display/hexagons/hexagons.ts</text>
</g>
<!-- logic/display.ts -->
<g id="node12" class="node">
<title>logic/display.ts</title>
<path fill="none" stroke="#c6c5fe" d="M227.33,-229.5C227.33,-229.5 138.67,-229.5 138.67,-229.5 134.83,-229.5 131,-225.67 131,-221.83 131,-221.83 131,-214.17 131,-214.17 131,-210.33 134.83,-206.5 138.67,-206.5 138.67,-206.5 227.33,-206.5 227.33,-206.5 231.17,-206.5 235,-210.33 235,-214.17 235,-214.17 235,-221.83 235,-221.83 235,-225.67 231.17,-229.5 227.33,-229.5"/>
<text text-anchor="middle" x="183" y="-214.3" font-family="Arial" font-size="14.00" fill="#c6c5fe">logic/display.ts</text>
</g>
<!-- logic/display.ts&#45;&gt;logic/utils.ts -->
<g id="edge15" class="edge">
<title>logic/display.ts&#45;&gt;logic/utils.ts</title>
<path fill="none" stroke="#757575" d="M227.14,-229.58C241.06,-233 256.61,-236.5 271,-239 425.81,-265.94 465.37,-277 622.5,-277 622.5,-277 622.5,-277 1112.5,-277 1263.21,-277 1440.74,-292.79 1526.88,-301.46"/>
<polygon fill="#757575" stroke="#757575" points="1526.62,-304.95 1536.92,-302.48 1527.33,-297.98 1526.62,-304.95"/>
</g>
<!-- logic/display.ts&#45;&gt;display/css/text.css.ts -->
<g id="edge12" class="edge">
<title>logic/display.ts&#45;&gt;display/css/text.css.ts</title>
<path fill="none" stroke="#757575" d="M193.57,-229.54C208.25,-246.35 238.14,-277.08 271,-291 530.16,-400.78 873.05,-394.8 1028.11,-384.97"/>
<polygon fill="#757575" stroke="#757575" points="1028.75,-388.43 1038.5,-384.29 1028.29,-381.45 1028.75,-388.43"/>
</g>
<!-- logic/display.ts&#45;&gt;display/hexagon.html.ts -->
<g id="edge13" class="edge">
<title>logic/display.ts&#45;&gt;display/hexagon.html.ts</title>
<path fill="none" stroke="#757575" d="M235.1,-218C247.81,-218 261.81,-218 275.75,-218"/>
<polygon fill="#757575" stroke="#757575" points="275.87,-221.5 285.87,-218 275.87,-214.5 275.87,-221.5"/>
</g>
<!-- logic/inputs/inputElements.ts -->
<g id="node13" class="node">
<title>logic/inputs/inputElements.ts</title>
<path fill="none" stroke="#c6c5fe" d="M451.33,-170.5C451.33,-170.5 278.67,-170.5 278.67,-170.5 274.83,-170.5 271,-166.67 271,-162.83 271,-162.83 271,-155.17 271,-155.17 271,-151.33 274.83,-147.5 278.67,-147.5 278.67,-147.5 451.33,-147.5 451.33,-147.5 455.17,-147.5 459,-151.33 459,-155.17 459,-155.17 459,-162.83 459,-162.83 459,-166.67 455.17,-170.5 451.33,-170.5"/>
<text text-anchor="middle" x="365" y="-155.3" font-family="Arial" font-size="14.00" fill="#c6c5fe">logic/inputs/inputElements.ts</text>
</g>
<!-- logic/display.ts&#45;&gt;logic/inputs/inputElements.ts -->
<g id="edge14" class="edge">
<title>logic/display.ts&#45;&gt;logic/inputs/inputElements.ts</title>
<path fill="none" stroke="#757575" d="M219.13,-206.48C247.66,-197.13 288.08,-183.89 318.98,-173.76"/>
<polygon fill="#757575" stroke="#757575" points="320.24,-177.03 328.65,-170.59 318.06,-170.38 320.24,-177.03"/>
</g>
<!-- logic/inputs/InputBase.ts -->
<g id="node14" class="node">
<title>logic/inputs/InputBase.ts</title>
<path fill="none" stroke="#c6c5fe" d="M1185.33,-150.5C1185.33,-150.5 1037.67,-150.5 1037.67,-150.5 1033.83,-150.5 1030,-146.67 1030,-142.83 1030,-142.83 1030,-135.17 1030,-135.17 1030,-131.33 1033.83,-127.5 1037.67,-127.5 1037.67,-127.5 1185.33,-127.5 1185.33,-127.5 1189.17,-127.5 1193,-131.33 1193,-135.17 1193,-135.17 1193,-142.83 1193,-142.83 1193,-146.67 1189.17,-150.5 1185.33,-150.5"/>
<text text-anchor="middle" x="1111.5" y="-135.3" font-family="Arial" font-size="14.00" fill="#c6c5fe">logic/inputs/InputBase.ts</text>
</g>
<!-- logic/inputs/inputElements.ts&#45;&gt;logic/inputs/InputBase.ts -->
<g id="edge23" class="edge">
<title>logic/inputs/inputElements.ts&#45;&gt;logic/inputs/InputBase.ts</title>
<path fill="none" stroke="#757575" d="M393.62,-170.55C419.36,-180.74 459.08,-195.03 495,-202 712.86,-244.25 782.24,-286.38 994,-220 1032.77,-207.85 1069.94,-177.73 1091.48,-157.85"/>
<polygon fill="#757575" stroke="#757575" points="1094.08,-160.2 1098.94,-150.78 1089.27,-155.12 1094.08,-160.2"/>
</g>
<!-- logic/inputs/InputFirstRow.ts -->
<g id="node16" class="node">
<title>logic/inputs/InputFirstRow.ts</title>
<path fill="none" stroke="#c6c5fe" d="M975.83,-210.5C975.83,-210.5 806.17,-210.5 806.17,-210.5 802.33,-210.5 798.5,-206.67 798.5,-202.83 798.5,-202.83 798.5,-195.17 798.5,-195.17 798.5,-191.33 802.33,-187.5 806.17,-187.5 806.17,-187.5 975.83,-187.5 975.83,-187.5 979.67,-187.5 983.5,-191.33 983.5,-195.17 983.5,-195.17 983.5,-202.83 983.5,-202.83 983.5,-206.67 979.67,-210.5 975.83,-210.5"/>
<text text-anchor="middle" x="891" y="-195.3" font-family="Arial" font-size="14.00" fill="#c6c5fe">logic/inputs/InputFirstRow.ts</text>
</g>
<!-- logic/inputs/inputElements.ts&#45;&gt;logic/inputs/InputFirstRow.ts -->
<g id="edge24" class="edge">
<title>logic/inputs/inputElements.ts&#45;&gt;logic/inputs/InputFirstRow.ts</title>
<path fill="none" stroke="#757575" d="M427.81,-170.52C449.04,-174.09 473,-177.69 495,-180 594.36,-190.44 708.4,-195.15 788.32,-197.27"/>
<polygon fill="#757575" stroke="#757575" points="788.3,-200.77 798.39,-197.53 788.48,-193.78 788.3,-200.77"/>
</g>
<!-- logic/inputs/InputGap.ts -->
<g id="node17" class="node">
<title>logic/inputs/InputGap.ts</title>
<path fill="none" stroke="#c6c5fe" d="M694.83,-170.5C694.83,-170.5 552.17,-170.5 552.17,-170.5 548.33,-170.5 544.5,-166.67 544.5,-162.83 544.5,-162.83 544.5,-155.17 544.5,-155.17 544.5,-151.33 548.33,-147.5 552.17,-147.5 552.17,-147.5 694.83,-147.5 694.83,-147.5 698.67,-147.5 702.5,-151.33 702.5,-155.17 702.5,-155.17 702.5,-162.83 702.5,-162.83 702.5,-166.67 698.67,-170.5 694.83,-170.5"/>
<text text-anchor="middle" x="623.5" y="-155.3" font-family="Arial" font-size="14.00" fill="#c6c5fe">logic/inputs/InputGap.ts</text>
</g>
<!-- logic/inputs/inputElements.ts&#45;&gt;logic/inputs/InputGap.ts -->
<g id="edge25" class="edge">
<title>logic/inputs/inputElements.ts&#45;&gt;logic/inputs/InputGap.ts</title>
<path fill="none" stroke="#757575" d="M459.33,-159C483.77,-159 510.04,-159 534.21,-159"/>
<polygon fill="#757575" stroke="#757575" points="534.43,-162.5 544.43,-159 534.43,-155.5 534.43,-162.5"/>
</g>
<!-- logic/inputs/InputRoot.ts -->
<g id="node18" class="node">
<title>logic/inputs/InputRoot.ts</title>
<path fill="none" stroke="#c6c5fe" d="M963.83,-130.5C963.83,-130.5 818.17,-130.5 818.17,-130.5 814.33,-130.5 810.5,-126.67 810.5,-122.83 810.5,-122.83 810.5,-115.17 810.5,-115.17 810.5,-111.33 814.33,-107.5 818.17,-107.5 818.17,-107.5 963.83,-107.5 963.83,-107.5 967.67,-107.5 971.5,-111.33 971.5,-115.17 971.5,-115.17 971.5,-122.83 971.5,-122.83 971.5,-126.67 967.67,-130.5 963.83,-130.5"/>
<text text-anchor="middle" x="891" y="-115.3" font-family="Arial" font-size="14.00" fill="#c6c5fe">logic/inputs/InputRoot.ts</text>
</g>
<!-- logic/inputs/inputElements.ts&#45;&gt;logic/inputs/InputRoot.ts -->
<g id="edge28" class="edge">
<title>logic/inputs/inputElements.ts&#45;&gt;logic/inputs/InputRoot.ts</title>
<path fill="none" stroke="#757575" d="M431.79,-147.46C452.01,-144.27 474.37,-141.12 495,-139 599.48,-128.28 720.12,-123.23 800.31,-120.9"/>
<polygon fill="#757575" stroke="#757575" points="800.48,-124.4 810.38,-120.62 800.28,-117.4 800.48,-124.4"/>
</g>
<!-- logic/inputs/InputMediaQuery.ts -->
<g id="node19" class="node">
<title>logic/inputs/InputMediaQuery.ts</title>
<path fill="none" stroke="#c6c5fe" d="M986.33,-89.5C986.33,-89.5 795.67,-89.5 795.67,-89.5 791.83,-89.5 788,-85.67 788,-81.83 788,-81.83 788,-74.17 788,-74.17 788,-70.33 791.83,-66.5 795.67,-66.5 795.67,-66.5 986.33,-66.5 986.33,-66.5 990.17,-66.5 994,-70.33 994,-74.17 994,-74.17 994,-81.83 994,-81.83 994,-85.67 990.17,-89.5 986.33,-89.5"/>
<text text-anchor="middle" x="891" y="-74.3" font-family="Arial" font-size="14.00" fill="#c6c5fe">logic/inputs/InputMediaQuery.ts</text>
</g>
<!-- logic/inputs/inputElements.ts&#45;&gt;logic/inputs/InputMediaQuery.ts -->
<g id="edge26" class="edge">
<title>logic/inputs/inputElements.ts&#45;&gt;logic/inputs/InputMediaQuery.ts</title>
<path fill="none" stroke="#757575" d="M396.28,-147.41C422.13,-138 460.48,-125.15 495,-118 589.17,-98.49 698.04,-88.36 777.6,-83.19"/>
<polygon fill="#757575" stroke="#757575" points="777.88,-86.68 787.64,-82.55 777.44,-79.69 777.88,-86.68"/>
</g>
<!-- logic/inputs/InputNumberOfHexagons.ts -->
<g id="node20" class="node">
<title>logic/inputs/InputNumberOfHexagons.ts</title>
<path fill="none" stroke="#c6c5fe" d="M744.33,-52.5C744.33,-52.5 502.67,-52.5 502.67,-52.5 498.83,-52.5 495,-48.67 495,-44.83 495,-44.83 495,-37.17 495,-37.17 495,-33.33 498.83,-29.5 502.67,-29.5 502.67,-29.5 744.33,-29.5 744.33,-29.5 748.17,-29.5 752,-33.33 752,-37.17 752,-37.17 752,-44.83 752,-44.83 752,-48.67 748.17,-52.5 744.33,-52.5"/>
<text text-anchor="middle" x="623.5" y="-37.3" font-family="Arial" font-size="14.00" fill="#c6c5fe">logic/inputs/InputNumberOfHexagons.ts</text>
</g>
<!-- logic/inputs/inputElements.ts&#45;&gt;logic/inputs/InputNumberOfHexagons.ts -->
<g id="edge27" class="edge">
<title>logic/inputs/inputElements.ts&#45;&gt;logic/inputs/InputNumberOfHexagons.ts</title>
<path fill="none" stroke="#757575" d="M378.43,-147.34C400.24,-127.58 447.58,-87.63 495,-67 506.12,-62.16 518.17,-58.21 530.29,-54.99"/>
<polygon fill="#757575" stroke="#757575" points="531.15,-58.38 540,-52.56 529.45,-51.59 531.15,-58.38"/>
</g>
<!-- logic/main.ts -->
<g id="node15" class="node">
<title>logic/main.ts</title>
<path fill="none" stroke="#c6c5fe" d="M1372.33,-150.5C1372.33,-150.5 1295.67,-150.5 1295.67,-150.5 1291.83,-150.5 1288,-146.67 1288,-142.83 1288,-142.83 1288,-135.17 1288,-135.17 1288,-131.33 1291.83,-127.5 1295.67,-127.5 1295.67,-127.5 1372.33,-127.5 1372.33,-127.5 1376.17,-127.5 1380,-131.33 1380,-135.17 1380,-135.17 1380,-142.83 1380,-142.83 1380,-146.67 1376.17,-150.5 1372.33,-150.5"/>
<text text-anchor="middle" x="1334" y="-135.3" font-family="Arial" font-size="14.00" fill="#c6c5fe">logic/main.ts</text>
</g>
<!-- logic/inputs/InputBase.ts&#45;&gt;logic/main.ts -->
<g id="edge16" class="edge">
<title>logic/inputs/InputBase.ts&#45;&gt;logic/main.ts</title>
<path fill="none" stroke="#757575" d="M1193.04,-139C1221.15,-139 1252.05,-139 1277.65,-139"/>
<polygon fill="#757575" stroke="#757575" points="1277.91,-142.5 1287.91,-139 1277.91,-135.5 1277.91,-142.5"/>
</g>
<!-- logic/main.ts&#45;&gt;logic/utils.ts -->
<g id="edge30" class="edge">
<title>logic/main.ts&#45;&gt;logic/utils.ts</title>
<path fill="none" stroke="#757575" d="M1351.77,-150.55C1393.82,-179.5 1503.93,-255.32 1553.81,-289.65"/>
<polygon fill="#757575" stroke="#757575" points="1551.89,-292.58 1562.11,-295.37 1555.86,-286.82 1551.89,-292.58"/>
</g>
<!-- logic/main.ts&#45;&gt;display/hexagons/hexagons.ts -->
<g id="edge29" class="edge">
<title>logic/main.ts&#45;&gt;display/hexagons/hexagons.ts</title>
<path fill="none" stroke="#757575" d="M1380.04,-139C1405.7,-139 1439.03,-139 1471.06,-139"/>
<polygon fill="#757575" stroke="#757575" points="1471.4,-142.5 1481.4,-139 1471.4,-135.5 1471.4,-142.5"/>
</g>
<!-- logic/inputs/InputFirstRow.ts&#45;&gt;logic/inputs/InputBase.ts -->
<g id="edge17" class="edge">
<title>logic/inputs/InputFirstRow.ts&#45;&gt;logic/inputs/InputBase.ts</title>
<path fill="none" stroke="#757575" d="M938.55,-187.49C955.98,-183.09 975.93,-177.94 994,-173 1016.63,-166.81 1041.62,-159.58 1062.63,-153.37"/>
<polygon fill="#757575" stroke="#757575" points="1063.7,-156.71 1072.29,-150.51 1061.71,-150 1063.7,-156.71"/>
</g>
<!-- logic/inputs/InputGap.ts&#45;&gt;logic/inputs/InputBase.ts -->
<g id="edge18" class="edge">
<title>logic/inputs/InputGap.ts&#45;&gt;logic/inputs/InputBase.ts</title>
<path fill="none" stroke="#757575" d="M702.58,-155.79C789.1,-152.23 928.41,-146.49 1019.72,-142.74"/>
<polygon fill="#757575" stroke="#757575" points="1019.93,-146.23 1029.78,-142.32 1019.64,-139.24 1019.93,-146.23"/>
</g>
<!-- logic/inputs/InputGap.ts&#45;&gt;logic/inputs/InputRoot.ts -->
<g id="edge19" class="edge">
<title>logic/inputs/InputGap.ts&#45;&gt;logic/inputs/InputRoot.ts</title>
<path fill="none" stroke="#757575" d="M700.94,-147.48C733.01,-142.65 770.46,-137.01 803.53,-132.03"/>
<polygon fill="#757575" stroke="#757575" points="804.28,-135.45 813.64,-130.5 803.23,-128.53 804.28,-135.45"/>
</g>
<!-- logic/inputs/InputRoot.ts&#45;&gt;logic/inputs/InputBase.ts -->
<g id="edge22" class="edge">
<title>logic/inputs/InputRoot.ts&#45;&gt;logic/inputs/InputBase.ts</title>
<path fill="none" stroke="#757575" d="M971.5,-126.28C987.12,-127.71 1003.61,-129.22 1019.56,-130.68"/>
<polygon fill="#757575" stroke="#757575" points="1019.68,-134.2 1029.96,-131.63 1020.32,-127.23 1019.68,-134.2"/>
</g>
<!-- logic/inputs/InputMediaQuery.ts&#45;&gt;logic/inputs/InputBase.ts -->
<g id="edge20" class="edge">
<title>logic/inputs/InputMediaQuery.ts&#45;&gt;logic/inputs/InputBase.ts</title>
<path fill="none" stroke="#757575" d="M954.33,-89.51C967.5,-92.32 981.27,-95.52 994,-99 1019.87,-106.07 1048.36,-115.82 1070.69,-123.92"/>
<polygon fill="#757575" stroke="#757575" points="1069.58,-127.24 1080.17,-127.39 1071.99,-120.67 1069.58,-127.24"/>
</g>
<!-- logic/inputs/InputNumberOfHexagons.ts&#45;&gt;logic/inputs/InputBase.ts -->
<g id="edge21" class="edge">
<title>logic/inputs/InputNumberOfHexagons.ts&#45;&gt;logic/inputs/InputBase.ts</title>
<path fill="none" stroke="#757575" d="M752.15,-29.67C824.86,-27.42 916.61,-31.77 994,-58 1032.48,-71.04 1069.73,-100.9 1091.37,-120.49"/>
<polygon fill="#757575" stroke="#757575" points="1089.15,-123.21 1098.87,-127.44 1093.91,-118.08 1089.15,-123.21"/>
</g>
<!-- logic/types.ts -->
<g id="node21" class="node">
<title>logic/types.ts</title>
<path fill="none" stroke="#cfffac" d="M87.33,-152.5C87.33,-152.5 7.67,-152.5 7.67,-152.5 3.83,-152.5 0,-148.67 0,-144.83 0,-144.83 0,-137.17 0,-137.17 0,-133.33 3.83,-129.5 7.67,-129.5 7.67,-129.5 87.33,-129.5 87.33,-129.5 91.17,-129.5 95,-133.33 95,-137.17 95,-137.17 95,-144.83 95,-144.83 95,-148.67 91.17,-152.5 87.33,-152.5"/>
<text text-anchor="middle" x="47.5" y="-137.3" font-family="Arial" font-size="14.00" fill="#cfffac">logic/types.ts</text>
</g>
<!-- main.ts -->
<g id="node22" class="node">
<title>main.ts</title>
<path fill="none" stroke="#c6c5fe" d="M70.33,-111.5C70.33,-111.5 24.67,-111.5 24.67,-111.5 20.83,-111.5 17,-107.67 17,-103.83 17,-103.83 17,-96.17 17,-96.17 17,-92.33 20.83,-88.5 24.67,-88.5 24.67,-88.5 70.33,-88.5 70.33,-88.5 74.17,-88.5 78,-92.33 78,-96.17 78,-96.17 78,-103.83 78,-103.83 78,-107.67 74.17,-111.5 70.33,-111.5"/>
<text text-anchor="middle" x="47.5" y="-96.3" font-family="Arial" font-size="14.00" fill="#c6c5fe">main.ts</text>
</g>
<!-- main.ts&#45;&gt;logic/display.ts -->
<g id="edge31" class="edge">
<title>main.ts&#45;&gt;logic/display.ts</title>
<path fill="none" stroke="#757575" d="M78.06,-111.11C83.92,-113.92 89.85,-117.23 95,-121 125.03,-142.98 152.39,-176.77 168.11,-198.11"/>
<polygon fill="#757575" stroke="#757575" points="165.42,-200.36 174.11,-206.42 171.1,-196.26 165.42,-200.36"/>
</g>
<!-- main.ts&#45;&gt;logic/main.ts -->
<g id="edge32" class="edge">
<title>main.ts&#45;&gt;logic/main.ts</title>
<path fill="none" stroke="#757575" d="M69.57,-88.33C119.24,-61.95 248.22,0 364,0 364,0 364,0 892,0 1053.39,0 1233.27,-85.73 1303.07,-122.53"/>
<polygon fill="#757575" stroke="#757575" points="1301.7,-125.77 1312.17,-127.39 1305,-119.59 1301.7,-125.77"/>
</g>
</g>
</svg>
