<?xml version="1.0" encoding="UTF-8" standalone="no"?>
<!DOCTYPE svg PUBLIC "-//W3C//DTD SVG 1.1//EN"
 "http://www.w3.org/Graphics/SVG/1.1/DTD/svg11.dtd">
<!-- Generated by graphviz version 2.43.0 (0)
 -->
<!-- Title: G Pages: 1 -->
<svg width="1058pt" height="385pt"
 viewBox="0.00 0.00 1058.20 384.56" xmlns="http://www.w3.org/2000/svg" xmlns:xlink="http://www.w3.org/1999/xlink">
<g id="graph0" class="graph" transform="scale(1 1) rotate(0) translate(21.6 362.96)">
<title>G</title>
<polygon fill="#111111" stroke="transparent" points="-21.6,21.6 -21.6,-362.96 1036.6,-362.96 1036.6,21.6 -21.6,21.6"/>
<!-- HexagonSection.ts -->
<g id="node1" class="node">
<title>HexagonSection.ts</title>
<path fill="none" stroke="#c6c5fe" d="M830.33,-103.36C830.33,-103.36 715.67,-103.36 715.67,-103.36 711.83,-103.36 708,-99.52 708,-95.69 708,-95.69 708,-88.02 708,-88.02 708,-84.19 711.83,-80.36 715.67,-80.36 715.67,-80.36 830.33,-80.36 830.33,-80.36 834.17,-80.36 838,-84.19 838,-88.02 838,-88.02 838,-95.69 838,-95.69 838,-99.52 834.17,-103.36 830.33,-103.36"/>
<text text-anchor="middle" x="773" y="-88.16" font-family="Arial" font-size="14.00" fill="#c6c5fe">HexagonSection.ts</text>
</g>
<!-- hexagon&#45;functions.ts -->
<g id="node2" class="node">
<title>hexagon&#45;functions.ts</title>
<path fill="none" stroke="#cfffac" d="M1007.33,-103.36C1007.33,-103.36 881.67,-103.36 881.67,-103.36 877.83,-103.36 874,-99.52 874,-95.69 874,-95.69 874,-88.02 874,-88.02 874,-84.19 877.83,-80.36 881.67,-80.36 881.67,-80.36 1007.33,-80.36 1007.33,-80.36 1011.17,-80.36 1015,-84.19 1015,-88.02 1015,-88.02 1015,-95.69 1015,-95.69 1015,-99.52 1011.17,-103.36 1007.33,-103.36"/>
<text text-anchor="middle" x="944.5" y="-88.16" font-family="Arial" font-size="14.00" fill="#cfffac">hexagon&#45;functions.ts</text>
</g>
<!-- HexagonSection.ts&#45;&gt;hexagon&#45;functions.ts -->
<g id="edge1" class="edge">
<title>HexagonSection.ts&#45;&gt;hexagon&#45;functions.ts</title>
<path fill="none" stroke="#757575" d="M838.08,-91.86C846.5,-91.86 855.22,-91.86 863.86,-91.86"/>
<polygon fill="#757575" stroke="#757575" points="863.95,-95.36 873.95,-91.86 863.95,-88.36 863.95,-95.36"/>
</g>
<!-- htmlElements.ts -->
<g id="node3" class="node">
<title>htmlElements.ts</title>
<path fill="none" stroke="#cfffac" d="M219.83,-300.36C219.83,-300.36 121.17,-300.36 121.17,-300.36 117.33,-300.36 113.5,-296.52 113.5,-292.69 113.5,-292.69 113.5,-285.02 113.5,-285.02 113.5,-281.19 117.33,-277.36 121.17,-277.36 121.17,-277.36 219.83,-277.36 219.83,-277.36 223.67,-277.36 227.5,-281.19 227.5,-285.02 227.5,-285.02 227.5,-292.69 227.5,-292.69 227.5,-296.52 223.67,-300.36 219.83,-300.36"/>
<text text-anchor="middle" x="170.5" y="-285.16" font-family="Arial" font-size="14.00" fill="#cfffac">htmlElements.ts</text>
</g>
<!-- inputs/CSSButton.ts -->
<g id="node4" class="node">
<title>inputs/CSSButton.ts</title>
<path fill="none" stroke="#c6c5fe" d="M231.33,-341.36C231.33,-341.36 109.67,-341.36 109.67,-341.36 105.83,-341.36 102,-337.52 102,-333.69 102,-333.69 102,-326.02 102,-326.02 102,-322.19 105.83,-318.36 109.67,-318.36 109.67,-318.36 231.33,-318.36 231.33,-318.36 235.17,-318.36 239,-322.19 239,-326.02 239,-326.02 239,-333.69 239,-333.69 239,-337.52 235.17,-341.36 231.33,-341.36"/>
<text text-anchor="middle" x="170.5" y="-326.16" font-family="Arial" font-size="14.00" fill="#c6c5fe">inputs/CSSButton.ts</text>
</g>
<!-- textCSS.ts -->
<g id="node5" class="node">
<title>textCSS.ts</title>
<path fill="none" stroke="#c6c5fe" d="M424.83,-341.36C424.83,-341.36 360.17,-341.36 360.17,-341.36 356.33,-341.36 352.5,-337.52 352.5,-333.69 352.5,-333.69 352.5,-326.02 352.5,-326.02 352.5,-322.19 356.33,-318.36 360.17,-318.36 360.17,-318.36 424.83,-318.36 424.83,-318.36 428.67,-318.36 432.5,-322.19 432.5,-326.02 432.5,-326.02 432.5,-333.69 432.5,-333.69 432.5,-337.52 428.67,-341.36 424.83,-341.36"/>
<text text-anchor="middle" x="392.5" y="-326.16" font-family="Arial" font-size="14.00" fill="#c6c5fe">textCSS.ts</text>
</g>
<!-- inputs/CSSButton.ts&#45;&gt;textCSS.ts -->
<g id="edge2" class="edge">
<title>inputs/CSSButton.ts&#45;&gt;textCSS.ts</title>
<path fill="none" stroke="#757575" d="M239,-329.86C272.22,-329.86 311.55,-329.86 341.95,-329.86"/>
<polygon fill="#757575" stroke="#757575" points="342.3,-333.36 352.3,-329.86 342.3,-326.36 342.3,-333.36"/>
</g>
<!-- utils.ts -->
<g id="node15" class="node">
<title>utils.ts</title>
<path fill="none" stroke="#cfffac" d="M626.33,-341.36C626.33,-341.36 586.67,-341.36 586.67,-341.36 582.83,-341.36 579,-337.52 579,-333.69 579,-333.69 579,-326.02 579,-326.02 579,-322.19 582.83,-318.36 586.67,-318.36 586.67,-318.36 626.33,-318.36 626.33,-318.36 630.17,-318.36 634,-322.19 634,-326.02 634,-326.02 634,-333.69 634,-333.69 634,-337.52 630.17,-341.36 626.33,-341.36"/>
<text text-anchor="middle" x="606.5" y="-326.16" font-family="Arial" font-size="14.00" fill="#cfffac">utils.ts</text>
</g>
<!-- textCSS.ts&#45;&gt;utils.ts -->
<g id="edge24" class="edge">
<title>textCSS.ts&#45;&gt;utils.ts</title>
<path fill="none" stroke="#757575" d="M432.88,-329.86C471.73,-329.86 530.68,-329.86 568.64,-329.86"/>
<polygon fill="#757575" stroke="#757575" points="568.75,-333.36 578.75,-329.86 568.75,-326.36 568.75,-333.36"/>
</g>
<!-- inputs/HTMLButton.ts -->
<g id="node6" class="node">
<title>inputs/HTMLButton.ts</title>
<path fill="none" stroke="#c6c5fe" d="M236.33,-259.36C236.33,-259.36 104.67,-259.36 104.67,-259.36 100.83,-259.36 97,-255.52 97,-251.69 97,-251.69 97,-244.02 97,-244.02 97,-240.19 100.83,-236.36 104.67,-236.36 104.67,-236.36 236.33,-236.36 236.33,-236.36 240.17,-236.36 244,-240.19 244,-244.02 244,-244.02 244,-251.69 244,-251.69 244,-255.52 240.17,-259.36 236.33,-259.36"/>
<text text-anchor="middle" x="170.5" y="-244.16" font-family="Arial" font-size="14.00" fill="#c6c5fe">inputs/HTMLButton.ts</text>
</g>
<!-- textHTML.ts -->
<g id="node7" class="node">
<title>textHTML.ts</title>
<path fill="none" stroke="#cfffac" d="M429.83,-259.36C429.83,-259.36 355.17,-259.36 355.17,-259.36 351.33,-259.36 347.5,-255.52 347.5,-251.69 347.5,-251.69 347.5,-244.02 347.5,-244.02 347.5,-240.19 351.33,-236.36 355.17,-236.36 355.17,-236.36 429.83,-236.36 429.83,-236.36 433.67,-236.36 437.5,-240.19 437.5,-244.02 437.5,-244.02 437.5,-251.69 437.5,-251.69 437.5,-255.52 433.67,-259.36 429.83,-259.36"/>
<text text-anchor="middle" x="392.5" y="-244.16" font-family="Arial" font-size="14.00" fill="#cfffac">textHTML.ts</text>
</g>
<!-- inputs/HTMLButton.ts&#45;&gt;textHTML.ts -->
<g id="edge3" class="edge">
<title>inputs/HTMLButton.ts&#45;&gt;textHTML.ts</title>
<path fill="none" stroke="#757575" d="M244.15,-247.86C274.58,-247.86 309.34,-247.86 337.45,-247.86"/>
<polygon fill="#757575" stroke="#757575" points="337.49,-251.36 347.49,-247.86 337.49,-244.36 337.49,-251.36"/>
</g>
<!-- inputs/InputBase.ts -->
<g id="node8" class="node">
<title>inputs/InputBase.ts</title>
<path fill="none" stroke="#c6c5fe" d="M664.33,-103.36C664.33,-103.36 548.67,-103.36 548.67,-103.36 544.83,-103.36 541,-99.52 541,-95.69 541,-95.69 541,-88.02 541,-88.02 541,-84.19 544.83,-80.36 548.67,-80.36 548.67,-80.36 664.33,-80.36 664.33,-80.36 668.17,-80.36 672,-84.19 672,-88.02 672,-88.02 672,-95.69 672,-95.69 672,-99.52 668.17,-103.36 664.33,-103.36"/>
<text text-anchor="middle" x="606.5" y="-88.16" font-family="Arial" font-size="14.00" fill="#c6c5fe">inputs/InputBase.ts</text>
</g>
<!-- inputs/InputBase.ts&#45;&gt;HexagonSection.ts -->
<g id="edge4" class="edge">
<title>inputs/InputBase.ts&#45;&gt;HexagonSection.ts</title>
<path fill="none" stroke="#757575" d="M672.04,-91.86C680.52,-91.86 689.26,-91.86 697.87,-91.86"/>
<polygon fill="#757575" stroke="#757575" points="697.91,-95.36 707.91,-91.86 697.91,-88.36 697.91,-95.36"/>
</g>
<!-- inputs/InputFirstRow.ts -->
<g id="node9" class="node">
<title>inputs/InputFirstRow.ts</title>
<path fill="none" stroke="#c6c5fe" d="M461.33,-179.36C461.33,-179.36 323.67,-179.36 323.67,-179.36 319.83,-179.36 316,-175.52 316,-171.69 316,-171.69 316,-164.02 316,-164.02 316,-160.19 319.83,-156.36 323.67,-156.36 323.67,-156.36 461.33,-156.36 461.33,-156.36 465.17,-156.36 469,-160.19 469,-164.02 469,-164.02 469,-171.69 469,-171.69 469,-175.52 465.17,-179.36 461.33,-179.36"/>
<text text-anchor="middle" x="392.5" y="-164.16" font-family="Arial" font-size="14.00" fill="#c6c5fe">inputs/InputFirstRow.ts</text>
</g>
<!-- inputs/InputFirstRow.ts&#45;&gt;HexagonSection.ts -->
<g id="edge5" class="edge">
<title>inputs/InputFirstRow.ts&#45;&gt;HexagonSection.ts</title>
<path fill="none" stroke="#757575" d="M469.24,-163.24C525.81,-158.55 604.65,-149.38 672,-131.86 694.91,-125.9 719.62,-116.05 738.74,-107.61"/>
<polygon fill="#757575" stroke="#757575" points="740.24,-110.78 747.92,-103.49 737.37,-104.4 740.24,-110.78"/>
</g>
<!-- inputs/InputFirstRow.ts&#45;&gt;inputs/InputBase.ts -->
<g id="edge6" class="edge">
<title>inputs/InputFirstRow.ts&#45;&gt;inputs/InputBase.ts</title>
<path fill="none" stroke="#757575" d="M469.06,-157.81C481.26,-155.19 493.61,-151.92 505,-147.86 532.24,-138.13 560.82,-121.49 580.51,-108.87"/>
<polygon fill="#757575" stroke="#757575" points="582.44,-111.79 588.9,-103.39 578.61,-105.93 582.44,-111.79"/>
</g>
<!-- inputs/InputGap.ts -->
<g id="node10" class="node">
<title>inputs/InputGap.ts</title>
<path fill="none" stroke="#c6c5fe" d="M226.33,-26.36C226.33,-26.36 114.67,-26.36 114.67,-26.36 110.83,-26.36 107,-22.52 107,-18.69 107,-18.69 107,-11.02 107,-11.02 107,-7.19 110.83,-3.36 114.67,-3.36 114.67,-3.36 226.33,-3.36 226.33,-3.36 230.17,-3.36 234,-7.19 234,-11.02 234,-11.02 234,-18.69 234,-18.69 234,-22.52 230.17,-26.36 226.33,-26.36"/>
<text text-anchor="middle" x="170.5" y="-11.16" font-family="Arial" font-size="14.00" fill="#c6c5fe">inputs/InputGap.ts</text>
</g>
<!-- inputs/InputGap.ts&#45;&gt;HexagonSection.ts -->
<g id="edge7" class="edge">
<title>inputs/InputGap.ts&#45;&gt;HexagonSection.ts</title>
<path fill="none" stroke="#757575" d="M234,-7.46C330.78,1.67 521.45,10.31 672,-40.86 697.65,-49.57 724.92,-63.86 744.5,-75.09"/>
<polygon fill="#757575" stroke="#757575" points="742.78,-78.15 753.18,-80.17 746.31,-72.1 742.78,-78.15"/>
</g>
<!-- inputs/InputRoot.ts -->
<g id="node11" class="node">
<title>inputs/InputRoot.ts</title>
<path fill="none" stroke="#c6c5fe" d="M449.33,-42.36C449.33,-42.36 335.67,-42.36 335.67,-42.36 331.83,-42.36 328,-38.52 328,-34.69 328,-34.69 328,-27.02 328,-27.02 328,-23.19 331.83,-19.36 335.67,-19.36 335.67,-19.36 449.33,-19.36 449.33,-19.36 453.17,-19.36 457,-23.19 457,-27.02 457,-27.02 457,-34.69 457,-34.69 457,-38.52 453.17,-42.36 449.33,-42.36"/>
<text text-anchor="middle" x="392.5" y="-27.16" font-family="Arial" font-size="14.00" fill="#c6c5fe">inputs/InputRoot.ts</text>
</g>
<!-- inputs/InputGap.ts&#45;&gt;inputs/InputRoot.ts -->
<g id="edge8" class="edge">
<title>inputs/InputGap.ts&#45;&gt;inputs/InputRoot.ts</title>
<path fill="none" stroke="#757575" d="M234.25,-19.42C260.26,-21.31 290.63,-23.52 317.71,-25.49"/>
<polygon fill="#757575" stroke="#757575" points="317.68,-29 327.9,-26.23 318.18,-22.01 317.68,-29"/>
</g>
<!-- inputs/InputRoot.ts&#45;&gt;HexagonSection.ts -->
<g id="edge13" class="edge">
<title>inputs/InputRoot.ts&#45;&gt;HexagonSection.ts</title>
<path fill="none" stroke="#757575" d="M457.26,-35.58C514,-40.45 599.04,-49.41 672,-63.86 689.89,-67.4 709.25,-72.51 726.13,-77.4"/>
<polygon fill="#757575" stroke="#757575" points="725.17,-80.77 735.76,-80.24 727.16,-74.06 725.17,-80.77"/>
</g>
<!-- inputs/InputRoot.ts&#45;&gt;inputs/InputBase.ts -->
<g id="edge14" class="edge">
<title>inputs/InputRoot.ts&#45;&gt;inputs/InputBase.ts</title>
<path fill="none" stroke="#757575" d="M433.87,-42.47C468.5,-52.44 518.54,-66.83 555.65,-77.51"/>
<polygon fill="#757575" stroke="#757575" points="554.7,-80.88 565.28,-80.28 556.63,-74.15 554.7,-80.88"/>
</g>
<!-- inputs/InputMediaQuery.ts -->
<g id="node12" class="node">
<title>inputs/InputMediaQuery.ts</title>
<path fill="none" stroke="#c6c5fe" d="M472.33,-138.36C472.33,-138.36 312.67,-138.36 312.67,-138.36 308.83,-138.36 305,-134.52 305,-130.69 305,-130.69 305,-123.02 305,-123.02 305,-119.19 308.83,-115.36 312.67,-115.36 312.67,-115.36 472.33,-115.36 472.33,-115.36 476.17,-115.36 480,-119.19 480,-123.02 480,-123.02 480,-130.69 480,-130.69 480,-134.52 476.17,-138.36 472.33,-138.36"/>
<text text-anchor="middle" x="392.5" y="-123.16" font-family="Arial" font-size="14.00" fill="#c6c5fe">inputs/InputMediaQuery.ts</text>
</g>
<!-- inputs/InputMediaQuery.ts&#45;&gt;HexagonSection.ts -->
<g id="edge9" class="edge">
<title>inputs/InputMediaQuery.ts&#45;&gt;HexagonSection.ts</title>
<path fill="none" stroke="#757575" d="M480.04,-125.39C535.16,-123.67 607.99,-119.94 672,-111.86 684.95,-110.22 698.73,-107.87 711.79,-105.35"/>
<polygon fill="#757575" stroke="#757575" points="712.49,-108.78 721.62,-103.4 711.13,-101.91 712.49,-108.78"/>
</g>
<!-- inputs/InputMediaQuery.ts&#45;&gt;inputs/InputBase.ts -->
<g id="edge10" class="edge">
<title>inputs/InputMediaQuery.ts&#45;&gt;inputs/InputBase.ts</title>
<path fill="none" stroke="#757575" d="M463.21,-115.35C484.87,-111.77 508.84,-107.81 530.83,-104.18"/>
<polygon fill="#757575" stroke="#757575" points="531.48,-107.62 540.77,-102.54 530.34,-100.72 531.48,-107.62"/>
</g>
<!-- inputs/InputNumberOfHexagons.ts -->
<g id="node13" class="node">
<title>inputs/InputNumberOfHexagons.ts</title>
<path fill="none" stroke="#c6c5fe" d="M497.33,-97.36C497.33,-97.36 287.67,-97.36 287.67,-97.36 283.83,-97.36 280,-93.52 280,-89.69 280,-89.69 280,-82.02 280,-82.02 280,-78.19 283.83,-74.36 287.67,-74.36 287.67,-74.36 497.33,-74.36 497.33,-74.36 501.17,-74.36 505,-78.19 505,-82.02 505,-82.02 505,-89.69 505,-89.69 505,-93.52 501.17,-97.36 497.33,-97.36"/>
<text text-anchor="middle" x="392.5" y="-82.16" font-family="Arial" font-size="14.00" fill="#c6c5fe">inputs/InputNumberOfHexagons.ts</text>
</g>
<!-- inputs/InputNumberOfHexagons.ts&#45;&gt;HexagonSection.ts -->
<g id="edge11" class="edge">
<title>inputs/InputNumberOfHexagons.ts&#45;&gt;HexagonSection.ts</title>
<path fill="none" stroke="#757575" d="M478.69,-74.35C533.91,-68.59 607.34,-64.14 672,-70.86 686.77,-72.39 702.57,-75.16 717.14,-78.21"/>
<polygon fill="#757575" stroke="#757575" points="716.5,-81.65 727.01,-80.34 717.98,-74.81 716.5,-81.65"/>
</g>
<!-- inputs/InputNumberOfHexagons.ts&#45;&gt;inputs/InputBase.ts -->
<g id="edge12" class="edge">
<title>inputs/InputNumberOfHexagons.ts&#45;&gt;inputs/InputBase.ts</title>
<path fill="none" stroke="#757575" d="M505.09,-89.01C513.81,-89.26 522.48,-89.51 530.87,-89.74"/>
<polygon fill="#757575" stroke="#757575" points="530.84,-93.24 540.94,-90.03 531.04,-86.25 530.84,-93.24"/>
</g>
<!-- main.ts -->
<g id="node14" class="node">
<title>main.ts</title>
<path fill="none" stroke="#c6c5fe" d="M53.33,-180.36C53.33,-180.36 7.67,-180.36 7.67,-180.36 3.83,-180.36 0,-176.52 0,-172.69 0,-172.69 0,-165.02 0,-165.02 0,-161.19 3.83,-157.36 7.67,-157.36 7.67,-157.36 53.33,-157.36 53.33,-157.36 57.17,-157.36 61,-161.19 61,-165.02 61,-165.02 61,-172.69 61,-172.69 61,-176.52 57.17,-180.36 53.33,-180.36"/>
<text text-anchor="middle" x="30.5" y="-165.16" font-family="Arial" font-size="14.00" fill="#c6c5fe">main.ts</text>
</g>
<!-- main.ts&#45;&gt;HexagonSection.ts -->
<g id="edge15" class="edge">
<title>main.ts&#45;&gt;HexagonSection.ts</title>
<path fill="none" stroke="#757575" d="M61.04,-175.44C154.78,-194.89 452.26,-245.35 672,-156.86 701.11,-145.13 730.81,-124.51 750.19,-109.63"/>
<polygon fill="#757575" stroke="#757575" points="752.36,-112.37 758.08,-103.45 748.05,-106.86 752.36,-112.37"/>
</g>
<!-- main.ts&#45;&gt;htmlElements.ts -->
<g id="edge16" class="edge">
<title>main.ts&#45;&gt;htmlElements.ts</title>
<path fill="none" stroke="#757575" d="M35.83,-180.41C44.27,-201.33 64.97,-245.5 97,-268.86 99.25,-270.49 101.62,-272 104.09,-273.38"/>
<polygon fill="#757575" stroke="#757575" points="102.82,-276.66 113.35,-277.86 105.87,-270.35 102.82,-276.66"/>
</g>
<!-- main.ts&#45;&gt;inputs/CSSButton.ts -->
<g id="edge17" class="edge">
<title>main.ts&#45;&gt;inputs/CSSButton.ts</title>
<path fill="none" stroke="#757575" d="M33.54,-180.73C38.83,-207.87 55.59,-274.8 97,-309.86 98.34,-310.99 99.73,-312.05 101.17,-313.06"/>
<polygon fill="#757575" stroke="#757575" points="99.52,-316.15 109.91,-318.2 103.07,-310.11 99.52,-316.15"/>
</g>
<!-- main.ts&#45;&gt;inputs/HTMLButton.ts -->
<g id="edge18" class="edge">
<title>main.ts&#45;&gt;inputs/HTMLButton.ts</title>
<path fill="none" stroke="#757575" d="M43.62,-180.79C56.11,-192.55 76.6,-210.38 97,-221.86 104.21,-225.91 112.17,-229.52 120.09,-232.67"/>
<polygon fill="#757575" stroke="#757575" points="119.09,-236.04 129.69,-236.28 121.56,-229.48 119.09,-236.04"/>
</g>
<!-- main.ts&#45;&gt;inputs/InputFirstRow.ts -->
<g id="edge19" class="edge">
<title>main.ts&#45;&gt;inputs/InputFirstRow.ts</title>
<path fill="none" stroke="#757575" d="M61.27,-168.77C114.23,-168.63 226.66,-168.31 305.56,-168.09"/>
<polygon fill="#757575" stroke="#757575" points="305.99,-171.59 315.98,-168.07 305.97,-164.59 305.99,-171.59"/>
</g>
<!-- main.ts&#45;&gt;inputs/InputGap.ts -->
<g id="edge20" class="edge">
<title>main.ts&#45;&gt;inputs/InputGap.ts</title>
<path fill="none" stroke="#757575" d="M34.35,-157.15C41,-132.21 59.88,-73.49 97,-40.86 101.44,-36.95 106.51,-33.62 111.85,-30.79"/>
<polygon fill="#757575" stroke="#757575" points="113.5,-33.88 121.05,-26.46 110.52,-27.55 113.5,-33.88"/>
</g>
<!-- main.ts&#45;&gt;inputs/InputRoot.ts -->
<g id="edge23" class="edge">
<title>main.ts&#45;&gt;inputs/InputRoot.ts</title>
<path fill="none" stroke="#757575" d="M39.83,-157.13C51.08,-142.2 72.55,-116.68 97,-102.86 165.9,-63.91 255.48,-45.87 317.66,-37.62"/>
<polygon fill="#757575" stroke="#757575" points="318.3,-41.07 327.78,-36.33 317.42,-34.12 318.3,-41.07"/>
</g>
<!-- main.ts&#45;&gt;inputs/InputMediaQuery.ts -->
<g id="edge21" class="edge">
<title>main.ts&#45;&gt;inputs/InputMediaQuery.ts</title>
<path fill="none" stroke="#757575" d="M61.27,-165.38C111.81,-159.49 216.52,-147.27 294.55,-138.17"/>
<polygon fill="#757575" stroke="#757575" points="295.37,-141.6 304.89,-136.96 294.55,-134.64 295.37,-141.6"/>
</g>
<!-- main.ts&#45;&gt;inputs/InputNumberOfHexagons.ts -->
<g id="edge22" class="edge">
<title>main.ts&#45;&gt;inputs/InputNumberOfHexagons.ts</title>
<path fill="none" stroke="#757575" d="M54.04,-157.31C66.44,-151.36 82.27,-144.42 97,-139.86 158.6,-120.78 229.65,-107.52 286.53,-98.91"/>
<polygon fill="#757575" stroke="#757575" points="287.24,-102.34 296.62,-97.4 286.21,-95.41 287.24,-102.34"/>
</g>
</g>
</svg>
