<?xml version="1.0" encoding="UTF-8" standalone="no"?>
<!DOCTYPE svg PUBLIC "-//W3C//DTD SVG 1.1//EN"
 "http://www.w3.org/Graphics/SVG/1.1/DTD/svg11.dtd">
<!-- Generated by graphviz version 2.43.0 (0)
 -->
<!-- Title: G Pages: 1 -->
<svg width="764pt" height="387pt"
 viewBox="0.00 0.00 764.20 387.20" xmlns="http://www.w3.org/2000/svg" xmlns:xlink="http://www.w3.org/1999/xlink">
<g id="graph0" class="graph" transform="scale(1 1) rotate(0) translate(21.6 365.6)">
<title>G</title>
<polygon fill="#111111" stroke="transparent" points="-21.6,21.6 -21.6,-365.6 742.6,-365.6 742.6,21.6 -21.6,21.6"/>
<!-- entities/CSSButton.ts -->
<g id="node1" class="node">
<title>entities/CSSButton.ts</title>
<path fill="none" stroke="#c6c5fe" d="M277.33,-344C277.33,-344 148.67,-344 148.67,-344 144.83,-344 141,-340.17 141,-336.33 141,-336.33 141,-328.67 141,-328.67 141,-324.83 144.83,-321 148.67,-321 148.67,-321 277.33,-321 277.33,-321 281.17,-321 285,-324.83 285,-328.67 285,-328.67 285,-336.33 285,-336.33 285,-340.17 281.17,-344 277.33,-344"/>
<text text-anchor="middle" x="213" y="-328.8" font-family="Arial" font-size="14.00" fill="#c6c5fe">entities/CSSButton.ts</text>
</g>
<!-- lib/textCSS.ts -->
<g id="node2" class="node">
<title>lib/textCSS.ts</title>
<path fill="none" stroke="#c6c5fe" d="M497.33,-344C497.33,-344 414.67,-344 414.67,-344 410.83,-344 407,-340.17 407,-336.33 407,-336.33 407,-328.67 407,-328.67 407,-324.83 410.83,-321 414.67,-321 414.67,-321 497.33,-321 497.33,-321 501.17,-321 505,-324.83 505,-328.67 505,-328.67 505,-336.33 505,-336.33 505,-340.17 501.17,-344 497.33,-344"/>
<text text-anchor="middle" x="456" y="-328.8" font-family="Arial" font-size="14.00" fill="#c6c5fe">lib/textCSS.ts</text>
</g>
<!-- entities/CSSButton.ts&#45;&gt;lib/textCSS.ts -->
<g id="edge1" class="edge">
<title>entities/CSSButton.ts&#45;&gt;lib/textCSS.ts</title>
<path fill="none" stroke="#757575" d="M285,-332.5C320.61,-332.5 363.2,-332.5 396.85,-332.5"/>
<polygon fill="#757575" stroke="#757575" points="396.98,-336 406.98,-332.5 396.98,-329 396.98,-336"/>
</g>
<!-- lib/utils.ts -->
<g id="node14" class="node">
<title>lib/utils.ts</title>
<path fill="none" stroke="#cfffac" d="M680.33,-344C680.33,-344 623.67,-344 623.67,-344 619.83,-344 616,-340.17 616,-336.33 616,-336.33 616,-328.67 616,-328.67 616,-324.83 619.83,-321 623.67,-321 623.67,-321 680.33,-321 680.33,-321 684.17,-321 688,-324.83 688,-328.67 688,-328.67 688,-336.33 688,-336.33 688,-340.17 684.17,-344 680.33,-344"/>
<text text-anchor="middle" x="652" y="-328.8" font-family="Arial" font-size="14.00" fill="#cfffac">lib/utils.ts</text>
</g>
<!-- lib/textCSS.ts&#45;&gt;lib/utils.ts -->
<g id="edge9" class="edge">
<title>lib/textCSS.ts&#45;&gt;lib/utils.ts</title>
<path fill="none" stroke="#757575" d="M505.45,-332.5C536.17,-332.5 575.65,-332.5 605.73,-332.5"/>
<polygon fill="#757575" stroke="#757575" points="605.95,-336 615.95,-332.5 605.95,-329 605.95,-336"/>
</g>
<!-- entities/HTMLButton.ts -->
<g id="node3" class="node">
<title>entities/HTMLButton.ts</title>
<path fill="none" stroke="#c6c5fe" d="M282.33,-303C282.33,-303 143.67,-303 143.67,-303 139.83,-303 136,-299.17 136,-295.33 136,-295.33 136,-287.67 136,-287.67 136,-283.83 139.83,-280 143.67,-280 143.67,-280 282.33,-280 282.33,-280 286.17,-280 290,-283.83 290,-287.67 290,-287.67 290,-295.33 290,-295.33 290,-299.17 286.17,-303 282.33,-303"/>
<text text-anchor="middle" x="213" y="-287.8" font-family="Arial" font-size="14.00" fill="#c6c5fe">entities/HTMLButton.ts</text>
</g>
<!-- lib/textHTML.ts -->
<g id="node4" class="node">
<title>lib/textHTML.ts</title>
<path fill="none" stroke="#cfffac" d="M501.83,-303C501.83,-303 410.17,-303 410.17,-303 406.33,-303 402.5,-299.17 402.5,-295.33 402.5,-295.33 402.5,-287.67 402.5,-287.67 402.5,-283.83 406.33,-280 410.17,-280 410.17,-280 501.83,-280 501.83,-280 505.67,-280 509.5,-283.83 509.5,-287.67 509.5,-287.67 509.5,-295.33 509.5,-295.33 509.5,-299.17 505.67,-303 501.83,-303"/>
<text text-anchor="middle" x="456" y="-287.8" font-family="Arial" font-size="14.00" fill="#cfffac">lib/textHTML.ts</text>
</g>
<!-- entities/HTMLButton.ts&#45;&gt;lib/textHTML.ts -->
<g id="edge2" class="edge">
<title>entities/HTMLButton.ts&#45;&gt;lib/textHTML.ts</title>
<path fill="none" stroke="#757575" d="M290.25,-291.5C323.09,-291.5 361.01,-291.5 392.19,-291.5"/>
<polygon fill="#757575" stroke="#757575" points="392.48,-295 402.48,-291.5 392.48,-288 392.48,-295"/>
</g>
<!-- entities/HexagonSection.ts -->
<g id="node5" class="node">
<title>entities/HexagonSection.ts</title>
<path fill="none" stroke="#c6c5fe" d="M293.33,-262C293.33,-262 132.67,-262 132.67,-262 128.83,-262 125,-258.17 125,-254.33 125,-254.33 125,-246.67 125,-246.67 125,-242.83 128.83,-239 132.67,-239 132.67,-239 293.33,-239 293.33,-239 297.17,-239 301,-242.83 301,-246.67 301,-246.67 301,-254.33 301,-254.33 301,-258.17 297.17,-262 293.33,-262"/>
<text text-anchor="middle" x="213" y="-246.8" font-family="Arial" font-size="14.00" fill="#c6c5fe">entities/HexagonSection.ts</text>
</g>
<!-- lib/generateHexagons.ts -->
<g id="node6" class="node">
<title>lib/generateHexagons.ts</title>
<path fill="none" stroke="#cfffac" d="M529.33,-262C529.33,-262 382.67,-262 382.67,-262 378.83,-262 375,-258.17 375,-254.33 375,-254.33 375,-246.67 375,-246.67 375,-242.83 378.83,-239 382.67,-239 382.67,-239 529.33,-239 529.33,-239 533.17,-239 537,-242.83 537,-246.67 537,-246.67 537,-254.33 537,-254.33 537,-258.17 533.17,-262 529.33,-262"/>
<text text-anchor="middle" x="456" y="-246.8" font-family="Arial" font-size="14.00" fill="#cfffac">lib/generateHexagons.ts</text>
</g>
<!-- entities/HexagonSection.ts&#45;&gt;lib/generateHexagons.ts -->
<g id="edge3" class="edge">
<title>entities/HexagonSection.ts&#45;&gt;lib/generateHexagons.ts</title>
<path fill="none" stroke="#757575" d="M301.01,-250.5C321.75,-250.5 343.92,-250.5 364.8,-250.5"/>
<polygon fill="#757575" stroke="#757575" points="364.94,-254 374.94,-250.5 364.94,-247 364.94,-254"/>
</g>
<!-- entities/InputBase.ts -->
<g id="node7" class="node">
<title>entities/InputBase.ts</title>
<path fill="none" stroke="#cfffac" d="M713.33,-125C713.33,-125 590.67,-125 590.67,-125 586.83,-125 583,-121.17 583,-117.33 583,-117.33 583,-109.67 583,-109.67 583,-105.83 586.83,-102 590.67,-102 590.67,-102 713.33,-102 713.33,-102 717.17,-102 721,-105.83 721,-109.67 721,-109.67 721,-117.33 721,-117.33 721,-121.17 717.17,-125 713.33,-125"/>
<text text-anchor="middle" x="652" y="-109.8" font-family="Arial" font-size="14.00" fill="#cfffac">entities/InputBase.ts</text>
</g>
<!-- entities/InputFirstRow.ts -->
<g id="node8" class="node">
<title>entities/InputFirstRow.ts</title>
<path fill="none" stroke="#c6c5fe" d="M528.33,-204C528.33,-204 383.67,-204 383.67,-204 379.83,-204 376,-200.17 376,-196.33 376,-196.33 376,-188.67 376,-188.67 376,-184.83 379.83,-181 383.67,-181 383.67,-181 528.33,-181 528.33,-181 532.17,-181 536,-184.83 536,-188.67 536,-188.67 536,-196.33 536,-196.33 536,-200.17 532.17,-204 528.33,-204"/>
<text text-anchor="middle" x="456" y="-188.8" font-family="Arial" font-size="14.00" fill="#c6c5fe">entities/InputFirstRow.ts</text>
</g>
<!-- entities/InputFirstRow.ts&#45;&gt;entities/InputBase.ts -->
<g id="edge4" class="edge">
<title>entities/InputFirstRow.ts&#45;&gt;entities/InputBase.ts</title>
<path fill="none" stroke="#757575" d="M485.63,-180.84C519.39,-167.09 575.65,-144.18 613.03,-128.96"/>
<polygon fill="#757575" stroke="#757575" points="614.63,-132.09 622.57,-125.08 611.99,-125.61 614.63,-132.09"/>
</g>
<!-- entities/InputGap.ts -->
<g id="node9" class="node">
<title>entities/InputGap.ts</title>
<path fill="none" stroke="#c6c5fe" d="M272.33,-182C272.33,-182 153.67,-182 153.67,-182 149.83,-182 146,-178.17 146,-174.33 146,-174.33 146,-166.67 146,-166.67 146,-162.83 149.83,-159 153.67,-159 153.67,-159 272.33,-159 272.33,-159 276.17,-159 280,-162.83 280,-166.67 280,-166.67 280,-174.33 280,-174.33 280,-178.17 276.17,-182 272.33,-182"/>
<text text-anchor="middle" x="213" y="-166.8" font-family="Arial" font-size="14.00" fill="#c6c5fe">entities/InputGap.ts</text>
</g>
<!-- entities/InputRoot.ts -->
<g id="node10" class="node">
<title>entities/InputRoot.ts</title>
<path fill="none" stroke="#c6c5fe" d="M516.33,-145C516.33,-145 395.67,-145 395.67,-145 391.83,-145 388,-141.17 388,-137.33 388,-137.33 388,-129.67 388,-129.67 388,-125.83 391.83,-122 395.67,-122 395.67,-122 516.33,-122 516.33,-122 520.17,-122 524,-125.83 524,-129.67 524,-129.67 524,-137.33 524,-137.33 524,-141.17 520.17,-145 516.33,-145"/>
<text text-anchor="middle" x="456" y="-129.8" font-family="Arial" font-size="14.00" fill="#c6c5fe">entities/InputRoot.ts</text>
</g>
<!-- entities/InputGap.ts&#45;&gt;entities/InputRoot.ts -->
<g id="edge5" class="edge">
<title>entities/InputGap.ts&#45;&gt;entities/InputRoot.ts</title>
<path fill="none" stroke="#757575" d="M280.17,-160.34C310.35,-155.71 346.28,-150.19 377.69,-145.37"/>
<polygon fill="#757575" stroke="#757575" points="378.36,-148.81 387.72,-143.83 377.3,-141.89 378.36,-148.81"/>
</g>
<!-- entities/InputRoot.ts&#45;&gt;entities/InputBase.ts -->
<g id="edge8" class="edge">
<title>entities/InputRoot.ts&#45;&gt;entities/InputBase.ts</title>
<path fill="none" stroke="#757575" d="M524.04,-126.59C539.82,-124.96 556.77,-123.21 572.99,-121.54"/>
<polygon fill="#757575" stroke="#757575" points="573.39,-125.02 582.97,-120.51 572.67,-118.06 573.39,-125.02"/>
</g>
<!-- entities/InputMediaQuery.ts -->
<g id="node11" class="node">
<title>entities/InputMediaQuery.ts</title>
<path fill="none" stroke="#c6c5fe" d="M539.33,-104C539.33,-104 372.67,-104 372.67,-104 368.83,-104 365,-100.17 365,-96.33 365,-96.33 365,-88.67 365,-88.67 365,-84.83 368.83,-81 372.67,-81 372.67,-81 539.33,-81 539.33,-81 543.17,-81 547,-84.83 547,-88.67 547,-88.67 547,-96.33 547,-96.33 547,-100.17 543.17,-104 539.33,-104"/>
<text text-anchor="middle" x="456" y="-88.8" font-family="Arial" font-size="14.00" fill="#c6c5fe">entities/InputMediaQuery.ts</text>
</g>
<!-- entities/InputMediaQuery.ts&#45;&gt;entities/InputBase.ts -->
<g id="edge6" class="edge">
<title>entities/InputMediaQuery.ts&#45;&gt;entities/InputBase.ts</title>
<path fill="none" stroke="#757575" d="M547.18,-102.26C555.7,-103.18 564.28,-104.11 572.67,-105.02"/>
<polygon fill="#757575" stroke="#757575" points="572.47,-108.52 582.79,-106.12 573.22,-101.56 572.47,-108.52"/>
</g>
<!-- entities/InputNumberOfHexagons.ts -->
<g id="node12" class="node">
<title>entities/InputNumberOfHexagons.ts</title>
<path fill="none" stroke="#c6c5fe" d="M321.33,-64C321.33,-64 104.67,-64 104.67,-64 100.83,-64 97,-60.17 97,-56.33 97,-56.33 97,-48.67 97,-48.67 97,-44.83 100.83,-41 104.67,-41 104.67,-41 321.33,-41 321.33,-41 325.17,-41 329,-44.83 329,-48.67 329,-48.67 329,-56.33 329,-56.33 329,-60.17 325.17,-64 321.33,-64"/>
<text text-anchor="middle" x="213" y="-48.8" font-family="Arial" font-size="14.00" fill="#c6c5fe">entities/InputNumberOfHexagons.ts</text>
</g>
<!-- entities/InputNumberOfHexagons.ts&#45;&gt;entities/InputBase.ts -->
<g id="edge7" class="edge">
<title>entities/InputNumberOfHexagons.ts&#45;&gt;entities/InputBase.ts</title>
<path fill="none" stroke="#757575" d="M329.32,-49.88C394.02,-50.7 475.8,-55.55 547,-71.5 572.26,-77.16 599.33,-88.27 619.52,-97.64"/>
<polygon fill="#757575" stroke="#757575" points="618.03,-100.8 628.56,-101.93 621.03,-94.48 618.03,-100.8"/>
</g>
<!-- lib/htmlElements.ts -->
<g id="node13" class="node">
<title>lib/htmlElements.ts</title>
<path fill="none" stroke="#cfffac" d="M270.83,-23C270.83,-23 155.17,-23 155.17,-23 151.33,-23 147.5,-19.17 147.5,-15.33 147.5,-15.33 147.5,-7.67 147.5,-7.67 147.5,-3.83 151.33,0 155.17,0 155.17,0 270.83,0 270.83,0 274.67,0 278.5,-3.83 278.5,-7.67 278.5,-7.67 278.5,-15.33 278.5,-15.33 278.5,-19.17 274.67,-23 270.83,-23"/>
<text text-anchor="middle" x="213" y="-7.8" font-family="Arial" font-size="14.00" fill="#cfffac">lib/htmlElements.ts</text>
</g>
<!-- main.ts -->
<g id="node15" class="node">
<title>main.ts</title>
<path fill="none" stroke="#c6c5fe" d="M53.33,-182C53.33,-182 7.67,-182 7.67,-182 3.83,-182 0,-178.17 0,-174.33 0,-174.33 0,-166.67 0,-166.67 0,-162.83 3.83,-159 7.67,-159 7.67,-159 53.33,-159 53.33,-159 57.17,-159 61,-162.83 61,-166.67 61,-166.67 61,-174.33 61,-174.33 61,-178.17 57.17,-182 53.33,-182"/>
<text text-anchor="middle" x="30.5" y="-166.8" font-family="Arial" font-size="14.00" fill="#c6c5fe">main.ts</text>
</g>
<!-- main.ts&#45;&gt;entities/CSSButton.ts -->
<g id="edge10" class="edge">
<title>main.ts&#45;&gt;entities/CSSButton.ts</title>
<path fill="none" stroke="#757575" d="M33.21,-182.33C37.88,-209.99 53.52,-279.08 97,-312.5 106.95,-320.15 118.82,-325.27 131.1,-328.63"/>
<polygon fill="#757575" stroke="#757575" points="130.46,-332.08 141,-330.97 132.07,-325.27 130.46,-332.08"/>
</g>
<!-- main.ts&#45;&gt;entities/HTMLButton.ts -->
<g id="edge11" class="edge">
<title>main.ts&#45;&gt;entities/HTMLButton.ts</title>
<path fill="none" stroke="#757575" d="M35.46,-182.13C43.42,-203.63 63.52,-249.38 97,-271.5 105.78,-277.3 115.72,-281.57 126,-284.69"/>
<polygon fill="#757575" stroke="#757575" points="125.37,-288.14 135.93,-287.34 127.18,-281.38 125.37,-288.14"/>
</g>
<!-- main.ts&#45;&gt;entities/HexagonSection.ts -->
<g id="edge12" class="edge">
<title>main.ts&#45;&gt;entities/HexagonSection.ts</title>
<path fill="none" stroke="#757575" d="M42.39,-182.29C54.52,-194.69 75.3,-213.86 97,-224.5 106.57,-229.19 117,-233.05 127.55,-236.22"/>
<polygon fill="#757575" stroke="#757575" points="126.68,-239.61 137.25,-238.94 128.57,-232.87 126.68,-239.61"/>
</g>
<!-- main.ts&#45;&gt;entities/InputFirstRow.ts -->
<g id="edge13" class="edge">
<title>main.ts&#45;&gt;entities/InputFirstRow.ts</title>
<path fill="none" stroke="#757575" d="M61.03,-182.09C72.13,-185.88 84.97,-189.6 97,-191.5 187.74,-205.82 293.03,-203.94 365.83,-199.79"/>
<polygon fill="#757575" stroke="#757575" points="366.11,-203.28 375.88,-199.19 365.69,-196.29 366.11,-203.28"/>
</g>
<!-- main.ts&#45;&gt;entities/InputGap.ts -->
<g id="edge14" class="edge">
<title>main.ts&#45;&gt;entities/InputGap.ts</title>
<path fill="none" stroke="#757575" d="M61.31,-170.5C81.55,-170.5 109.3,-170.5 135.47,-170.5"/>
<polygon fill="#757575" stroke="#757575" points="135.79,-174 145.79,-170.5 135.79,-167 135.79,-174"/>
</g>
<!-- main.ts&#45;&gt;entities/InputRoot.ts -->
<g id="edge17" class="edge">
<title>main.ts&#45;&gt;entities/InputRoot.ts</title>
<path fill="none" stroke="#757575" d="M61.12,-159.75C72.23,-156.17 85.05,-152.57 97,-150.5 192.73,-133.88 304.88,-131.21 377.79,-131.66"/>
<polygon fill="#757575" stroke="#757575" points="377.79,-135.16 387.82,-131.74 377.85,-128.16 377.79,-135.16"/>
</g>
<!-- main.ts&#45;&gt;entities/InputMediaQuery.ts -->
<g id="edge15" class="edge">
<title>main.ts&#45;&gt;entities/InputMediaQuery.ts</title>
<path fill="none" stroke="#757575" d="M45,-158.78C57.55,-148.62 77.24,-134.47 97,-127.5 180.52,-98.03 281.38,-90.47 354.73,-89.59"/>
<polygon fill="#757575" stroke="#757575" points="354.93,-93.09 364.9,-89.51 354.87,-86.09 354.93,-93.09"/>
</g>
<!-- main.ts&#45;&gt;entities/InputNumberOfHexagons.ts -->
<g id="edge16" class="edge">
<title>main.ts&#45;&gt;entities/InputNumberOfHexagons.ts</title>
<path fill="none" stroke="#757575" d="M36.41,-158.8C45.37,-138.97 66.31,-98.92 97,-78.5 103.47,-74.19 110.55,-70.59 117.92,-67.58"/>
<polygon fill="#757575" stroke="#757575" points="119.22,-70.83 127.38,-64.08 116.79,-64.27 119.22,-70.83"/>
</g>
<!-- main.ts&#45;&gt;lib/htmlElements.ts -->
<g id="edge18" class="edge">
<title>main.ts&#45;&gt;lib/htmlElements.ts</title>
<path fill="none" stroke="#757575" d="M33.29,-158.92C38.14,-131.83 54.14,-64.17 97,-31.5 108.65,-22.62 122.9,-17.16 137.34,-13.89"/>
<polygon fill="#757575" stroke="#757575" points="138.19,-17.3 147.35,-11.97 136.86,-10.42 138.19,-17.3"/>
</g>
</g>
</svg>
