<?xml version="1.0" encoding="UTF-8" standalone="no"?>
<!DOCTYPE svg PUBLIC "-//W3C//DTD SVG 1.1//EN"
 "http://www.w3.org/Graphics/SVG/1.1/DTD/svg11.dtd">
<!-- Generated by graphviz version 2.43.0 (0)
 -->
<!-- Title: G Pages: 1 -->
<svg width="1412pt" height="878pt"
 viewBox="0.00 0.00 1412.20 878.33" xmlns="http://www.w3.org/2000/svg" xmlns:xlink="http://www.w3.org/1999/xlink">
<g id="graph0" class="graph" transform="scale(1 1) rotate(0) translate(21.6 856.73)">
<title>G</title>
<polygon fill="#111111" stroke="transparent" points="-21.6,21.6 -21.6,-856.73 1390.6,-856.73 1390.6,21.6 -21.6,21.6"/>
<!-- display/constants.ts -->
<g id="node1" class="node">
<title>display/constants.ts</title>
<path fill="none" stroke="#cfffac" d="M1148.83,-524.8C1148.83,-524.8 1030.17,-524.8 1030.17,-524.8 1026.33,-524.8 1022.5,-520.97 1022.5,-517.13 1022.5,-517.13 1022.5,-509.47 1022.5,-509.47 1022.5,-505.63 1026.33,-501.8 1030.17,-501.8 1030.17,-501.8 1148.83,-501.8 1148.83,-501.8 1152.67,-501.8 1156.5,-505.63 1156.5,-509.47 1156.5,-509.47 1156.5,-517.13 1156.5,-517.13 1156.5,-520.97 1152.67,-524.8 1148.83,-524.8"/>
<text text-anchor="middle" x="1089.5" y="-509.6" font-family="Arial" font-size="14.00" fill="#cfffac">display/constants.ts</text>
</g>
<!-- display/css/background.css.ts -->
<g id="node2" class="node">
<title>display/css/background.css.ts</title>
<path fill="none" stroke="#cfffac" d="M664.83,-644.8C664.83,-644.8 485.17,-644.8 485.17,-644.8 481.33,-644.8 477.5,-640.97 477.5,-637.13 477.5,-637.13 477.5,-629.47 477.5,-629.47 477.5,-625.63 481.33,-621.8 485.17,-621.8 485.17,-621.8 664.83,-621.8 664.83,-621.8 668.67,-621.8 672.5,-625.63 672.5,-629.47 672.5,-629.47 672.5,-637.13 672.5,-637.13 672.5,-640.97 668.67,-644.8 664.83,-644.8"/>
<text text-anchor="middle" x="575" y="-629.6" font-family="Arial" font-size="14.00" fill="#cfffac">display/css/background.css.ts</text>
</g>
<!-- display/css/basicHexagon.css.ts -->
<g id="node3" class="node">
<title>display/css/basicHexagon.css.ts</title>
<path fill="none" stroke="#cfffac" d="M941.83,-710.8C941.83,-710.8 747.17,-710.8 747.17,-710.8 743.33,-710.8 739.5,-706.97 739.5,-703.13 739.5,-703.13 739.5,-695.47 739.5,-695.47 739.5,-691.63 743.33,-687.8 747.17,-687.8 747.17,-687.8 941.83,-687.8 941.83,-687.8 945.67,-687.8 949.5,-691.63 949.5,-695.47 949.5,-695.47 949.5,-703.13 949.5,-703.13 949.5,-706.97 945.67,-710.8 941.83,-710.8"/>
<text text-anchor="middle" x="844.5" y="-695.6" font-family="Arial" font-size="14.00" fill="#cfffac">display/css/basicHexagon.css.ts</text>
</g>
<!-- display/css/container.css.ts -->
<g id="node4" class="node">
<title>display/css/container.css.ts</title>
<path fill="none" stroke="#cfffac" d="M656.83,-603.8C656.83,-603.8 493.17,-603.8 493.17,-603.8 489.33,-603.8 485.5,-599.97 485.5,-596.13 485.5,-596.13 485.5,-588.47 485.5,-588.47 485.5,-584.63 489.33,-580.8 493.17,-580.8 493.17,-580.8 656.83,-580.8 656.83,-580.8 660.67,-580.8 664.5,-584.63 664.5,-588.47 664.5,-588.47 664.5,-596.13 664.5,-596.13 664.5,-599.97 660.67,-603.8 656.83,-603.8"/>
<text text-anchor="middle" x="575" y="-588.6" font-family="Arial" font-size="14.00" fill="#cfffac">display/css/container.css.ts</text>
</g>
<!-- display/css/innerHexagon.css.ts -->
<g id="node5" class="node">
<title>display/css/innerHexagon.css.ts</title>
<path fill="none" stroke="#c6c5fe" d="M671.83,-726.8C671.83,-726.8 478.17,-726.8 478.17,-726.8 474.33,-726.8 470.5,-722.97 470.5,-719.13 470.5,-719.13 470.5,-711.47 470.5,-711.47 470.5,-707.63 474.33,-703.8 478.17,-703.8 478.17,-703.8 671.83,-703.8 671.83,-703.8 675.67,-703.8 679.5,-707.63 679.5,-711.47 679.5,-711.47 679.5,-719.13 679.5,-719.13 679.5,-722.97 675.67,-726.8 671.83,-726.8"/>
<text text-anchor="middle" x="575" y="-711.6" font-family="Arial" font-size="14.00" fill="#c6c5fe">display/css/innerHexagon.css.ts</text>
</g>
<!-- display/css/innerHexagon.css.ts&#45;&gt;display/css/basicHexagon.css.ts -->
<g id="edge1" class="edge">
<title>display/css/innerHexagon.css.ts&#45;&gt;display/css/basicHexagon.css.ts</title>
<path fill="none" stroke="#757575" d="M679.81,-709.09C695.98,-708.12 712.77,-707.12 729.17,-706.14"/>
<polygon fill="#757575" stroke="#757575" points="729.54,-709.62 739.31,-705.53 729.12,-702.64 729.54,-709.62"/>
</g>
<!-- display/css/mediaQueries.css.ts -->
<g id="node6" class="node">
<title>display/css/mediaQueries.css.ts</title>
<path fill="none" stroke="#c6c5fe" d="M672.33,-562.8C672.33,-562.8 477.67,-562.8 477.67,-562.8 473.83,-562.8 470,-558.97 470,-555.13 470,-555.13 470,-547.47 470,-547.47 470,-543.63 473.83,-539.8 477.67,-539.8 477.67,-539.8 672.33,-539.8 672.33,-539.8 676.17,-539.8 680,-543.63 680,-547.47 680,-547.47 680,-555.13 680,-555.13 680,-558.97 676.17,-562.8 672.33,-562.8"/>
<text text-anchor="middle" x="575" y="-547.6" font-family="Arial" font-size="14.00" fill="#c6c5fe">display/css/mediaQueries.css.ts</text>
</g>
<!-- display/css/mediaQuery.css.ts -->
<g id="node7" class="node">
<title>display/css/mediaQuery.css.ts</title>
<path fill="none" stroke="#c6c5fe" d="M936.33,-544.8C936.33,-544.8 752.67,-544.8 752.67,-544.8 748.83,-544.8 745,-540.97 745,-537.13 745,-537.13 745,-529.47 745,-529.47 745,-525.63 748.83,-521.8 752.67,-521.8 752.67,-521.8 936.33,-521.8 936.33,-521.8 940.17,-521.8 944,-525.63 944,-529.47 944,-529.47 944,-537.13 944,-537.13 944,-540.97 940.17,-544.8 936.33,-544.8"/>
<text text-anchor="middle" x="844.5" y="-529.6" font-family="Arial" font-size="14.00" fill="#c6c5fe">display/css/mediaQuery.css.ts</text>
</g>
<!-- display/css/mediaQueries.css.ts&#45;&gt;display/css/mediaQuery.css.ts -->
<g id="edge2" class="edge">
<title>display/css/mediaQueries.css.ts&#45;&gt;display/css/mediaQuery.css.ts</title>
<path fill="none" stroke="#757575" d="M680.19,-544.29C698.05,-543.09 716.66,-541.84 734.64,-540.62"/>
<polygon fill="#757575" stroke="#757575" points="735.11,-544.1 744.85,-539.94 734.64,-537.12 735.11,-544.1"/>
</g>
<!-- display/css/mediaQuery.css.ts&#45;&gt;display/constants.ts -->
<g id="edge3" class="edge">
<title>display/css/mediaQuery.css.ts&#45;&gt;display/constants.ts</title>
<path fill="none" stroke="#757575" d="M944.34,-525.17C967.02,-523.3 990.8,-521.34 1012.36,-519.57"/>
<polygon fill="#757575" stroke="#757575" points="1012.74,-523.05 1022.42,-518.74 1012.17,-516.07 1012.74,-523.05"/>
</g>
<!-- logic/utils.ts -->
<g id="node8" class="node">
<title>logic/utils.ts</title>
<path fill="none" stroke="#cfffac" d="M1124.83,-618.8C1124.83,-618.8 1054.17,-618.8 1054.17,-618.8 1050.33,-618.8 1046.5,-614.97 1046.5,-611.13 1046.5,-611.13 1046.5,-603.47 1046.5,-603.47 1046.5,-599.63 1050.33,-595.8 1054.17,-595.8 1054.17,-595.8 1124.83,-595.8 1124.83,-595.8 1128.67,-595.8 1132.5,-599.63 1132.5,-603.47 1132.5,-603.47 1132.5,-611.13 1132.5,-611.13 1132.5,-614.97 1128.67,-618.8 1124.83,-618.8"/>
<text text-anchor="middle" x="1089.5" y="-603.6" font-family="Arial" font-size="14.00" fill="#cfffac">logic/utils.ts</text>
</g>
<!-- display/css/mediaQuery.css.ts&#45;&gt;logic/utils.ts -->
<g id="edge4" class="edge">
<title>display/css/mediaQuery.css.ts&#45;&gt;logic/utils.ts</title>
<path fill="none" stroke="#757575" d="M914.6,-544.87C933.7,-548.75 954.32,-553.57 973,-559.3 1001.34,-567.99 1032.29,-581.06 1055.02,-591.37"/>
<polygon fill="#757575" stroke="#757575" points="1053.67,-594.6 1064.22,-595.59 1056.6,-588.24 1053.67,-594.6"/>
</g>
<!-- display/css/outerHexagon.css.ts -->
<g id="node9" class="node">
<title>display/css/outerHexagon.css.ts</title>
<path fill="none" stroke="#c6c5fe" d="M671.83,-685.8C671.83,-685.8 478.17,-685.8 478.17,-685.8 474.33,-685.8 470.5,-681.97 470.5,-678.13 470.5,-678.13 470.5,-670.47 470.5,-670.47 470.5,-666.63 474.33,-662.8 478.17,-662.8 478.17,-662.8 671.83,-662.8 671.83,-662.8 675.67,-662.8 679.5,-666.63 679.5,-670.47 679.5,-670.47 679.5,-678.13 679.5,-678.13 679.5,-681.97 675.67,-685.8 671.83,-685.8"/>
<text text-anchor="middle" x="575" y="-670.6" font-family="Arial" font-size="14.00" fill="#c6c5fe">display/css/outerHexagon.css.ts</text>
</g>
<!-- display/css/outerHexagon.css.ts&#45;&gt;display/constants.ts -->
<g id="edge5" class="edge">
<title>display/css/outerHexagon.css.ts&#45;&gt;display/constants.ts</title>
<path fill="none" stroke="#757575" d="M667.17,-662.73C671.8,-660.1 676.13,-656.98 680,-653.3 726.88,-608.74 664.92,-551.98 716,-512.3 813.76,-436.37 973.57,-474.54 1047.99,-498.64"/>
<polygon fill="#757575" stroke="#757575" points="1046.89,-501.96 1057.49,-501.79 1049.1,-495.32 1046.89,-501.96"/>
</g>
<!-- display/css/outerHexagon.css.ts&#45;&gt;display/css/basicHexagon.css.ts -->
<g id="edge6" class="edge">
<title>display/css/outerHexagon.css.ts&#45;&gt;display/css/basicHexagon.css.ts</title>
<path fill="none" stroke="#757575" d="M679.81,-684C695.98,-685.51 712.77,-687.08 729.17,-688.61"/>
<polygon fill="#757575" stroke="#757575" points="729.03,-692.12 739.31,-689.56 729.68,-685.15 729.03,-692.12"/>
</g>
<!-- display/css/outerHexagon.css.ts&#45;&gt;logic/utils.ts -->
<g id="edge7" class="edge">
<title>display/css/outerHexagon.css.ts&#45;&gt;logic/utils.ts</title>
<path fill="none" stroke="#757575" d="M664.1,-662.78C771.33,-648.76 948.88,-625.55 1036.42,-614.11"/>
<polygon fill="#757575" stroke="#757575" points="1036.92,-617.57 1046.39,-612.81 1036.02,-610.63 1036.92,-617.57"/>
</g>
<!-- display/css/text.css.ts -->
<g id="node10" class="node">
<title>display/css/text.css.ts</title>
<path fill="none" stroke="#c6c5fe" d="M400.83,-623.8C400.83,-623.8 270.17,-623.8 270.17,-623.8 266.33,-623.8 262.5,-619.97 262.5,-616.13 262.5,-616.13 262.5,-608.47 262.5,-608.47 262.5,-604.63 266.33,-600.8 270.17,-600.8 270.17,-600.8 400.83,-600.8 400.83,-600.8 404.67,-600.8 408.5,-604.63 408.5,-608.47 408.5,-608.47 408.5,-616.13 408.5,-616.13 408.5,-619.97 404.67,-623.8 400.83,-623.8"/>
<text text-anchor="middle" x="335.5" y="-608.6" font-family="Arial" font-size="14.00" fill="#c6c5fe">display/css/text.css.ts</text>
</g>
<!-- display/css/text.css.ts&#45;&gt;display/css/background.css.ts -->
<g id="edge8" class="edge">
<title>display/css/text.css.ts&#45;&gt;display/css/background.css.ts</title>
<path fill="none" stroke="#757575" d="M408.73,-618.69C427.17,-620.32 447.4,-622.11 467.18,-623.85"/>
<polygon fill="#757575" stroke="#757575" points="466.88,-627.34 477.15,-624.74 467.5,-620.37 466.88,-627.34"/>
</g>
<!-- display/css/text.css.ts&#45;&gt;display/css/container.css.ts -->
<g id="edge9" class="edge">
<title>display/css/text.css.ts&#45;&gt;display/css/container.css.ts</title>
<path fill="none" stroke="#757575" d="M408.73,-606.22C429.67,-604.45 452.91,-602.5 475.19,-600.62"/>
<polygon fill="#757575" stroke="#757575" points="475.68,-604.09 485.35,-599.77 475.09,-597.12 475.68,-604.09"/>
</g>
<!-- display/css/text.css.ts&#45;&gt;display/css/innerHexagon.css.ts -->
<g id="edge10" class="edge">
<title>display/css/text.css.ts&#45;&gt;display/css/innerHexagon.css.ts</title>
<path fill="none" stroke="#757575" d="M354.56,-623.88C388.11,-645.33 457.79,-689.49 470,-694.3 476.6,-696.9 483.56,-699.19 490.64,-701.21"/>
<polygon fill="#757575" stroke="#757575" points="489.76,-704.6 500.33,-703.79 491.57,-697.83 489.76,-704.6"/>
</g>
<!-- display/css/text.css.ts&#45;&gt;display/css/mediaQueries.css.ts -->
<g id="edge11" class="edge">
<title>display/css/text.css.ts&#45;&gt;display/css/mediaQueries.css.ts</title>
<path fill="none" stroke="#757575" d="M370.51,-600.74C397.32,-591.9 435.77,-579.82 470,-571.3 479.14,-569.03 488.78,-566.86 498.36,-564.85"/>
<polygon fill="#757575" stroke="#757575" points="499.2,-568.25 508.3,-562.82 497.8,-561.39 499.2,-568.25"/>
</g>
<!-- display/css/text.css.ts&#45;&gt;display/css/outerHexagon.css.ts -->
<g id="edge12" class="edge">
<title>display/css/text.css.ts&#45;&gt;display/css/outerHexagon.css.ts</title>
<path fill="none" stroke="#757575" d="M370.81,-623.86C397.62,-632.64 435.92,-644.65 470,-653.3 480.15,-655.88 490.92,-658.34 501.53,-660.62"/>
<polygon fill="#757575" stroke="#757575" points="501.12,-664.11 511.63,-662.75 502.57,-657.26 501.12,-664.11"/>
</g>
<!-- logic/types.ts -->
<g id="node11" class="node">
<title>logic/types.ts</title>
<path fill="none" stroke="#cfffac" d="M884.33,-427.8C884.33,-427.8 804.67,-427.8 804.67,-427.8 800.83,-427.8 797,-423.97 797,-420.13 797,-420.13 797,-412.47 797,-412.47 797,-408.63 800.83,-404.8 804.67,-404.8 804.67,-404.8 884.33,-404.8 884.33,-404.8 888.17,-404.8 892,-408.63 892,-412.47 892,-412.47 892,-420.13 892,-420.13 892,-423.97 888.17,-427.8 884.33,-427.8"/>
<text text-anchor="middle" x="844.5" y="-412.6" font-family="Arial" font-size="14.00" fill="#cfffac">logic/types.ts</text>
</g>
<!-- display/css/text.css.ts&#45;&gt;logic/types.ts -->
<g id="edge13" class="edge">
<title>display/css/text.css.ts&#45;&gt;logic/types.ts</title>
<path fill="none" stroke="#757575" d="M355.21,-600.78C391.78,-578.26 469.23,-530.6 470,-530.3 558.6,-495.75 592.41,-526.32 680,-489.3 697.94,-481.72 698.75,-473.36 716,-464.3 741.4,-450.96 771.35,-439.49 795.84,-431.11"/>
<polygon fill="#757575" stroke="#757575" points="797.26,-434.32 805.62,-427.82 795.03,-427.69 797.26,-434.32"/>
</g>
<!-- display/hexagon.html.ts -->
<g id="node12" class="node">
<title>display/hexagon.html.ts</title>
<path fill="none" stroke="#c6c5fe" d="M406.83,-543.8C406.83,-543.8 264.17,-543.8 264.17,-543.8 260.33,-543.8 256.5,-539.97 256.5,-536.13 256.5,-536.13 256.5,-528.47 256.5,-528.47 256.5,-524.63 260.33,-520.8 264.17,-520.8 264.17,-520.8 406.83,-520.8 406.83,-520.8 410.67,-520.8 414.5,-524.63 414.5,-528.47 414.5,-528.47 414.5,-536.13 414.5,-536.13 414.5,-539.97 410.67,-543.8 406.83,-543.8"/>
<text text-anchor="middle" x="335.5" y="-528.6" font-family="Arial" font-size="14.00" fill="#c6c5fe">display/hexagon.html.ts</text>
</g>
<!-- display/hexagon.html.ts&#45;&gt;logic/types.ts -->
<g id="edge14" class="edge">
<title>display/hexagon.html.ts&#45;&gt;logic/types.ts</title>
<path fill="none" stroke="#757575" d="M378.77,-520.72C404.97,-513.67 439.36,-504.64 470,-497.3 581.86,-470.52 713.48,-442.87 786.82,-427.8"/>
<polygon fill="#757575" stroke="#757575" points="787.68,-431.2 796.77,-425.76 786.27,-424.34 787.68,-431.2"/>
</g>
<!-- display/hexagons/hexagon.ts -->
<g id="node13" class="node">
<title>display/hexagons/hexagon.ts</title>
<path fill="none" stroke="#cfffac" d="M662.83,-767.8C662.83,-767.8 487.17,-767.8 487.17,-767.8 483.33,-767.8 479.5,-763.97 479.5,-760.13 479.5,-760.13 479.5,-752.47 479.5,-752.47 479.5,-748.63 483.33,-744.8 487.17,-744.8 487.17,-744.8 662.83,-744.8 662.83,-744.8 666.67,-744.8 670.5,-748.63 670.5,-752.47 670.5,-752.47 670.5,-760.13 670.5,-760.13 670.5,-763.97 666.67,-767.8 662.83,-767.8"/>
<text text-anchor="middle" x="575" y="-752.6" font-family="Arial" font-size="14.00" fill="#cfffac">display/hexagons/hexagon.ts</text>
</g>
<!-- display/hexagons/hexagons.ts -->
<g id="node14" class="node">
<title>display/hexagons/hexagons.ts</title>
<path fill="none" stroke="#c6c5fe" d="M426.33,-706.8C426.33,-706.8 244.67,-706.8 244.67,-706.8 240.83,-706.8 237,-702.97 237,-699.13 237,-699.13 237,-691.47 237,-691.47 237,-687.63 240.83,-683.8 244.67,-683.8 244.67,-683.8 426.33,-683.8 426.33,-683.8 430.17,-683.8 434,-687.63 434,-691.47 434,-691.47 434,-699.13 434,-699.13 434,-702.97 430.17,-706.8 426.33,-706.8"/>
<text text-anchor="middle" x="335.5" y="-691.6" font-family="Arial" font-size="14.00" fill="#c6c5fe">display/hexagons/hexagons.ts</text>
</g>
<!-- display/hexagons/hexagons.ts&#45;&gt;display/hexagons/hexagon.ts -->
<g id="edge15" class="edge">
<title>display/hexagons/hexagons.ts&#45;&gt;display/hexagons/hexagon.ts</title>
<path fill="none" stroke="#757575" d="M371.67,-706.8C398.45,-715.32 436.32,-726.87 470,-735.3 480.4,-737.9 491.44,-740.41 502.3,-742.72"/>
<polygon fill="#757575" stroke="#757575" points="501.69,-746.17 512.2,-744.79 503.13,-739.32 501.69,-746.17"/>
</g>
<!-- logic/display.ts -->
<g id="node15" class="node">
<title>logic/display.ts</title>
<path fill="none" stroke="#c6c5fe" d="M193.33,-543.8C193.33,-543.8 104.67,-543.8 104.67,-543.8 100.83,-543.8 97,-539.97 97,-536.13 97,-536.13 97,-528.47 97,-528.47 97,-524.63 100.83,-520.8 104.67,-520.8 104.67,-520.8 193.33,-520.8 193.33,-520.8 197.17,-520.8 201,-524.63 201,-528.47 201,-528.47 201,-536.13 201,-536.13 201,-539.97 197.17,-543.8 193.33,-543.8"/>
<text text-anchor="middle" x="149" y="-528.6" font-family="Arial" font-size="14.00" fill="#c6c5fe">logic/display.ts</text>
</g>
<!-- logic/display.ts&#45;&gt;logic/utils.ts -->
<g id="edge16" class="edge">
<title>logic/display.ts&#45;&gt;logic/utils.ts</title>
<path fill="none" stroke="#757575" d="M189.05,-520.79C203.92,-516.96 221.11,-513.19 237,-511.3 323.94,-500.96 346.51,-507.93 434,-511.3 543.58,-515.53 576,-495.51 680,-530.3 698.01,-536.32 698.21,-546.68 716,-553.3 824.86,-593.81 962.14,-604.1 1035.89,-606.6"/>
<polygon fill="#757575" stroke="#757575" points="1036.2,-610.11 1046.3,-606.92 1036.41,-603.12 1036.2,-610.11"/>
</g>
<!-- logic/inputs/InputBase.ts -->
<g id="node16" class="node">
<title>logic/inputs/InputBase.ts</title>
<path fill="none" stroke="#ff6c60" d="M1361.33,-196.8C1361.33,-196.8 1213.67,-196.8 1213.67,-196.8 1209.83,-196.8 1206,-192.97 1206,-189.13 1206,-189.13 1206,-181.47 1206,-181.47 1206,-177.63 1209.83,-173.8 1213.67,-173.8 1213.67,-173.8 1361.33,-173.8 1361.33,-173.8 1365.17,-173.8 1369,-177.63 1369,-181.47 1369,-181.47 1369,-189.13 1369,-189.13 1369,-192.97 1365.17,-196.8 1361.33,-196.8"/>
<text text-anchor="middle" x="1287.5" y="-181.6" font-family="Arial" font-size="14.00" fill="#ff6c60">logic/inputs/InputBase.ts</text>
</g>
<!-- logic/main.ts -->
<g id="node17" class="node">
<title>logic/main.ts</title>
<path fill="none" stroke="#ff6c60" d="M187.33,-623.8C187.33,-623.8 110.67,-623.8 110.67,-623.8 106.83,-623.8 103,-619.97 103,-616.13 103,-616.13 103,-608.47 103,-608.47 103,-604.63 106.83,-600.8 110.67,-600.8 110.67,-600.8 187.33,-600.8 187.33,-600.8 191.17,-600.8 195,-604.63 195,-608.47 195,-608.47 195,-616.13 195,-616.13 195,-619.97 191.17,-623.8 187.33,-623.8"/>
<text text-anchor="middle" x="149" y="-608.6" font-family="Arial" font-size="14.00" fill="#ff6c60">logic/main.ts</text>
</g>
<!-- logic/inputs/InputBase.ts&#45;&gt;logic/main.ts -->
<g id="edge17" class="edge">
<title>logic/inputs/InputBase.ts&#45;&gt;logic/main.ts</title>
<path fill="none" stroke="#757575" d="M1286.19,-197.04C1284.24,-251.12 1270.15,-479.96 1170,-627.3 1073.83,-768.78 1016.57,-834.3 845.5,-834.3 574,-834.3 574,-834.3 574,-834.3 420.36,-834.3 361.37,-847.5 237,-757.3 193.66,-725.86 167.91,-665.62 156.69,-633.58"/>
<polygon fill="#757575" stroke="#757575" points="159.94,-632.24 153.44,-623.87 153.3,-634.47 159.94,-632.24"/>
</g>
<!-- logic/main.ts&#45;&gt;logic/utils.ts -->
<g id="edge49" class="edge">
<title>logic/main.ts&#45;&gt;logic/utils.ts</title>
<path fill="none" stroke="#757575" d="M156.48,-623.88C169.08,-645.34 199.04,-691.25 237,-715.3 327.52,-772.65 363.75,-763.4 470,-777.3 693.14,-806.48 773.68,-823.76 973,-719.3 1016.15,-696.68 1054.12,-652.89 1073.94,-627.28"/>
<polygon fill="#757575" stroke="#757575" points="1076.93,-629.13 1080.17,-619.04 1071.34,-624.9 1076.93,-629.13"/>
</g>
<!-- logic/main.ts&#45;&gt;display/css/text.css.ts -->
<g id="edge45" class="edge">
<title>logic/main.ts&#45;&gt;display/css/text.css.ts</title>
<path fill="none" stroke="#757575" d="M195.13,-612.3C212.3,-612.3 232.45,-612.3 252.01,-612.3"/>
<polygon fill="#757575" stroke="#757575" points="252.16,-615.8 262.16,-612.3 252.16,-608.8 252.16,-615.8"/>
</g>
<!-- logic/main.ts&#45;&gt;display/hexagon.html.ts -->
<g id="edge46" class="edge">
<title>logic/main.ts&#45;&gt;display/hexagon.html.ts</title>
<path fill="none" stroke="#757575" d="M176.83,-600.67C208.89,-586.76 262.68,-563.44 298.38,-547.96"/>
<polygon fill="#757575" stroke="#757575" points="300.16,-551.01 307.94,-543.82 297.37,-544.58 300.16,-551.01"/>
</g>
<!-- logic/main.ts&#45;&gt;display/hexagons/hexagons.ts -->
<g id="edge47" class="edge">
<title>logic/main.ts&#45;&gt;display/hexagons/hexagons.ts</title>
<path fill="none" stroke="#757575" d="M175.65,-623.84C207.92,-638.36 263.46,-663.34 299.58,-679.59"/>
<polygon fill="#757575" stroke="#757575" points="298.21,-682.81 308.77,-683.72 301.08,-676.43 298.21,-682.81"/>
</g>
<!-- logic/inputs/inputElements.ts -->
<g id="node25" class="node">
<title>logic/inputs/inputElements.ts</title>
<path fill="none" stroke="#ff6c60" d="M421.83,-275.8C421.83,-275.8 249.17,-275.8 249.17,-275.8 245.33,-275.8 241.5,-271.97 241.5,-268.13 241.5,-268.13 241.5,-260.47 241.5,-260.47 241.5,-256.63 245.33,-252.8 249.17,-252.8 249.17,-252.8 421.83,-252.8 421.83,-252.8 425.67,-252.8 429.5,-256.63 429.5,-260.47 429.5,-260.47 429.5,-268.13 429.5,-268.13 429.5,-271.97 425.67,-275.8 421.83,-275.8"/>
<text text-anchor="middle" x="335.5" y="-260.6" font-family="Arial" font-size="14.00" fill="#ff6c60">logic/inputs/inputElements.ts</text>
</g>
<!-- logic/main.ts&#45;&gt;logic/inputs/inputElements.ts -->
<g id="edge48" class="edge">
<title>logic/main.ts&#45;&gt;logic/inputs/inputElements.ts</title>
<path fill="none" stroke="#757575" d="M161.58,-600.65C172.66,-589.08 189.36,-570.49 201,-552.3 260.78,-458.89 309.07,-334.38 326.99,-285.38"/>
<polygon fill="#757575" stroke="#757575" points="330.33,-286.45 330.44,-275.85 323.75,-284.06 330.33,-286.45"/>
</g>
<!-- logic/inputs/InputFirstRow.ts -->
<g id="node18" class="node">
<title>logic/inputs/InputFirstRow.ts</title>
<path fill="none" stroke="#ff6c60" d="M929.33,-216.8C929.33,-216.8 759.67,-216.8 759.67,-216.8 755.83,-216.8 752,-212.97 752,-209.13 752,-209.13 752,-201.47 752,-201.47 752,-197.63 755.83,-193.8 759.67,-193.8 759.67,-193.8 929.33,-193.8 929.33,-193.8 933.17,-193.8 937,-197.63 937,-201.47 937,-201.47 937,-209.13 937,-209.13 937,-212.97 933.17,-216.8 929.33,-216.8"/>
<text text-anchor="middle" x="844.5" y="-201.6" font-family="Arial" font-size="14.00" fill="#ff6c60">logic/inputs/InputFirstRow.ts</text>
</g>
<!-- logic/inputs/InputFirstRow.ts&#45;&gt;logic/inputs/InputBase.ts -->
<g id="edge18" class="edge">
<title>logic/inputs/InputFirstRow.ts&#45;&gt;logic/inputs/InputBase.ts</title>
<path fill="none" stroke="#757575" d="M937.14,-201.14C1012.82,-197.71 1119.71,-192.86 1195.27,-189.44"/>
<polygon fill="#757575" stroke="#757575" points="1195.89,-192.91 1205.72,-188.96 1195.57,-185.92 1195.89,-192.91"/>
</g>
<!-- logic/inputs/InputGap.ts -->
<g id="node19" class="node">
<title>logic/inputs/InputGap.ts</title>
<path fill="none" stroke="#ff6c60" d="M915.83,-136.8C915.83,-136.8 773.17,-136.8 773.17,-136.8 769.33,-136.8 765.5,-132.97 765.5,-129.13 765.5,-129.13 765.5,-121.47 765.5,-121.47 765.5,-117.63 769.33,-113.8 773.17,-113.8 773.17,-113.8 915.83,-113.8 915.83,-113.8 919.67,-113.8 923.5,-117.63 923.5,-121.47 923.5,-121.47 923.5,-129.13 923.5,-129.13 923.5,-132.97 919.67,-136.8 915.83,-136.8"/>
<text text-anchor="middle" x="844.5" y="-121.6" font-family="Arial" font-size="14.00" fill="#ff6c60">logic/inputs/InputGap.ts</text>
</g>
<!-- logic/inputs/InputGap.ts&#45;&gt;logic/inputs/InputBase.ts -->
<g id="edge19" class="edge">
<title>logic/inputs/InputGap.ts&#45;&gt;logic/inputs/InputBase.ts</title>
<path fill="none" stroke="#757575" d="M923.65,-123.79C989.87,-123.96 1087.01,-127.61 1170,-144.3 1197.83,-149.9 1228.04,-160.67 1250.72,-169.77"/>
<polygon fill="#757575" stroke="#757575" points="1249.68,-173.13 1260.26,-173.68 1252.33,-166.65 1249.68,-173.13"/>
</g>
<!-- logic/inputs/InputRoot.ts -->
<g id="node20" class="node">
<title>logic/inputs/InputRoot.ts</title>
<path fill="none" stroke="#ff6c60" d="M1162.33,-176.8C1162.33,-176.8 1016.67,-176.8 1016.67,-176.8 1012.83,-176.8 1009,-172.97 1009,-169.13 1009,-169.13 1009,-161.47 1009,-161.47 1009,-157.63 1012.83,-153.8 1016.67,-153.8 1016.67,-153.8 1162.33,-153.8 1162.33,-153.8 1166.17,-153.8 1170,-157.63 1170,-161.47 1170,-161.47 1170,-169.13 1170,-169.13 1170,-172.97 1166.17,-176.8 1162.33,-176.8"/>
<text text-anchor="middle" x="1089.5" y="-161.6" font-family="Arial" font-size="14.00" fill="#ff6c60">logic/inputs/InputRoot.ts</text>
</g>
<!-- logic/inputs/InputGap.ts&#45;&gt;logic/inputs/InputRoot.ts -->
<g id="edge20" class="edge">
<title>logic/inputs/InputGap.ts&#45;&gt;logic/inputs/InputRoot.ts</title>
<path fill="none" stroke="#757575" d="M915.46,-136.82C944.56,-141.61 978.5,-147.19 1008.57,-152.14"/>
<polygon fill="#757575" stroke="#757575" points="1008.18,-155.63 1018.61,-153.8 1009.31,-148.72 1008.18,-155.63"/>
</g>
<!-- logic/inputs/InputRoot.ts&#45;&gt;logic/inputs/InputBase.ts -->
<g id="edge23" class="edge">
<title>logic/inputs/InputRoot.ts&#45;&gt;logic/inputs/InputBase.ts</title>
<path fill="none" stroke="#757575" d="M1170.22,-173.43C1178.68,-174.3 1187.32,-175.18 1195.89,-176.05"/>
<polygon fill="#757575" stroke="#757575" points="1195.59,-179.54 1205.9,-177.07 1196.3,-172.58 1195.59,-179.54"/>
</g>
<!-- logic/inputs/InputMediaQuery.ts -->
<g id="node21" class="node">
<title>logic/inputs/InputMediaQuery.ts</title>
<path fill="none" stroke="#ff6c60" d="M939.83,-95.8C939.83,-95.8 749.17,-95.8 749.17,-95.8 745.33,-95.8 741.5,-91.97 741.5,-88.13 741.5,-88.13 741.5,-80.47 741.5,-80.47 741.5,-76.63 745.33,-72.8 749.17,-72.8 749.17,-72.8 939.83,-72.8 939.83,-72.8 943.67,-72.8 947.5,-76.63 947.5,-80.47 947.5,-80.47 947.5,-88.13 947.5,-88.13 947.5,-91.97 943.67,-95.8 939.83,-95.8"/>
<text text-anchor="middle" x="844.5" y="-80.6" font-family="Arial" font-size="14.00" fill="#ff6c60">logic/inputs/InputMediaQuery.ts</text>
</g>
<!-- logic/inputs/InputMediaQuery.ts&#45;&gt;logic/inputs/InputBase.ts -->
<g id="edge21" class="edge">
<title>logic/inputs/InputMediaQuery.ts&#45;&gt;logic/inputs/InputBase.ts</title>
<path fill="none" stroke="#757575" d="M947.7,-86.4C1012.65,-90.12 1097.8,-99.48 1170,-122.3 1203.68,-132.95 1238.89,-153.5 1261.66,-168.24"/>
<polygon fill="#757575" stroke="#757575" points="1259.77,-171.18 1270.04,-173.76 1263.62,-165.33 1259.77,-171.18"/>
</g>
<!-- logic/inputs/InputNumberOfHexagons.ts -->
<g id="node22" class="node">
<title>logic/inputs/InputNumberOfHexagons.ts</title>
<path fill="none" stroke="#ff6c60" d="M965.33,-334.8C965.33,-334.8 723.67,-334.8 723.67,-334.8 719.83,-334.8 716,-330.97 716,-327.13 716,-327.13 716,-319.47 716,-319.47 716,-315.63 719.83,-311.8 723.67,-311.8 723.67,-311.8 965.33,-311.8 965.33,-311.8 969.17,-311.8 973,-315.63 973,-319.47 973,-319.47 973,-327.13 973,-327.13 973,-330.97 969.17,-334.8 965.33,-334.8"/>
<text text-anchor="middle" x="844.5" y="-319.6" font-family="Arial" font-size="14.00" fill="#ff6c60">logic/inputs/InputNumberOfHexagons.ts</text>
</g>
<!-- logic/inputs/InputNumberOfHexagons.ts&#45;&gt;logic/inputs/InputBase.ts -->
<g id="edge22" class="edge">
<title>logic/inputs/InputNumberOfHexagons.ts&#45;&gt;logic/inputs/InputBase.ts</title>
<path fill="none" stroke="#757575" d="M956.56,-311.76C1020.63,-302.58 1101.75,-286.58 1170,-259.3 1205.16,-245.24 1241.3,-220.34 1263.82,-203.34"/>
<polygon fill="#757575" stroke="#757575" points="1266.23,-205.9 1272.03,-197.04 1261.97,-200.35 1266.23,-205.9"/>
</g>
<!-- logic/inputs/factory.ts -->
<g id="node23" class="node">
<title>logic/inputs/factory.ts</title>
<path fill="none" stroke="#ff6c60" d="M638.33,-216.8C638.33,-216.8 511.67,-216.8 511.67,-216.8 507.83,-216.8 504,-212.97 504,-209.13 504,-209.13 504,-201.47 504,-201.47 504,-197.63 507.83,-193.8 511.67,-193.8 511.67,-193.8 638.33,-193.8 638.33,-193.8 642.17,-193.8 646,-197.63 646,-201.47 646,-201.47 646,-209.13 646,-209.13 646,-212.97 642.17,-216.8 638.33,-216.8"/>
<text text-anchor="middle" x="575" y="-201.6" font-family="Arial" font-size="14.00" fill="#ff6c60">logic/inputs/factory.ts</text>
</g>
<!-- logic/inputs/factory.ts&#45;&gt;logic/types.ts -->
<g id="edge30" class="edge">
<title>logic/inputs/factory.ts&#45;&gt;logic/types.ts</title>
<path fill="none" stroke="#757575" d="M586.01,-217.05C607.86,-242.24 662.17,-302.45 716,-343.3 745.68,-365.82 783,-386.41 809.57,-399.93"/>
<polygon fill="#757575" stroke="#757575" points="808.34,-403.23 818.85,-404.59 811.48,-396.97 808.34,-403.23"/>
</g>
<!-- logic/inputs/factory.ts&#45;&gt;logic/inputs/InputBase.ts -->
<g id="edge24" class="edge">
<title>logic/inputs/factory.ts&#45;&gt;logic/inputs/InputBase.ts</title>
<path fill="none" stroke="#757575" d="M646.04,-216.24C673.77,-220.38 702.29,-224.33 716,-225.3 917.41,-239.61 970.07,-236.58 1170,-208.3 1187.75,-205.79 1206.88,-202.33 1224.4,-198.86"/>
<polygon fill="#757575" stroke="#757575" points="1225.4,-202.23 1234.51,-196.82 1224.02,-195.37 1225.4,-202.23"/>
</g>
<!-- logic/inputs/factory.ts&#45;&gt;logic/inputs/InputFirstRow.ts -->
<g id="edge25" class="edge">
<title>logic/inputs/factory.ts&#45;&gt;logic/inputs/InputFirstRow.ts</title>
<path fill="none" stroke="#757575" d="M646.28,-205.3C675.34,-205.3 709.59,-205.3 741.33,-205.3"/>
<polygon fill="#757575" stroke="#757575" points="741.54,-208.8 751.54,-205.3 741.54,-201.8 741.54,-208.8"/>
</g>
<!-- logic/inputs/factory.ts&#45;&gt;logic/inputs/InputGap.ts -->
<g id="edge26" class="edge">
<title>logic/inputs/factory.ts&#45;&gt;logic/inputs/InputGap.ts</title>
<path fill="none" stroke="#757575" d="M639.9,-193.78C653.51,-190.11 667.53,-185.37 680,-179.3 698.23,-170.43 697.58,-159.77 716,-151.3 728.3,-145.64 741.84,-141.21 755.35,-137.73"/>
<polygon fill="#757575" stroke="#757575" points="756.26,-141.11 765.17,-135.37 754.63,-134.31 756.26,-141.11"/>
</g>
<!-- logic/inputs/factory.ts&#45;&gt;logic/inputs/InputRoot.ts -->
<g id="edge29" class="edge">
<title>logic/inputs/factory.ts&#45;&gt;logic/inputs/InputRoot.ts</title>
<path fill="none" stroke="#757575" d="M643.84,-193.76C666.7,-190.23 692.4,-186.67 716,-184.3 812.15,-174.66 922.78,-169.8 998.34,-167.43"/>
<polygon fill="#757575" stroke="#757575" points="998.87,-170.91 1008.76,-167.11 998.66,-163.92 998.87,-170.91"/>
</g>
<!-- logic/inputs/factory.ts&#45;&gt;logic/inputs/InputMediaQuery.ts -->
<g id="edge27" class="edge">
<title>logic/inputs/factory.ts&#45;&gt;logic/inputs/InputMediaQuery.ts</title>
<path fill="none" stroke="#757575" d="M598.15,-193.77C619.94,-181.96 653.69,-162.37 680,-141.3 697.91,-126.96 695.62,-114.84 716,-104.3 720.98,-101.73 726.19,-99.46 731.56,-97.48"/>
<polygon fill="#757575" stroke="#757575" points="733,-100.69 741.37,-94.19 730.77,-94.05 733,-100.69"/>
</g>
<!-- logic/inputs/factory.ts&#45;&gt;logic/inputs/InputNumberOfHexagons.ts -->
<g id="edge28" class="edge">
<title>logic/inputs/factory.ts&#45;&gt;logic/inputs/InputNumberOfHexagons.ts</title>
<path fill="none" stroke="#757575" d="M602.14,-216.83C650.38,-238.11 753.46,-283.58 807.98,-307.63"/>
<polygon fill="#757575" stroke="#757575" points="806.7,-310.89 817.26,-311.72 809.52,-304.49 806.7,-310.89"/>
</g>
<!-- logic/inputs/index.ts -->
<g id="node24" class="node">
<title>logic/inputs/index.ts</title>
<path fill="none" stroke="#c6c5fe" d="M394.83,-62.8C394.83,-62.8 276.17,-62.8 276.17,-62.8 272.33,-62.8 268.5,-58.97 268.5,-55.13 268.5,-55.13 268.5,-47.47 268.5,-47.47 268.5,-43.63 272.33,-39.8 276.17,-39.8 276.17,-39.8 394.83,-39.8 394.83,-39.8 398.67,-39.8 402.5,-43.63 402.5,-47.47 402.5,-47.47 402.5,-55.13 402.5,-55.13 402.5,-58.97 398.67,-62.8 394.83,-62.8"/>
<text text-anchor="middle" x="335.5" y="-47.6" font-family="Arial" font-size="14.00" fill="#c6c5fe">logic/inputs/index.ts</text>
</g>
<!-- logic/inputs/index.ts&#45;&gt;logic/inputs/InputBase.ts -->
<g id="edge31" class="edge">
<title>logic/inputs/index.ts&#45;&gt;logic/inputs/InputBase.ts</title>
<path fill="none" stroke="#757575" d="M361.41,-39.66C387.73,-28.05 430.76,-11.01 470,-4.3 510.75,2.66 941.47,0.11 973,-6.3 1065.94,-25.2 1088.87,-39.19 1170,-88.3 1207.5,-111 1245.51,-145.22 1267.5,-166.36"/>
<polygon fill="#757575" stroke="#757575" points="1265.24,-169.04 1274.85,-173.51 1270.12,-164.03 1265.24,-169.04"/>
</g>
<!-- logic/inputs/index.ts&#45;&gt;logic/inputs/InputFirstRow.ts -->
<g id="edge32" class="edge">
<title>logic/inputs/index.ts&#45;&gt;logic/inputs/InputFirstRow.ts</title>
<path fill="none" stroke="#757575" d="M374.61,-62.87C465.56,-90.5 695.19,-160.25 795.44,-190.7"/>
<polygon fill="#757575" stroke="#757575" points="794.71,-194.14 805.3,-193.7 796.75,-187.44 794.71,-194.14"/>
</g>
<!-- logic/inputs/index.ts&#45;&gt;logic/inputs/InputGap.ts -->
<g id="edge33" class="edge">
<title>logic/inputs/index.ts&#45;&gt;logic/inputs/InputGap.ts</title>
<path fill="none" stroke="#757575" d="M402.67,-44.47C473.78,-39.71 588.87,-39.54 680,-75.3 699.13,-82.8 697.25,-95.91 716,-104.3 728.36,-109.83 741.98,-113.92 755.57,-116.94"/>
<polygon fill="#757575" stroke="#757575" points="754.95,-120.38 765.45,-118.96 756.35,-113.53 754.95,-120.38"/>
</g>
<!-- logic/inputs/index.ts&#45;&gt;logic/inputs/InputRoot.ts -->
<g id="edge36" class="edge">
<title>logic/inputs/index.ts&#45;&gt;logic/inputs/InputRoot.ts</title>
<path fill="none" stroke="#757575" d="M385.22,-39.79C495.7,-16.25 771.32,27.86 973,-63.3 1015.09,-82.32 1052.94,-122.08 1073.12,-145.95"/>
<polygon fill="#757575" stroke="#757575" points="1070.44,-148.19 1079.51,-153.67 1075.83,-143.73 1070.44,-148.19"/>
</g>
<!-- logic/inputs/index.ts&#45;&gt;logic/inputs/InputMediaQuery.ts -->
<g id="edge34" class="edge">
<title>logic/inputs/index.ts&#45;&gt;logic/inputs/InputMediaQuery.ts</title>
<path fill="none" stroke="#757575" d="M402.6,-42.99C424.06,-40.66 448.01,-38.45 470,-37.3 563.21,-32.43 587.58,-24.28 680,-37.3 723.07,-43.37 770.69,-58.01 803.38,-69.35"/>
<polygon fill="#757575" stroke="#757575" points="802.43,-72.72 813.02,-72.75 804.75,-66.12 802.43,-72.72"/>
</g>
<!-- logic/inputs/index.ts&#45;&gt;logic/inputs/InputNumberOfHexagons.ts -->
<g id="edge35" class="edge">
<title>logic/inputs/index.ts&#45;&gt;logic/inputs/InputNumberOfHexagons.ts</title>
<path fill="none" stroke="#757575" d="M342.09,-63.19C357.58,-94.84 404.35,-181.68 470,-225.3 541.87,-273.06 635.9,-297.56 711.63,-310.13"/>
<polygon fill="#757575" stroke="#757575" points="711.28,-313.62 721.71,-311.75 712.39,-306.71 711.28,-313.62"/>
</g>
<!-- logic/inputs/index.ts&#45;&gt;logic/inputs/factory.ts -->
<g id="edge37" class="edge">
<title>logic/inputs/index.ts&#45;&gt;logic/inputs/factory.ts</title>
<path fill="none" stroke="#757575" d="M354.35,-62.87C395.79,-89.74 498.67,-156.45 547.48,-188.11"/>
<polygon fill="#757575" stroke="#757575" points="545.65,-191.09 555.94,-193.59 549.46,-185.21 545.65,-191.09"/>
</g>
<!-- logic/inputs/inputElements.ts&#45;&gt;logic/types.ts -->
<g id="edge44" class="edge">
<title>logic/inputs/inputElements.ts&#45;&gt;logic/types.ts</title>
<path fill="none" stroke="#757575" d="M348.97,-275.98C371.31,-296.18 420.47,-337.37 470,-357.3 576.44,-400.13 711.64,-411.98 786.71,-415.19"/>
<polygon fill="#757575" stroke="#757575" points="786.77,-418.69 796.9,-415.58 787.04,-411.7 786.77,-418.69"/>
</g>
<!-- logic/inputs/inputElements.ts&#45;&gt;logic/inputs/InputFirstRow.ts -->
<g id="edge38" class="edge">
<title>logic/inputs/inputElements.ts&#45;&gt;logic/inputs/InputFirstRow.ts</title>
<path fill="none" stroke="#757575" d="M429.83,-253.92C498.93,-246.19 595.36,-235.28 680,-225.3 700.01,-222.94 721.4,-220.36 741.88,-217.87"/>
<polygon fill="#757575" stroke="#757575" points="742.35,-221.34 751.85,-216.65 741.5,-214.39 742.35,-221.34"/>
</g>
<!-- logic/inputs/inputElements.ts&#45;&gt;logic/inputs/InputGap.ts -->
<g id="edge39" class="edge">
<title>logic/inputs/inputElements.ts&#45;&gt;logic/inputs/InputGap.ts</title>
<path fill="none" stroke="#757575" d="M351.54,-252.61C375.27,-234.8 423.52,-201.17 470,-184.3 520.98,-165.79 661.74,-146.6 755.16,-135.31"/>
<polygon fill="#757575" stroke="#757575" points="755.66,-138.78 765.17,-134.11 754.83,-131.83 755.66,-138.78"/>
</g>
<!-- logic/inputs/inputElements.ts&#45;&gt;logic/inputs/InputRoot.ts -->
<g id="edge42" class="edge">
<title>logic/inputs/inputElements.ts&#45;&gt;logic/inputs/InputRoot.ts</title>
<path fill="none" stroke="#757575" d="M429.59,-271.25C555.57,-277.84 786.08,-279.82 973,-225.3 1005.79,-215.73 1040.13,-196.54 1062.76,-182.43"/>
<polygon fill="#757575" stroke="#757575" points="1064.85,-185.25 1071.41,-176.93 1061.09,-179.34 1064.85,-185.25"/>
</g>
<!-- logic/inputs/inputElements.ts&#45;&gt;logic/inputs/InputMediaQuery.ts -->
<g id="edge40" class="edge">
<title>logic/inputs/inputElements.ts&#45;&gt;logic/inputs/InputMediaQuery.ts</title>
<path fill="none" stroke="#757575" d="M345.32,-252.49C364.74,-227.46 413.95,-169.19 470,-142.3 551.82,-103.05 654.24,-89.28 731.12,-84.92"/>
<polygon fill="#757575" stroke="#757575" points="731.51,-88.4 741.32,-84.39 731.15,-81.41 731.51,-88.4"/>
</g>
<!-- logic/inputs/inputElements.ts&#45;&gt;logic/inputs/InputNumberOfHexagons.ts -->
<g id="edge41" class="edge">
<title>logic/inputs/inputElements.ts&#45;&gt;logic/inputs/InputNumberOfHexagons.ts</title>
<path fill="none" stroke="#757575" d="M352.29,-276.05C376.25,-293.07 423.9,-323.8 470,-335.3 574.22,-361.29 699.86,-348.64 775.62,-336.46"/>
<polygon fill="#757575" stroke="#757575" points="776.22,-339.91 785.52,-334.83 775.08,-333.01 776.22,-339.91"/>
</g>
<!-- logic/inputs/inputElements.ts&#45;&gt;logic/inputs/factory.ts -->
<g id="edge43" class="edge">
<title>logic/inputs/inputElements.ts&#45;&gt;logic/inputs/factory.ts</title>
<path fill="none" stroke="#757575" d="M382.86,-252.78C421.39,-243.21 476.38,-229.55 517.49,-219.34"/>
<polygon fill="#757575" stroke="#757575" points="518.49,-222.7 527.36,-216.89 516.81,-215.9 518.49,-222.7"/>
</g>
<!-- main.ts -->
<g id="node26" class="node">
<title>main.ts</title>
<path fill="none" stroke="#c6c5fe" d="M53.33,-563.8C53.33,-563.8 7.67,-563.8 7.67,-563.8 3.83,-563.8 0,-559.97 0,-556.13 0,-556.13 0,-548.47 0,-548.47 0,-544.63 3.83,-540.8 7.67,-540.8 7.67,-540.8 53.33,-540.8 53.33,-540.8 57.17,-540.8 61,-544.63 61,-548.47 61,-548.47 61,-556.13 61,-556.13 61,-559.97 57.17,-563.8 53.33,-563.8"/>
<text text-anchor="middle" x="30.5" y="-548.6" font-family="Arial" font-size="14.00" fill="#c6c5fe">main.ts</text>
</g>
<!-- main.ts&#45;&gt;logic/display.ts -->
<g id="edge50" class="edge">
<title>main.ts&#45;&gt;logic/display.ts</title>
<path fill="none" stroke="#757575" d="M61.2,-547.2C69.04,-545.86 77.79,-544.35 86.64,-542.83"/>
<polygon fill="#757575" stroke="#757575" points="87.36,-546.26 96.63,-541.12 86.18,-539.36 87.36,-546.26"/>
</g>
<!-- main.ts&#45;&gt;logic/main.ts -->
<g id="edge51" class="edge">
<title>main.ts&#45;&gt;logic/main.ts</title>
<path fill="none" stroke="#757575" d="M53.96,-563.87C71.77,-573.04 96.87,-585.97 116.65,-596.16"/>
<polygon fill="#757575" stroke="#757575" points="115.11,-599.3 125.61,-600.77 118.32,-593.08 115.11,-599.3"/>
</g>
</g>
</svg>
