<?xml version="1.0" encoding="UTF-8" standalone="no"?>
<!DOCTYPE svg PUBLIC "-//W3C//DTD SVG 1.1//EN"
 "http://www.w3.org/Graphics/SVG/1.1/DTD/svg11.dtd">
<!-- Generated by graphviz version 2.43.0 (0)
 -->
<!-- Title: G Pages: 1 -->
<svg width="771pt" height="425pt"
 viewBox="0.00 0.00 771.20 425.20" xmlns="http://www.w3.org/2000/svg" xmlns:xlink="http://www.w3.org/1999/xlink">
<g id="graph0" class="graph" transform="scale(1 1) rotate(0) translate(21.6 403.6)">
<title>G</title>
<polygon fill="#111111" stroke="transparent" points="-21.6,21.6 -21.6,-403.6 749.6,-403.6 749.6,21.6 -21.6,21.6"/>
<!-- entities/CSSButton.ts -->
<g id="node1" class="node">
<title>entities/CSSButton.ts</title>
<path fill="none" stroke="#c6c5fe" d="M255.83,-382C255.83,-382 127.17,-382 127.17,-382 123.33,-382 119.5,-378.17 119.5,-374.33 119.5,-374.33 119.5,-366.67 119.5,-366.67 119.5,-362.83 123.33,-359 127.17,-359 127.17,-359 255.83,-359 255.83,-359 259.67,-359 263.5,-362.83 263.5,-366.67 263.5,-366.67 263.5,-374.33 263.5,-374.33 263.5,-378.17 259.67,-382 255.83,-382"/>
<text text-anchor="middle" x="191.5" y="-366.8" font-family="Arial" font-size="14.00" fill="#c6c5fe">entities/CSSButton.ts</text>
</g>
<!-- lib/textCSS.ts -->
<g id="node2" class="node">
<title>lib/textCSS.ts</title>
<path fill="none" stroke="#c6c5fe" d="M479.33,-382C479.33,-382 396.67,-382 396.67,-382 392.83,-382 389,-378.17 389,-374.33 389,-374.33 389,-366.67 389,-366.67 389,-362.83 392.83,-359 396.67,-359 396.67,-359 479.33,-359 479.33,-359 483.17,-359 487,-362.83 487,-366.67 487,-366.67 487,-374.33 487,-374.33 487,-378.17 483.17,-382 479.33,-382"/>
<text text-anchor="middle" x="438" y="-366.8" font-family="Arial" font-size="14.00" fill="#c6c5fe">lib/textCSS.ts</text>
</g>
<!-- entities/CSSButton.ts&#45;&gt;lib/textCSS.ts -->
<g id="edge1" class="edge">
<title>entities/CSSButton.ts&#45;&gt;lib/textCSS.ts</title>
<path fill="none" stroke="#757575" d="M263.55,-370.5C299.96,-370.5 343.78,-370.5 378.26,-370.5"/>
<polygon fill="#757575" stroke="#757575" points="378.64,-374 388.64,-370.5 378.64,-367 378.64,-374"/>
</g>
<!-- lib/utils.ts -->
<g id="node15" class="node">
<title>lib/utils.ts</title>
<path fill="none" stroke="#cfffac" d="M687.33,-382C687.33,-382 630.67,-382 630.67,-382 626.83,-382 623,-378.17 623,-374.33 623,-374.33 623,-366.67 623,-366.67 623,-362.83 626.83,-359 630.67,-359 630.67,-359 687.33,-359 687.33,-359 691.17,-359 695,-362.83 695,-366.67 695,-366.67 695,-374.33 695,-374.33 695,-378.17 691.17,-382 687.33,-382"/>
<text text-anchor="middle" x="659" y="-366.8" font-family="Arial" font-size="14.00" fill="#cfffac">lib/utils.ts</text>
</g>
<!-- lib/textCSS.ts&#45;&gt;lib/utils.ts -->
<g id="edge9" class="edge">
<title>lib/textCSS.ts&#45;&gt;lib/utils.ts</title>
<path fill="none" stroke="#757575" d="M487.06,-370.5C524.42,-370.5 575.89,-370.5 612.56,-370.5"/>
<polygon fill="#757575" stroke="#757575" points="612.96,-374 622.96,-370.5 612.96,-367 612.96,-374"/>
</g>
<!-- entities/CloseDialogButton.ts -->
<g id="node3" class="node">
<title>entities/CloseDialogButton.ts</title>
<path fill="none" stroke="#cfffac" d="M278.33,-341C278.33,-341 104.67,-341 104.67,-341 100.83,-341 97,-337.17 97,-333.33 97,-333.33 97,-325.67 97,-325.67 97,-321.83 100.83,-318 104.67,-318 104.67,-318 278.33,-318 278.33,-318 282.17,-318 286,-321.83 286,-325.67 286,-325.67 286,-333.33 286,-333.33 286,-337.17 282.17,-341 278.33,-341"/>
<text text-anchor="middle" x="191.5" y="-325.8" font-family="Arial" font-size="14.00" fill="#cfffac">entities/CloseDialogButton.ts</text>
</g>
<!-- entities/HTMLButton.ts -->
<g id="node4" class="node">
<title>entities/HTMLButton.ts</title>
<path fill="none" stroke="#c6c5fe" d="M260.83,-300C260.83,-300 122.17,-300 122.17,-300 118.33,-300 114.5,-296.17 114.5,-292.33 114.5,-292.33 114.5,-284.67 114.5,-284.67 114.5,-280.83 118.33,-277 122.17,-277 122.17,-277 260.83,-277 260.83,-277 264.67,-277 268.5,-280.83 268.5,-284.67 268.5,-284.67 268.5,-292.33 268.5,-292.33 268.5,-296.17 264.67,-300 260.83,-300"/>
<text text-anchor="middle" x="191.5" y="-284.8" font-family="Arial" font-size="14.00" fill="#c6c5fe">entities/HTMLButton.ts</text>
</g>
<!-- lib/textHTML.ts -->
<g id="node5" class="node">
<title>lib/textHTML.ts</title>
<path fill="none" stroke="#cfffac" d="M483.83,-300C483.83,-300 392.17,-300 392.17,-300 388.33,-300 384.5,-296.17 384.5,-292.33 384.5,-292.33 384.5,-284.67 384.5,-284.67 384.5,-280.83 388.33,-277 392.17,-277 392.17,-277 483.83,-277 483.83,-277 487.67,-277 491.5,-280.83 491.5,-284.67 491.5,-284.67 491.5,-292.33 491.5,-292.33 491.5,-296.17 487.67,-300 483.83,-300"/>
<text text-anchor="middle" x="438" y="-284.8" font-family="Arial" font-size="14.00" fill="#cfffac">lib/textHTML.ts</text>
</g>
<!-- entities/HTMLButton.ts&#45;&gt;lib/textHTML.ts -->
<g id="edge2" class="edge">
<title>entities/HTMLButton.ts&#45;&gt;lib/textHTML.ts</title>
<path fill="none" stroke="#757575" d="M268.52,-288.5C302.42,-288.5 341.88,-288.5 374.09,-288.5"/>
<polygon fill="#757575" stroke="#757575" points="374.28,-292 384.28,-288.5 374.28,-285 374.28,-292"/>
</g>
<!-- entities/HexagonSection.ts -->
<g id="node6" class="node">
<title>entities/HexagonSection.ts</title>
<path fill="none" stroke="#c6c5fe" d="M271.83,-259C271.83,-259 111.17,-259 111.17,-259 107.33,-259 103.5,-255.17 103.5,-251.33 103.5,-251.33 103.5,-243.67 103.5,-243.67 103.5,-239.83 107.33,-236 111.17,-236 111.17,-236 271.83,-236 271.83,-236 275.67,-236 279.5,-239.83 279.5,-243.67 279.5,-243.67 279.5,-251.33 279.5,-251.33 279.5,-255.17 275.67,-259 271.83,-259"/>
<text text-anchor="middle" x="191.5" y="-243.8" font-family="Arial" font-size="14.00" fill="#c6c5fe">entities/HexagonSection.ts</text>
</g>
<!-- lib/generateHexagons.ts -->
<g id="node7" class="node">
<title>lib/generateHexagons.ts</title>
<path fill="none" stroke="#cfffac" d="M511.33,-259C511.33,-259 364.67,-259 364.67,-259 360.83,-259 357,-255.17 357,-251.33 357,-251.33 357,-243.67 357,-243.67 357,-239.83 360.83,-236 364.67,-236 364.67,-236 511.33,-236 511.33,-236 515.17,-236 519,-239.83 519,-243.67 519,-243.67 519,-251.33 519,-251.33 519,-255.17 515.17,-259 511.33,-259"/>
<text text-anchor="middle" x="438" y="-243.8" font-family="Arial" font-size="14.00" fill="#cfffac">lib/generateHexagons.ts</text>
</g>
<!-- entities/HexagonSection.ts&#45;&gt;lib/generateHexagons.ts -->
<g id="edge3" class="edge">
<title>entities/HexagonSection.ts&#45;&gt;lib/generateHexagons.ts</title>
<path fill="none" stroke="#757575" d="M279.73,-247.5C301.4,-247.5 324.67,-247.5 346.49,-247.5"/>
<polygon fill="#757575" stroke="#757575" points="346.73,-251 356.73,-247.5 346.73,-244 346.73,-251"/>
</g>
<!-- entities/InputBase.ts -->
<g id="node8" class="node">
<title>entities/InputBase.ts</title>
<path fill="none" stroke="#cfffac" d="M720.33,-125C720.33,-125 597.67,-125 597.67,-125 593.83,-125 590,-121.17 590,-117.33 590,-117.33 590,-109.67 590,-109.67 590,-105.83 593.83,-102 597.67,-102 597.67,-102 720.33,-102 720.33,-102 724.17,-102 728,-105.83 728,-109.67 728,-109.67 728,-117.33 728,-117.33 728,-121.17 724.17,-125 720.33,-125"/>
<text text-anchor="middle" x="659" y="-109.8" font-family="Arial" font-size="14.00" fill="#cfffac">entities/InputBase.ts</text>
</g>
<!-- entities/InputFirstRow.ts -->
<g id="node9" class="node">
<title>entities/InputFirstRow.ts</title>
<path fill="none" stroke="#c6c5fe" d="M510.33,-202C510.33,-202 365.67,-202 365.67,-202 361.83,-202 358,-198.17 358,-194.33 358,-194.33 358,-186.67 358,-186.67 358,-182.83 361.83,-179 365.67,-179 365.67,-179 510.33,-179 510.33,-179 514.17,-179 518,-182.83 518,-186.67 518,-186.67 518,-194.33 518,-194.33 518,-198.17 514.17,-202 510.33,-202"/>
<text text-anchor="middle" x="438" y="-186.8" font-family="Arial" font-size="14.00" fill="#c6c5fe">entities/InputFirstRow.ts</text>
</g>
<!-- entities/InputFirstRow.ts&#45;&gt;entities/InputBase.ts -->
<g id="edge4" class="edge">
<title>entities/InputFirstRow.ts&#45;&gt;entities/InputBase.ts</title>
<path fill="none" stroke="#757575" d="M478.35,-178.95C500.67,-172.21 529.05,-163.31 554,-154.5 576.49,-146.56 601.35,-136.79 621.13,-128.79"/>
<polygon fill="#757575" stroke="#757575" points="622.45,-132.02 630.4,-125.01 619.81,-125.54 622.45,-132.02"/>
</g>
<!-- entities/InputGap.ts -->
<g id="node10" class="node">
<title>entities/InputGap.ts</title>
<path fill="none" stroke="#c6c5fe" d="M250.83,-179C250.83,-179 132.17,-179 132.17,-179 128.33,-179 124.5,-175.17 124.5,-171.33 124.5,-171.33 124.5,-163.67 124.5,-163.67 124.5,-159.83 128.33,-156 132.17,-156 132.17,-156 250.83,-156 250.83,-156 254.67,-156 258.5,-159.83 258.5,-163.67 258.5,-163.67 258.5,-171.33 258.5,-171.33 258.5,-175.17 254.67,-179 250.83,-179"/>
<text text-anchor="middle" x="191.5" y="-163.8" font-family="Arial" font-size="14.00" fill="#c6c5fe">entities/InputGap.ts</text>
</g>
<!-- entities/InputRoot.ts -->
<g id="node11" class="node">
<title>entities/InputRoot.ts</title>
<path fill="none" stroke="#c6c5fe" d="M498.33,-145C498.33,-145 377.67,-145 377.67,-145 373.83,-145 370,-141.17 370,-137.33 370,-137.33 370,-129.67 370,-129.67 370,-125.83 373.83,-122 377.67,-122 377.67,-122 498.33,-122 498.33,-122 502.17,-122 506,-125.83 506,-129.67 506,-129.67 506,-137.33 506,-137.33 506,-141.17 502.17,-145 498.33,-145"/>
<text text-anchor="middle" x="438" y="-129.8" font-family="Arial" font-size="14.00" fill="#c6c5fe">entities/InputRoot.ts</text>
</g>
<!-- entities/InputGap.ts&#45;&gt;entities/InputRoot.ts -->
<g id="edge5" class="edge">
<title>entities/InputGap.ts&#45;&gt;entities/InputRoot.ts</title>
<path fill="none" stroke="#757575" d="M258.67,-158.3C289.94,-153.95 327.46,-148.73 360,-144.21"/>
<polygon fill="#757575" stroke="#757575" points="360.51,-147.67 369.93,-142.83 359.54,-140.74 360.51,-147.67"/>
</g>
<!-- entities/InputRoot.ts&#45;&gt;entities/InputBase.ts -->
<g id="edge8" class="edge">
<title>entities/InputRoot.ts&#45;&gt;entities/InputBase.ts</title>
<path fill="none" stroke="#757575" d="M506.2,-127.36C529.41,-125.24 555.62,-122.85 579.65,-120.66"/>
<polygon fill="#757575" stroke="#757575" points="580.16,-124.12 589.8,-119.73 579.52,-117.15 580.16,-124.12"/>
</g>
<!-- entities/InputMediaQuery.ts -->
<g id="node12" class="node">
<title>entities/InputMediaQuery.ts</title>
<path fill="none" stroke="#c6c5fe" d="M521.33,-104C521.33,-104 354.67,-104 354.67,-104 350.83,-104 347,-100.17 347,-96.33 347,-96.33 347,-88.67 347,-88.67 347,-84.83 350.83,-81 354.67,-81 354.67,-81 521.33,-81 521.33,-81 525.17,-81 529,-84.83 529,-88.67 529,-88.67 529,-96.33 529,-96.33 529,-100.17 525.17,-104 521.33,-104"/>
<text text-anchor="middle" x="438" y="-88.8" font-family="Arial" font-size="14.00" fill="#c6c5fe">entities/InputMediaQuery.ts</text>
</g>
<!-- entities/InputMediaQuery.ts&#45;&gt;entities/InputBase.ts -->
<g id="edge6" class="edge">
<title>entities/InputMediaQuery.ts&#45;&gt;entities/InputBase.ts</title>
<path fill="none" stroke="#757575" d="M529.02,-101.13C545.83,-102.74 563.26,-104.42 579.68,-105.99"/>
<polygon fill="#757575" stroke="#757575" points="579.47,-109.49 589.76,-106.96 580.14,-102.52 579.47,-109.49"/>
</g>
<!-- entities/InputNumberOfHexagons.ts -->
<g id="node13" class="node">
<title>entities/InputNumberOfHexagons.ts</title>
<path fill="none" stroke="#c6c5fe" d="M546.33,-63C546.33,-63 329.67,-63 329.67,-63 325.83,-63 322,-59.17 322,-55.33 322,-55.33 322,-47.67 322,-47.67 322,-43.83 325.83,-40 329.67,-40 329.67,-40 546.33,-40 546.33,-40 550.17,-40 554,-43.83 554,-47.67 554,-47.67 554,-55.33 554,-55.33 554,-59.17 550.17,-63 546.33,-63"/>
<text text-anchor="middle" x="438" y="-47.8" font-family="Arial" font-size="14.00" fill="#c6c5fe">entities/InputNumberOfHexagons.ts</text>
</g>
<!-- entities/InputNumberOfHexagons.ts&#45;&gt;entities/InputBase.ts -->
<g id="edge7" class="edge">
<title>entities/InputNumberOfHexagons.ts&#45;&gt;entities/InputBase.ts</title>
<path fill="none" stroke="#757575" d="M518.37,-63.03C530.41,-65.44 542.6,-68.25 554,-71.5 578.14,-78.39 604.34,-88.99 624.4,-97.82"/>
<polygon fill="#757575" stroke="#757575" points="623.16,-101.1 633.72,-101.98 626.02,-94.71 623.16,-101.1"/>
</g>
<!-- lib/htmlElements.ts -->
<g id="node14" class="node">
<title>lib/htmlElements.ts</title>
<path fill="none" stroke="#cfffac" d="M249.33,-23C249.33,-23 133.67,-23 133.67,-23 129.83,-23 126,-19.17 126,-15.33 126,-15.33 126,-7.67 126,-7.67 126,-3.83 129.83,0 133.67,0 133.67,0 249.33,0 249.33,0 253.17,0 257,-3.83 257,-7.67 257,-7.67 257,-15.33 257,-15.33 257,-19.17 253.17,-23 249.33,-23"/>
<text text-anchor="middle" x="191.5" y="-7.8" font-family="Arial" font-size="14.00" fill="#cfffac">lib/htmlElements.ts</text>
</g>
<!-- main.ts -->
<g id="node16" class="node">
<title>main.ts</title>
<path fill="none" stroke="#c6c5fe" d="M53.33,-199C53.33,-199 7.67,-199 7.67,-199 3.83,-199 0,-195.17 0,-191.33 0,-191.33 0,-183.67 0,-183.67 0,-179.83 3.83,-176 7.67,-176 7.67,-176 53.33,-176 53.33,-176 57.17,-176 61,-179.83 61,-183.67 61,-183.67 61,-191.33 61,-191.33 61,-195.17 57.17,-199 53.33,-199"/>
<text text-anchor="middle" x="30.5" y="-183.8" font-family="Arial" font-size="14.00" fill="#c6c5fe">main.ts</text>
</g>
<!-- main.ts&#45;&gt;entities/CSSButton.ts -->
<g id="edge10" class="edge">
<title>main.ts&#45;&gt;entities/CSSButton.ts</title>
<path fill="none" stroke="#757575" d="M32.52,-199.09C35.81,-229.15 48.94,-310.04 97,-350.5 100.95,-353.82 105.31,-356.63 109.94,-359.01"/>
<polygon fill="#757575" stroke="#757575" points="108.55,-362.22 119.11,-363.05 111.38,-355.82 108.55,-362.22"/>
</g>
<!-- main.ts&#45;&gt;entities/CloseDialogButton.ts -->
<g id="edge11" class="edge">
<title>main.ts&#45;&gt;entities/CloseDialogButton.ts</title>
<path fill="none" stroke="#757575" d="M34.2,-199.05C40.57,-223.56 58.95,-280.91 97,-309.5 98.64,-310.73 100.34,-311.9 102.1,-312.99"/>
<polygon fill="#757575" stroke="#757575" points="100.77,-316.25 111.23,-317.9 104.08,-310.08 100.77,-316.25"/>
</g>
<!-- main.ts&#45;&gt;entities/HTMLButton.ts -->
<g id="edge12" class="edge">
<title>main.ts&#45;&gt;entities/HTMLButton.ts</title>
<path fill="none" stroke="#757575" d="M37.56,-199.28C47.45,-217.23 68.8,-251.18 97,-268.5 99.52,-270.05 102.14,-271.48 104.84,-272.8"/>
<polygon fill="#757575" stroke="#757575" points="103.69,-276.11 114.26,-276.87 106.47,-269.69 103.69,-276.11"/>
</g>
<!-- main.ts&#45;&gt;entities/HexagonSection.ts -->
<g id="edge13" class="edge">
<title>main.ts&#45;&gt;entities/HexagonSection.ts</title>
<path fill="none" stroke="#757575" d="M51.06,-199.02C63.83,-206.19 81.02,-215.21 97,-221.5 108.02,-225.84 120.04,-229.76 131.68,-233.16"/>
<polygon fill="#757575" stroke="#757575" points="130.77,-236.53 141.34,-235.89 132.67,-229.8 130.77,-236.53"/>
</g>
<!-- main.ts&#45;&gt;entities/InputFirstRow.ts -->
<g id="edge14" class="edge">
<title>main.ts&#45;&gt;entities/InputFirstRow.ts</title>
<path fill="none" stroke="#757575" d="M61.17,-188.01C72.4,-188.19 85.29,-188.38 97,-188.5 182.06,-189.4 279.09,-189.92 347.66,-190.2"/>
<polygon fill="#757575" stroke="#757575" points="347.98,-193.7 357.99,-190.24 348.01,-186.7 347.98,-193.7"/>
</g>
<!-- main.ts&#45;&gt;entities/InputGap.ts -->
<g id="edge15" class="edge">
<title>main.ts&#45;&gt;entities/InputGap.ts</title>
<path fill="none" stroke="#757575" d="M61.03,-183.79C76.11,-181.89 95.21,-179.49 114.08,-177.11"/>
<polygon fill="#757575" stroke="#757575" points="114.72,-180.56 124.21,-175.84 113.85,-173.61 114.72,-180.56"/>
</g>
<!-- main.ts&#45;&gt;entities/InputRoot.ts -->
<g id="edge18" class="edge">
<title>main.ts&#45;&gt;entities/InputRoot.ts</title>
<path fill="none" stroke="#757575" d="M45.55,-175.97C58.16,-166.38 77.62,-153.38 97,-147.5 184.15,-121.05 289.64,-121.38 359.78,-125.83"/>
<polygon fill="#757575" stroke="#757575" points="359.65,-129.33 369.86,-126.51 360.12,-122.34 359.65,-129.33"/>
</g>
<!-- main.ts&#45;&gt;entities/InputMediaQuery.ts -->
<g id="edge16" class="edge">
<title>main.ts&#45;&gt;entities/InputMediaQuery.ts</title>
<path fill="none" stroke="#757575" d="M38.69,-175.88C49.26,-159.98 70.62,-131.97 97,-119.5 171.75,-84.16 266.11,-79.34 336.44,-82.26"/>
<polygon fill="#757575" stroke="#757575" points="336.49,-85.76 346.64,-82.74 336.82,-78.77 336.49,-85.76"/>
</g>
<!-- main.ts&#45;&gt;entities/InputNumberOfHexagons.ts -->
<g id="edge17" class="edge">
<title>main.ts&#45;&gt;entities/InputNumberOfHexagons.ts</title>
<path fill="none" stroke="#757575" d="M34.65,-175.74C41.55,-152.55 60.4,-101.17 97,-78.5 176.81,-29.07 288.17,-30.51 361.39,-38.77"/>
<polygon fill="#757575" stroke="#757575" points="361.12,-42.26 371.47,-39.98 361.95,-35.31 361.12,-42.26"/>
</g>
<!-- main.ts&#45;&gt;lib/htmlElements.ts -->
<g id="edge19" class="edge">
<title>main.ts&#45;&gt;lib/htmlElements.ts</title>
<path fill="none" stroke="#757575" d="M33.16,-175.74C37.78,-147.48 53.45,-75.33 97,-37.5 102.68,-32.56 109.23,-28.56 116.17,-25.31"/>
<polygon fill="#757575" stroke="#757575" points="117.92,-28.37 125.83,-21.33 115.25,-21.9 117.92,-28.37"/>
</g>
</g>
</svg>
