<?xml version="1.0" encoding="UTF-8" standalone="no"?>
<!DOCTYPE svg PUBLIC "-//W3C//DTD SVG 1.1//EN"
 "http://www.w3.org/Graphics/SVG/1.1/DTD/svg11.dtd">
<!-- Generated by graphviz version 2.43.0 (0)
 -->
<!-- Title: G Pages: 1 -->
<svg width="1052pt" height="386pt"
 viewBox="0.00 0.00 1052.20 385.71" xmlns="http://www.w3.org/2000/svg" xmlns:xlink="http://www.w3.org/1999/xlink">
<g id="graph0" class="graph" transform="scale(1 1) rotate(0) translate(21.6 364.11)">
<title>G</title>
<polygon fill="#111111" stroke="transparent" points="-21.6,21.6 -21.6,-364.11 1030.6,-364.11 1030.6,21.6 -21.6,21.6"/>
<!-- constants.ts -->
<g id="node1" class="node">
<title>constants.ts</title>
<path fill="none" stroke="#cfffac" d="M1001.33,-88.79C1001.33,-88.79 927.67,-88.79 927.67,-88.79 923.83,-88.79 920,-84.96 920,-81.13 920,-81.13 920,-73.46 920,-73.46 920,-69.63 923.83,-65.79 927.67,-65.79 927.67,-65.79 1001.33,-65.79 1001.33,-65.79 1005.17,-65.79 1009,-69.63 1009,-73.46 1009,-73.46 1009,-81.13 1009,-81.13 1009,-84.96 1005.17,-88.79 1001.33,-88.79"/>
<text text-anchor="middle" x="964.5" y="-73.59" font-family="Arial" font-size="14.00" fill="#cfffac">constants.ts</text>
</g>
<!-- display.ts -->
<g id="node2" class="node">
<title>display.ts</title>
<path fill="none" stroke="#c6c5fe" d="M682.83,-88.79C682.83,-88.79 626.17,-88.79 626.17,-88.79 622.33,-88.79 618.5,-84.96 618.5,-81.13 618.5,-81.13 618.5,-73.46 618.5,-73.46 618.5,-69.63 622.33,-65.79 626.17,-65.79 626.17,-65.79 682.83,-65.79 682.83,-65.79 686.67,-65.79 690.5,-69.63 690.5,-73.46 690.5,-73.46 690.5,-81.13 690.5,-81.13 690.5,-84.96 686.67,-88.79 682.83,-88.79"/>
<text text-anchor="middle" x="654.5" y="-73.59" font-family="Arial" font-size="14.00" fill="#c6c5fe">display.ts</text>
</g>
<!-- display.ts&#45;&gt;constants.ts -->
<g id="edge1" class="edge">
<title>display.ts&#45;&gt;constants.ts</title>
<path fill="none" stroke="#757575" d="M690.53,-77.29C744.08,-77.29 846.68,-77.29 909.7,-77.29"/>
<polygon fill="#757575" stroke="#757575" points="909.85,-80.79 919.85,-77.29 909.85,-73.79 909.85,-80.79"/>
</g>
<!-- textCSS.ts -->
<g id="node3" class="node">
<title>textCSS.ts</title>
<path fill="none" stroke="#c6c5fe" d="M852.33,-128.79C852.33,-128.79 787.67,-128.79 787.67,-128.79 783.83,-128.79 780,-124.96 780,-121.13 780,-121.13 780,-113.46 780,-113.46 780,-109.63 783.83,-105.79 787.67,-105.79 787.67,-105.79 852.33,-105.79 852.33,-105.79 856.17,-105.79 860,-109.63 860,-113.46 860,-113.46 860,-121.13 860,-121.13 860,-124.96 856.17,-128.79 852.33,-128.79"/>
<text text-anchor="middle" x="820" y="-113.59" font-family="Arial" font-size="14.00" fill="#c6c5fe">textCSS.ts</text>
</g>
<!-- display.ts&#45;&gt;textCSS.ts -->
<g id="edge2" class="edge">
<title>display.ts&#45;&gt;textCSS.ts</title>
<path fill="none" stroke="#757575" d="M690.57,-85.87C713.77,-91.55 744.5,-99.07 770.09,-105.33"/>
<polygon fill="#757575" stroke="#757575" points="769.43,-108.77 779.97,-107.75 771.09,-101.97 769.43,-108.77"/>
</g>
<!-- textHTML.ts -->
<g id="node4" class="node">
<title>textHTML.ts</title>
<path fill="none" stroke="#cfffac" d="M857.33,-48.79C857.33,-48.79 782.67,-48.79 782.67,-48.79 778.83,-48.79 775,-44.96 775,-41.13 775,-41.13 775,-33.46 775,-33.46 775,-29.63 778.83,-25.79 782.67,-25.79 782.67,-25.79 857.33,-25.79 857.33,-25.79 861.17,-25.79 865,-29.63 865,-33.46 865,-33.46 865,-41.13 865,-41.13 865,-44.96 861.17,-48.79 857.33,-48.79"/>
<text text-anchor="middle" x="820" y="-33.59" font-family="Arial" font-size="14.00" fill="#cfffac">textHTML.ts</text>
</g>
<!-- display.ts&#45;&gt;textHTML.ts -->
<g id="edge3" class="edge">
<title>display.ts&#45;&gt;textHTML.ts</title>
<path fill="none" stroke="#757575" d="M690.57,-68.71C712.26,-63.41 740.55,-56.49 765.05,-50.49"/>
<polygon fill="#757575" stroke="#757575" points="766.05,-53.85 774.93,-48.07 764.39,-47.05 766.05,-53.85"/>
</g>
<!-- utils.ts -->
<g id="node5" class="node">
<title>utils.ts</title>
<path fill="none" stroke="#cfffac" d="M984.33,-168.79C984.33,-168.79 944.67,-168.79 944.67,-168.79 940.83,-168.79 937,-164.96 937,-161.13 937,-161.13 937,-153.46 937,-153.46 937,-149.63 940.83,-145.79 944.67,-145.79 944.67,-145.79 984.33,-145.79 984.33,-145.79 988.17,-145.79 992,-149.63 992,-153.46 992,-153.46 992,-161.13 992,-161.13 992,-164.96 988.17,-168.79 984.33,-168.79"/>
<text text-anchor="middle" x="964.5" y="-153.59" font-family="Arial" font-size="14.00" fill="#cfffac">utils.ts</text>
</g>
<!-- display.ts&#45;&gt;utils.ts -->
<g id="edge4" class="edge">
<title>display.ts&#45;&gt;utils.ts</title>
<path fill="none" stroke="#757575" d="M669.77,-88.89C688.36,-103.27 722.47,-127.24 756,-138.29 813.49,-157.24 884.47,-159.54 926.75,-158.85"/>
<polygon fill="#757575" stroke="#757575" points="926.93,-162.35 936.85,-158.62 926.77,-155.35 926.93,-162.35"/>
</g>
<!-- textCSS.ts&#45;&gt;constants.ts -->
<g id="edge22" class="edge">
<title>textCSS.ts&#45;&gt;constants.ts</title>
<path fill="none" stroke="#757575" d="M860.32,-106.26C876.43,-101.73 895.29,-96.44 912.45,-91.62"/>
<polygon fill="#757575" stroke="#757575" points="913.64,-94.92 922.32,-88.85 911.75,-88.18 913.64,-94.92"/>
</g>
<!-- textCSS.ts&#45;&gt;utils.ts -->
<g id="edge23" class="edge">
<title>textCSS.ts&#45;&gt;utils.ts</title>
<path fill="none" stroke="#757575" d="M860.32,-128.33C881.18,-134.18 906.64,-141.33 927.05,-147.06"/>
<polygon fill="#757575" stroke="#757575" points="926.35,-150.5 936.92,-149.83 928.24,-143.76 926.35,-150.5"/>
</g>
<!-- hexagonSection.ts -->
<g id="node6" class="node">
<title>hexagonSection.ts</title>
<path fill="none" stroke="#c6c5fe" d="M876.33,-208.79C876.33,-208.79 763.67,-208.79 763.67,-208.79 759.83,-208.79 756,-204.96 756,-201.13 756,-201.13 756,-193.46 756,-193.46 756,-189.63 759.83,-185.79 763.67,-185.79 763.67,-185.79 876.33,-185.79 876.33,-185.79 880.17,-185.79 884,-189.63 884,-193.46 884,-193.46 884,-201.13 884,-201.13 884,-204.96 880.17,-208.79 876.33,-208.79"/>
<text text-anchor="middle" x="820" y="-193.59" font-family="Arial" font-size="14.00" fill="#c6c5fe">hexagonSection.ts</text>
</g>
<!-- hexagonSection.ts&#45;&gt;utils.ts -->
<g id="edge5" class="edge">
<title>hexagonSection.ts&#45;&gt;utils.ts</title>
<path fill="none" stroke="#757575" d="M862.22,-185.72C882.66,-179.99 907.13,-173.12 926.9,-167.57"/>
<polygon fill="#757575" stroke="#757575" points="928.08,-170.87 936.76,-164.8 926.19,-164.13 928.08,-170.87"/>
</g>
<!-- inputs/InputBase.ts -->
<g id="node7" class="node">
<title>inputs/InputBase.ts</title>
<path fill="none" stroke="#c6c5fe" d="M712.33,-208.79C712.33,-208.79 596.67,-208.79 596.67,-208.79 592.83,-208.79 589,-204.96 589,-201.13 589,-201.13 589,-193.46 589,-193.46 589,-189.63 592.83,-185.79 596.67,-185.79 596.67,-185.79 712.33,-185.79 712.33,-185.79 716.17,-185.79 720,-189.63 720,-193.46 720,-193.46 720,-201.13 720,-201.13 720,-204.96 716.17,-208.79 712.33,-208.79"/>
<text text-anchor="middle" x="654.5" y="-193.59" font-family="Arial" font-size="14.00" fill="#c6c5fe">inputs/InputBase.ts</text>
</g>
<!-- inputs/InputBase.ts&#45;&gt;hexagonSection.ts -->
<g id="edge6" class="edge">
<title>inputs/InputBase.ts&#45;&gt;hexagonSection.ts</title>
<path fill="none" stroke="#757575" d="M720.12,-197.29C728.59,-197.29 737.31,-197.29 745.91,-197.29"/>
<polygon fill="#757575" stroke="#757575" points="745.92,-200.79 755.92,-197.29 745.92,-193.79 745.92,-200.79"/>
</g>
<!-- inputs/InputFirstRow.ts -->
<g id="node8" class="node">
<title>inputs/InputFirstRow.ts</title>
<path fill="none" stroke="#c6c5fe" d="M545.33,-288.79C545.33,-288.79 407.67,-288.79 407.67,-288.79 403.83,-288.79 400,-284.96 400,-281.13 400,-281.13 400,-273.46 400,-273.46 400,-269.63 403.83,-265.79 407.67,-265.79 407.67,-265.79 545.33,-265.79 545.33,-265.79 549.17,-265.79 553,-269.63 553,-273.46 553,-273.46 553,-281.13 553,-281.13 553,-284.96 549.17,-288.79 545.33,-288.79"/>
<text text-anchor="middle" x="476.5" y="-273.59" font-family="Arial" font-size="14.00" fill="#c6c5fe">inputs/InputFirstRow.ts</text>
</g>
<!-- inputs/InputFirstRow.ts&#45;&gt;inputs/InputBase.ts -->
<g id="edge7" class="edge">
<title>inputs/InputFirstRow.ts&#45;&gt;inputs/InputBase.ts</title>
<path fill="none" stroke="#757575" d="M514.82,-265.77C527.14,-261.62 540.81,-256.63 553,-251.29 578.22,-240.26 605.68,-225.29 625.51,-213.91"/>
<polygon fill="#757575" stroke="#757575" points="627.43,-216.85 634.32,-208.8 623.92,-210.79 627.43,-216.85"/>
</g>
<!-- inputs/InputGap.ts -->
<g id="node9" class="node">
<title>inputs/InputGap.ts</title>
<path fill="none" stroke="#c6c5fe" d="M307.33,-248.79C307.33,-248.79 195.67,-248.79 195.67,-248.79 191.83,-248.79 188,-244.96 188,-241.13 188,-241.13 188,-233.46 188,-233.46 188,-229.63 191.83,-225.79 195.67,-225.79 195.67,-225.79 307.33,-225.79 307.33,-225.79 311.17,-225.79 315,-229.63 315,-233.46 315,-233.46 315,-241.13 315,-241.13 315,-244.96 311.17,-248.79 307.33,-248.79"/>
<text text-anchor="middle" x="251.5" y="-233.59" font-family="Arial" font-size="14.00" fill="#c6c5fe">inputs/InputGap.ts</text>
</g>
<!-- inputs/InputGap.ts&#45;&gt;inputs/InputBase.ts -->
<g id="edge8" class="edge">
<title>inputs/InputGap.ts&#45;&gt;inputs/InputBase.ts</title>
<path fill="none" stroke="#757575" d="M315.2,-235.93C376.17,-234 471.28,-229.36 553,-218.29 566.86,-216.42 581.66,-213.72 595.53,-210.88"/>
<polygon fill="#757575" stroke="#757575" points="596.37,-214.28 605.43,-208.79 594.93,-207.43 596.37,-214.28"/>
</g>
<!-- inputs/InputRoot.ts -->
<g id="node10" class="node">
<title>inputs/InputRoot.ts</title>
<path fill="none" stroke="#c6c5fe" d="M533.33,-208.79C533.33,-208.79 419.67,-208.79 419.67,-208.79 415.83,-208.79 412,-204.96 412,-201.13 412,-201.13 412,-193.46 412,-193.46 412,-189.63 415.83,-185.79 419.67,-185.79 419.67,-185.79 533.33,-185.79 533.33,-185.79 537.17,-185.79 541,-189.63 541,-193.46 541,-193.46 541,-201.13 541,-201.13 541,-204.96 537.17,-208.79 533.33,-208.79"/>
<text text-anchor="middle" x="476.5" y="-193.59" font-family="Arial" font-size="14.00" fill="#c6c5fe">inputs/InputRoot.ts</text>
</g>
<!-- inputs/InputGap.ts&#45;&gt;inputs/InputRoot.ts -->
<g id="edge9" class="edge">
<title>inputs/InputGap.ts&#45;&gt;inputs/InputRoot.ts</title>
<path fill="none" stroke="#757575" d="M315.21,-226.04C342.06,-221.23 373.61,-215.57 401.58,-210.55"/>
<polygon fill="#757575" stroke="#757575" points="402.49,-213.95 411.71,-208.73 401.25,-207.06 402.49,-213.95"/>
</g>
<!-- inputs/InputRoot.ts&#45;&gt;inputs/InputBase.ts -->
<g id="edge12" class="edge">
<title>inputs/InputRoot.ts&#45;&gt;inputs/InputBase.ts</title>
<path fill="none" stroke="#757575" d="M541.04,-197.29C553.19,-197.29 566.02,-197.29 578.5,-197.29"/>
<polygon fill="#757575" stroke="#757575" points="578.87,-200.79 588.87,-197.29 578.87,-193.79 578.87,-200.79"/>
</g>
<!-- inputs/InputMediaQuery.ts -->
<g id="node11" class="node">
<title>inputs/InputMediaQuery.ts</title>
<path fill="none" stroke="#c6c5fe" d="M331.33,-168.79C331.33,-168.79 171.67,-168.79 171.67,-168.79 167.83,-168.79 164,-164.96 164,-161.13 164,-161.13 164,-153.46 164,-153.46 164,-149.63 167.83,-145.79 171.67,-145.79 171.67,-145.79 331.33,-145.79 331.33,-145.79 335.17,-145.79 339,-149.63 339,-153.46 339,-153.46 339,-161.13 339,-161.13 339,-164.96 335.17,-168.79 331.33,-168.79"/>
<text text-anchor="middle" x="251.5" y="-153.59" font-family="Arial" font-size="14.00" fill="#c6c5fe">inputs/InputMediaQuery.ts</text>
</g>
<!-- inputs/InputMediaQuery.ts&#45;&gt;inputs/InputBase.ts -->
<g id="edge10" class="edge">
<title>inputs/InputMediaQuery.ts&#45;&gt;inputs/InputBase.ts</title>
<path fill="none" stroke="#757575" d="M339.26,-160.08C399.44,-162.74 481.34,-167.82 553,-177.29 565.73,-178.98 579.28,-181.3 592.16,-183.77"/>
<polygon fill="#757575" stroke="#757575" points="591.84,-187.28 602.33,-185.77 593.19,-180.41 591.84,-187.28"/>
</g>
<!-- inputs/InputNumberOfHexagons.ts -->
<g id="node12" class="node">
<title>inputs/InputNumberOfHexagons.ts</title>
<path fill="none" stroke="#c6c5fe" d="M356.33,-127.79C356.33,-127.79 146.67,-127.79 146.67,-127.79 142.83,-127.79 139,-123.96 139,-120.13 139,-120.13 139,-112.46 139,-112.46 139,-108.63 142.83,-104.79 146.67,-104.79 146.67,-104.79 356.33,-104.79 356.33,-104.79 360.17,-104.79 364,-108.63 364,-112.46 364,-112.46 364,-120.13 364,-120.13 364,-123.96 360.17,-127.79 356.33,-127.79"/>
<text text-anchor="middle" x="251.5" y="-112.59" font-family="Arial" font-size="14.00" fill="#c6c5fe">inputs/InputNumberOfHexagons.ts</text>
</g>
<!-- inputs/InputNumberOfHexagons.ts&#45;&gt;inputs/InputBase.ts -->
<g id="edge11" class="edge">
<title>inputs/InputNumberOfHexagons.ts&#45;&gt;inputs/InputBase.ts</title>
<path fill="none" stroke="#757575" d="M364.25,-126.38C421.31,-133.02 491.5,-143.47 553,-159.29 575.15,-164.99 599.14,-173.95 618.13,-181.74"/>
<polygon fill="#757575" stroke="#757575" points="616.98,-185.05 627.56,-185.68 619.68,-178.6 616.98,-185.05"/>
</g>
<!-- inputs/index.ts -->
<g id="node13" class="node">
<title>inputs/index.ts</title>
<path fill="none" stroke="#c6c5fe" d="M95.33,-228.79C95.33,-228.79 7.67,-228.79 7.67,-228.79 3.83,-228.79 0,-224.96 0,-221.13 0,-221.13 0,-213.46 0,-213.46 0,-209.63 3.83,-205.79 7.67,-205.79 7.67,-205.79 95.33,-205.79 95.33,-205.79 99.17,-205.79 103,-209.63 103,-213.46 103,-213.46 103,-221.13 103,-221.13 103,-224.96 99.17,-228.79 95.33,-228.79"/>
<text text-anchor="middle" x="51.5" y="-213.59" font-family="Arial" font-size="14.00" fill="#c6c5fe">inputs/index.ts</text>
</g>
<!-- inputs/index.ts&#45;&gt;inputs/InputBase.ts -->
<g id="edge13" class="edge">
<title>inputs/index.ts&#45;&gt;inputs/InputBase.ts</title>
<path fill="none" stroke="#757575" d="M63.17,-228.95C78.3,-244.58 107.65,-271.68 139,-283.29 311.67,-347.22 382.98,-368.96 553,-298.29 592.29,-281.96 624.16,-241.97 640.84,-217.49"/>
<polygon fill="#757575" stroke="#757575" points="643.88,-219.23 646.47,-208.95 638.04,-215.38 643.88,-219.23"/>
</g>
<!-- inputs/index.ts&#45;&gt;inputs/InputFirstRow.ts -->
<g id="edge14" class="edge">
<title>inputs/index.ts&#45;&gt;inputs/InputFirstRow.ts</title>
<path fill="none" stroke="#757575" d="M71.27,-228.81C88.28,-238.6 114.36,-252.01 139,-258.29 222.19,-279.49 320.55,-282.63 389.37,-281.45"/>
<polygon fill="#757575" stroke="#757575" points="389.81,-284.94 399.73,-281.24 389.66,-277.94 389.81,-284.94"/>
</g>
<!-- inputs/index.ts&#45;&gt;inputs/InputGap.ts -->
<g id="edge15" class="edge">
<title>inputs/index.ts&#45;&gt;inputs/InputGap.ts</title>
<path fill="none" stroke="#757575" d="M103.23,-222.42C125.89,-224.71 153.02,-227.45 177.78,-229.95"/>
<polygon fill="#757575" stroke="#757575" points="177.56,-233.44 187.86,-230.97 178.26,-226.48 177.56,-233.44"/>
</g>
<!-- inputs/index.ts&#45;&gt;inputs/InputRoot.ts -->
<g id="edge18" class="edge">
<title>inputs/index.ts&#45;&gt;inputs/InputRoot.ts</title>
<path fill="none" stroke="#757575" d="M103.1,-214.9C177.28,-211.39 315.98,-204.84 401.58,-200.79"/>
<polygon fill="#757575" stroke="#757575" points="401.92,-204.28 411.74,-200.31 401.59,-197.28 401.92,-204.28"/>
</g>
<!-- inputs/index.ts&#45;&gt;inputs/InputMediaQuery.ts -->
<g id="edge16" class="edge">
<title>inputs/index.ts&#45;&gt;inputs/InputMediaQuery.ts</title>
<path fill="none" stroke="#757575" d="M79.03,-205.71C95.96,-198.6 118.51,-189.67 139,-183.29 153.34,-178.83 168.93,-174.73 183.78,-171.18"/>
<polygon fill="#757575" stroke="#757575" points="184.98,-174.5 193.92,-168.81 183.39,-167.68 184.98,-174.5"/>
</g>
<!-- inputs/index.ts&#45;&gt;inputs/InputNumberOfHexagons.ts -->
<g id="edge17" class="edge">
<title>inputs/index.ts&#45;&gt;inputs/InputNumberOfHexagons.ts</title>
<path fill="none" stroke="#757575" d="M61.43,-205.59C75.73,-187.77 105.56,-154.12 139,-137.29 143.61,-134.97 148.45,-132.91 153.41,-131.07"/>
<polygon fill="#757575" stroke="#757575" points="154.73,-134.32 163.09,-127.81 152.5,-127.68 154.73,-134.32"/>
</g>
<!-- main.ts -->
<g id="node14" class="node">
<title>main.ts</title>
<path fill="none" stroke="#c6c5fe" d="M499.33,-88.79C499.33,-88.79 453.67,-88.79 453.67,-88.79 449.83,-88.79 446,-84.96 446,-81.13 446,-81.13 446,-73.46 446,-73.46 446,-69.63 449.83,-65.79 453.67,-65.79 453.67,-65.79 499.33,-65.79 499.33,-65.79 503.17,-65.79 507,-69.63 507,-73.46 507,-73.46 507,-81.13 507,-81.13 507,-84.96 503.17,-88.79 499.33,-88.79"/>
<text text-anchor="middle" x="476.5" y="-73.59" font-family="Arial" font-size="14.00" fill="#c6c5fe">main.ts</text>
</g>
<!-- main.ts&#45;&gt;constants.ts -->
<g id="edge19" class="edge">
<title>main.ts&#45;&gt;constants.ts</title>
<path fill="none" stroke="#757575" d="M502.5,-65.61C567.27,-37 745.13,30.85 884,-16.29 908.55,-24.63 931.46,-43.93 946.32,-58.61"/>
<polygon fill="#757575" stroke="#757575" points="943.83,-61.07 953.32,-65.78 948.84,-56.18 943.83,-61.07"/>
</g>
<!-- main.ts&#45;&gt;display.ts -->
<g id="edge20" class="edge">
<title>main.ts&#45;&gt;display.ts</title>
<path fill="none" stroke="#757575" d="M507.36,-77.29C534.94,-77.29 576.31,-77.29 608,-77.29"/>
<polygon fill="#757575" stroke="#757575" points="608.34,-80.79 618.34,-77.29 608.34,-73.79 608.34,-80.79"/>
</g>
<!-- main.ts&#45;&gt;hexagonSection.ts -->
<g id="edge21" class="edge">
<title>main.ts&#45;&gt;hexagonSection.ts</title>
<path fill="none" stroke="#757575" d="M507.21,-87.73C567.84,-109.04 706.01,-157.59 776.27,-182.28"/>
<polygon fill="#757575" stroke="#757575" points="775.53,-185.73 786.13,-185.74 777.86,-179.13 775.53,-185.73"/>
</g>
</g>
</svg>
