<?xml version="1.0" encoding="UTF-8" standalone="no"?>
<!DOCTYPE svg PUBLIC "-//W3C//DTD SVG 1.1//EN"
 "http://www.w3.org/Graphics/SVG/1.1/DTD/svg11.dtd">
<!-- Generated by graphviz version 2.43.0 (0)
 -->
<!-- Title: G Pages: 1 -->
<svg width="2054pt" height="618pt"
 viewBox="0.00 0.00 2054.20 617.70" xmlns="http://www.w3.org/2000/svg" xmlns:xlink="http://www.w3.org/1999/xlink">
<g id="graph0" class="graph" transform="scale(1 1) rotate(0) translate(21.6 596.1)">
<title>G</title>
<polygon fill="#111111" stroke="transparent" points="-21.6,21.6 -21.6,-596.1 2032.6,-596.1 2032.6,21.6 -21.6,21.6"/>
<!-- display/constants.ts -->
<g id="node1" class="node">
<title>display/constants.ts</title>
<path fill="none" stroke="#cfffac" d="M1738.33,-482.5C1738.33,-482.5 1619.67,-482.5 1619.67,-482.5 1615.83,-482.5 1612,-478.67 1612,-474.83 1612,-474.83 1612,-467.17 1612,-467.17 1612,-463.33 1615.83,-459.5 1619.67,-459.5 1619.67,-459.5 1738.33,-459.5 1738.33,-459.5 1742.17,-459.5 1746,-463.33 1746,-467.17 1746,-467.17 1746,-474.83 1746,-474.83 1746,-478.67 1742.17,-482.5 1738.33,-482.5"/>
<text text-anchor="middle" x="1679" y="-467.3" font-family="Arial" font-size="14.00" fill="#cfffac">display/constants.ts</text>
</g>
<!-- display/css/background.css.ts -->
<g id="node2" class="node">
<title>display/css/background.css.ts</title>
<path fill="none" stroke="#cfffac" d="M1522.83,-492.5C1522.83,-492.5 1343.17,-492.5 1343.17,-492.5 1339.33,-492.5 1335.5,-488.67 1335.5,-484.83 1335.5,-484.83 1335.5,-477.17 1335.5,-477.17 1335.5,-473.33 1339.33,-469.5 1343.17,-469.5 1343.17,-469.5 1522.83,-469.5 1522.83,-469.5 1526.67,-469.5 1530.5,-473.33 1530.5,-477.17 1530.5,-477.17 1530.5,-484.83 1530.5,-484.83 1530.5,-488.67 1526.67,-492.5 1522.83,-492.5"/>
<text text-anchor="middle" x="1433" y="-477.3" font-family="Arial" font-size="14.00" fill="#cfffac">display/css/background.css.ts</text>
</g>
<!-- display/css/basicHexagon.css.ts -->
<g id="node3" class="node">
<title>display/css/basicHexagon.css.ts</title>
<path fill="none" stroke="#cfffac" d="M1776.33,-553.5C1776.33,-553.5 1581.67,-553.5 1581.67,-553.5 1577.83,-553.5 1574,-549.67 1574,-545.83 1574,-545.83 1574,-538.17 1574,-538.17 1574,-534.33 1577.83,-530.5 1581.67,-530.5 1581.67,-530.5 1776.33,-530.5 1776.33,-530.5 1780.17,-530.5 1784,-534.33 1784,-538.17 1784,-538.17 1784,-545.83 1784,-545.83 1784,-549.67 1780.17,-553.5 1776.33,-553.5"/>
<text text-anchor="middle" x="1679" y="-538.3" font-family="Arial" font-size="14.00" fill="#cfffac">display/css/basicHexagon.css.ts</text>
</g>
<!-- display/css/container.css.ts -->
<g id="node4" class="node">
<title>display/css/container.css.ts</title>
<path fill="none" stroke="#cfffac" d="M1514.83,-451.5C1514.83,-451.5 1351.17,-451.5 1351.17,-451.5 1347.33,-451.5 1343.5,-447.67 1343.5,-443.83 1343.5,-443.83 1343.5,-436.17 1343.5,-436.17 1343.5,-432.33 1347.33,-428.5 1351.17,-428.5 1351.17,-428.5 1514.83,-428.5 1514.83,-428.5 1518.67,-428.5 1522.5,-432.33 1522.5,-436.17 1522.5,-436.17 1522.5,-443.83 1522.5,-443.83 1522.5,-447.67 1518.67,-451.5 1514.83,-451.5"/>
<text text-anchor="middle" x="1433" y="-436.3" font-family="Arial" font-size="14.00" fill="#cfffac">display/css/container.css.ts</text>
</g>
<!-- display/css/innerHexagon.css.ts -->
<g id="node5" class="node">
<title>display/css/innerHexagon.css.ts</title>
<path fill="none" stroke="#c6c5fe" d="M1529.83,-574.5C1529.83,-574.5 1336.17,-574.5 1336.17,-574.5 1332.33,-574.5 1328.5,-570.67 1328.5,-566.83 1328.5,-566.83 1328.5,-559.17 1328.5,-559.17 1328.5,-555.33 1332.33,-551.5 1336.17,-551.5 1336.17,-551.5 1529.83,-551.5 1529.83,-551.5 1533.67,-551.5 1537.5,-555.33 1537.5,-559.17 1537.5,-559.17 1537.5,-566.83 1537.5,-566.83 1537.5,-570.67 1533.67,-574.5 1529.83,-574.5"/>
<text text-anchor="middle" x="1433" y="-559.3" font-family="Arial" font-size="14.00" fill="#c6c5fe">display/css/innerHexagon.css.ts</text>
</g>
<!-- display/css/innerHexagon.css.ts&#45;&gt;display/css/basicHexagon.css.ts -->
<g id="edge1" class="edge">
<title>display/css/innerHexagon.css.ts&#45;&gt;display/css/basicHexagon.css.ts</title>
<path fill="none" stroke="#757575" d="M1537.83,-554.06C1546.41,-553.33 1555.11,-552.58 1563.76,-551.83"/>
<polygon fill="#757575" stroke="#757575" points="1564.21,-555.31 1573.87,-550.96 1563.61,-548.33 1564.21,-555.31"/>
</g>
<!-- display/css/mediaQueries.css.ts -->
<g id="node6" class="node">
<title>display/css/mediaQueries.css.ts</title>
<path fill="none" stroke="#c6c5fe" d="M1530.33,-410.5C1530.33,-410.5 1335.67,-410.5 1335.67,-410.5 1331.83,-410.5 1328,-406.67 1328,-402.83 1328,-402.83 1328,-395.17 1328,-395.17 1328,-391.33 1331.83,-387.5 1335.67,-387.5 1335.67,-387.5 1530.33,-387.5 1530.33,-387.5 1534.17,-387.5 1538,-391.33 1538,-395.17 1538,-395.17 1538,-402.83 1538,-402.83 1538,-406.67 1534.17,-410.5 1530.33,-410.5"/>
<text text-anchor="middle" x="1433" y="-395.3" font-family="Arial" font-size="14.00" fill="#c6c5fe">display/css/mediaQueries.css.ts</text>
</g>
<!-- display/css/mediaQueries.css.ts&#45;&gt;display/constants.ts -->
<g id="edge2" class="edge">
<title>display/css/mediaQueries.css.ts&#45;&gt;display/constants.ts</title>
<path fill="none" stroke="#757575" d="M1498.71,-410.5C1511.8,-413.26 1525.41,-416.46 1538,-420 1573.53,-430 1612.94,-444.69 1640.87,-455.74"/>
<polygon fill="#757575" stroke="#757575" points="1639.66,-459.03 1650.25,-459.49 1642.26,-452.53 1639.66,-459.03"/>
</g>
<!-- logic/utils.ts -->
<g id="node7" class="node">
<title>logic/utils.ts</title>
<path fill="none" stroke="#cfffac" d="M1714.33,-390.5C1714.33,-390.5 1643.67,-390.5 1643.67,-390.5 1639.83,-390.5 1636,-386.67 1636,-382.83 1636,-382.83 1636,-375.17 1636,-375.17 1636,-371.33 1639.83,-367.5 1643.67,-367.5 1643.67,-367.5 1714.33,-367.5 1714.33,-367.5 1718.17,-367.5 1722,-371.33 1722,-375.17 1722,-375.17 1722,-382.83 1722,-382.83 1722,-386.67 1718.17,-390.5 1714.33,-390.5"/>
<text text-anchor="middle" x="1679" y="-375.3" font-family="Arial" font-size="14.00" fill="#cfffac">logic/utils.ts</text>
</g>
<!-- display/css/mediaQueries.css.ts&#45;&gt;logic/utils.ts -->
<g id="edge3" class="edge">
<title>display/css/mediaQueries.css.ts&#45;&gt;logic/utils.ts</title>
<path fill="none" stroke="#757575" d="M1538.19,-390.46C1568.35,-387.99 1600.01,-385.39 1625.55,-383.3"/>
<polygon fill="#757575" stroke="#757575" points="1626.06,-386.77 1635.74,-382.46 1625.49,-379.79 1626.06,-386.77"/>
</g>
<!-- display/css/outerHexagon.css.ts -->
<g id="node8" class="node">
<title>display/css/outerHexagon.css.ts</title>
<path fill="none" stroke="#c6c5fe" d="M1529.83,-533.5C1529.83,-533.5 1336.17,-533.5 1336.17,-533.5 1332.33,-533.5 1328.5,-529.67 1328.5,-525.83 1328.5,-525.83 1328.5,-518.17 1328.5,-518.17 1328.5,-514.33 1332.33,-510.5 1336.17,-510.5 1336.17,-510.5 1529.83,-510.5 1529.83,-510.5 1533.67,-510.5 1537.5,-514.33 1537.5,-518.17 1537.5,-518.17 1537.5,-525.83 1537.5,-525.83 1537.5,-529.67 1533.67,-533.5 1529.83,-533.5"/>
<text text-anchor="middle" x="1433" y="-518.3" font-family="Arial" font-size="14.00" fill="#c6c5fe">display/css/outerHexagon.css.ts</text>
</g>
<!-- display/css/outerHexagon.css.ts&#45;&gt;display/constants.ts -->
<g id="edge4" class="edge">
<title>display/css/outerHexagon.css.ts&#45;&gt;display/constants.ts</title>
<path fill="none" stroke="#757575" d="M1495.37,-510.49C1509.4,-507.78 1524.23,-504.85 1538,-502 1564.14,-496.59 1592.94,-490.28 1617.59,-484.76"/>
<polygon fill="#757575" stroke="#757575" points="1618.54,-488.14 1627.53,-482.53 1617,-481.31 1618.54,-488.14"/>
</g>
<!-- display/css/outerHexagon.css.ts&#45;&gt;display/css/basicHexagon.css.ts -->
<g id="edge5" class="edge">
<title>display/css/outerHexagon.css.ts&#45;&gt;display/css/basicHexagon.css.ts</title>
<path fill="none" stroke="#757575" d="M1537.83,-530.51C1546.41,-531.21 1555.11,-531.93 1563.76,-532.64"/>
<polygon fill="#757575" stroke="#757575" points="1563.62,-536.14 1573.87,-533.46 1564.19,-529.16 1563.62,-536.14"/>
</g>
<!-- display/css/outerHexagon.css.ts&#45;&gt;logic/utils.ts -->
<g id="edge6" class="edge">
<title>display/css/outerHexagon.css.ts&#45;&gt;logic/utils.ts</title>
<path fill="none" stroke="#757575" d="M1521.66,-510.4C1527.39,-508.06 1532.9,-505.29 1538,-502 1561.31,-486.96 1554.29,-470.53 1574,-451 1596.25,-428.95 1625.99,-409.12 1647.96,-395.88"/>
<polygon fill="#757575" stroke="#757575" points="1650.03,-398.73 1656.86,-390.63 1646.47,-392.7 1650.03,-398.73"/>
</g>
<!-- display/css/text.css.ts -->
<g id="node9" class="node">
<title>display/css/text.css.ts</title>
<path fill="none" stroke="#c6c5fe" d="M1275.83,-471.5C1275.83,-471.5 1145.17,-471.5 1145.17,-471.5 1141.33,-471.5 1137.5,-467.67 1137.5,-463.83 1137.5,-463.83 1137.5,-456.17 1137.5,-456.17 1137.5,-452.33 1141.33,-448.5 1145.17,-448.5 1145.17,-448.5 1275.83,-448.5 1275.83,-448.5 1279.67,-448.5 1283.5,-452.33 1283.5,-456.17 1283.5,-456.17 1283.5,-463.83 1283.5,-463.83 1283.5,-467.67 1279.67,-471.5 1275.83,-471.5"/>
<text text-anchor="middle" x="1210.5" y="-456.3" font-family="Arial" font-size="14.00" fill="#c6c5fe">display/css/text.css.ts</text>
</g>
<!-- display/css/text.css.ts&#45;&gt;display/css/background.css.ts -->
<g id="edge7" class="edge">
<title>display/css/text.css.ts&#45;&gt;display/css/background.css.ts</title>
<path fill="none" stroke="#757575" d="M1283.7,-466.88C1296.94,-468.14 1311.01,-469.48 1325.02,-470.81"/>
<polygon fill="#757575" stroke="#757575" points="1324.9,-474.32 1335.19,-471.78 1325.57,-467.35 1324.9,-474.32"/>
</g>
<!-- display/css/text.css.ts&#45;&gt;display/css/container.css.ts -->
<g id="edge8" class="edge">
<title>display/css/text.css.ts&#45;&gt;display/css/container.css.ts</title>
<path fill="none" stroke="#757575" d="M1283.7,-453.45C1299.51,-452.02 1316.51,-450.48 1333.16,-448.97"/>
<polygon fill="#757575" stroke="#757575" points="1333.82,-452.42 1343.47,-448.03 1333.19,-445.45 1333.82,-452.42"/>
</g>
<!-- display/css/text.css.ts&#45;&gt;display/css/innerHexagon.css.ts -->
<g id="edge9" class="edge">
<title>display/css/text.css.ts&#45;&gt;display/css/innerHexagon.css.ts</title>
<path fill="none" stroke="#757575" d="M1223.99,-471.74C1244.19,-490.01 1285.99,-525.02 1328,-543 1332.74,-545.03 1337.69,-546.85 1342.74,-548.49"/>
<polygon fill="#757575" stroke="#757575" points="1341.98,-551.92 1352.56,-551.42 1343.98,-545.21 1341.98,-551.92"/>
</g>
<!-- display/css/text.css.ts&#45;&gt;display/css/mediaQueries.css.ts -->
<g id="edge10" class="edge">
<title>display/css/text.css.ts&#45;&gt;display/css/mediaQueries.css.ts</title>
<path fill="none" stroke="#757575" d="M1241.82,-448.36C1265.13,-439.71 1298.28,-428.06 1328,-420 1337.67,-417.38 1347.92,-414.92 1358.07,-412.68"/>
<polygon fill="#757575" stroke="#757575" points="1359.12,-416.03 1368.17,-410.51 1357.65,-409.19 1359.12,-416.03"/>
</g>
<!-- display/css/text.css.ts&#45;&gt;display/css/outerHexagon.css.ts -->
<g id="edge11" class="edge">
<title>display/css/text.css.ts&#45;&gt;display/css/outerHexagon.css.ts</title>
<path fill="none" stroke="#757575" d="M1239.83,-471.62C1263.17,-480.85 1297.32,-493.57 1328,-502 1336.37,-504.3 1345.2,-506.43 1354.02,-508.38"/>
<polygon fill="#757575" stroke="#757575" points="1353.44,-511.83 1363.95,-510.5 1354.91,-504.99 1353.44,-511.83"/>
</g>
<!-- display/hexagon.html.ts -->
<g id="node10" class="node">
<title>display/hexagon.html.ts</title>
<path fill="none" stroke="#cfffac" d="M402.33,-410.5C402.33,-410.5 259.67,-410.5 259.67,-410.5 255.83,-410.5 252,-406.67 252,-402.83 252,-402.83 252,-395.17 252,-395.17 252,-391.33 255.83,-387.5 259.67,-387.5 259.67,-387.5 402.33,-387.5 402.33,-387.5 406.17,-387.5 410,-391.33 410,-395.17 410,-395.17 410,-402.83 410,-402.83 410,-406.67 406.17,-410.5 402.33,-410.5"/>
<text text-anchor="middle" x="331" y="-395.3" font-family="Arial" font-size="14.00" fill="#cfffac">display/hexagon.html.ts</text>
</g>
<!-- display/hexagons/hexagon.ts -->
<g id="node11" class="node">
<title>display/hexagons/hexagon.ts</title>
<path fill="none" stroke="#cfffac" d="M2003.33,-228.5C2003.33,-228.5 1827.67,-228.5 1827.67,-228.5 1823.83,-228.5 1820,-224.67 1820,-220.83 1820,-220.83 1820,-213.17 1820,-213.17 1820,-209.33 1823.83,-205.5 1827.67,-205.5 1827.67,-205.5 2003.33,-205.5 2003.33,-205.5 2007.17,-205.5 2011,-209.33 2011,-213.17 2011,-213.17 2011,-220.83 2011,-220.83 2011,-224.67 2007.17,-228.5 2003.33,-228.5"/>
<text text-anchor="middle" x="1915.5" y="-213.3" font-family="Arial" font-size="14.00" fill="#cfffac">display/hexagons/hexagon.ts</text>
</g>
<!-- display/hexagons/hexagons.ts -->
<g id="node12" class="node">
<title>display/hexagons/hexagons.ts</title>
<path fill="none" stroke="#c6c5fe" d="M1769.83,-228.5C1769.83,-228.5 1588.17,-228.5 1588.17,-228.5 1584.33,-228.5 1580.5,-224.67 1580.5,-220.83 1580.5,-220.83 1580.5,-213.17 1580.5,-213.17 1580.5,-209.33 1584.33,-205.5 1588.17,-205.5 1588.17,-205.5 1769.83,-205.5 1769.83,-205.5 1773.67,-205.5 1777.5,-209.33 1777.5,-213.17 1777.5,-213.17 1777.5,-220.83 1777.5,-220.83 1777.5,-224.67 1773.67,-228.5 1769.83,-228.5"/>
<text text-anchor="middle" x="1679" y="-213.3" font-family="Arial" font-size="14.00" fill="#c6c5fe">display/hexagons/hexagons.ts</text>
</g>
<!-- display/hexagons/hexagons.ts&#45;&gt;display/hexagons/hexagon.ts -->
<g id="edge12" class="edge">
<title>display/hexagons/hexagons.ts&#45;&gt;display/hexagons/hexagon.ts</title>
<path fill="none" stroke="#757575" d="M1777.75,-217C1788.32,-217 1799.11,-217 1809.76,-217"/>
<polygon fill="#757575" stroke="#757575" points="1809.92,-220.5 1819.92,-217 1809.92,-213.5 1809.92,-220.5"/>
</g>
<!-- logic/display.ts -->
<g id="node13" class="node">
<title>logic/display.ts</title>
<path fill="none" stroke="#c6c5fe" d="M193.33,-370.5C193.33,-370.5 104.67,-370.5 104.67,-370.5 100.83,-370.5 97,-366.67 97,-362.83 97,-362.83 97,-355.17 97,-355.17 97,-351.33 100.83,-347.5 104.67,-347.5 104.67,-347.5 193.33,-347.5 193.33,-347.5 197.17,-347.5 201,-351.33 201,-355.17 201,-355.17 201,-362.83 201,-362.83 201,-366.67 197.17,-370.5 193.33,-370.5"/>
<text text-anchor="middle" x="149" y="-355.3" font-family="Arial" font-size="14.00" fill="#c6c5fe">logic/display.ts</text>
</g>
<!-- logic/display.ts&#45;&gt;logic/utils.ts -->
<g id="edge16" class="edge">
<title>logic/display.ts&#45;&gt;logic/utils.ts</title>
<path fill="none" stroke="#757575" d="M201.15,-359C274.28,-359 412.93,-359 531,-359 531,-359 531,-359 1211.5,-359 1362.04,-359 1539.65,-369.52 1625.84,-375.3"/>
<polygon fill="#757575" stroke="#757575" points="1625.68,-378.8 1635.89,-375.98 1626.15,-371.82 1625.68,-378.8"/>
</g>
<!-- logic/display.ts&#45;&gt;display/css/text.css.ts -->
<g id="edge13" class="edge">
<title>logic/display.ts&#45;&gt;display/css/text.css.ts</title>
<path fill="none" stroke="#757575" d="M162.07,-370.57C177.88,-384.92 207.09,-408.86 237,-420 360.08,-465.85 399.65,-450 531,-450 531,-450 531,-450 768.5,-450 893.55,-450 1038.49,-454.07 1127.07,-457.02"/>
<polygon fill="#757575" stroke="#757575" points="1127.21,-460.52 1137.32,-457.36 1127.45,-453.53 1127.21,-460.52"/>
</g>
<!-- logic/display.ts&#45;&gt;display/hexagon.html.ts -->
<g id="edge14" class="edge">
<title>logic/display.ts&#45;&gt;display/hexagon.html.ts</title>
<path fill="none" stroke="#757575" d="M201.1,-370.36C222.01,-375 246.39,-380.42 268.28,-385.29"/>
<polygon fill="#757575" stroke="#757575" points="267.63,-388.72 278.15,-387.48 269.15,-381.89 267.63,-388.72"/>
</g>
<!-- logic/inputs/inputElements.ts -->
<g id="node14" class="node">
<title>logic/inputs/inputElements.ts</title>
<path fill="none" stroke="#c6c5fe" d="M417.33,-228.5C417.33,-228.5 244.67,-228.5 244.67,-228.5 240.83,-228.5 237,-224.67 237,-220.83 237,-220.83 237,-213.17 237,-213.17 237,-209.33 240.83,-205.5 244.67,-205.5 244.67,-205.5 417.33,-205.5 417.33,-205.5 421.17,-205.5 425,-209.33 425,-213.17 425,-213.17 425,-220.83 425,-220.83 425,-224.67 421.17,-228.5 417.33,-228.5"/>
<text text-anchor="middle" x="331" y="-213.3" font-family="Arial" font-size="14.00" fill="#c6c5fe">logic/inputs/inputElements.ts</text>
</g>
<!-- logic/display.ts&#45;&gt;logic/inputs/inputElements.ts -->
<g id="edge15" class="edge">
<title>logic/display.ts&#45;&gt;logic/inputs/inputElements.ts</title>
<path fill="none" stroke="#757575" d="M164.73,-347.38C196.06,-322.67 269.48,-264.74 307.02,-235.13"/>
<polygon fill="#757575" stroke="#757575" points="309.64,-237.52 315.32,-228.58 305.3,-232.03 309.64,-237.52"/>
</g>
<!-- logic/inputs/InputFirstRow.ts -->
<g id="node17" class="node">
<title>logic/inputs/InputFirstRow.ts</title>
<path fill="none" stroke="#c6c5fe" d="M852.33,-248.5C852.33,-248.5 682.67,-248.5 682.67,-248.5 678.83,-248.5 675,-244.67 675,-240.83 675,-240.83 675,-233.17 675,-233.17 675,-229.33 678.83,-225.5 682.67,-225.5 682.67,-225.5 852.33,-225.5 852.33,-225.5 856.17,-225.5 860,-229.33 860,-233.17 860,-233.17 860,-240.83 860,-240.83 860,-244.67 856.17,-248.5 852.33,-248.5"/>
<text text-anchor="middle" x="767.5" y="-233.3" font-family="Arial" font-size="14.00" fill="#c6c5fe">logic/inputs/InputFirstRow.ts</text>
</g>
<!-- logic/inputs/inputElements.ts&#45;&gt;logic/inputs/InputFirstRow.ts -->
<g id="edge31" class="edge">
<title>logic/inputs/inputElements.ts&#45;&gt;logic/inputs/InputFirstRow.ts</title>
<path fill="none" stroke="#757575" d="M425.21,-221.29C495.7,-224.54 592.4,-228.99 664.87,-232.32"/>
<polygon fill="#757575" stroke="#757575" points="664.78,-235.82 674.93,-232.79 665.11,-228.83 664.78,-235.82"/>
</g>
<!-- logic/inputs/InputGap.ts -->
<g id="node18" class="node">
<title>logic/inputs/InputGap.ts</title>
<path fill="none" stroke="#c6c5fe" d="M838.83,-130.5C838.83,-130.5 696.17,-130.5 696.17,-130.5 692.33,-130.5 688.5,-126.67 688.5,-122.83 688.5,-122.83 688.5,-115.17 688.5,-115.17 688.5,-111.33 692.33,-107.5 696.17,-107.5 696.17,-107.5 838.83,-107.5 838.83,-107.5 842.67,-107.5 846.5,-111.33 846.5,-115.17 846.5,-115.17 846.5,-122.83 846.5,-122.83 846.5,-126.67 842.67,-130.5 838.83,-130.5"/>
<text text-anchor="middle" x="767.5" y="-115.3" font-family="Arial" font-size="14.00" fill="#c6c5fe">logic/inputs/InputGap.ts</text>
</g>
<!-- logic/inputs/inputElements.ts&#45;&gt;logic/inputs/InputGap.ts -->
<g id="edge32" class="edge">
<title>logic/inputs/inputElements.ts&#45;&gt;logic/inputs/InputGap.ts</title>
<path fill="none" stroke="#757575" d="M365.66,-205.42C391.52,-196.8 428.24,-185.16 461,-177 535.43,-158.46 621.35,-142.63 683.08,-132.22"/>
<polygon fill="#757575" stroke="#757575" points="683.87,-135.63 693.16,-130.53 682.72,-128.73 683.87,-135.63"/>
</g>
<!-- logic/inputs/InputRoot.ts -->
<g id="node19" class="node">
<title>logic/inputs/InputRoot.ts</title>
<path fill="none" stroke="#c6c5fe" d="M1085.33,-168.5C1085.33,-168.5 939.67,-168.5 939.67,-168.5 935.83,-168.5 932,-164.67 932,-160.83 932,-160.83 932,-153.17 932,-153.17 932,-149.33 935.83,-145.5 939.67,-145.5 939.67,-145.5 1085.33,-145.5 1085.33,-145.5 1089.17,-145.5 1093,-149.33 1093,-153.17 1093,-153.17 1093,-160.83 1093,-160.83 1093,-164.67 1089.17,-168.5 1085.33,-168.5"/>
<text text-anchor="middle" x="1012.5" y="-153.3" font-family="Arial" font-size="14.00" fill="#c6c5fe">logic/inputs/InputRoot.ts</text>
</g>
<!-- logic/inputs/inputElements.ts&#45;&gt;logic/inputs/InputRoot.ts -->
<g id="edge35" class="edge">
<title>logic/inputs/inputElements.ts&#45;&gt;logic/inputs/InputRoot.ts</title>
<path fill="none" stroke="#757575" d="M340.9,-205.29C360.04,-181.01 407.7,-125.1 461,-97 532.73,-59.19 558.41,-65.94 639,-57 752.53,-44.4 788.97,-17.1 896,-57 939.13,-73.08 976.86,-113.31 996.69,-137.56"/>
<polygon fill="#757575" stroke="#757575" points="993.97,-139.76 1002.94,-145.41 999.45,-135.4 993.97,-139.76"/>
</g>
<!-- logic/inputs/InputMediaQuery.ts -->
<g id="node20" class="node">
<title>logic/inputs/InputMediaQuery.ts</title>
<path fill="none" stroke="#c6c5fe" d="M862.83,-330.5C862.83,-330.5 672.17,-330.5 672.17,-330.5 668.33,-330.5 664.5,-326.67 664.5,-322.83 664.5,-322.83 664.5,-315.17 664.5,-315.17 664.5,-311.33 668.33,-307.5 672.17,-307.5 672.17,-307.5 862.83,-307.5 862.83,-307.5 866.67,-307.5 870.5,-311.33 870.5,-315.17 870.5,-315.17 870.5,-322.83 870.5,-322.83 870.5,-326.67 866.67,-330.5 862.83,-330.5"/>
<text text-anchor="middle" x="767.5" y="-315.3" font-family="Arial" font-size="14.00" fill="#c6c5fe">logic/inputs/InputMediaQuery.ts</text>
</g>
<!-- logic/inputs/inputElements.ts&#45;&gt;logic/inputs/InputMediaQuery.ts -->
<g id="edge33" class="edge">
<title>logic/inputs/inputElements.ts&#45;&gt;logic/inputs/InputMediaQuery.ts</title>
<path fill="none" stroke="#757575" d="M360.57,-228.52C386.46,-238.64 425.83,-253.23 461,-263 538.77,-284.61 559.56,-284.74 639,-299 652,-301.33 665.78,-303.65 679.29,-305.84"/>
<polygon fill="#757575" stroke="#757575" points="679.12,-309.36 689.55,-307.49 680.23,-302.45 679.12,-309.36"/>
</g>
<!-- logic/inputs/InputNumberOfHexagons.ts -->
<g id="node21" class="node">
<title>logic/inputs/InputNumberOfHexagons.ts</title>
<path fill="none" stroke="#c6c5fe" d="M888.33,-289.5C888.33,-289.5 646.67,-289.5 646.67,-289.5 642.83,-289.5 639,-285.67 639,-281.83 639,-281.83 639,-274.17 639,-274.17 639,-270.33 642.83,-266.5 646.67,-266.5 646.67,-266.5 888.33,-266.5 888.33,-266.5 892.17,-266.5 896,-270.33 896,-274.17 896,-274.17 896,-281.83 896,-281.83 896,-285.67 892.17,-289.5 888.33,-289.5"/>
<text text-anchor="middle" x="767.5" y="-274.3" font-family="Arial" font-size="14.00" fill="#c6c5fe">logic/inputs/InputNumberOfHexagons.ts</text>
</g>
<!-- logic/inputs/inputElements.ts&#45;&gt;logic/inputs/InputNumberOfHexagons.ts -->
<g id="edge34" class="edge">
<title>logic/inputs/inputElements.ts&#45;&gt;logic/inputs/InputNumberOfHexagons.ts</title>
<path fill="none" stroke="#757575" d="M392.92,-228.54C414.39,-232.43 438.73,-236.63 461,-240 524.19,-249.56 595,-258.48 652.52,-265.27"/>
<polygon fill="#757575" stroke="#757575" points="652.4,-268.78 662.74,-266.47 653.21,-261.83 652.4,-268.78"/>
</g>
<!-- logic/inputs/factory.ts -->
<g id="node22" class="node">
<title>logic/inputs/factory.ts</title>
<path fill="none" stroke="#c6c5fe" d="M595.33,-208.5C595.33,-208.5 468.67,-208.5 468.67,-208.5 464.83,-208.5 461,-204.67 461,-200.83 461,-200.83 461,-193.17 461,-193.17 461,-189.33 464.83,-185.5 468.67,-185.5 468.67,-185.5 595.33,-185.5 595.33,-185.5 599.17,-185.5 603,-189.33 603,-193.17 603,-193.17 603,-200.83 603,-200.83 603,-204.67 599.17,-208.5 595.33,-208.5"/>
<text text-anchor="middle" x="532" y="-193.3" font-family="Arial" font-size="14.00" fill="#c6c5fe">logic/inputs/factory.ts</text>
</g>
<!-- logic/inputs/inputElements.ts&#45;&gt;logic/inputs/factory.ts -->
<g id="edge36" class="edge">
<title>logic/inputs/inputElements.ts&#45;&gt;logic/inputs/factory.ts</title>
<path fill="none" stroke="#757575" d="M425.09,-207.64C433.65,-206.78 442.27,-205.92 450.7,-205.07"/>
<polygon fill="#757575" stroke="#757575" points="451.27,-208.53 460.87,-204.05 450.57,-201.57 451.27,-208.53"/>
</g>
<!-- logic/types.ts -->
<g id="node23" class="node">
<title>logic/types.ts</title>
<path fill="none" stroke="#cfffac" d="M807.33,-89.5C807.33,-89.5 727.67,-89.5 727.67,-89.5 723.83,-89.5 720,-85.67 720,-81.83 720,-81.83 720,-74.17 720,-74.17 720,-70.33 723.83,-66.5 727.67,-66.5 727.67,-66.5 807.33,-66.5 807.33,-66.5 811.17,-66.5 815,-70.33 815,-74.17 815,-74.17 815,-81.83 815,-81.83 815,-85.67 811.17,-89.5 807.33,-89.5"/>
<text text-anchor="middle" x="767.5" y="-74.3" font-family="Arial" font-size="14.00" fill="#cfffac">logic/types.ts</text>
</g>
<!-- logic/inputs/inputElements.ts&#45;&gt;logic/types.ts -->
<g id="edge37" class="edge">
<title>logic/inputs/inputElements.ts&#45;&gt;logic/types.ts</title>
<path fill="none" stroke="#757575" d="M348.31,-205.42C372.04,-189.06 417.97,-159.28 461,-142 544,-108.67 646.98,-91.71 709.66,-83.87"/>
<polygon fill="#757575" stroke="#757575" points="710.24,-87.33 719.74,-82.65 709.39,-80.38 710.24,-87.33"/>
</g>
<!-- logic/inputs/InputBase.ts -->
<g id="node15" class="node">
<title>logic/inputs/InputBase.ts</title>
<path fill="none" stroke="#c6c5fe" d="M1284.33,-228.5C1284.33,-228.5 1136.67,-228.5 1136.67,-228.5 1132.83,-228.5 1129,-224.67 1129,-220.83 1129,-220.83 1129,-213.17 1129,-213.17 1129,-209.33 1132.83,-205.5 1136.67,-205.5 1136.67,-205.5 1284.33,-205.5 1284.33,-205.5 1288.17,-205.5 1292,-209.33 1292,-213.17 1292,-213.17 1292,-220.83 1292,-220.83 1292,-224.67 1288.17,-228.5 1284.33,-228.5"/>
<text text-anchor="middle" x="1210.5" y="-213.3" font-family="Arial" font-size="14.00" fill="#c6c5fe">logic/inputs/InputBase.ts</text>
</g>
<!-- logic/main.ts -->
<g id="node16" class="node">
<title>logic/main.ts</title>
<path fill="none" stroke="#c6c5fe" d="M1471.33,-228.5C1471.33,-228.5 1394.67,-228.5 1394.67,-228.5 1390.83,-228.5 1387,-224.67 1387,-220.83 1387,-220.83 1387,-213.17 1387,-213.17 1387,-209.33 1390.83,-205.5 1394.67,-205.5 1394.67,-205.5 1471.33,-205.5 1471.33,-205.5 1475.17,-205.5 1479,-209.33 1479,-213.17 1479,-213.17 1479,-220.83 1479,-220.83 1479,-224.67 1475.17,-228.5 1471.33,-228.5"/>
<text text-anchor="middle" x="1433" y="-213.3" font-family="Arial" font-size="14.00" fill="#c6c5fe">logic/main.ts</text>
</g>
<!-- logic/inputs/InputBase.ts&#45;&gt;logic/main.ts -->
<g id="edge17" class="edge">
<title>logic/inputs/InputBase.ts&#45;&gt;logic/main.ts</title>
<path fill="none" stroke="#757575" d="M1292.04,-217C1320.15,-217 1351.05,-217 1376.65,-217"/>
<polygon fill="#757575" stroke="#757575" points="1376.91,-220.5 1386.91,-217 1376.91,-213.5 1376.91,-220.5"/>
</g>
<!-- logic/main.ts&#45;&gt;logic/utils.ts -->
<g id="edge39" class="edge">
<title>logic/main.ts&#45;&gt;logic/utils.ts</title>
<path fill="none" stroke="#757575" d="M1451.55,-228.65C1493.93,-256.79 1602.05,-328.58 1651.99,-361.73"/>
<polygon fill="#757575" stroke="#757575" points="1650.34,-364.84 1660.61,-367.45 1654.22,-359.01 1650.34,-364.84"/>
</g>
<!-- logic/main.ts&#45;&gt;display/hexagons/hexagons.ts -->
<g id="edge38" class="edge">
<title>logic/main.ts&#45;&gt;display/hexagons/hexagons.ts</title>
<path fill="none" stroke="#757575" d="M1479.04,-217C1504.7,-217 1538.03,-217 1570.06,-217"/>
<polygon fill="#757575" stroke="#757575" points="1570.4,-220.5 1580.4,-217 1570.4,-213.5 1570.4,-220.5"/>
</g>
<!-- logic/inputs/InputFirstRow.ts&#45;&gt;logic/inputs/InputBase.ts -->
<g id="edge18" class="edge">
<title>logic/inputs/InputFirstRow.ts&#45;&gt;logic/inputs/InputBase.ts</title>
<path fill="none" stroke="#757575" d="M860.14,-232.84C935.82,-229.41 1042.71,-224.56 1118.27,-221.14"/>
<polygon fill="#757575" stroke="#757575" points="1118.89,-224.61 1128.72,-220.66 1118.57,-217.62 1118.89,-224.61"/>
</g>
<!-- logic/inputs/InputGap.ts&#45;&gt;logic/inputs/InputBase.ts -->
<g id="edge19" class="edge">
<title>logic/inputs/InputGap.ts&#45;&gt;logic/inputs/InputBase.ts</title>
<path fill="none" stroke="#757575" d="M846.79,-111.72C913.95,-108.18 1012.36,-109.51 1093,-137 1131.1,-149.99 1168.2,-179.18 1189.95,-198.48"/>
<polygon fill="#757575" stroke="#757575" points="1187.74,-201.2 1197.5,-205.33 1192.45,-196.02 1187.74,-201.2"/>
</g>
<!-- logic/inputs/InputGap.ts&#45;&gt;logic/inputs/InputRoot.ts -->
<g id="edge20" class="edge">
<title>logic/inputs/InputGap.ts&#45;&gt;logic/inputs/InputRoot.ts</title>
<path fill="none" stroke="#757575" d="M842.07,-130.5C869.06,-134.73 899.82,-139.54 927.65,-143.89"/>
<polygon fill="#757575" stroke="#757575" points="927.34,-147.38 937.76,-145.47 928.42,-140.47 927.34,-147.38"/>
</g>
<!-- logic/inputs/InputRoot.ts&#45;&gt;logic/inputs/InputBase.ts -->
<g id="edge23" class="edge">
<title>logic/inputs/InputRoot.ts&#45;&gt;logic/inputs/InputBase.ts</title>
<path fill="none" stroke="#757575" d="M1051.29,-168.57C1082.88,-178.24 1128.1,-192.08 1162.11,-202.49"/>
<polygon fill="#757575" stroke="#757575" points="1161.24,-205.89 1171.83,-205.47 1163.29,-199.19 1161.24,-205.89"/>
</g>
<!-- logic/inputs/InputMediaQuery.ts&#45;&gt;logic/inputs/InputBase.ts -->
<g id="edge21" class="edge">
<title>logic/inputs/InputMediaQuery.ts&#45;&gt;logic/inputs/InputBase.ts</title>
<path fill="none" stroke="#757575" d="M868.08,-307.46C932.93,-298.57 1018.93,-284.17 1093,-263 1121.36,-254.89 1152.37,-242.47 1175.26,-232.57"/>
<polygon fill="#757575" stroke="#757575" points="1176.78,-235.72 1184.54,-228.51 1173.98,-229.31 1176.78,-235.72"/>
</g>
<!-- logic/inputs/InputNumberOfHexagons.ts&#45;&gt;logic/inputs/InputBase.ts -->
<g id="edge22" class="edge">
<title>logic/inputs/InputNumberOfHexagons.ts&#45;&gt;logic/inputs/InputBase.ts</title>
<path fill="none" stroke="#757575" d="M879.89,-266.48C942.63,-259.52 1022.34,-249.91 1093,-239 1109.17,-236.5 1126.54,-233.44 1142.79,-230.39"/>
<polygon fill="#757575" stroke="#757575" points="1143.57,-233.81 1152.75,-228.51 1142.27,-226.93 1143.57,-233.81"/>
</g>
<!-- logic/inputs/factory.ts&#45;&gt;logic/inputs/InputBase.ts -->
<g id="edge24" class="edge">
<title>logic/inputs/factory.ts&#45;&gt;logic/inputs/InputBase.ts</title>
<path fill="none" stroke="#757575" d="M603.17,-199.07C726.57,-202.72 982.31,-210.28 1118.89,-214.32"/>
<polygon fill="#757575" stroke="#757575" points="1118.82,-217.82 1128.92,-214.62 1119.03,-210.82 1118.82,-217.82"/>
</g>
<!-- logic/inputs/factory.ts&#45;&gt;logic/inputs/InputFirstRow.ts -->
<g id="edge25" class="edge">
<title>logic/inputs/factory.ts&#45;&gt;logic/inputs/InputFirstRow.ts</title>
<path fill="none" stroke="#757575" d="M600.22,-208.52C628.06,-213.29 660.52,-218.84 689.32,-223.78"/>
<polygon fill="#757575" stroke="#757575" points="688.9,-227.26 699.35,-225.5 690.08,-220.36 688.9,-227.26"/>
</g>
<!-- logic/inputs/factory.ts&#45;&gt;logic/inputs/InputGap.ts -->
<g id="edge26" class="edge">
<title>logic/inputs/factory.ts&#45;&gt;logic/inputs/InputGap.ts</title>
<path fill="none" stroke="#757575" d="M554.81,-185.48C580.69,-171.96 622.41,-150.66 639,-145 653.21,-140.16 668.63,-136.07 683.68,-132.69"/>
<polygon fill="#757575" stroke="#757575" points="684.46,-136.1 693.5,-130.56 682.98,-129.26 684.46,-136.1"/>
</g>
<!-- logic/inputs/factory.ts&#45;&gt;logic/inputs/InputRoot.ts -->
<g id="edge29" class="edge">
<title>logic/inputs/factory.ts&#45;&gt;logic/inputs/InputRoot.ts</title>
<path fill="none" stroke="#757575" d="M603.06,-187.13C615.04,-185.62 627.36,-184.17 639,-183 735.25,-173.29 845.87,-166.07 921.39,-161.73"/>
<polygon fill="#757575" stroke="#757575" points="922.03,-165.2 931.81,-161.14 921.63,-158.21 922.03,-165.2"/>
</g>
<!-- logic/inputs/factory.ts&#45;&gt;logic/inputs/InputMediaQuery.ts -->
<g id="edge27" class="edge">
<title>logic/inputs/factory.ts&#45;&gt;logic/inputs/InputMediaQuery.ts</title>
<path fill="none" stroke="#757575" d="M541.08,-208.51C557.02,-230.24 594.85,-277.08 639,-299 643.95,-301.46 649.14,-303.63 654.46,-305.55"/>
<polygon fill="#757575" stroke="#757575" points="653.59,-308.94 664.18,-308.73 655.76,-302.29 653.59,-308.94"/>
</g>
<!-- logic/inputs/factory.ts&#45;&gt;logic/inputs/InputNumberOfHexagons.ts -->
<g id="edge28" class="edge">
<title>logic/inputs/factory.ts&#45;&gt;logic/inputs/InputNumberOfHexagons.ts</title>
<path fill="none" stroke="#757575" d="M548.97,-208.72C568.97,-222.77 604.76,-245.93 639,-258 645.39,-260.25 652.05,-262.25 658.82,-264.03"/>
<polygon fill="#757575" stroke="#757575" points="658.27,-267.49 668.81,-266.47 659.93,-260.69 658.27,-267.49"/>
</g>
<!-- logic/inputs/factory.ts&#45;&gt;logic/types.ts -->
<g id="edge30" class="edge">
<title>logic/inputs/factory.ts&#45;&gt;logic/types.ts</title>
<path fill="none" stroke="#757575" d="M541.71,-185.32C558.16,-164.23 595.99,-120.02 639,-99 660.86,-88.31 687.08,-82.91 710.04,-80.24"/>
<polygon fill="#757575" stroke="#757575" points="710.41,-83.72 720,-79.22 709.69,-76.75 710.41,-83.72"/>
</g>
<!-- main.ts -->
<g id="node24" class="node">
<title>main.ts</title>
<path fill="none" stroke="#c6c5fe" d="M53.33,-190.5C53.33,-190.5 7.67,-190.5 7.67,-190.5 3.83,-190.5 0,-186.67 0,-182.83 0,-182.83 0,-175.17 0,-175.17 0,-171.33 3.83,-167.5 7.67,-167.5 7.67,-167.5 53.33,-167.5 53.33,-167.5 57.17,-167.5 61,-171.33 61,-175.17 61,-175.17 61,-182.83 61,-182.83 61,-186.67 57.17,-190.5 53.33,-190.5"/>
<text text-anchor="middle" x="30.5" y="-175.3" font-family="Arial" font-size="14.00" fill="#c6c5fe">main.ts</text>
</g>
<!-- main.ts&#45;&gt;logic/display.ts -->
<g id="edge40" class="edge">
<title>main.ts&#45;&gt;logic/display.ts</title>
<path fill="none" stroke="#757575" d="M38.96,-190.53C58.32,-220.43 110.3,-300.75 134.84,-338.66"/>
<polygon fill="#757575" stroke="#757575" points="132.07,-340.84 140.45,-347.33 137.95,-337.03 132.07,-340.84"/>
</g>
<!-- main.ts&#45;&gt;logic/main.ts -->
<g id="edge41" class="edge">
<title>main.ts&#45;&gt;logic/main.ts</title>
<path fill="none" stroke="#757575" d="M41.53,-167.26C76.71,-127.43 199.48,0 330,0 330,0 330,0 1013.5,0 1185.11,0 1356.37,-145.59 1412.72,-198.26"/>
<polygon fill="#757575" stroke="#757575" points="1410.51,-201 1420.18,-205.33 1415.33,-195.92 1410.51,-201"/>
</g>
</g>
</svg>
