<?xml version="1.0" encoding="UTF-8" standalone="no"?>
<!DOCTYPE svg PUBLIC "-//W3C//DTD SVG 1.1//EN"
 "http://www.w3.org/Graphics/SVG/1.1/DTD/svg11.dtd">
<!-- Generated by graphviz version 2.43.0 (0)
 -->
<!-- Title: G Pages: 1 -->
<svg width="1523pt" height="601pt"
 viewBox="0.00 0.00 1523.20 601.20" xmlns="http://www.w3.org/2000/svg" xmlns:xlink="http://www.w3.org/1999/xlink">
<g id="graph0" class="graph" transform="scale(1 1) rotate(0) translate(21.6 579.6)">
<title>G</title>
<polygon fill="#111111" stroke="transparent" points="-21.6,21.6 -21.6,-579.6 1501.6,-579.6 1501.6,21.6 -21.6,21.6"/>
<!-- constants.ts -->
<g id="node1" class="node">
<title>constants.ts</title>
<path fill="none" stroke="#cfffac" d="M872.33,-97.5C872.33,-97.5 798.67,-97.5 798.67,-97.5 794.83,-97.5 791,-93.67 791,-89.83 791,-89.83 791,-82.17 791,-82.17 791,-78.33 794.83,-74.5 798.67,-74.5 798.67,-74.5 872.33,-74.5 872.33,-74.5 876.17,-74.5 880,-78.33 880,-82.17 880,-82.17 880,-89.83 880,-89.83 880,-93.67 876.17,-97.5 872.33,-97.5"/>
<text text-anchor="middle" x="835.5" y="-82.3" font-family="Arial" font-size="14.00" fill="#cfffac">constants.ts</text>
</g>
<!-- display/css/background.css.ts -->
<g id="node2" class="node">
<title>display/css/background.css.ts</title>
<path fill="none" stroke="#cfffac" d="M655.83,-168.5C655.83,-168.5 476.17,-168.5 476.17,-168.5 472.33,-168.5 468.5,-164.67 468.5,-160.83 468.5,-160.83 468.5,-153.17 468.5,-153.17 468.5,-149.33 472.33,-145.5 476.17,-145.5 476.17,-145.5 655.83,-145.5 655.83,-145.5 659.67,-145.5 663.5,-149.33 663.5,-153.17 663.5,-153.17 663.5,-160.83 663.5,-160.83 663.5,-164.67 659.67,-168.5 655.83,-168.5"/>
<text text-anchor="middle" x="566" y="-153.3" font-family="Arial" font-size="14.00" fill="#cfffac">display/css/background.css.ts</text>
</g>
<!-- display/css/basicHexagon.css.ts -->
<g id="node3" class="node">
<title>display/css/basicHexagon.css.ts</title>
<path fill="none" stroke="#cfffac" d="M932.83,-287.5C932.83,-287.5 738.17,-287.5 738.17,-287.5 734.33,-287.5 730.5,-283.67 730.5,-279.83 730.5,-279.83 730.5,-272.17 730.5,-272.17 730.5,-268.33 734.33,-264.5 738.17,-264.5 738.17,-264.5 932.83,-264.5 932.83,-264.5 936.67,-264.5 940.5,-268.33 940.5,-272.17 940.5,-272.17 940.5,-279.83 940.5,-279.83 940.5,-283.67 936.67,-287.5 932.83,-287.5"/>
<text text-anchor="middle" x="835.5" y="-272.3" font-family="Arial" font-size="14.00" fill="#cfffac">display/css/basicHexagon.css.ts</text>
</g>
<!-- display/css/container.css.ts -->
<g id="node4" class="node">
<title>display/css/container.css.ts</title>
<path fill="none" stroke="#cfffac" d="M647.83,-209.5C647.83,-209.5 484.17,-209.5 484.17,-209.5 480.33,-209.5 476.5,-205.67 476.5,-201.83 476.5,-201.83 476.5,-194.17 476.5,-194.17 476.5,-190.33 480.33,-186.5 484.17,-186.5 484.17,-186.5 647.83,-186.5 647.83,-186.5 651.67,-186.5 655.5,-190.33 655.5,-194.17 655.5,-194.17 655.5,-201.83 655.5,-201.83 655.5,-205.67 651.67,-209.5 647.83,-209.5"/>
<text text-anchor="middle" x="566" y="-194.3" font-family="Arial" font-size="14.00" fill="#cfffac">display/css/container.css.ts</text>
</g>
<!-- display/css/innerHexagon.css.ts -->
<g id="node5" class="node">
<title>display/css/innerHexagon.css.ts</title>
<path fill="none" stroke="#c6c5fe" d="M662.83,-291.5C662.83,-291.5 469.17,-291.5 469.17,-291.5 465.33,-291.5 461.5,-287.67 461.5,-283.83 461.5,-283.83 461.5,-276.17 461.5,-276.17 461.5,-272.33 465.33,-268.5 469.17,-268.5 469.17,-268.5 662.83,-268.5 662.83,-268.5 666.67,-268.5 670.5,-272.33 670.5,-276.17 670.5,-276.17 670.5,-283.83 670.5,-283.83 670.5,-287.67 666.67,-291.5 662.83,-291.5"/>
<text text-anchor="middle" x="566" y="-276.3" font-family="Arial" font-size="14.00" fill="#c6c5fe">display/css/innerHexagon.css.ts</text>
</g>
<!-- display/css/innerHexagon.css.ts&#45;&gt;display/css/basicHexagon.css.ts -->
<g id="edge1" class="edge">
<title>display/css/innerHexagon.css.ts&#45;&gt;display/css/basicHexagon.css.ts</title>
<path fill="none" stroke="#757575" d="M670.81,-278.45C686.98,-278.21 703.77,-277.95 720.17,-277.71"/>
<polygon fill="#757575" stroke="#757575" points="720.37,-281.21 730.31,-277.56 720.26,-274.21 720.37,-281.21"/>
</g>
<!-- display/css/mediaQueries.css.ts -->
<g id="node6" class="node">
<title>display/css/mediaQueries.css.ts</title>
<path fill="none" stroke="#c6c5fe" d="M663.33,-127.5C663.33,-127.5 468.67,-127.5 468.67,-127.5 464.83,-127.5 461,-123.67 461,-119.83 461,-119.83 461,-112.17 461,-112.17 461,-108.33 464.83,-104.5 468.67,-104.5 468.67,-104.5 663.33,-104.5 663.33,-104.5 667.17,-104.5 671,-108.33 671,-112.17 671,-112.17 671,-119.83 671,-119.83 671,-123.67 667.17,-127.5 663.33,-127.5"/>
<text text-anchor="middle" x="566" y="-112.3" font-family="Arial" font-size="14.00" fill="#c6c5fe">display/css/mediaQueries.css.ts</text>
</g>
<!-- display/css/mediaQueries.css.ts&#45;&gt;constants.ts -->
<g id="edge2" class="edge">
<title>display/css/mediaQueries.css.ts&#45;&gt;constants.ts</title>
<path fill="none" stroke="#757575" d="M669.66,-104.49C707.55,-100.24 748.96,-95.59 780.8,-92.02"/>
<polygon fill="#757575" stroke="#757575" points="781.24,-95.5 790.79,-90.9 780.46,-88.54 781.24,-95.5"/>
</g>
<!-- logic/utils.ts -->
<g id="node7" class="node">
<title>logic/utils.ts</title>
<path fill="none" stroke="#cfffac" d="M1472.33,-227.5C1472.33,-227.5 1401.67,-227.5 1401.67,-227.5 1397.83,-227.5 1394,-223.67 1394,-219.83 1394,-219.83 1394,-212.17 1394,-212.17 1394,-208.33 1397.83,-204.5 1401.67,-204.5 1401.67,-204.5 1472.33,-204.5 1472.33,-204.5 1476.17,-204.5 1480,-208.33 1480,-212.17 1480,-212.17 1480,-219.83 1480,-219.83 1480,-223.67 1476.17,-227.5 1472.33,-227.5"/>
<text text-anchor="middle" x="1437" y="-212.3" font-family="Arial" font-size="14.00" fill="#cfffac">logic/utils.ts</text>
</g>
<!-- display/css/mediaQueries.css.ts&#45;&gt;logic/utils.ts -->
<g id="edge3" class="edge">
<title>display/css/mediaQueries.css.ts&#45;&gt;logic/utils.ts</title>
<path fill="none" stroke="#757575" d="M671.11,-110.47C824.65,-105.27 1119.39,-106.59 1358,-175 1376.51,-180.31 1395.68,-190.31 1410.38,-199.1"/>
<polygon fill="#757575" stroke="#757575" points="1408.56,-202.09 1418.91,-204.37 1412.24,-196.14 1408.56,-202.09"/>
</g>
<!-- display/css/outerHexagon.css.ts -->
<g id="node8" class="node">
<title>display/css/outerHexagon.css.ts</title>
<path fill="none" stroke="#c6c5fe" d="M662.83,-250.5C662.83,-250.5 469.17,-250.5 469.17,-250.5 465.33,-250.5 461.5,-246.67 461.5,-242.83 461.5,-242.83 461.5,-235.17 461.5,-235.17 461.5,-231.33 465.33,-227.5 469.17,-227.5 469.17,-227.5 662.83,-227.5 662.83,-227.5 666.67,-227.5 670.5,-231.33 670.5,-235.17 670.5,-235.17 670.5,-242.83 670.5,-242.83 670.5,-246.67 666.67,-250.5 662.83,-250.5"/>
<text text-anchor="middle" x="566" y="-235.3" font-family="Arial" font-size="14.00" fill="#c6c5fe">display/css/outerHexagon.css.ts</text>
</g>
<!-- display/css/outerHexagon.css.ts&#45;&gt;constants.ts -->
<g id="edge4" class="edge">
<title>display/css/outerHexagon.css.ts&#45;&gt;constants.ts</title>
<path fill="none" stroke="#757575" d="M645.28,-227.46C654.16,-224.91 662.91,-221.8 671,-218 731.36,-189.64 788.89,-134.47 816.85,-105.24"/>
<polygon fill="#757575" stroke="#757575" points="819.62,-107.41 823.93,-97.73 814.53,-102.61 819.62,-107.41"/>
</g>
<!-- display/css/outerHexagon.css.ts&#45;&gt;display/css/basicHexagon.css.ts -->
<g id="edge5" class="edge">
<title>display/css/outerHexagon.css.ts&#45;&gt;display/css/basicHexagon.css.ts</title>
<path fill="none" stroke="#757575" d="M650.17,-250.5C678.97,-254.49 711.44,-258.98 741.01,-263.07"/>
<polygon fill="#757575" stroke="#757575" points="740.53,-266.54 750.92,-264.44 741.49,-259.6 740.53,-266.54"/>
</g>
<!-- display/css/outerHexagon.css.ts&#45;&gt;logic/utils.ts -->
<g id="edge6" class="edge">
<title>display/css/outerHexagon.css.ts&#45;&gt;logic/utils.ts</title>
<path fill="none" stroke="#757575" d="M670.53,-236.26C857.13,-231.32 1243.5,-221.09 1383.72,-217.38"/>
<polygon fill="#757575" stroke="#757575" points="1383.87,-220.88 1393.77,-217.12 1383.68,-213.88 1383.87,-220.88"/>
</g>
<!-- display/css/text.css.ts -->
<g id="node9" class="node">
<title>display/css/text.css.ts</title>
<path fill="none" stroke="#c6c5fe" d="M396.33,-189.5C396.33,-189.5 265.67,-189.5 265.67,-189.5 261.83,-189.5 258,-185.67 258,-181.83 258,-181.83 258,-174.17 258,-174.17 258,-170.33 261.83,-166.5 265.67,-166.5 265.67,-166.5 396.33,-166.5 396.33,-166.5 400.17,-166.5 404,-170.33 404,-174.17 404,-174.17 404,-181.83 404,-181.83 404,-185.67 400.17,-189.5 396.33,-189.5"/>
<text text-anchor="middle" x="331" y="-174.3" font-family="Arial" font-size="14.00" fill="#c6c5fe">display/css/text.css.ts</text>
</g>
<!-- display/css/text.css.ts&#45;&gt;display/css/background.css.ts -->
<g id="edge7" class="edge">
<title>display/css/text.css.ts&#45;&gt;display/css/background.css.ts</title>
<path fill="none" stroke="#757575" d="M404.13,-171.5C421.27,-169.95 439.92,-168.27 458.24,-166.62"/>
<polygon fill="#757575" stroke="#757575" points="458.73,-170.09 468.37,-165.71 458.1,-163.12 458.73,-170.09"/>
</g>
<!-- display/css/text.css.ts&#45;&gt;display/css/container.css.ts -->
<g id="edge8" class="edge">
<title>display/css/text.css.ts&#45;&gt;display/css/container.css.ts</title>
<path fill="none" stroke="#757575" d="M404.13,-184.19C423.77,-185.88 445.39,-187.73 466.23,-189.52"/>
<polygon fill="#757575" stroke="#757575" points="466.12,-193.03 476.39,-190.39 466.72,-186.05 466.12,-193.03"/>
</g>
<!-- display/css/text.css.ts&#45;&gt;display/css/innerHexagon.css.ts -->
<g id="edge9" class="edge">
<title>display/css/text.css.ts&#45;&gt;display/css/innerHexagon.css.ts</title>
<path fill="none" stroke="#757575" d="M346.1,-189.53C368.83,-207.5 415.62,-241.97 461,-260 466.36,-262.13 471.98,-264.04 477.7,-265.75"/>
<polygon fill="#757575" stroke="#757575" points="476.82,-269.14 487.4,-268.44 478.7,-262.39 476.82,-269.14"/>
</g>
<!-- display/css/text.css.ts&#45;&gt;display/css/mediaQueries.css.ts -->
<g id="edge10" class="edge">
<title>display/css/text.css.ts&#45;&gt;display/css/mediaQueries.css.ts</title>
<path fill="none" stroke="#757575" d="M363.75,-166.44C389.66,-157.3 427.36,-144.67 461,-136 469.83,-133.72 479.13,-131.58 488.4,-129.6"/>
<polygon fill="#757575" stroke="#757575" points="489.35,-132.98 498.43,-127.52 487.92,-126.13 489.35,-132.98"/>
</g>
<!-- display/css/text.css.ts&#45;&gt;display/css/outerHexagon.css.ts -->
<g id="edge11" class="edge">
<title>display/css/text.css.ts&#45;&gt;display/css/outerHexagon.css.ts</title>
<path fill="none" stroke="#757575" d="M365.95,-189.56C391.81,-198.12 428.4,-209.68 461,-218 471.14,-220.59 481.91,-223.06 492.52,-225.35"/>
<polygon fill="#757575" stroke="#757575" points="492.12,-228.84 502.62,-227.48 493.56,-221.99 492.12,-228.84"/>
</g>
<!-- display/hexagon.html.ts -->
<g id="node10" class="node">
<title>display/hexagon.html.ts</title>
<path fill="none" stroke="#cfffac" d="M402.33,-89.5C402.33,-89.5 259.67,-89.5 259.67,-89.5 255.83,-89.5 252,-85.67 252,-81.83 252,-81.83 252,-74.17 252,-74.17 252,-70.33 255.83,-66.5 259.67,-66.5 259.67,-66.5 402.33,-66.5 402.33,-66.5 406.17,-66.5 410,-70.33 410,-74.17 410,-74.17 410,-81.83 410,-81.83 410,-85.67 406.17,-89.5 402.33,-89.5"/>
<text text-anchor="middle" x="331" y="-74.3" font-family="Arial" font-size="14.00" fill="#cfffac">display/hexagon.html.ts</text>
</g>
<!-- logic/display.ts -->
<g id="node11" class="node">
<title>logic/display.ts</title>
<path fill="none" stroke="#c6c5fe" d="M193.33,-159.5C193.33,-159.5 104.67,-159.5 104.67,-159.5 100.83,-159.5 97,-155.67 97,-151.83 97,-151.83 97,-144.17 97,-144.17 97,-140.33 100.83,-136.5 104.67,-136.5 104.67,-136.5 193.33,-136.5 193.33,-136.5 197.17,-136.5 201,-140.33 201,-144.17 201,-144.17 201,-151.83 201,-151.83 201,-155.67 197.17,-159.5 193.33,-159.5"/>
<text text-anchor="middle" x="149" y="-144.3" font-family="Arial" font-size="14.00" fill="#c6c5fe">logic/display.ts</text>
</g>
<!-- logic/display.ts&#45;&gt;constants.ts -->
<g id="edge12" class="edge">
<title>logic/display.ts&#45;&gt;constants.ts</title>
<path fill="none" stroke="#757575" d="M201.15,-136.94C262.53,-124.22 368.73,-103.93 461,-95 574.38,-84.03 707.97,-83.88 780.68,-84.86"/>
<polygon fill="#757575" stroke="#757575" points="780.91,-88.36 790.96,-85.01 781.01,-81.36 780.91,-88.36"/>
</g>
<!-- logic/display.ts&#45;&gt;logic/utils.ts -->
<g id="edge16" class="edge">
<title>logic/display.ts&#45;&gt;logic/utils.ts</title>
<path fill="none" stroke="#757575" d="M150.52,-159.64C152.92,-200.43 166.19,-338.81 237,-419 341.8,-537.68 406.67,-558 565,-558 565,-558 565,-558 1082.5,-558 1268.04,-558 1393.28,-311.63 1426.92,-237.1"/>
<polygon fill="#757575" stroke="#757575" points="1430.2,-238.33 1431.05,-227.77 1423.8,-235.5 1430.2,-238.33"/>
</g>
<!-- logic/display.ts&#45;&gt;display/css/text.css.ts -->
<g id="edge13" class="edge">
<title>logic/display.ts&#45;&gt;display/css/text.css.ts</title>
<path fill="none" stroke="#757575" d="M201.1,-156.52C216.65,-159.11 234.12,-162.02 251.06,-164.84"/>
<polygon fill="#757575" stroke="#757575" points="250.52,-168.3 260.96,-166.49 251.67,-161.4 250.52,-168.3"/>
</g>
<!-- logic/display.ts&#45;&gt;display/hexagon.html.ts -->
<g id="edge14" class="edge">
<title>logic/display.ts&#45;&gt;display/hexagon.html.ts</title>
<path fill="none" stroke="#757575" d="M170.22,-136.34C187.53,-126.72 213.33,-113.19 237,-104 248.11,-99.69 260.22,-95.76 271.92,-92.35"/>
<polygon fill="#757575" stroke="#757575" points="272.96,-95.69 281.62,-89.6 271.05,-88.96 272.96,-95.69"/>
</g>
<!-- logic/inputs/inputElements.ts -->
<g id="node12" class="node">
<title>logic/inputs/inputElements.ts</title>
<path fill="none" stroke="#c6c5fe" d="M417.33,-409.5C417.33,-409.5 244.67,-409.5 244.67,-409.5 240.83,-409.5 237,-405.67 237,-401.83 237,-401.83 237,-394.17 237,-394.17 237,-390.33 240.83,-386.5 244.67,-386.5 244.67,-386.5 417.33,-386.5 417.33,-386.5 421.17,-386.5 425,-390.33 425,-394.17 425,-394.17 425,-401.83 425,-401.83 425,-405.67 421.17,-409.5 417.33,-409.5"/>
<text text-anchor="middle" x="331" y="-394.3" font-family="Arial" font-size="14.00" fill="#c6c5fe">logic/inputs/inputElements.ts</text>
</g>
<!-- logic/display.ts&#45;&gt;logic/inputs/inputElements.ts -->
<g id="edge15" class="edge">
<title>logic/display.ts&#45;&gt;logic/inputs/inputElements.ts</title>
<path fill="none" stroke="#757575" d="M158.44,-159.72C186.9,-199.25 279.59,-327.98 315.55,-377.93"/>
<polygon fill="#757575" stroke="#757575" points="312.89,-380.23 321.58,-386.3 318.58,-376.14 312.89,-380.23"/>
</g>
<!-- logic/inputs/InputBase.ts -->
<g id="node14" class="node">
<title>logic/inputs/InputBase.ts</title>
<path fill="none" stroke="#c6c5fe" d="M1155.33,-409.5C1155.33,-409.5 1007.67,-409.5 1007.67,-409.5 1003.83,-409.5 1000,-405.67 1000,-401.83 1000,-401.83 1000,-394.17 1000,-394.17 1000,-390.33 1003.83,-386.5 1007.67,-386.5 1007.67,-386.5 1155.33,-386.5 1155.33,-386.5 1159.17,-386.5 1163,-390.33 1163,-394.17 1163,-394.17 1163,-401.83 1163,-401.83 1163,-405.67 1159.17,-409.5 1155.33,-409.5"/>
<text text-anchor="middle" x="1081.5" y="-394.3" font-family="Arial" font-size="14.00" fill="#c6c5fe">logic/inputs/InputBase.ts</text>
</g>
<!-- logic/inputs/inputElements.ts&#45;&gt;logic/inputs/InputBase.ts -->
<g id="edge25" class="edge">
<title>logic/inputs/inputElements.ts&#45;&gt;logic/inputs/InputBase.ts</title>
<path fill="none" stroke="#757575" d="M360.68,-409.52C386.48,-419.35 425.65,-432.98 461,-440 680.44,-483.55 746.76,-512.43 964,-459 998.25,-450.58 1033.59,-430.1 1056.23,-415.19"/>
<polygon fill="#757575" stroke="#757575" points="1058.21,-418.08 1064.54,-409.59 1054.29,-412.28 1058.21,-418.08"/>
</g>
<!-- logic/inputs/InputFirstRow.ts -->
<g id="node15" class="node">
<title>logic/inputs/InputFirstRow.ts</title>
<path fill="none" stroke="#c6c5fe" d="M920.33,-449.5C920.33,-449.5 750.67,-449.5 750.67,-449.5 746.83,-449.5 743,-445.67 743,-441.83 743,-441.83 743,-434.17 743,-434.17 743,-430.33 746.83,-426.5 750.67,-426.5 750.67,-426.5 920.33,-426.5 920.33,-426.5 924.17,-426.5 928,-430.33 928,-434.17 928,-434.17 928,-441.83 928,-441.83 928,-445.67 924.17,-449.5 920.33,-449.5"/>
<text text-anchor="middle" x="835.5" y="-434.3" font-family="Arial" font-size="14.00" fill="#c6c5fe">logic/inputs/InputFirstRow.ts</text>
</g>
<!-- logic/inputs/inputElements.ts&#45;&gt;logic/inputs/InputFirstRow.ts -->
<g id="edge26" class="edge">
<title>logic/inputs/inputElements.ts&#45;&gt;logic/inputs/InputFirstRow.ts</title>
<path fill="none" stroke="#757575" d="M394.15,-409.54C415.29,-413.09 439.11,-416.67 461,-419 552.57,-428.75 657.32,-433.53 732.54,-435.85"/>
<polygon fill="#757575" stroke="#757575" points="732.85,-439.36 742.95,-436.16 733.06,-432.37 732.85,-439.36"/>
</g>
<!-- logic/inputs/InputGap.ts -->
<g id="node16" class="node">
<title>logic/inputs/InputGap.ts</title>
<path fill="none" stroke="#c6c5fe" d="M637.33,-409.5C637.33,-409.5 494.67,-409.5 494.67,-409.5 490.83,-409.5 487,-405.67 487,-401.83 487,-401.83 487,-394.17 487,-394.17 487,-390.33 490.83,-386.5 494.67,-386.5 494.67,-386.5 637.33,-386.5 637.33,-386.5 641.17,-386.5 645,-390.33 645,-394.17 645,-394.17 645,-401.83 645,-401.83 645,-405.67 641.17,-409.5 637.33,-409.5"/>
<text text-anchor="middle" x="566" y="-394.3" font-family="Arial" font-size="14.00" fill="#c6c5fe">logic/inputs/InputGap.ts</text>
</g>
<!-- logic/inputs/inputElements.ts&#45;&gt;logic/inputs/InputGap.ts -->
<g id="edge27" class="edge">
<title>logic/inputs/inputElements.ts&#45;&gt;logic/inputs/InputGap.ts</title>
<path fill="none" stroke="#757575" d="M425.09,-398C441.99,-398 459.58,-398 476.35,-398"/>
<polygon fill="#757575" stroke="#757575" points="476.67,-401.5 486.67,-398 476.67,-394.5 476.67,-401.5"/>
</g>
<!-- logic/inputs/InputRoot.ts -->
<g id="node17" class="node">
<title>logic/inputs/InputRoot.ts</title>
<path fill="none" stroke="#c6c5fe" d="M908.33,-369.5C908.33,-369.5 762.67,-369.5 762.67,-369.5 758.83,-369.5 755,-365.67 755,-361.83 755,-361.83 755,-354.17 755,-354.17 755,-350.33 758.83,-346.5 762.67,-346.5 762.67,-346.5 908.33,-346.5 908.33,-346.5 912.17,-346.5 916,-350.33 916,-354.17 916,-354.17 916,-361.83 916,-361.83 916,-365.67 912.17,-369.5 908.33,-369.5"/>
<text text-anchor="middle" x="835.5" y="-354.3" font-family="Arial" font-size="14.00" fill="#c6c5fe">logic/inputs/InputRoot.ts</text>
</g>
<!-- logic/inputs/inputElements.ts&#45;&gt;logic/inputs/InputRoot.ts -->
<g id="edge30" class="edge">
<title>logic/inputs/inputElements.ts&#45;&gt;logic/inputs/InputRoot.ts</title>
<path fill="none" stroke="#757575" d="M397.79,-386.5C418.01,-383.31 440.37,-380.15 461,-378 557.54,-367.96 668.67,-362.82 744.45,-360.29"/>
<polygon fill="#757575" stroke="#757575" points="745.02,-363.77 754.9,-359.95 744.79,-356.78 745.02,-363.77"/>
</g>
<!-- logic/inputs/InputMediaQuery.ts -->
<g id="node18" class="node">
<title>logic/inputs/InputMediaQuery.ts</title>
<path fill="none" stroke="#c6c5fe" d="M930.83,-328.5C930.83,-328.5 740.17,-328.5 740.17,-328.5 736.33,-328.5 732.5,-324.67 732.5,-320.83 732.5,-320.83 732.5,-313.17 732.5,-313.17 732.5,-309.33 736.33,-305.5 740.17,-305.5 740.17,-305.5 930.83,-305.5 930.83,-305.5 934.67,-305.5 938.5,-309.33 938.5,-313.17 938.5,-313.17 938.5,-320.83 938.5,-320.83 938.5,-324.67 934.67,-328.5 930.83,-328.5"/>
<text text-anchor="middle" x="835.5" y="-313.3" font-family="Arial" font-size="14.00" fill="#c6c5fe">logic/inputs/InputMediaQuery.ts</text>
</g>
<!-- logic/inputs/inputElements.ts&#45;&gt;logic/inputs/InputMediaQuery.ts -->
<g id="edge28" class="edge">
<title>logic/inputs/inputElements.ts&#45;&gt;logic/inputs/InputMediaQuery.ts</title>
<path fill="none" stroke="#757575" d="M364.19,-386.49C390.03,-377.68 427.43,-365.9 461,-359 547.68,-341.18 647.35,-330.45 721.91,-324.3"/>
<polygon fill="#757575" stroke="#757575" points="722.58,-327.76 732.26,-323.47 722.01,-320.78 722.58,-327.76"/>
</g>
<!-- logic/inputs/InputNumberOfHexagons.ts -->
<g id="node19" class="node">
<title>logic/inputs/InputNumberOfHexagons.ts</title>
<path fill="none" stroke="#c6c5fe" d="M956.33,-529.5C956.33,-529.5 714.67,-529.5 714.67,-529.5 710.83,-529.5 707,-525.67 707,-521.83 707,-521.83 707,-514.17 707,-514.17 707,-510.33 710.83,-506.5 714.67,-506.5 714.67,-506.5 956.33,-506.5 956.33,-506.5 960.17,-506.5 964,-510.33 964,-514.17 964,-514.17 964,-521.83 964,-521.83 964,-525.67 960.17,-529.5 956.33,-529.5"/>
<text text-anchor="middle" x="835.5" y="-514.3" font-family="Arial" font-size="14.00" fill="#c6c5fe">logic/inputs/InputNumberOfHexagons.ts</text>
</g>
<!-- logic/inputs/inputElements.ts&#45;&gt;logic/inputs/InputNumberOfHexagons.ts -->
<g id="edge29" class="edge">
<title>logic/inputs/inputElements.ts&#45;&gt;logic/inputs/InputNumberOfHexagons.ts</title>
<path fill="none" stroke="#757575" d="M343.11,-409.6C363.94,-430.47 411.27,-473.87 461,-492 535.8,-519.27 624.53,-526.4 696.73,-526.41"/>
<polygon fill="#757575" stroke="#757575" points="696.82,-529.91 706.81,-526.37 696.79,-522.91 696.82,-529.91"/>
</g>
<!-- logic/hexagonSection.ts -->
<g id="node13" class="node">
<title>logic/hexagonSection.ts</title>
<path fill="none" stroke="#c6c5fe" d="M1350.33,-207.5C1350.33,-207.5 1206.67,-207.5 1206.67,-207.5 1202.83,-207.5 1199,-203.67 1199,-199.83 1199,-199.83 1199,-192.17 1199,-192.17 1199,-188.33 1202.83,-184.5 1206.67,-184.5 1206.67,-184.5 1350.33,-184.5 1350.33,-184.5 1354.17,-184.5 1358,-188.33 1358,-192.17 1358,-192.17 1358,-199.83 1358,-199.83 1358,-203.67 1354.17,-207.5 1350.33,-207.5"/>
<text text-anchor="middle" x="1278.5" y="-192.3" font-family="Arial" font-size="14.00" fill="#c6c5fe">logic/hexagonSection.ts</text>
</g>
<!-- logic/hexagonSection.ts&#45;&gt;logic/utils.ts -->
<g id="edge17" class="edge">
<title>logic/hexagonSection.ts&#45;&gt;logic/utils.ts</title>
<path fill="none" stroke="#757575" d="M1358.21,-206.06C1366.88,-207.17 1375.54,-208.27 1383.77,-209.33"/>
<polygon fill="#757575" stroke="#757575" points="1383.57,-212.83 1393.93,-210.62 1384.46,-205.88 1383.57,-212.83"/>
</g>
<!-- logic/inputs/InputBase.ts&#45;&gt;logic/hexagonSection.ts -->
<g id="edge18" class="edge">
<title>logic/inputs/InputBase.ts&#45;&gt;logic/hexagonSection.ts</title>
<path fill="none" stroke="#757575" d="M1093.83,-386.27C1126.2,-352.73 1219.37,-256.21 1259.15,-215.01"/>
<polygon fill="#757575" stroke="#757575" points="1261.71,-217.39 1266.14,-207.77 1256.68,-212.53 1261.71,-217.39"/>
</g>
<!-- logic/inputs/InputFirstRow.ts&#45;&gt;logic/inputs/InputBase.ts -->
<g id="edge19" class="edge">
<title>logic/inputs/InputFirstRow.ts&#45;&gt;logic/inputs/InputBase.ts</title>
<path fill="none" stroke="#757575" d="M906.75,-426.48C935.97,-421.69 970.05,-416.11 1000.25,-411.16"/>
<polygon fill="#757575" stroke="#757575" points="1001.02,-414.58 1010.33,-409.5 999.89,-407.67 1001.02,-414.58"/>
</g>
<!-- logic/inputs/InputGap.ts&#45;&gt;logic/inputs/InputBase.ts -->
<g id="edge20" class="edge">
<title>logic/inputs/InputGap.ts&#45;&gt;logic/inputs/InputBase.ts</title>
<path fill="none" stroke="#757575" d="M645.27,-398C737.87,-398 891.78,-398 989.58,-398"/>
<polygon fill="#757575" stroke="#757575" points="989.75,-401.5 999.75,-398 989.75,-394.5 989.75,-401.5"/>
</g>
<!-- logic/inputs/InputGap.ts&#45;&gt;logic/inputs/InputRoot.ts -->
<g id="edge21" class="edge">
<title>logic/inputs/InputGap.ts&#45;&gt;logic/inputs/InputRoot.ts</title>
<path fill="none" stroke="#757575" d="M644.01,-386.48C676.32,-381.65 714.06,-376.01 747.38,-371.03"/>
<polygon fill="#757575" stroke="#757575" points="748.19,-374.44 757.57,-369.5 747.16,-367.52 748.19,-374.44"/>
</g>
<!-- logic/inputs/InputRoot.ts&#45;&gt;logic/inputs/InputBase.ts -->
<g id="edge24" class="edge">
<title>logic/inputs/InputRoot.ts&#45;&gt;logic/inputs/InputBase.ts</title>
<path fill="none" stroke="#757575" d="M906.75,-369.52C935.97,-374.31 970.05,-379.89 1000.25,-384.84"/>
<polygon fill="#757575" stroke="#757575" points="999.89,-388.33 1010.33,-386.5 1001.02,-381.42 999.89,-388.33"/>
</g>
<!-- logic/inputs/InputMediaQuery.ts&#45;&gt;logic/inputs/InputBase.ts -->
<g id="edge22" class="edge">
<title>logic/inputs/InputMediaQuery.ts&#45;&gt;logic/inputs/InputBase.ts</title>
<path fill="none" stroke="#757575" d="M928.23,-328.56C940.4,-331.12 952.61,-334.23 964,-338 996.27,-348.67 1030.56,-367.33 1053.51,-381.01"/>
<polygon fill="#757575" stroke="#757575" points="1051.96,-384.16 1062.32,-386.35 1055.58,-378.17 1051.96,-384.16"/>
</g>
<!-- logic/inputs/InputNumberOfHexagons.ts&#45;&gt;logic/inputs/InputBase.ts -->
<g id="edge23" class="edge">
<title>logic/inputs/InputNumberOfHexagons.ts&#45;&gt;logic/inputs/InputBase.ts</title>
<path fill="none" stroke="#757575" d="M922,-506.46C936.41,-502.86 950.92,-498.16 964,-492 1003.58,-473.37 1041.48,-438.6 1062.79,-416.97"/>
<polygon fill="#757575" stroke="#757575" points="1065.44,-419.27 1069.87,-409.65 1060.4,-414.4 1065.44,-419.27"/>
</g>
<!-- main.ts -->
<g id="node20" class="node">
<title>main.ts</title>
<path fill="none" stroke="#c6c5fe" d="M53.33,-49.5C53.33,-49.5 7.67,-49.5 7.67,-49.5 3.83,-49.5 0,-45.67 0,-41.83 0,-41.83 0,-34.17 0,-34.17 0,-30.33 3.83,-26.5 7.67,-26.5 7.67,-26.5 53.33,-26.5 53.33,-26.5 57.17,-26.5 61,-30.33 61,-34.17 61,-34.17 61,-41.83 61,-41.83 61,-45.67 57.17,-49.5 53.33,-49.5"/>
<text text-anchor="middle" x="30.5" y="-34.3" font-family="Arial" font-size="14.00" fill="#c6c5fe">main.ts</text>
</g>
<!-- main.ts&#45;&gt;constants.ts -->
<g id="edge31" class="edge">
<title>main.ts&#45;&gt;constants.ts</title>
<path fill="none" stroke="#757575" d="M61.13,-39.2C126.72,-41.92 289.13,-48.91 425,-57 552.67,-64.6 702.56,-75.8 780.79,-81.81"/>
<polygon fill="#757575" stroke="#757575" points="780.65,-85.31 790.89,-82.59 781.18,-78.33 780.65,-85.31"/>
</g>
<!-- main.ts&#45;&gt;logic/display.ts -->
<g id="edge32" class="edge">
<title>main.ts&#45;&gt;logic/display.ts</title>
<path fill="none" stroke="#757575" d="M43.97,-49.77C64.11,-68.79 104,-106.45 128.1,-129.21"/>
<polygon fill="#757575" stroke="#757575" points="125.95,-131.99 135.62,-136.31 130.75,-126.9 125.95,-131.99"/>
</g>
<!-- main.ts&#45;&gt;logic/hexagonSection.ts -->
<g id="edge33" class="edge">
<title>main.ts&#45;&gt;logic/hexagonSection.ts</title>
<path fill="none" stroke="#757575" d="M61.42,-31.64C115.01,-20.82 231,0 330,0 330,0 330,0 836.5,0 1010.94,0 1193.34,-129.65 1255.37,-178.06"/>
<polygon fill="#757575" stroke="#757575" points="1253.29,-180.88 1263.31,-184.33 1257.63,-175.38 1253.29,-180.88"/>
</g>
</g>
</svg>
