<?xml version="1.0" encoding="UTF-8" standalone="no"?>
<!DOCTYPE svg PUBLIC "-//W3C//DTD SVG 1.1//EN"
 "http://www.w3.org/Graphics/SVG/1.1/DTD/svg11.dtd">
<!-- Generated by graphviz version 2.43.0 (0)
 -->
<!-- Title: G Pages: 1 -->
<svg width="1412pt" height="1052pt"
 viewBox="0.00 0.00 1412.20 1051.82" xmlns="http://www.w3.org/2000/svg" xmlns:xlink="http://www.w3.org/1999/xlink">
<g id="graph0" class="graph" transform="scale(1 1) rotate(0) translate(21.6 1030.22)">
<title>G</title>
<polygon fill="#111111" stroke="transparent" points="-21.6,21.6 -21.6,-1030.22 1390.6,-1030.22 1390.6,21.6 -21.6,21.6"/>
<!-- display/constants.ts -->
<g id="node1" class="node">
<title>display/constants.ts</title>
<path fill="none" stroke="#cfffac" d="M1148.83,-202.12C1148.83,-202.12 1030.17,-202.12 1030.17,-202.12 1026.33,-202.12 1022.5,-198.29 1022.5,-194.45 1022.5,-194.45 1022.5,-186.79 1022.5,-186.79 1022.5,-182.95 1026.33,-179.12 1030.17,-179.12 1030.17,-179.12 1148.83,-179.12 1148.83,-179.12 1152.67,-179.12 1156.5,-182.95 1156.5,-186.79 1156.5,-186.79 1156.5,-194.45 1156.5,-194.45 1156.5,-198.29 1152.67,-202.12 1148.83,-202.12"/>
<text text-anchor="middle" x="1089.5" y="-186.92" font-family="Arial" font-size="14.00" fill="#cfffac">display/constants.ts</text>
</g>
<!-- display/css/background.css.ts -->
<g id="node2" class="node">
<title>display/css/background.css.ts</title>
<path fill="none" stroke="#cfffac" d="M664.83,-159.12C664.83,-159.12 485.17,-159.12 485.17,-159.12 481.33,-159.12 477.5,-155.29 477.5,-151.45 477.5,-151.45 477.5,-143.79 477.5,-143.79 477.5,-139.95 481.33,-136.12 485.17,-136.12 485.17,-136.12 664.83,-136.12 664.83,-136.12 668.67,-136.12 672.5,-139.95 672.5,-143.79 672.5,-143.79 672.5,-151.45 672.5,-151.45 672.5,-155.29 668.67,-159.12 664.83,-159.12"/>
<text text-anchor="middle" x="575" y="-143.92" font-family="Arial" font-size="14.00" fill="#cfffac">display/css/background.css.ts</text>
</g>
<!-- display/css/basicHexagon.css.ts -->
<g id="node3" class="node">
<title>display/css/basicHexagon.css.ts</title>
<path fill="none" stroke="#cfffac" d="M941.83,-302.12C941.83,-302.12 747.17,-302.12 747.17,-302.12 743.33,-302.12 739.5,-298.29 739.5,-294.45 739.5,-294.45 739.5,-286.79 739.5,-286.79 739.5,-282.95 743.33,-279.12 747.17,-279.12 747.17,-279.12 941.83,-279.12 941.83,-279.12 945.67,-279.12 949.5,-282.95 949.5,-286.79 949.5,-286.79 949.5,-294.45 949.5,-294.45 949.5,-298.29 945.67,-302.12 941.83,-302.12"/>
<text text-anchor="middle" x="844.5" y="-286.92" font-family="Arial" font-size="14.00" fill="#cfffac">display/css/basicHexagon.css.ts</text>
</g>
<!-- display/css/container.css.ts -->
<g id="node4" class="node">
<title>display/css/container.css.ts</title>
<path fill="none" stroke="#cfffac" d="M656.83,-282.12C656.83,-282.12 493.17,-282.12 493.17,-282.12 489.33,-282.12 485.5,-278.29 485.5,-274.45 485.5,-274.45 485.5,-266.79 485.5,-266.79 485.5,-262.95 489.33,-259.12 493.17,-259.12 493.17,-259.12 656.83,-259.12 656.83,-259.12 660.67,-259.12 664.5,-262.95 664.5,-266.79 664.5,-266.79 664.5,-274.45 664.5,-274.45 664.5,-278.29 660.67,-282.12 656.83,-282.12"/>
<text text-anchor="middle" x="575" y="-266.92" font-family="Arial" font-size="14.00" fill="#cfffac">display/css/container.css.ts</text>
</g>
<!-- display/css/innerHexagon.css.ts -->
<g id="node5" class="node">
<title>display/css/innerHexagon.css.ts</title>
<path fill="none" stroke="#c6c5fe" d="M671.83,-323.12C671.83,-323.12 478.17,-323.12 478.17,-323.12 474.33,-323.12 470.5,-319.29 470.5,-315.45 470.5,-315.45 470.5,-307.79 470.5,-307.79 470.5,-303.95 474.33,-300.12 478.17,-300.12 478.17,-300.12 671.83,-300.12 671.83,-300.12 675.67,-300.12 679.5,-303.95 679.5,-307.79 679.5,-307.79 679.5,-315.45 679.5,-315.45 679.5,-319.29 675.67,-323.12 671.83,-323.12"/>
<text text-anchor="middle" x="575" y="-307.92" font-family="Arial" font-size="14.00" fill="#c6c5fe">display/css/innerHexagon.css.ts</text>
</g>
<!-- display/css/innerHexagon.css.ts&#45;&gt;display/css/basicHexagon.css.ts -->
<g id="edge1" class="edge">
<title>display/css/innerHexagon.css.ts&#45;&gt;display/css/basicHexagon.css.ts</title>
<path fill="none" stroke="#757575" d="M679.81,-303.47C695.98,-302.2 712.77,-300.88 729.17,-299.6"/>
<polygon fill="#757575" stroke="#757575" points="729.62,-303.07 739.31,-298.8 729.07,-296.09 729.62,-303.07"/>
</g>
<!-- display/css/mediaQueries.css.ts -->
<g id="node6" class="node">
<title>display/css/mediaQueries.css.ts</title>
<path fill="none" stroke="#c6c5fe" d="M672.33,-200.12C672.33,-200.12 477.67,-200.12 477.67,-200.12 473.83,-200.12 470,-196.29 470,-192.45 470,-192.45 470,-184.79 470,-184.79 470,-180.95 473.83,-177.12 477.67,-177.12 477.67,-177.12 672.33,-177.12 672.33,-177.12 676.17,-177.12 680,-180.95 680,-184.79 680,-184.79 680,-192.45 680,-192.45 680,-196.29 676.17,-200.12 672.33,-200.12"/>
<text text-anchor="middle" x="575" y="-184.92" font-family="Arial" font-size="14.00" fill="#c6c5fe">display/css/mediaQueries.css.ts</text>
</g>
<!-- display/css/mediaQuery.css.ts -->
<g id="node7" class="node">
<title>display/css/mediaQuery.css.ts</title>
<path fill="none" stroke="#c6c5fe" d="M936.33,-163.12C936.33,-163.12 752.67,-163.12 752.67,-163.12 748.83,-163.12 745,-159.29 745,-155.45 745,-155.45 745,-147.79 745,-147.79 745,-143.95 748.83,-140.12 752.67,-140.12 752.67,-140.12 936.33,-140.12 936.33,-140.12 940.17,-140.12 944,-143.95 944,-147.79 944,-147.79 944,-155.45 944,-155.45 944,-159.29 940.17,-163.12 936.33,-163.12"/>
<text text-anchor="middle" x="844.5" y="-147.92" font-family="Arial" font-size="14.00" fill="#c6c5fe">display/css/mediaQuery.css.ts</text>
</g>
<!-- display/css/mediaQueries.css.ts&#45;&gt;display/css/mediaQuery.css.ts -->
<g id="edge2" class="edge">
<title>display/css/mediaQueries.css.ts&#45;&gt;display/css/mediaQuery.css.ts</title>
<path fill="none" stroke="#757575" d="M659.17,-177.12C687.97,-173.13 720.44,-168.64 750.01,-164.55"/>
<polygon fill="#757575" stroke="#757575" points="750.49,-168.02 759.92,-163.18 749.53,-161.09 750.49,-168.02"/>
</g>
<!-- display/css/mediaQuery.css.ts&#45;&gt;display/constants.ts -->
<g id="edge3" class="edge">
<title>display/css/mediaQuery.css.ts&#45;&gt;display/constants.ts</title>
<path fill="none" stroke="#757575" d="M917.42,-163.16C947.22,-167.95 981.82,-173.5 1012.08,-178.36"/>
<polygon fill="#757575" stroke="#757575" points="1011.73,-181.85 1022.16,-179.97 1012.84,-174.93 1011.73,-181.85"/>
</g>
<!-- logic/utils.ts -->
<g id="node8" class="node">
<title>logic/utils.ts</title>
<path fill="none" stroke="#cfffac" d="M1124.83,-140.12C1124.83,-140.12 1054.17,-140.12 1054.17,-140.12 1050.33,-140.12 1046.5,-136.29 1046.5,-132.45 1046.5,-132.45 1046.5,-124.79 1046.5,-124.79 1046.5,-120.95 1050.33,-117.12 1054.17,-117.12 1054.17,-117.12 1124.83,-117.12 1124.83,-117.12 1128.67,-117.12 1132.5,-120.95 1132.5,-124.79 1132.5,-124.79 1132.5,-132.45 1132.5,-132.45 1132.5,-136.29 1128.67,-140.12 1124.83,-140.12"/>
<text text-anchor="middle" x="1089.5" y="-124.92" font-family="Arial" font-size="14.00" fill="#cfffac">logic/utils.ts</text>
</g>
<!-- display/css/mediaQuery.css.ts&#45;&gt;logic/utils.ts -->
<g id="edge4" class="edge">
<title>display/css/mediaQuery.css.ts&#45;&gt;logic/utils.ts</title>
<path fill="none" stroke="#757575" d="M944.34,-142.27C975.77,-139.29 1009.31,-136.12 1036.12,-133.58"/>
<polygon fill="#757575" stroke="#757575" points="1036.79,-137.03 1046.42,-132.6 1036.13,-130.06 1036.79,-137.03"/>
</g>
<!-- display/css/outerHexagon.css.ts -->
<g id="node9" class="node">
<title>display/css/outerHexagon.css.ts</title>
<path fill="none" stroke="#c6c5fe" d="M671.83,-241.12C671.83,-241.12 478.17,-241.12 478.17,-241.12 474.33,-241.12 470.5,-237.29 470.5,-233.45 470.5,-233.45 470.5,-225.79 470.5,-225.79 470.5,-221.95 474.33,-218.12 478.17,-218.12 478.17,-218.12 671.83,-218.12 671.83,-218.12 675.67,-218.12 679.5,-221.95 679.5,-225.79 679.5,-225.79 679.5,-233.45 679.5,-233.45 679.5,-237.29 675.67,-241.12 671.83,-241.12"/>
<text text-anchor="middle" x="575" y="-225.92" font-family="Arial" font-size="14.00" fill="#c6c5fe">display/css/outerHexagon.css.ts</text>
</g>
<!-- display/css/outerHexagon.css.ts&#45;&gt;display/constants.ts -->
<g id="edge5" class="edge">
<title>display/css/outerHexagon.css.ts&#45;&gt;display/constants.ts</title>
<path fill="none" stroke="#757575" d="M679.8,-225.3C759.99,-221.49 873.67,-215.06 973,-205.62 985.75,-204.41 999.27,-202.88 1012.38,-201.26"/>
<polygon fill="#757575" stroke="#757575" points="1012.83,-204.73 1022.32,-200.01 1011.96,-197.79 1012.83,-204.73"/>
</g>
<!-- display/css/outerHexagon.css.ts&#45;&gt;display/css/basicHexagon.css.ts -->
<g id="edge6" class="edge">
<title>display/css/outerHexagon.css.ts&#45;&gt;display/css/basicHexagon.css.ts</title>
<path fill="none" stroke="#757575" d="M635.21,-241.14C649.87,-244.12 665.53,-247.39 680,-250.62 716.29,-258.72 756.89,-268.65 788.56,-276.59"/>
<polygon fill="#757575" stroke="#757575" points="787.96,-280.05 798.51,-279.09 789.66,-273.26 787.96,-280.05"/>
</g>
<!-- display/css/outerHexagon.css.ts&#45;&gt;logic/utils.ts -->
<g id="edge7" class="edge">
<title>display/css/outerHexagon.css.ts&#45;&gt;logic/utils.ts</title>
<path fill="none" stroke="#757575" d="M640.03,-218.06C663.85,-213.92 691.12,-209.35 716,-205.62 829.89,-188.56 861.3,-200.65 973,-172.62 1001.05,-165.58 1031.57,-153.76 1054.19,-144.15"/>
<polygon fill="#757575" stroke="#757575" points="1055.58,-147.36 1063.37,-140.18 1052.8,-140.93 1055.58,-147.36"/>
</g>
<!-- display/css/text.css.ts -->
<g id="node10" class="node">
<title>display/css/text.css.ts</title>
<path fill="none" stroke="#c6c5fe" d="M400.83,-261.12C400.83,-261.12 270.17,-261.12 270.17,-261.12 266.33,-261.12 262.5,-257.29 262.5,-253.45 262.5,-253.45 262.5,-245.79 262.5,-245.79 262.5,-241.95 266.33,-238.12 270.17,-238.12 270.17,-238.12 400.83,-238.12 400.83,-238.12 404.67,-238.12 408.5,-241.95 408.5,-245.79 408.5,-245.79 408.5,-253.45 408.5,-253.45 408.5,-257.29 404.67,-261.12 400.83,-261.12"/>
<text text-anchor="middle" x="335.5" y="-245.92" font-family="Arial" font-size="14.00" fill="#c6c5fe">display/css/text.css.ts</text>
</g>
<!-- display/css/text.css.ts&#45;&gt;display/css/background.css.ts -->
<g id="edge8" class="edge">
<title>display/css/text.css.ts&#45;&gt;display/css/background.css.ts</title>
<path fill="none" stroke="#757575" d="M351.6,-238.02C375.43,-220.3 423.79,-186.67 470,-168.62 476.61,-166.04 483.58,-163.76 490.65,-161.75"/>
<polygon fill="#757575" stroke="#757575" points="491.58,-165.13 500.35,-159.18 489.78,-158.36 491.58,-165.13"/>
</g>
<!-- display/css/text.css.ts&#45;&gt;display/css/container.css.ts -->
<g id="edge9" class="edge">
<title>display/css/text.css.ts&#45;&gt;display/css/container.css.ts</title>
<path fill="none" stroke="#757575" d="M408.73,-256.01C429.67,-257.86 452.91,-259.91 475.19,-261.88"/>
<polygon fill="#757575" stroke="#757575" points="475.08,-265.39 485.35,-262.78 475.7,-258.42 475.08,-265.39"/>
</g>
<!-- display/css/text.css.ts&#45;&gt;display/css/innerHexagon.css.ts -->
<g id="edge10" class="edge">
<title>display/css/text.css.ts&#45;&gt;display/css/innerHexagon.css.ts</title>
<path fill="none" stroke="#757575" d="M369.39,-261.13C396.23,-270.24 435.25,-282.85 470,-291.62 479.06,-293.91 488.63,-296.08 498.14,-298.08"/>
<polygon fill="#757575" stroke="#757575" points="497.51,-301.53 508.01,-300.11 498.92,-294.67 497.51,-301.53"/>
</g>
<!-- display/css/text.css.ts&#45;&gt;display/css/mediaQueries.css.ts -->
<g id="edge11" class="edge">
<title>display/css/text.css.ts&#45;&gt;display/css/mediaQueries.css.ts</title>
<path fill="none" stroke="#757575" d="M371.67,-238.12C398.45,-229.6 436.32,-218.05 470,-209.62 480.4,-207.02 491.44,-204.52 502.3,-202.2"/>
<polygon fill="#757575" stroke="#757575" points="503.13,-205.6 512.2,-200.13 501.69,-198.75 503.13,-205.6"/>
</g>
<!-- display/css/text.css.ts&#45;&gt;display/css/outerHexagon.css.ts -->
<g id="edge12" class="edge">
<title>display/css/text.css.ts&#45;&gt;display/css/outerHexagon.css.ts</title>
<path fill="none" stroke="#757575" d="M408.73,-243.54C424.92,-242.18 442.5,-240.7 459.93,-239.23"/>
<polygon fill="#757575" stroke="#757575" points="460.5,-242.69 470.17,-238.36 459.91,-235.72 460.5,-242.69"/>
</g>
<!-- logic/types.ts -->
<g id="node11" class="node">
<title>logic/types.ts</title>
<path fill="none" stroke="#cfffac" d="M884.33,-503.12C884.33,-503.12 804.67,-503.12 804.67,-503.12 800.83,-503.12 797,-499.29 797,-495.45 797,-495.45 797,-487.79 797,-487.79 797,-483.95 800.83,-480.12 804.67,-480.12 804.67,-480.12 884.33,-480.12 884.33,-480.12 888.17,-480.12 892,-483.95 892,-487.79 892,-487.79 892,-495.45 892,-495.45 892,-499.29 888.17,-503.12 884.33,-503.12"/>
<text text-anchor="middle" x="844.5" y="-487.92" font-family="Arial" font-size="14.00" fill="#cfffac">logic/types.ts</text>
</g>
<!-- display/css/text.css.ts&#45;&gt;logic/types.ts -->
<g id="edge13" class="edge">
<title>display/css/text.css.ts&#45;&gt;logic/types.ts</title>
<path fill="none" stroke="#757575" d="M351.13,-261.32C374.7,-279.53 423.18,-314.47 470,-332.62 558.51,-366.94 597.47,-324.71 680,-371.62 701.08,-383.61 697.49,-396.95 716,-412.62 745.87,-437.91 784.61,-460.73 811.51,-475.27"/>
<polygon fill="#757575" stroke="#757575" points="810.03,-478.44 820.5,-480.05 813.32,-472.26 810.03,-478.44"/>
</g>
<!-- display/hexagons/hexagon.ts -->
<g id="node12" class="node">
<title>display/hexagons/hexagon.ts</title>
<path fill="none" stroke="#cfffac" d="M662.83,-79.12C662.83,-79.12 487.17,-79.12 487.17,-79.12 483.33,-79.12 479.5,-75.29 479.5,-71.45 479.5,-71.45 479.5,-63.79 479.5,-63.79 479.5,-59.95 483.33,-56.12 487.17,-56.12 487.17,-56.12 662.83,-56.12 662.83,-56.12 666.67,-56.12 670.5,-59.95 670.5,-63.79 670.5,-63.79 670.5,-71.45 670.5,-71.45 670.5,-75.29 666.67,-79.12 662.83,-79.12"/>
<text text-anchor="middle" x="575" y="-63.92" font-family="Arial" font-size="14.00" fill="#cfffac">display/hexagons/hexagon.ts</text>
</g>
<!-- display/hexagons/hexagons.ts -->
<g id="node13" class="node">
<title>display/hexagons/hexagons.ts</title>
<path fill="none" stroke="#c6c5fe" d="M426.33,-79.12C426.33,-79.12 244.67,-79.12 244.67,-79.12 240.83,-79.12 237,-75.29 237,-71.45 237,-71.45 237,-63.79 237,-63.79 237,-59.95 240.83,-56.12 244.67,-56.12 244.67,-56.12 426.33,-56.12 426.33,-56.12 430.17,-56.12 434,-59.95 434,-63.79 434,-63.79 434,-71.45 434,-71.45 434,-75.29 430.17,-79.12 426.33,-79.12"/>
<text text-anchor="middle" x="335.5" y="-63.92" font-family="Arial" font-size="14.00" fill="#c6c5fe">display/hexagons/hexagons.ts</text>
</g>
<!-- display/hexagons/hexagons.ts&#45;&gt;display/hexagons/hexagon.ts -->
<g id="edge14" class="edge">
<title>display/hexagons/hexagons.ts&#45;&gt;display/hexagons/hexagon.ts</title>
<path fill="none" stroke="#757575" d="M434.13,-67.62C445.71,-67.62 457.56,-67.62 469.23,-67.62"/>
<polygon fill="#757575" stroke="#757575" points="469.43,-71.12 479.43,-67.62 469.43,-64.12 469.43,-71.12"/>
</g>
<!-- display/html/hexagon.html.ts -->
<g id="node14" class="node">
<title>display/html/hexagon.html.ts</title>
<path fill="none" stroke="#cfffac" d="M930.83,-403.12C930.83,-403.12 758.17,-403.12 758.17,-403.12 754.33,-403.12 750.5,-399.29 750.5,-395.45 750.5,-395.45 750.5,-387.79 750.5,-387.79 750.5,-383.95 754.33,-380.12 758.17,-380.12 758.17,-380.12 930.83,-380.12 930.83,-380.12 934.67,-380.12 938.5,-383.95 938.5,-387.79 938.5,-387.79 938.5,-395.45 938.5,-395.45 938.5,-399.29 934.67,-403.12 930.83,-403.12"/>
<text text-anchor="middle" x="844.5" y="-387.92" font-family="Arial" font-size="14.00" fill="#cfffac">display/html/hexagon.html.ts</text>
</g>
<!-- display/html/hexagons.html.ts -->
<g id="node15" class="node">
<title>display/html/hexagons.html.ts</title>
<path fill="none" stroke="#c6c5fe" d="M664.83,-403.12C664.83,-403.12 485.17,-403.12 485.17,-403.12 481.33,-403.12 477.5,-399.29 477.5,-395.45 477.5,-395.45 477.5,-387.79 477.5,-387.79 477.5,-383.95 481.33,-380.12 485.17,-380.12 485.17,-380.12 664.83,-380.12 664.83,-380.12 668.67,-380.12 672.5,-383.95 672.5,-387.79 672.5,-387.79 672.5,-395.45 672.5,-395.45 672.5,-399.29 668.67,-403.12 664.83,-403.12"/>
<text text-anchor="middle" x="575" y="-387.92" font-family="Arial" font-size="14.00" fill="#c6c5fe">display/html/hexagons.html.ts</text>
</g>
<!-- display/html/hexagons.html.ts&#45;&gt;display/html/hexagon.html.ts -->
<g id="edge15" class="edge">
<title>display/html/hexagons.html.ts&#45;&gt;display/html/hexagon.html.ts</title>
<path fill="none" stroke="#757575" d="M672.57,-391.62C694.51,-391.62 717.89,-391.62 740.09,-391.62"/>
<polygon fill="#757575" stroke="#757575" points="740.2,-395.12 750.2,-391.62 740.2,-388.12 740.2,-395.12"/>
</g>
<!-- display/html/text.html.ts -->
<g id="node16" class="node">
<title>display/html/text.html.ts</title>
<path fill="none" stroke="#c6c5fe" d="M406.83,-424.12C406.83,-424.12 264.17,-424.12 264.17,-424.12 260.33,-424.12 256.5,-420.29 256.5,-416.45 256.5,-416.45 256.5,-408.79 256.5,-408.79 256.5,-404.95 260.33,-401.12 264.17,-401.12 264.17,-401.12 406.83,-401.12 406.83,-401.12 410.67,-401.12 414.5,-404.95 414.5,-408.79 414.5,-408.79 414.5,-416.45 414.5,-416.45 414.5,-420.29 410.67,-424.12 406.83,-424.12"/>
<text text-anchor="middle" x="335.5" y="-408.92" font-family="Arial" font-size="14.00" fill="#c6c5fe">display/html/text.html.ts</text>
</g>
<!-- display/html/text.html.ts&#45;&gt;logic/types.ts -->
<g id="edge18" class="edge">
<title>display/html/text.html.ts&#45;&gt;logic/types.ts</title>
<path fill="none" stroke="#757575" d="M367.88,-424.18C394.65,-433.57 434.35,-446.41 470,-453.62 580.89,-476.06 713.13,-485.54 786.77,-489.32"/>
<polygon fill="#757575" stroke="#757575" points="786.61,-492.82 796.77,-489.82 786.95,-485.82 786.61,-492.82"/>
</g>
<!-- display/html/text.html.ts&#45;&gt;display/html/hexagons.html.ts -->
<g id="edge16" class="edge">
<title>display/html/text.html.ts&#45;&gt;display/html/hexagons.html.ts</title>
<path fill="none" stroke="#757575" d="M414.6,-405.72C431.32,-404.24 449.27,-402.65 466.88,-401.09"/>
<polygon fill="#757575" stroke="#757575" points="467.54,-404.55 477.19,-400.18 466.92,-397.58 467.54,-404.55"/>
</g>
<!-- display/html/wrap.html.ts -->
<g id="node17" class="node">
<title>display/html/wrap.html.ts</title>
<path fill="none" stroke="#cfffac" d="M650.33,-444.12C650.33,-444.12 499.67,-444.12 499.67,-444.12 495.83,-444.12 492,-440.29 492,-436.45 492,-436.45 492,-428.79 492,-428.79 492,-424.95 495.83,-421.12 499.67,-421.12 499.67,-421.12 650.33,-421.12 650.33,-421.12 654.17,-421.12 658,-424.95 658,-428.79 658,-428.79 658,-436.45 658,-436.45 658,-440.29 654.17,-444.12 650.33,-444.12"/>
<text text-anchor="middle" x="575" y="-428.92" font-family="Arial" font-size="14.00" fill="#cfffac">display/html/wrap.html.ts</text>
</g>
<!-- display/html/text.html.ts&#45;&gt;display/html/wrap.html.ts -->
<g id="edge17" class="edge">
<title>display/html/text.html.ts&#45;&gt;display/html/wrap.html.ts</title>
<path fill="none" stroke="#757575" d="M414.6,-419.2C436.05,-421 459.52,-422.98 481.69,-424.85"/>
<polygon fill="#757575" stroke="#757575" points="481.52,-428.35 491.78,-425.7 482.11,-421.37 481.52,-428.35"/>
</g>
<!-- logic/display.ts -->
<g id="node18" class="node">
<title>logic/display.ts</title>
<path fill="none" stroke="#c6c5fe" d="M193.33,-140.12C193.33,-140.12 104.67,-140.12 104.67,-140.12 100.83,-140.12 97,-136.29 97,-132.45 97,-132.45 97,-124.79 97,-124.79 97,-120.95 100.83,-117.12 104.67,-117.12 104.67,-117.12 193.33,-117.12 193.33,-117.12 197.17,-117.12 201,-120.95 201,-124.79 201,-124.79 201,-132.45 201,-132.45 201,-136.29 197.17,-140.12 193.33,-140.12"/>
<text text-anchor="middle" x="149" y="-124.92" font-family="Arial" font-size="14.00" fill="#c6c5fe">logic/display.ts</text>
</g>
<!-- logic/display.ts&#45;&gt;logic/utils.ts -->
<g id="edge19" class="edge">
<title>logic/display.ts&#45;&gt;logic/utils.ts</title>
<path fill="none" stroke="#757575" d="M157.69,-117.08C171.13,-98.1 200.93,-60.94 237,-46.62 532.37,70.64 928.89,-65.42 1051.09,-113.24"/>
<polygon fill="#757575" stroke="#757575" points="1050.15,-116.64 1060.74,-117.06 1052.72,-110.13 1050.15,-116.64"/>
</g>
<!-- logic/inputs/InputBase.ts -->
<g id="node19" class="node">
<title>logic/inputs/InputBase.ts</title>
<path fill="none" stroke="#ff6c60" d="M1361.33,-770.12C1361.33,-770.12 1213.67,-770.12 1213.67,-770.12 1209.83,-770.12 1206,-766.29 1206,-762.45 1206,-762.45 1206,-754.79 1206,-754.79 1206,-750.95 1209.83,-747.12 1213.67,-747.12 1213.67,-747.12 1361.33,-747.12 1361.33,-747.12 1365.17,-747.12 1369,-750.95 1369,-754.79 1369,-754.79 1369,-762.45 1369,-762.45 1369,-766.29 1365.17,-770.12 1361.33,-770.12"/>
<text text-anchor="middle" x="1287.5" y="-754.92" font-family="Arial" font-size="14.00" fill="#ff6c60">logic/inputs/InputBase.ts</text>
</g>
<!-- logic/main.ts -->
<g id="node20" class="node">
<title>logic/main.ts</title>
<path fill="none" stroke="#ff6c60" d="M187.33,-261.12C187.33,-261.12 110.67,-261.12 110.67,-261.12 106.83,-261.12 103,-257.29 103,-253.45 103,-253.45 103,-245.79 103,-245.79 103,-241.95 106.83,-238.12 110.67,-238.12 110.67,-238.12 187.33,-238.12 187.33,-238.12 191.17,-238.12 195,-241.95 195,-245.79 195,-245.79 195,-253.45 195,-253.45 195,-257.29 191.17,-261.12 187.33,-261.12"/>
<text text-anchor="middle" x="149" y="-245.92" font-family="Arial" font-size="14.00" fill="#ff6c60">logic/main.ts</text>
</g>
<!-- logic/inputs/InputBase.ts&#45;&gt;logic/main.ts -->
<g id="edge20" class="edge">
<title>logic/inputs/InputBase.ts&#45;&gt;logic/main.ts</title>
<path fill="none" stroke="#757575" d="M1275.88,-770.34C1229.88,-819.77 1041.32,-1008.62 845.5,-1008.62 574,-1008.62 574,-1008.62 574,-1008.62 413.3,-1008.62 336.65,-1003.69 237,-877.62 160.44,-780.75 151.25,-371.34 150.15,-271.6"/>
<polygon fill="#757575" stroke="#757575" points="153.65,-271.45 150.06,-261.48 146.65,-271.51 153.65,-271.45"/>
</g>
<!-- logic/main.ts&#45;&gt;logic/utils.ts -->
<g id="edge52" class="edge">
<title>logic/main.ts&#45;&gt;logic/utils.ts</title>
<path fill="none" stroke="#757575" d="M172.07,-237.95C222.88,-211.82 352.76,-149.21 470,-127.62 676.7,-89.56 928.89,-110.28 1036.17,-122.15"/>
<polygon fill="#757575" stroke="#757575" points="1036.07,-125.66 1046.4,-123.31 1036.85,-118.71 1036.07,-125.66"/>
</g>
<!-- logic/main.ts&#45;&gt;display/css/text.css.ts -->
<g id="edge48" class="edge">
<title>logic/main.ts&#45;&gt;display/css/text.css.ts</title>
<path fill="none" stroke="#757575" d="M195.13,-249.62C212.3,-249.62 232.45,-249.62 252.01,-249.62"/>
<polygon fill="#757575" stroke="#757575" points="252.16,-253.12 262.16,-249.62 252.16,-246.12 252.16,-253.12"/>
</g>
<!-- logic/main.ts&#45;&gt;display/hexagons/hexagons.ts -->
<g id="edge49" class="edge">
<title>logic/main.ts&#45;&gt;display/hexagons/hexagons.ts</title>
<path fill="none" stroke="#757575" d="M155.92,-237.79C173.36,-203.13 224.09,-103.67 237,-93.62 242.29,-89.5 248.19,-86.03 254.38,-83.11"/>
<polygon fill="#757575" stroke="#757575" points="255.78,-86.32 263.63,-79.21 253.06,-79.87 255.78,-86.32"/>
</g>
<!-- logic/main.ts&#45;&gt;display/html/text.html.ts -->
<g id="edge50" class="edge">
<title>logic/main.ts&#45;&gt;display/html/text.html.ts</title>
<path fill="none" stroke="#757575" d="M163.27,-261.34C194.92,-289.3 275.04,-360.09 313.4,-393.98"/>
<polygon fill="#757575" stroke="#757575" points="311.54,-397.01 321.35,-401.01 316.17,-391.76 311.54,-397.01"/>
</g>
<!-- logic/inputs/inputElements.ts -->
<g id="node28" class="node">
<title>logic/inputs/inputElements.ts</title>
<path fill="none" stroke="#ff6c60" d="M421.83,-637.12C421.83,-637.12 249.17,-637.12 249.17,-637.12 245.33,-637.12 241.5,-633.29 241.5,-629.45 241.5,-629.45 241.5,-621.79 241.5,-621.79 241.5,-617.95 245.33,-614.12 249.17,-614.12 249.17,-614.12 421.83,-614.12 421.83,-614.12 425.67,-614.12 429.5,-617.95 429.5,-621.79 429.5,-621.79 429.5,-629.45 429.5,-629.45 429.5,-633.29 425.67,-637.12 421.83,-637.12"/>
<text text-anchor="middle" x="335.5" y="-621.92" font-family="Arial" font-size="14.00" fill="#ff6c60">logic/inputs/inputElements.ts</text>
</g>
<!-- logic/main.ts&#45;&gt;logic/inputs/inputElements.ts -->
<g id="edge51" class="edge">
<title>logic/main.ts&#45;&gt;logic/inputs/inputElements.ts</title>
<path fill="none" stroke="#757575" d="M155.38,-261.3C168.86,-290.48 205.27,-368.9 237,-433.62 267.7,-496.25 305.44,-569.58 323.65,-604.74"/>
<polygon fill="#757575" stroke="#757575" points="320.74,-606.72 328.45,-613.99 326.95,-603.5 320.74,-606.72"/>
</g>
<!-- logic/inputs/InputFirstRow.ts -->
<g id="node21" class="node">
<title>logic/inputs/InputFirstRow.ts</title>
<path fill="none" stroke="#ff6c60" d="M929.33,-590.12C929.33,-590.12 759.67,-590.12 759.67,-590.12 755.83,-590.12 752,-586.29 752,-582.45 752,-582.45 752,-574.79 752,-574.79 752,-570.95 755.83,-567.12 759.67,-567.12 759.67,-567.12 929.33,-567.12 929.33,-567.12 933.17,-567.12 937,-570.95 937,-574.79 937,-574.79 937,-582.45 937,-582.45 937,-586.29 933.17,-590.12 929.33,-590.12"/>
<text text-anchor="middle" x="844.5" y="-574.92" font-family="Arial" font-size="14.00" fill="#ff6c60">logic/inputs/InputFirstRow.ts</text>
</g>
<!-- logic/inputs/InputFirstRow.ts&#45;&gt;logic/inputs/InputBase.ts -->
<g id="edge21" class="edge">
<title>logic/inputs/InputFirstRow.ts&#45;&gt;logic/inputs/InputBase.ts</title>
<path fill="none" stroke="#757575" d="M931.22,-567.1C999.99,-562.01 1096.78,-564.47 1170,-604.62 1225.11,-634.84 1261.99,-703.4 1277.78,-737.93"/>
<polygon fill="#757575" stroke="#757575" points="1274.58,-739.37 1281.83,-747.09 1280.99,-736.53 1274.58,-739.37"/>
</g>
<!-- logic/inputs/InputGap.ts -->
<g id="node22" class="node">
<title>logic/inputs/InputGap.ts</title>
<path fill="none" stroke="#ff6c60" d="M915.83,-830.12C915.83,-830.12 773.17,-830.12 773.17,-830.12 769.33,-830.12 765.5,-826.29 765.5,-822.45 765.5,-822.45 765.5,-814.79 765.5,-814.79 765.5,-810.95 769.33,-807.12 773.17,-807.12 773.17,-807.12 915.83,-807.12 915.83,-807.12 919.67,-807.12 923.5,-810.95 923.5,-814.79 923.5,-814.79 923.5,-822.45 923.5,-822.45 923.5,-826.29 919.67,-830.12 915.83,-830.12"/>
<text text-anchor="middle" x="844.5" y="-814.92" font-family="Arial" font-size="14.00" fill="#ff6c60">logic/inputs/InputGap.ts</text>
</g>
<!-- logic/inputs/InputGap.ts&#45;&gt;logic/inputs/InputBase.ts -->
<g id="edge22" class="edge">
<title>logic/inputs/InputGap.ts&#45;&gt;logic/inputs/InputBase.ts</title>
<path fill="none" stroke="#757575" d="M923.65,-820.13C989.87,-819.96 1087.01,-816.31 1170,-799.62 1197.83,-794.02 1228.04,-783.25 1250.72,-774.15"/>
<polygon fill="#757575" stroke="#757575" points="1252.33,-777.27 1260.26,-770.24 1249.68,-770.79 1252.33,-777.27"/>
</g>
<!-- logic/inputs/InputRoot.ts -->
<g id="node23" class="node">
<title>logic/inputs/InputRoot.ts</title>
<path fill="none" stroke="#ff6c60" d="M1162.33,-790.12C1162.33,-790.12 1016.67,-790.12 1016.67,-790.12 1012.83,-790.12 1009,-786.29 1009,-782.45 1009,-782.45 1009,-774.79 1009,-774.79 1009,-770.95 1012.83,-767.12 1016.67,-767.12 1016.67,-767.12 1162.33,-767.12 1162.33,-767.12 1166.17,-767.12 1170,-770.95 1170,-774.79 1170,-774.79 1170,-782.45 1170,-782.45 1170,-786.29 1166.17,-790.12 1162.33,-790.12"/>
<text text-anchor="middle" x="1089.5" y="-774.92" font-family="Arial" font-size="14.00" fill="#ff6c60">logic/inputs/InputRoot.ts</text>
</g>
<!-- logic/inputs/InputGap.ts&#45;&gt;logic/inputs/InputRoot.ts -->
<g id="edge23" class="edge">
<title>logic/inputs/InputGap.ts&#45;&gt;logic/inputs/InputRoot.ts</title>
<path fill="none" stroke="#757575" d="M915.46,-807.11C944.56,-802.32 978.5,-796.73 1008.57,-791.78"/>
<polygon fill="#757575" stroke="#757575" points="1009.31,-795.2 1018.61,-790.13 1008.18,-788.3 1009.31,-795.2"/>
</g>
<!-- logic/inputs/InputRoot.ts&#45;&gt;logic/inputs/InputBase.ts -->
<g id="edge26" class="edge">
<title>logic/inputs/InputRoot.ts&#45;&gt;logic/inputs/InputBase.ts</title>
<path fill="none" stroke="#757575" d="M1170.22,-770.49C1178.68,-769.62 1187.32,-768.74 1195.89,-767.87"/>
<polygon fill="#757575" stroke="#757575" points="1196.3,-771.34 1205.9,-766.85 1195.59,-764.38 1196.3,-771.34"/>
</g>
<!-- logic/inputs/InputMediaQuery.ts -->
<g id="node24" class="node">
<title>logic/inputs/InputMediaQuery.ts</title>
<path fill="none" stroke="#ff6c60" d="M939.83,-670.12C939.83,-670.12 749.17,-670.12 749.17,-670.12 745.33,-670.12 741.5,-666.29 741.5,-662.45 741.5,-662.45 741.5,-654.79 741.5,-654.79 741.5,-650.95 745.33,-647.12 749.17,-647.12 749.17,-647.12 939.83,-647.12 939.83,-647.12 943.67,-647.12 947.5,-650.95 947.5,-654.79 947.5,-654.79 947.5,-662.45 947.5,-662.45 947.5,-666.29 943.67,-670.12 939.83,-670.12"/>
<text text-anchor="middle" x="844.5" y="-654.92" font-family="Arial" font-size="14.00" fill="#ff6c60">logic/inputs/InputMediaQuery.ts</text>
</g>
<!-- logic/inputs/InputMediaQuery.ts&#45;&gt;logic/inputs/InputBase.ts -->
<g id="edge24" class="edge">
<title>logic/inputs/InputMediaQuery.ts&#45;&gt;logic/inputs/InputBase.ts</title>
<path fill="none" stroke="#757575" d="M903.97,-670.15C925.68,-674.54 950.5,-679.67 973,-684.62 1062.89,-704.39 1166.78,-729.33 1229.51,-744.62"/>
<polygon fill="#757575" stroke="#757575" points="1229.05,-748.11 1239.6,-747.08 1230.71,-741.31 1229.05,-748.11"/>
</g>
<!-- logic/inputs/InputNumberOfHexagons.ts -->
<g id="node25" class="node">
<title>logic/inputs/InputNumberOfHexagons.ts</title>
<path fill="none" stroke="#ff6c60" d="M965.33,-750.12C965.33,-750.12 723.67,-750.12 723.67,-750.12 719.83,-750.12 716,-746.29 716,-742.45 716,-742.45 716,-734.79 716,-734.79 716,-730.95 719.83,-727.12 723.67,-727.12 723.67,-727.12 965.33,-727.12 965.33,-727.12 969.17,-727.12 973,-730.95 973,-734.79 973,-734.79 973,-742.45 973,-742.45 973,-746.29 969.17,-750.12 965.33,-750.12"/>
<text text-anchor="middle" x="844.5" y="-734.92" font-family="Arial" font-size="14.00" fill="#ff6c60">logic/inputs/InputNumberOfHexagons.ts</text>
</g>
<!-- logic/inputs/InputNumberOfHexagons.ts&#45;&gt;logic/inputs/InputBase.ts -->
<g id="edge25" class="edge">
<title>logic/inputs/InputNumberOfHexagons.ts&#45;&gt;logic/inputs/InputBase.ts</title>
<path fill="none" stroke="#757575" d="M973.06,-744.41C1044.29,-747.64 1131.36,-751.59 1195.64,-754.5"/>
<polygon fill="#757575" stroke="#757575" points="1195.61,-758 1205.75,-754.96 1195.92,-751.01 1195.61,-758"/>
</g>
<!-- logic/inputs/factory.ts -->
<g id="node26" class="node">
<title>logic/inputs/factory.ts</title>
<path fill="none" stroke="#ff6c60" d="M638.33,-676.12C638.33,-676.12 511.67,-676.12 511.67,-676.12 507.83,-676.12 504,-672.29 504,-668.45 504,-668.45 504,-660.79 504,-660.79 504,-656.95 507.83,-653.12 511.67,-653.12 511.67,-653.12 638.33,-653.12 638.33,-653.12 642.17,-653.12 646,-656.95 646,-660.79 646,-660.79 646,-668.45 646,-668.45 646,-672.29 642.17,-676.12 638.33,-676.12"/>
<text text-anchor="middle" x="575" y="-660.92" font-family="Arial" font-size="14.00" fill="#ff6c60">logic/inputs/factory.ts</text>
</g>
<!-- logic/inputs/factory.ts&#45;&gt;logic/types.ts -->
<g id="edge33" class="edge">
<title>logic/inputs/factory.ts&#45;&gt;logic/types.ts</title>
<path fill="none" stroke="#757575" d="M589.75,-652.99C614.23,-632.57 667.36,-589.52 716,-558.62 746.45,-539.28 783.08,-520.45 809.25,-507.71"/>
<polygon fill="#757575" stroke="#757575" points="810.9,-510.8 818.38,-503.3 807.86,-504.5 810.9,-510.8"/>
</g>
<!-- logic/inputs/factory.ts&#45;&gt;logic/inputs/InputBase.ts -->
<g id="edge27" class="edge">
<title>logic/inputs/factory.ts&#45;&gt;logic/inputs/InputBase.ts</title>
<path fill="none" stroke="#757575" d="M625.58,-653.12C652.22,-647.52 685.72,-641.41 716,-638.62 918.19,-620.01 982.51,-611.67 1170,-689.62 1203.53,-703.56 1239.02,-725.81 1261.89,-741.26"/>
<polygon fill="#757575" stroke="#757575" points="1260.07,-744.25 1270.3,-747.01 1264.03,-738.47 1260.07,-744.25"/>
</g>
<!-- logic/inputs/factory.ts&#45;&gt;logic/inputs/InputFirstRow.ts -->
<g id="edge28" class="edge">
<title>logic/inputs/factory.ts&#45;&gt;logic/inputs/InputFirstRow.ts</title>
<path fill="none" stroke="#757575" d="M643.65,-653.06C656.17,-649.45 668.82,-644.74 680,-638.62 699.3,-628.05 696.47,-614.76 716,-604.62 724.87,-600.01 734.49,-596.22 744.32,-593.1"/>
<polygon fill="#757575" stroke="#757575" points="745.6,-596.38 754.21,-590.2 743.63,-589.66 745.6,-596.38"/>
</g>
<!-- logic/inputs/factory.ts&#45;&gt;logic/inputs/InputGap.ts -->
<g id="edge29" class="edge">
<title>logic/inputs/factory.ts&#45;&gt;logic/inputs/InputGap.ts</title>
<path fill="none" stroke="#757575" d="M591.42,-676.32C616.65,-695.17 668.7,-732.87 716,-759.62 745.27,-776.18 780,-792.02 805.81,-803.11"/>
<polygon fill="#757575" stroke="#757575" points="804.67,-806.42 815.24,-807.12 807.41,-799.98 804.67,-806.42"/>
</g>
<!-- logic/inputs/factory.ts&#45;&gt;logic/inputs/InputRoot.ts -->
<g id="edge32" class="edge">
<title>logic/inputs/factory.ts&#45;&gt;logic/inputs/InputRoot.ts</title>
<path fill="none" stroke="#757575" d="M646.17,-672.84C751.79,-685.41 942.58,-708.97 973,-718.62 1005.37,-728.89 1039.54,-747.78 1062.24,-761.63"/>
<polygon fill="#757575" stroke="#757575" points="1060.6,-764.73 1070.94,-767.03 1064.29,-758.78 1060.6,-764.73"/>
</g>
<!-- logic/inputs/factory.ts&#45;&gt;logic/inputs/InputMediaQuery.ts -->
<g id="edge30" class="edge">
<title>logic/inputs/factory.ts&#45;&gt;logic/inputs/InputMediaQuery.ts</title>
<path fill="none" stroke="#757575" d="M646.28,-663.05C672.31,-662.46 702.52,-661.78 731.36,-661.14"/>
<polygon fill="#757575" stroke="#757575" points="731.57,-664.63 741.49,-660.91 731.41,-657.63 731.57,-664.63"/>
</g>
<!-- logic/inputs/factory.ts&#45;&gt;logic/inputs/InputNumberOfHexagons.ts -->
<g id="edge31" class="edge">
<title>logic/inputs/factory.ts&#45;&gt;logic/inputs/InputNumberOfHexagons.ts</title>
<path fill="none" stroke="#757575" d="M635.32,-676.15C650.2,-679.94 665.92,-684.72 680,-690.62 697.29,-697.87 698.55,-705.76 716,-712.62 728.31,-717.47 741.67,-721.45 754.94,-724.73"/>
<polygon fill="#757575" stroke="#757575" points="754.52,-728.22 765.05,-727.09 756.11,-721.41 754.52,-728.22"/>
</g>
<!-- logic/inputs/index.ts -->
<g id="node27" class="node">
<title>logic/inputs/index.ts</title>
<path fill="none" stroke="#c6c5fe" d="M394.83,-868.12C394.83,-868.12 276.17,-868.12 276.17,-868.12 272.33,-868.12 268.5,-864.29 268.5,-860.45 268.5,-860.45 268.5,-852.79 268.5,-852.79 268.5,-848.95 272.33,-845.12 276.17,-845.12 276.17,-845.12 394.83,-845.12 394.83,-845.12 398.67,-845.12 402.5,-848.95 402.5,-852.79 402.5,-852.79 402.5,-860.45 402.5,-860.45 402.5,-864.29 398.67,-868.12 394.83,-868.12"/>
<text text-anchor="middle" x="335.5" y="-852.92" font-family="Arial" font-size="14.00" fill="#c6c5fe">logic/inputs/index.ts</text>
</g>
<!-- logic/inputs/index.ts&#45;&gt;logic/inputs/InputBase.ts -->
<g id="edge34" class="edge">
<title>logic/inputs/index.ts&#45;&gt;logic/inputs/InputBase.ts</title>
<path fill="none" stroke="#757575" d="M358.88,-868.33C384.8,-881.16 429.18,-900.95 470,-908.62 689.98,-949.95 753.31,-926.49 973,-883.62 1062.96,-866.07 1085.63,-858.43 1170,-822.62 1201.88,-809.09 1236.42,-789.43 1259.55,-775.48"/>
<polygon fill="#757575" stroke="#757575" points="1261.4,-778.44 1268.12,-770.25 1257.76,-772.47 1261.4,-778.44"/>
</g>
<!-- logic/inputs/index.ts&#45;&gt;logic/inputs/InputFirstRow.ts -->
<g id="edge35" class="edge">
<title>logic/inputs/index.ts&#45;&gt;logic/inputs/InputFirstRow.ts</title>
<path fill="none" stroke="#757575" d="M340,-845.01C351.63,-808.56 392.74,-695.75 470,-644.62 548.84,-592.44 586.93,-627.26 680,-610.62 711.98,-604.91 747.36,-598.05 777.01,-592.15"/>
<polygon fill="#757575" stroke="#757575" points="777.71,-595.58 786.84,-590.19 776.34,-588.71 777.71,-595.58"/>
</g>
<!-- logic/inputs/index.ts&#45;&gt;logic/inputs/InputGap.ts -->
<g id="edge36" class="edge">
<title>logic/inputs/index.ts&#45;&gt;logic/inputs/InputGap.ts</title>
<path fill="none" stroke="#757575" d="M402.78,-866.9C472.28,-875.9 584.45,-885.45 680,-870.62 724.68,-863.69 773.86,-846.69 806.49,-834.01"/>
<polygon fill="#757575" stroke="#757575" points="808.05,-837.16 816.07,-830.23 805.48,-830.64 808.05,-837.16"/>
</g>
<!-- logic/inputs/index.ts&#45;&gt;logic/inputs/InputRoot.ts -->
<g id="edge39" class="edge">
<title>logic/inputs/index.ts&#45;&gt;logic/inputs/InputRoot.ts</title>
<path fill="none" stroke="#757575" d="M375.52,-868.16C401.92,-875.36 437.73,-883.92 470,-887.62 693.11,-913.19 760.12,-911.15 973,-839.62 1005.31,-828.77 1039.49,-809.63 1062.21,-795.68"/>
<polygon fill="#757575" stroke="#757575" points="1064.29,-798.51 1070.91,-790.25 1060.58,-792.57 1064.29,-798.51"/>
</g>
<!-- logic/inputs/index.ts&#45;&gt;logic/inputs/InputMediaQuery.ts -->
<g id="edge37" class="edge">
<title>logic/inputs/index.ts&#45;&gt;logic/inputs/InputMediaQuery.ts</title>
<path fill="none" stroke="#757575" d="M359.86,-845.03C386.3,-832.09 430.8,-810.83 470,-794.62 587.01,-746.25 728.15,-697.36 798.73,-673.54"/>
<polygon fill="#757575" stroke="#757575" points="800.26,-676.71 808.62,-670.21 798.03,-670.08 800.26,-676.71"/>
</g>
<!-- logic/inputs/index.ts&#45;&gt;logic/inputs/InputNumberOfHexagons.ts -->
<g id="edge38" class="edge">
<title>logic/inputs/index.ts&#45;&gt;logic/inputs/InputNumberOfHexagons.ts</title>
<path fill="none" stroke="#757575" d="M402.67,-847.72C472.32,-837.64 584.84,-819.35 680,-794.62 723.29,-783.37 771.61,-766.23 804.42,-753.88"/>
<polygon fill="#757575" stroke="#757575" points="805.97,-757.03 814.08,-750.21 803.49,-750.49 805.97,-757.03"/>
</g>
<!-- logic/inputs/index.ts&#45;&gt;logic/inputs/factory.ts -->
<g id="edge40" class="edge">
<title>logic/inputs/index.ts&#45;&gt;logic/inputs/factory.ts</title>
<path fill="none" stroke="#757575" d="M351,-844.9C391.09,-812.49 503.66,-721.49 551.75,-682.61"/>
<polygon fill="#757575" stroke="#757575" points="554.11,-685.2 559.69,-676.19 549.71,-679.75 554.11,-685.2"/>
</g>
<!-- logic/inputs/inputElements.ts&#45;&gt;logic/types.ts -->
<g id="edge47" class="edge">
<title>logic/inputs/inputElements.ts&#45;&gt;logic/types.ts</title>
<path fill="none" stroke="#757575" d="M378.87,-614.12C405.1,-607.01 439.49,-597.74 470,-589.62 583.54,-559.42 716.67,-524.64 789.36,-505.7"/>
<polygon fill="#757575" stroke="#757575" points="790.41,-509.05 799.2,-503.14 788.64,-502.27 790.41,-509.05"/>
</g>
<!-- logic/inputs/inputElements.ts&#45;&gt;logic/inputs/InputFirstRow.ts -->
<g id="edge41" class="edge">
<title>logic/inputs/inputElements.ts&#45;&gt;logic/inputs/InputFirstRow.ts</title>
<path fill="none" stroke="#757575" d="M429.79,-616.97C518.14,-608.78 650.48,-596.51 741.57,-588.07"/>
<polygon fill="#757575" stroke="#757575" points="742,-591.55 751.64,-587.14 741.35,-584.58 742,-591.55"/>
</g>
<!-- logic/inputs/inputElements.ts&#45;&gt;logic/inputs/InputGap.ts -->
<g id="edge42" class="edge">
<title>logic/inputs/inputElements.ts&#45;&gt;logic/inputs/InputGap.ts</title>
<path fill="none" stroke="#757575" d="M344.56,-637.46C363.19,-663.79 412.1,-727.2 470,-756.62 559.87,-802.3 676.11,-815.5 754.87,-818.74"/>
<polygon fill="#757575" stroke="#757575" points="755.12,-822.25 765.24,-819.12 755.38,-815.26 755.12,-822.25"/>
</g>
<!-- logic/inputs/inputElements.ts&#45;&gt;logic/inputs/InputRoot.ts -->
<g id="edge45" class="edge">
<title>logic/inputs/inputElements.ts&#45;&gt;logic/inputs/InputRoot.ts</title>
<path fill="none" stroke="#757575" d="M348.99,-637.26C371.35,-657.39 420.56,-698.48 470,-718.62 563.48,-756.7 850.79,-771.17 998.6,-776.2"/>
<polygon fill="#757575" stroke="#757575" points="998.89,-779.71 1009,-776.54 999.12,-772.71 998.89,-779.71"/>
</g>
<!-- logic/inputs/inputElements.ts&#45;&gt;logic/inputs/InputMediaQuery.ts -->
<g id="edge43" class="edge">
<title>logic/inputs/inputElements.ts&#45;&gt;logic/inputs/InputMediaQuery.ts</title>
<path fill="none" stroke="#757575" d="M429.85,-630.02C498.96,-633.47 595.4,-638.66 680,-644.62 696.63,-645.79 714.2,-647.16 731.41,-648.57"/>
<polygon fill="#757575" stroke="#757575" points="731.24,-652.07 741.49,-649.41 731.82,-645.09 731.24,-652.07"/>
</g>
<!-- logic/inputs/inputElements.ts&#45;&gt;logic/inputs/InputNumberOfHexagons.ts -->
<g id="edge44" class="edge">
<title>logic/inputs/inputElements.ts&#45;&gt;logic/inputs/InputNumberOfHexagons.ts</title>
<path fill="none" stroke="#757575" d="M357.53,-637.32C383.25,-651.1 428.5,-673.61 470,-685.62 546.46,-707.75 634.5,-720.81 705.9,-728.43"/>
<polygon fill="#757575" stroke="#757575" points="705.55,-731.91 715.86,-729.47 706.27,-724.95 705.55,-731.91"/>
</g>
<!-- logic/inputs/inputElements.ts&#45;&gt;logic/inputs/factory.ts -->
<g id="edge46" class="edge">
<title>logic/inputs/inputElements.ts&#45;&gt;logic/inputs/factory.ts</title>
<path fill="none" stroke="#757575" d="M406.79,-637.16C434.08,-641.65 465.49,-646.8 493.67,-651.43"/>
<polygon fill="#757575" stroke="#757575" points="493.45,-654.94 503.89,-653.11 494.59,-648.03 493.45,-654.94"/>
</g>
<!-- main.ts -->
<g id="node29" class="node">
<title>main.ts</title>
<path fill="none" stroke="#c6c5fe" d="M53.33,-160.12C53.33,-160.12 7.67,-160.12 7.67,-160.12 3.83,-160.12 0,-156.29 0,-152.45 0,-152.45 0,-144.79 0,-144.79 0,-140.95 3.83,-137.12 7.67,-137.12 7.67,-137.12 53.33,-137.12 53.33,-137.12 57.17,-137.12 61,-140.95 61,-144.79 61,-144.79 61,-152.45 61,-152.45 61,-156.29 57.17,-160.12 53.33,-160.12"/>
<text text-anchor="middle" x="30.5" y="-144.92" font-family="Arial" font-size="14.00" fill="#c6c5fe">main.ts</text>
</g>
<!-- main.ts&#45;&gt;logic/display.ts -->
<g id="edge53" class="edge">
<title>main.ts&#45;&gt;logic/display.ts</title>
<path fill="none" stroke="#757575" d="M61.2,-143.52C69.04,-142.18 77.79,-140.67 86.64,-139.16"/>
<polygon fill="#757575" stroke="#757575" points="87.36,-142.58 96.63,-137.44 86.18,-135.68 87.36,-142.58"/>
</g>
<!-- main.ts&#45;&gt;logic/main.ts -->
<g id="edge54" class="edge">
<title>main.ts&#45;&gt;logic/main.ts</title>
<path fill="none" stroke="#757575" d="M44.86,-160.21C64.86,-177.54 102.76,-210.4 126.63,-231.09"/>
<polygon fill="#757575" stroke="#757575" points="124.58,-233.95 134.43,-237.86 129.17,-228.66 124.58,-233.95"/>
</g>
</g>
</svg>
