<?xml version="1.0" encoding="UTF-8" standalone="no"?>
<!DOCTYPE svg PUBLIC "-//W3C//DTD SVG 1.1//EN"
 "http://www.w3.org/Graphics/SVG/1.1/DTD/svg11.dtd">
<!-- Generated by graphviz version 2.43.0 (0)
 -->
<!-- Title: G Pages: 1 -->
<svg width="743pt" height="387pt"
 viewBox="0.00 0.00 743.20 387.20" xmlns="http://www.w3.org/2000/svg" xmlns:xlink="http://www.w3.org/1999/xlink">
<g id="graph0" class="graph" transform="scale(1 1) rotate(0) translate(21.6 365.6)">
<title>G</title>
<polygon fill="#111111" stroke="transparent" points="-21.6,21.6 -21.6,-365.6 721.6,-365.6 721.6,21.6 -21.6,21.6"/>
<!-- HexagonSection.ts -->
<g id="node1" class="node">
<title>HexagonSection.ts</title>
<path fill="none" stroke="#c6c5fe" d="M266.83,-344C266.83,-344 152.17,-344 152.17,-344 148.33,-344 144.5,-340.17 144.5,-336.33 144.5,-336.33 144.5,-328.67 144.5,-328.67 144.5,-324.83 148.33,-321 152.17,-321 152.17,-321 266.83,-321 266.83,-321 270.67,-321 274.5,-324.83 274.5,-328.67 274.5,-328.67 274.5,-336.33 274.5,-336.33 274.5,-340.17 270.67,-344 266.83,-344"/>
<text text-anchor="middle" x="209.5" y="-328.8" font-family="Arial" font-size="14.00" fill="#c6c5fe">HexagonSection.ts</text>
</g>
<!-- hexagon&#45;functions.ts -->
<g id="node2" class="node">
<title>hexagon&#45;functions.ts</title>
<path fill="none" stroke="#cfffac" d="M508.33,-344C508.33,-344 382.67,-344 382.67,-344 378.83,-344 375,-340.17 375,-336.33 375,-336.33 375,-328.67 375,-328.67 375,-324.83 378.83,-321 382.67,-321 382.67,-321 508.33,-321 508.33,-321 512.17,-321 516,-324.83 516,-328.67 516,-328.67 516,-336.33 516,-336.33 516,-340.17 512.17,-344 508.33,-344"/>
<text text-anchor="middle" x="445.5" y="-328.8" font-family="Arial" font-size="14.00" fill="#cfffac">hexagon&#45;functions.ts</text>
</g>
<!-- HexagonSection.ts&#45;&gt;hexagon&#45;functions.ts -->
<g id="edge1" class="edge">
<title>HexagonSection.ts&#45;&gt;hexagon&#45;functions.ts</title>
<path fill="none" stroke="#757575" d="M274.75,-332.5C302.47,-332.5 335.18,-332.5 364.45,-332.5"/>
<polygon fill="#757575" stroke="#757575" points="364.65,-336 374.65,-332.5 364.65,-329 364.65,-336"/>
</g>
<!-- htmlElements.ts -->
<g id="node3" class="node">
<title>htmlElements.ts</title>
<path fill="none" stroke="#cfffac" d="M258.83,-303C258.83,-303 160.17,-303 160.17,-303 156.33,-303 152.5,-299.17 152.5,-295.33 152.5,-295.33 152.5,-287.67 152.5,-287.67 152.5,-283.83 156.33,-280 160.17,-280 160.17,-280 258.83,-280 258.83,-280 262.67,-280 266.5,-283.83 266.5,-287.67 266.5,-287.67 266.5,-295.33 266.5,-295.33 266.5,-299.17 262.67,-303 258.83,-303"/>
<text text-anchor="middle" x="209.5" y="-287.8" font-family="Arial" font-size="14.00" fill="#cfffac">htmlElements.ts</text>
</g>
<!-- inputs/CSSButton.ts -->
<g id="node4" class="node">
<title>inputs/CSSButton.ts</title>
<path fill="none" stroke="#c6c5fe" d="M270.33,-262C270.33,-262 148.67,-262 148.67,-262 144.83,-262 141,-258.17 141,-254.33 141,-254.33 141,-246.67 141,-246.67 141,-242.83 144.83,-239 148.67,-239 148.67,-239 270.33,-239 270.33,-239 274.17,-239 278,-242.83 278,-246.67 278,-246.67 278,-254.33 278,-254.33 278,-258.17 274.17,-262 270.33,-262"/>
<text text-anchor="middle" x="209.5" y="-246.8" font-family="Arial" font-size="14.00" fill="#c6c5fe">inputs/CSSButton.ts</text>
</g>
<!-- textCSS.ts -->
<g id="node5" class="node">
<title>textCSS.ts</title>
<path fill="none" stroke="#c6c5fe" d="M477.83,-262C477.83,-262 413.17,-262 413.17,-262 409.33,-262 405.5,-258.17 405.5,-254.33 405.5,-254.33 405.5,-246.67 405.5,-246.67 405.5,-242.83 409.33,-239 413.17,-239 413.17,-239 477.83,-239 477.83,-239 481.67,-239 485.5,-242.83 485.5,-246.67 485.5,-246.67 485.5,-254.33 485.5,-254.33 485.5,-258.17 481.67,-262 477.83,-262"/>
<text text-anchor="middle" x="445.5" y="-246.8" font-family="Arial" font-size="14.00" fill="#c6c5fe">textCSS.ts</text>
</g>
<!-- inputs/CSSButton.ts&#45;&gt;textCSS.ts -->
<g id="edge2" class="edge">
<title>inputs/CSSButton.ts&#45;&gt;textCSS.ts</title>
<path fill="none" stroke="#757575" d="M278.18,-250.5C315.61,-250.5 361.29,-250.5 395.3,-250.5"/>
<polygon fill="#757575" stroke="#757575" points="395.45,-254 405.45,-250.5 395.45,-247 395.45,-254"/>
</g>
<!-- utils.ts -->
<g id="node15" class="node">
<title>utils.ts</title>
<path fill="none" stroke="#cfffac" d="M654.33,-262C654.33,-262 614.67,-262 614.67,-262 610.83,-262 607,-258.17 607,-254.33 607,-254.33 607,-246.67 607,-246.67 607,-242.83 610.83,-239 614.67,-239 614.67,-239 654.33,-239 654.33,-239 658.17,-239 662,-242.83 662,-246.67 662,-246.67 662,-254.33 662,-254.33 662,-258.17 658.17,-262 654.33,-262"/>
<text text-anchor="middle" x="634.5" y="-246.8" font-family="Arial" font-size="14.00" fill="#cfffac">utils.ts</text>
</g>
<!-- textCSS.ts&#45;&gt;utils.ts -->
<g id="edge18" class="edge">
<title>textCSS.ts&#45;&gt;utils.ts</title>
<path fill="none" stroke="#757575" d="M485.7,-250.5C518.42,-250.5 564.7,-250.5 596.72,-250.5"/>
<polygon fill="#757575" stroke="#757575" points="597,-254 607,-250.5 597,-247 597,-254"/>
</g>
<!-- inputs/HTMLButton.ts -->
<g id="node6" class="node">
<title>inputs/HTMLButton.ts</title>
<path fill="none" stroke="#c6c5fe" d="M275.33,-221C275.33,-221 143.67,-221 143.67,-221 139.83,-221 136,-217.17 136,-213.33 136,-213.33 136,-205.67 136,-205.67 136,-201.83 139.83,-198 143.67,-198 143.67,-198 275.33,-198 275.33,-198 279.17,-198 283,-201.83 283,-205.67 283,-205.67 283,-213.33 283,-213.33 283,-217.17 279.17,-221 275.33,-221"/>
<text text-anchor="middle" x="209.5" y="-205.8" font-family="Arial" font-size="14.00" fill="#c6c5fe">inputs/HTMLButton.ts</text>
</g>
<!-- textHTML.ts -->
<g id="node7" class="node">
<title>textHTML.ts</title>
<path fill="none" stroke="#cfffac" d="M482.83,-221C482.83,-221 408.17,-221 408.17,-221 404.33,-221 400.5,-217.17 400.5,-213.33 400.5,-213.33 400.5,-205.67 400.5,-205.67 400.5,-201.83 404.33,-198 408.17,-198 408.17,-198 482.83,-198 482.83,-198 486.67,-198 490.5,-201.83 490.5,-205.67 490.5,-205.67 490.5,-213.33 490.5,-213.33 490.5,-217.17 486.67,-221 482.83,-221"/>
<text text-anchor="middle" x="445.5" y="-205.8" font-family="Arial" font-size="14.00" fill="#cfffac">textHTML.ts</text>
</g>
<!-- inputs/HTMLButton.ts&#45;&gt;textHTML.ts -->
<g id="edge3" class="edge">
<title>inputs/HTMLButton.ts&#45;&gt;textHTML.ts</title>
<path fill="none" stroke="#757575" d="M283.26,-209.5C317.88,-209.5 358.57,-209.5 390.41,-209.5"/>
<polygon fill="#757575" stroke="#757575" points="390.41,-213 400.41,-209.5 390.41,-206 390.41,-213"/>
</g>
<!-- inputs/InputBase.ts -->
<g id="node8" class="node">
<title>inputs/InputBase.ts</title>
<path fill="none" stroke="#cfffac" d="M692.33,-84C692.33,-84 576.67,-84 576.67,-84 572.83,-84 569,-80.17 569,-76.33 569,-76.33 569,-68.67 569,-68.67 569,-64.83 572.83,-61 576.67,-61 576.67,-61 692.33,-61 692.33,-61 696.17,-61 700,-64.83 700,-68.67 700,-68.67 700,-76.33 700,-76.33 700,-80.17 696.17,-84 692.33,-84"/>
<text text-anchor="middle" x="634.5" y="-68.8" font-family="Arial" font-size="14.00" fill="#cfffac">inputs/InputBase.ts</text>
</g>
<!-- inputs/InputFirstRow.ts -->
<g id="node9" class="node">
<title>inputs/InputFirstRow.ts</title>
<path fill="none" stroke="#c6c5fe" d="M514.33,-163C514.33,-163 376.67,-163 376.67,-163 372.83,-163 369,-159.17 369,-155.33 369,-155.33 369,-147.67 369,-147.67 369,-143.83 372.83,-140 376.67,-140 376.67,-140 514.33,-140 514.33,-140 518.17,-140 522,-143.83 522,-147.67 522,-147.67 522,-155.33 522,-155.33 522,-159.17 518.17,-163 514.33,-163"/>
<text text-anchor="middle" x="445.5" y="-147.8" font-family="Arial" font-size="14.00" fill="#c6c5fe">inputs/InputFirstRow.ts</text>
</g>
<!-- inputs/InputFirstRow.ts&#45;&gt;inputs/InputBase.ts -->
<g id="edge4" class="edge">
<title>inputs/InputFirstRow.ts&#45;&gt;inputs/InputBase.ts</title>
<path fill="none" stroke="#757575" d="M474.09,-139.84C506.5,-126.15 560.41,-103.38 596.44,-88.16"/>
<polygon fill="#757575" stroke="#757575" points="598.25,-91.19 606.1,-84.08 595.53,-84.74 598.25,-91.19"/>
</g>
<!-- inputs/InputGap.ts -->
<g id="node10" class="node">
<title>inputs/InputGap.ts</title>
<path fill="none" stroke="#c6c5fe" d="M265.33,-141C265.33,-141 153.67,-141 153.67,-141 149.83,-141 146,-137.17 146,-133.33 146,-133.33 146,-125.67 146,-125.67 146,-121.83 149.83,-118 153.67,-118 153.67,-118 265.33,-118 265.33,-118 269.17,-118 273,-121.83 273,-125.67 273,-125.67 273,-133.33 273,-133.33 273,-137.17 269.17,-141 265.33,-141"/>
<text text-anchor="middle" x="209.5" y="-125.8" font-family="Arial" font-size="14.00" fill="#c6c5fe">inputs/InputGap.ts</text>
</g>
<!-- inputs/InputRoot.ts -->
<g id="node11" class="node">
<title>inputs/InputRoot.ts</title>
<path fill="none" stroke="#c6c5fe" d="M502.33,-104C502.33,-104 388.67,-104 388.67,-104 384.83,-104 381,-100.17 381,-96.33 381,-96.33 381,-88.67 381,-88.67 381,-84.83 384.83,-81 388.67,-81 388.67,-81 502.33,-81 502.33,-81 506.17,-81 510,-84.83 510,-88.67 510,-88.67 510,-96.33 510,-96.33 510,-100.17 506.17,-104 502.33,-104"/>
<text text-anchor="middle" x="445.5" y="-88.8" font-family="Arial" font-size="14.00" fill="#c6c5fe">inputs/InputRoot.ts</text>
</g>
<!-- inputs/InputGap.ts&#45;&gt;inputs/InputRoot.ts -->
<g id="edge5" class="edge">
<title>inputs/InputGap.ts&#45;&gt;inputs/InputRoot.ts</title>
<path fill="none" stroke="#757575" d="M273.21,-119.58C303.26,-114.83 339.45,-109.11 370.81,-104.15"/>
<polygon fill="#757575" stroke="#757575" points="371.47,-107.59 380.8,-102.57 370.38,-100.68 371.47,-107.59"/>
</g>
<!-- inputs/InputRoot.ts&#45;&gt;inputs/InputBase.ts -->
<g id="edge8" class="edge">
<title>inputs/InputRoot.ts&#45;&gt;inputs/InputBase.ts</title>
<path fill="none" stroke="#757575" d="M510.07,-85.7C525.77,-84.02 542.72,-82.21 558.89,-80.48"/>
<polygon fill="#757575" stroke="#757575" points="559.26,-83.96 568.83,-79.42 558.52,-77 559.26,-83.96"/>
</g>
<!-- inputs/InputMediaQuery.ts -->
<g id="node12" class="node">
<title>inputs/InputMediaQuery.ts</title>
<path fill="none" stroke="#c6c5fe" d="M525.33,-63C525.33,-63 365.67,-63 365.67,-63 361.83,-63 358,-59.17 358,-55.33 358,-55.33 358,-47.67 358,-47.67 358,-43.83 361.83,-40 365.67,-40 365.67,-40 525.33,-40 525.33,-40 529.17,-40 533,-43.83 533,-47.67 533,-47.67 533,-55.33 533,-55.33 533,-59.17 529.17,-63 525.33,-63"/>
<text text-anchor="middle" x="445.5" y="-47.8" font-family="Arial" font-size="14.00" fill="#c6c5fe">inputs/InputMediaQuery.ts</text>
</g>
<!-- inputs/InputMediaQuery.ts&#45;&gt;inputs/InputBase.ts -->
<g id="edge6" class="edge">
<title>inputs/InputMediaQuery.ts&#45;&gt;inputs/InputBase.ts</title>
<path fill="none" stroke="#757575" d="M533.16,-61.23C541.72,-62.19 550.35,-63.16 558.77,-64.11"/>
<polygon fill="#757575" stroke="#757575" points="558.6,-67.61 568.92,-65.25 559.38,-60.65 558.6,-67.61"/>
</g>
<!-- inputs/InputNumberOfHexagons.ts -->
<g id="node13" class="node">
<title>inputs/InputNumberOfHexagons.ts</title>
<path fill="none" stroke="#c6c5fe" d="M314.33,-23C314.33,-23 104.67,-23 104.67,-23 100.83,-23 97,-19.17 97,-15.33 97,-15.33 97,-7.67 97,-7.67 97,-3.83 100.83,0 104.67,0 104.67,0 314.33,0 314.33,0 318.17,0 322,-3.83 322,-7.67 322,-7.67 322,-15.33 322,-15.33 322,-19.17 318.17,-23 314.33,-23"/>
<text text-anchor="middle" x="209.5" y="-7.8" font-family="Arial" font-size="14.00" fill="#c6c5fe">inputs/InputNumberOfHexagons.ts</text>
</g>
<!-- inputs/InputNumberOfHexagons.ts&#45;&gt;inputs/InputBase.ts -->
<g id="edge7" class="edge">
<title>inputs/InputNumberOfHexagons.ts&#45;&gt;inputs/InputBase.ts</title>
<path fill="none" stroke="#757575" d="M322.26,-8.9C384.95,-9.72 464.15,-14.57 533,-30.5 557.38,-36.14 583.41,-47.17 602.87,-56.52"/>
<polygon fill="#757575" stroke="#757575" points="601.34,-59.67 611.86,-60.94 604.43,-53.38 601.34,-59.67"/>
</g>
<!-- main.ts -->
<g id="node14" class="node">
<title>main.ts</title>
<path fill="none" stroke="#c6c5fe" d="M53.33,-181C53.33,-181 7.67,-181 7.67,-181 3.83,-181 0,-177.17 0,-173.33 0,-173.33 0,-165.67 0,-165.67 0,-161.83 3.83,-158 7.67,-158 7.67,-158 53.33,-158 53.33,-158 57.17,-158 61,-161.83 61,-165.67 61,-165.67 61,-173.33 61,-173.33 61,-177.17 57.17,-181 53.33,-181"/>
<text text-anchor="middle" x="30.5" y="-165.8" font-family="Arial" font-size="14.00" fill="#c6c5fe">main.ts</text>
</g>
<!-- main.ts&#45;&gt;HexagonSection.ts -->
<g id="edge9" class="edge">
<title>main.ts&#45;&gt;HexagonSection.ts</title>
<path fill="none" stroke="#757575" d="M33.19,-181.39C37.83,-209.21 53.4,-278.71 97,-312.5 107.82,-320.89 121,-326.19 134.45,-329.47"/>
<polygon fill="#757575" stroke="#757575" points="133.77,-332.9 144.27,-331.51 135.19,-326.05 133.77,-332.9"/>
</g>
<!-- main.ts&#45;&gt;htmlElements.ts -->
<g id="edge10" class="edge">
<title>main.ts&#45;&gt;htmlElements.ts</title>
<path fill="none" stroke="#757575" d="M35.43,-181.23C43.35,-202.91 63.4,-249.06 97,-271.5 110.28,-280.37 126.36,-285.62 142.12,-288.66"/>
<polygon fill="#757575" stroke="#757575" points="141.96,-292.19 152.4,-290.36 143.1,-285.28 141.96,-292.19"/>
</g>
<!-- main.ts&#45;&gt;inputs/CSSButton.ts -->
<g id="edge11" class="edge">
<title>main.ts&#45;&gt;inputs/CSSButton.ts</title>
<path fill="none" stroke="#757575" d="M40.31,-181.03C51.74,-195.12 73.09,-218.55 97,-230.5 107.51,-235.76 119.19,-239.65 130.93,-242.53"/>
<polygon fill="#757575" stroke="#757575" points="130.25,-245.96 140.77,-244.71 131.76,-239.13 130.25,-245.96"/>
</g>
<!-- main.ts&#45;&gt;inputs/HTMLButton.ts -->
<g id="edge12" class="edge">
<title>main.ts&#45;&gt;inputs/HTMLButton.ts</title>
<path fill="none" stroke="#757575" d="M61.13,-176.2C84.63,-181.51 118.28,-189.11 147.49,-195.71"/>
<polygon fill="#757575" stroke="#757575" points="147.08,-199.21 157.61,-198 148.63,-192.38 147.08,-199.21"/>
</g>
<!-- main.ts&#45;&gt;inputs/InputFirstRow.ts -->
<g id="edge13" class="edge">
<title>main.ts&#45;&gt;inputs/InputFirstRow.ts</title>
<path fill="none" stroke="#757575" d="M61.2,-168.21C122.62,-165.53 265.59,-159.3 358.5,-155.25"/>
<polygon fill="#757575" stroke="#757575" points="358.89,-158.73 368.73,-154.8 358.59,-151.74 358.89,-158.73"/>
</g>
<!-- main.ts&#45;&gt;inputs/InputGap.ts -->
<g id="edge14" class="edge">
<title>main.ts&#45;&gt;inputs/InputGap.ts</title>
<path fill="none" stroke="#757575" d="M61.13,-162.8C84.63,-157.49 118.28,-149.89 147.49,-143.29"/>
<polygon fill="#757575" stroke="#757575" points="148.63,-146.62 157.61,-141 147.08,-139.79 148.63,-146.62"/>
</g>
<!-- main.ts&#45;&gt;inputs/InputRoot.ts -->
<g id="edge17" class="edge">
<title>main.ts&#45;&gt;inputs/InputRoot.ts</title>
<path fill="none" stroke="#757575" d="M40.12,-157.66C51.37,-143.29 72.52,-119.71 97,-109.5 185.65,-72.52 298.25,-74.92 370.84,-82.05"/>
<polygon fill="#757575" stroke="#757575" points="370.5,-85.53 380.81,-83.08 371.23,-78.57 370.5,-85.53"/>
</g>
<!-- main.ts&#45;&gt;inputs/InputMediaQuery.ts -->
<g id="edge15" class="edge">
<title>main.ts&#45;&gt;inputs/InputMediaQuery.ts</title>
<path fill="none" stroke="#757575" d="M35.55,-157.76C43.53,-136.62 63.51,-92.57 97,-73.5 182.04,-25.08 298.49,-29.1 372.61,-38.6"/>
<polygon fill="#757575" stroke="#757575" points="372.41,-42.1 382.79,-39.97 373.34,-35.17 372.41,-42.1"/>
</g>
<!-- main.ts&#45;&gt;inputs/InputNumberOfHexagons.ts -->
<g id="edge16" class="edge">
<title>main.ts&#45;&gt;inputs/InputNumberOfHexagons.ts</title>
<path fill="none" stroke="#757575" d="M33.77,-157.87C39.47,-131.96 56.88,-69.26 97,-37.5 102.06,-33.49 107.64,-30.08 113.51,-27.18"/>
<polygon fill="#757575" stroke="#757575" points="115.2,-30.26 122.95,-23.04 112.39,-23.85 115.2,-30.26"/>
</g>
</g>
</svg>
