<?xml version="1.0" encoding="UTF-8" standalone="no"?>
<!DOCTYPE svg PUBLIC "-//W3C//DTD SVG 1.1//EN"
 "http://www.w3.org/Graphics/SVG/1.1/DTD/svg11.dtd">
<!-- Generated by graphviz version 2.43.0 (0)
 -->
<!-- Title: G Pages: 1 -->
<svg width="1052pt" height="337pt"
 viewBox="0.00 0.00 1052.20 336.75" xmlns="http://www.w3.org/2000/svg" xmlns:xlink="http://www.w3.org/1999/xlink">
<g id="graph0" class="graph" transform="scale(1 1) rotate(0) translate(21.6 315.15)">
<title>G</title>
<polygon fill="#111111" stroke="transparent" points="-21.6,21.6 -21.6,-315.15 1030.6,-315.15 1030.6,21.6 -21.6,21.6"/>
<!-- constants.ts -->
<g id="node1" class="node">
<title>constants.ts</title>
<path fill="none" stroke="#cfffac" d="M1001.33,-282C1001.33,-282 927.67,-282 927.67,-282 923.83,-282 920,-278.17 920,-274.33 920,-274.33 920,-266.67 920,-266.67 920,-262.83 923.83,-259 927.67,-259 927.67,-259 1001.33,-259 1001.33,-259 1005.17,-259 1009,-262.83 1009,-266.67 1009,-266.67 1009,-274.33 1009,-274.33 1009,-278.17 1005.17,-282 1001.33,-282"/>
<text text-anchor="middle" x="964.5" y="-266.8" font-family="Arial" font-size="14.00" fill="#cfffac">constants.ts</text>
</g>
<!-- hexagonSection.ts -->
<g id="node2" class="node">
<title>hexagonSection.ts</title>
<path fill="none" stroke="#c6c5fe" d="M876.33,-141C876.33,-141 763.67,-141 763.67,-141 759.83,-141 756,-137.17 756,-133.33 756,-133.33 756,-125.67 756,-125.67 756,-121.83 759.83,-118 763.67,-118 763.67,-118 876.33,-118 876.33,-118 880.17,-118 884,-121.83 884,-125.67 884,-125.67 884,-133.33 884,-133.33 884,-137.17 880.17,-141 876.33,-141"/>
<text text-anchor="middle" x="820" y="-125.8" font-family="Arial" font-size="14.00" fill="#c6c5fe">hexagonSection.ts</text>
</g>
<!-- hexagonSection.ts&#45;&gt;constants.ts -->
<g id="edge1" class="edge">
<title>hexagonSection.ts&#45;&gt;constants.ts</title>
<path fill="none" stroke="#757575" d="M871.32,-141C875.91,-143.33 880.24,-146.13 884,-149.5 913.36,-175.77 897.02,-198.5 920,-230.5 925.59,-238.29 932.9,-245.72 939.92,-252.02"/>
<polygon fill="#757575" stroke="#757575" points="938.04,-255.01 947.91,-258.84 942.58,-249.69 938.04,-255.01"/>
</g>
<!-- utils.ts -->
<g id="node3" class="node">
<title>utils.ts</title>
<path fill="none" stroke="#cfffac" d="M984.33,-222C984.33,-222 944.67,-222 944.67,-222 940.83,-222 937,-218.17 937,-214.33 937,-214.33 937,-206.67 937,-206.67 937,-202.83 940.83,-199 944.67,-199 944.67,-199 984.33,-199 984.33,-199 988.17,-199 992,-202.83 992,-206.67 992,-206.67 992,-214.33 992,-214.33 992,-218.17 988.17,-222 984.33,-222"/>
<text text-anchor="middle" x="964.5" y="-206.8" font-family="Arial" font-size="14.00" fill="#cfffac">utils.ts</text>
</g>
<!-- hexagonSection.ts&#45;&gt;utils.ts -->
<g id="edge2" class="edge">
<title>hexagonSection.ts&#45;&gt;utils.ts</title>
<path fill="none" stroke="#757575" d="M864.51,-141.12C871.19,-143.52 877.9,-146.31 884,-149.5 905.99,-160.98 928.15,-178.59 943.47,-191.95"/>
<polygon fill="#757575" stroke="#757575" points="941.43,-194.83 951.23,-198.87 946.09,-189.6 941.43,-194.83"/>
</g>
<!-- inputs/InputBase.ts -->
<g id="node4" class="node">
<title>inputs/InputBase.ts</title>
<path fill="none" stroke="#c6c5fe" d="M712.33,-141C712.33,-141 596.67,-141 596.67,-141 592.83,-141 589,-137.17 589,-133.33 589,-133.33 589,-125.67 589,-125.67 589,-121.83 592.83,-118 596.67,-118 596.67,-118 712.33,-118 712.33,-118 716.17,-118 720,-121.83 720,-125.67 720,-125.67 720,-133.33 720,-133.33 720,-137.17 716.17,-141 712.33,-141"/>
<text text-anchor="middle" x="654.5" y="-125.8" font-family="Arial" font-size="14.00" fill="#c6c5fe">inputs/InputBase.ts</text>
</g>
<!-- inputs/InputBase.ts&#45;&gt;hexagonSection.ts -->
<g id="edge3" class="edge">
<title>inputs/InputBase.ts&#45;&gt;hexagonSection.ts</title>
<path fill="none" stroke="#757575" d="M720.12,-129.5C728.59,-129.5 737.31,-129.5 745.91,-129.5"/>
<polygon fill="#757575" stroke="#757575" points="745.92,-133 755.92,-129.5 745.92,-126 745.92,-133"/>
</g>
<!-- inputs/InputFirstRow.ts -->
<g id="node5" class="node">
<title>inputs/InputFirstRow.ts</title>
<path fill="none" stroke="#c6c5fe" d="M545.33,-141C545.33,-141 407.67,-141 407.67,-141 403.83,-141 400,-137.17 400,-133.33 400,-133.33 400,-125.67 400,-125.67 400,-121.83 403.83,-118 407.67,-118 407.67,-118 545.33,-118 545.33,-118 549.17,-118 553,-121.83 553,-125.67 553,-125.67 553,-133.33 553,-133.33 553,-137.17 549.17,-141 545.33,-141"/>
<text text-anchor="middle" x="476.5" y="-125.8" font-family="Arial" font-size="14.00" fill="#c6c5fe">inputs/InputFirstRow.ts</text>
</g>
<!-- inputs/InputFirstRow.ts&#45;&gt;inputs/InputBase.ts -->
<g id="edge4" class="edge">
<title>inputs/InputFirstRow.ts&#45;&gt;inputs/InputBase.ts</title>
<path fill="none" stroke="#757575" d="M553.16,-129.5C561.64,-129.5 570.27,-129.5 578.74,-129.5"/>
<polygon fill="#757575" stroke="#757575" points="578.96,-133 588.96,-129.5 578.96,-126 578.96,-133"/>
</g>
<!-- inputs/InputGap.ts -->
<g id="node6" class="node">
<title>inputs/InputGap.ts</title>
<path fill="none" stroke="#c6c5fe" d="M307.33,-103C307.33,-103 195.67,-103 195.67,-103 191.83,-103 188,-99.17 188,-95.33 188,-95.33 188,-87.67 188,-87.67 188,-83.83 191.83,-80 195.67,-80 195.67,-80 307.33,-80 307.33,-80 311.17,-80 315,-83.83 315,-87.67 315,-87.67 315,-95.33 315,-95.33 315,-99.17 311.17,-103 307.33,-103"/>
<text text-anchor="middle" x="251.5" y="-87.8" font-family="Arial" font-size="14.00" fill="#c6c5fe">inputs/InputGap.ts</text>
</g>
<!-- inputs/InputRoot.ts -->
<g id="node7" class="node">
<title>inputs/InputRoot.ts</title>
<path fill="none" stroke="#c6c5fe" d="M533.33,-100C533.33,-100 419.67,-100 419.67,-100 415.83,-100 412,-96.17 412,-92.33 412,-92.33 412,-84.67 412,-84.67 412,-80.83 415.83,-77 419.67,-77 419.67,-77 533.33,-77 533.33,-77 537.17,-77 541,-80.83 541,-84.67 541,-84.67 541,-92.33 541,-92.33 541,-96.17 537.17,-100 533.33,-100"/>
<text text-anchor="middle" x="476.5" y="-84.8" font-family="Arial" font-size="14.00" fill="#c6c5fe">inputs/InputRoot.ts</text>
</g>
<!-- inputs/InputGap.ts&#45;&gt;inputs/InputRoot.ts -->
<g id="edge5" class="edge">
<title>inputs/InputGap.ts&#45;&gt;inputs/InputRoot.ts</title>
<path fill="none" stroke="#757575" d="M315.21,-90.66C342.06,-90.3 373.61,-89.87 401.58,-89.49"/>
<polygon fill="#757575" stroke="#757575" points="401.76,-92.99 411.71,-89.36 401.67,-85.99 401.76,-92.99"/>
</g>
<!-- inputs/InputRoot.ts&#45;&gt;inputs/InputBase.ts -->
<g id="edge8" class="edge">
<title>inputs/InputRoot.ts&#45;&gt;inputs/InputBase.ts</title>
<path fill="none" stroke="#757575" d="M526.99,-100.03C547.89,-104.9 572.39,-110.61 594.24,-115.7"/>
<polygon fill="#757575" stroke="#757575" points="593.54,-119.13 604.07,-117.99 595.13,-112.31 593.54,-119.13"/>
</g>
<!-- inputs/InputMediaQuery.ts -->
<g id="node8" class="node">
<title>inputs/InputMediaQuery.ts</title>
<path fill="none" stroke="#c6c5fe" d="M331.33,-23C331.33,-23 171.67,-23 171.67,-23 167.83,-23 164,-19.17 164,-15.33 164,-15.33 164,-7.67 164,-7.67 164,-3.83 167.83,0 171.67,0 171.67,0 331.33,0 331.33,0 335.17,0 339,-3.83 339,-7.67 339,-7.67 339,-15.33 339,-15.33 339,-19.17 335.17,-23 331.33,-23"/>
<text text-anchor="middle" x="251.5" y="-7.8" font-family="Arial" font-size="14.00" fill="#c6c5fe">inputs/InputMediaQuery.ts</text>
</g>
<!-- inputs/InputMediaQuery.ts&#45;&gt;inputs/InputBase.ts -->
<g id="edge6" class="edge">
<title>inputs/InputMediaQuery.ts&#45;&gt;inputs/InputBase.ts</title>
<path fill="none" stroke="#757575" d="M339.32,-19.13C400.62,-26.55 483.82,-40.79 553,-67.5 581.53,-78.51 610.93,-97.74 630.5,-111.87"/>
<polygon fill="#757575" stroke="#757575" points="628.64,-114.85 638.76,-117.96 632.79,-109.21 628.64,-114.85"/>
</g>
<!-- inputs/InputNumberOfHexagons.ts -->
<g id="node9" class="node">
<title>inputs/InputNumberOfHexagons.ts</title>
<path fill="none" stroke="#c6c5fe" d="M356.33,-221C356.33,-221 146.67,-221 146.67,-221 142.83,-221 139,-217.17 139,-213.33 139,-213.33 139,-205.67 139,-205.67 139,-201.83 142.83,-198 146.67,-198 146.67,-198 356.33,-198 356.33,-198 360.17,-198 364,-201.83 364,-205.67 364,-205.67 364,-213.33 364,-213.33 364,-217.17 360.17,-221 356.33,-221"/>
<text text-anchor="middle" x="251.5" y="-205.8" font-family="Arial" font-size="14.00" fill="#c6c5fe">inputs/InputNumberOfHexagons.ts</text>
</g>
<!-- inputs/InputNumberOfHexagons.ts&#45;&gt;inputs/InputBase.ts -->
<g id="edge7" class="edge">
<title>inputs/InputNumberOfHexagons.ts&#45;&gt;inputs/InputBase.ts</title>
<path fill="none" stroke="#757575" d="M364.05,-210.55C421.53,-208.43 492.15,-201.64 553,-183.5 580.37,-175.34 608.78,-159.25 628.39,-146.74"/>
<polygon fill="#757575" stroke="#757575" points="630.54,-149.52 637,-141.12 626.71,-143.65 630.54,-149.52"/>
</g>
<!-- inputs/index.ts -->
<g id="node10" class="node">
<title>inputs/index.ts</title>
<path fill="none" stroke="#c6c5fe" d="M95.33,-123C95.33,-123 7.67,-123 7.67,-123 3.83,-123 0,-119.17 0,-115.33 0,-115.33 0,-107.67 0,-107.67 0,-103.83 3.83,-100 7.67,-100 7.67,-100 95.33,-100 95.33,-100 99.17,-100 103,-103.83 103,-107.67 103,-107.67 103,-115.33 103,-115.33 103,-119.17 99.17,-123 95.33,-123"/>
<text text-anchor="middle" x="51.5" y="-107.8" font-family="Arial" font-size="14.00" fill="#c6c5fe">inputs/index.ts</text>
</g>
<!-- inputs/index.ts&#45;&gt;inputs/InputBase.ts -->
<g id="edge9" class="edge">
<title>inputs/index.ts&#45;&gt;inputs/InputBase.ts</title>
<path fill="none" stroke="#757575" d="M89.19,-123.01C104.44,-127.34 122.43,-131.85 139,-134.5 320.81,-163.59 369.77,-167.56 553,-149.5 566.89,-148.13 581.71,-145.72 595.58,-143.04"/>
<polygon fill="#757575" stroke="#757575" points="596.37,-146.45 605.48,-141.05 594.99,-139.59 596.37,-146.45"/>
</g>
<!-- inputs/index.ts&#45;&gt;inputs/InputFirstRow.ts -->
<g id="edge10" class="edge">
<title>inputs/index.ts&#45;&gt;inputs/InputFirstRow.ts</title>
<path fill="none" stroke="#757575" d="M103.1,-113.65C173.98,-116.67 303.77,-122.19 389.85,-125.86"/>
<polygon fill="#757575" stroke="#757575" points="389.72,-129.35 399.86,-126.28 390.02,-122.36 389.72,-129.35"/>
</g>
<!-- inputs/index.ts&#45;&gt;inputs/InputGap.ts -->
<g id="edge11" class="edge">
<title>inputs/index.ts&#45;&gt;inputs/InputGap.ts</title>
<path fill="none" stroke="#757575" d="M103.23,-106.38C125.89,-104.09 153.02,-101.35 177.78,-98.85"/>
<polygon fill="#757575" stroke="#757575" points="178.26,-102.31 187.86,-97.83 177.56,-95.35 178.26,-102.31"/>
</g>
<!-- inputs/index.ts&#45;&gt;inputs/InputRoot.ts -->
<g id="edge14" class="edge">
<title>inputs/index.ts&#45;&gt;inputs/InputRoot.ts</title>
<path fill="none" stroke="#757575" d="M70.86,-99.84C87.8,-89.81 114.03,-76.12 139,-70.5 232.79,-49.4 344.81,-62.8 413.02,-75.11"/>
<polygon fill="#757575" stroke="#757575" points="412.7,-78.61 423.17,-76.99 413.97,-71.72 412.7,-78.61"/>
</g>
<!-- inputs/index.ts&#45;&gt;inputs/InputMediaQuery.ts -->
<g id="edge12" class="edge">
<title>inputs/index.ts&#45;&gt;inputs/InputMediaQuery.ts</title>
<path fill="none" stroke="#757575" d="M62.7,-99.78C77.72,-83.29 107.43,-53.47 139,-37.5 148.21,-32.84 158.26,-29 168.45,-25.84"/>
<polygon fill="#757575" stroke="#757575" points="169.59,-29.16 178.23,-23.02 167.65,-22.43 169.59,-29.16"/>
</g>
<!-- inputs/index.ts&#45;&gt;inputs/InputNumberOfHexagons.ts -->
<g id="edge13" class="edge">
<title>inputs/index.ts&#45;&gt;inputs/InputNumberOfHexagons.ts</title>
<path fill="none" stroke="#757575" d="M63.02,-123.16C78.21,-139.25 107.86,-168.01 139,-183.5 148.31,-188.13 158.46,-191.95 168.73,-195.11"/>
<polygon fill="#757575" stroke="#757575" points="168.01,-198.54 178.59,-197.93 169.94,-191.81 168.01,-198.54"/>
</g>
<!-- main.ts -->
<g id="node11" class="node">
<title>main.ts</title>
<path fill="none" stroke="#c6c5fe" d="M499.33,-261C499.33,-261 453.67,-261 453.67,-261 449.83,-261 446,-257.17 446,-253.33 446,-253.33 446,-245.67 446,-245.67 446,-241.83 449.83,-238 453.67,-238 453.67,-238 499.33,-238 499.33,-238 503.17,-238 507,-241.83 507,-245.67 507,-245.67 507,-253.33 507,-253.33 507,-257.17 503.17,-261 499.33,-261"/>
<text text-anchor="middle" x="476.5" y="-245.8" font-family="Arial" font-size="14.00" fill="#c6c5fe">main.ts</text>
</g>
<!-- main.ts&#45;&gt;constants.ts -->
<g id="edge15" class="edge">
<title>main.ts&#45;&gt;constants.ts</title>
<path fill="none" stroke="#757575" d="M507.22,-255.42C529.63,-259.74 561.16,-265.51 589,-269.5 719.02,-288.15 753.37,-301.31 884,-287.5 892.37,-286.61 901.16,-285.22 909.72,-283.6"/>
<polygon fill="#757575" stroke="#757575" points="910.5,-287.01 919.61,-281.61 909.12,-280.15 910.5,-287.01"/>
</g>
<!-- main.ts&#45;&gt;hexagonSection.ts -->
<g id="edge16" class="edge">
<title>main.ts&#45;&gt;hexagonSection.ts</title>
<path fill="none" stroke="#757575" d="M507.05,-238.48C557.77,-219.66 664.75,-180.35 756,-149.5 761.23,-147.73 766.72,-145.92 772.19,-144.15"/>
<polygon fill="#757575" stroke="#757575" points="773.5,-147.4 781.95,-141.01 771.36,-140.74 773.5,-147.4"/>
</g>
<!-- ui.ts -->
<g id="node12" class="node">
<title>ui.ts</title>
<path fill="none" stroke="#c6c5fe" d="M673.83,-261C673.83,-261 635.17,-261 635.17,-261 631.33,-261 627.5,-257.17 627.5,-253.33 627.5,-253.33 627.5,-245.67 627.5,-245.67 627.5,-241.83 631.33,-238 635.17,-238 635.17,-238 673.83,-238 673.83,-238 677.67,-238 681.5,-241.83 681.5,-245.67 681.5,-245.67 681.5,-253.33 681.5,-253.33 681.5,-257.17 677.67,-261 673.83,-261"/>
<text text-anchor="middle" x="654.5" y="-245.8" font-family="Arial" font-size="14.00" fill="#c6c5fe">ui.ts</text>
</g>
<!-- main.ts&#45;&gt;ui.ts -->
<g id="edge17" class="edge">
<title>main.ts&#45;&gt;ui.ts</title>
<path fill="none" stroke="#757575" d="M507.36,-249.5C537.58,-249.5 584.36,-249.5 616.82,-249.5"/>
<polygon fill="#757575" stroke="#757575" points="617.24,-253 627.24,-249.5 617.24,-246 617.24,-253"/>
</g>
<!-- ui.ts&#45;&gt;constants.ts -->
<g id="edge20" class="edge">
<title>ui.ts&#45;&gt;constants.ts</title>
<path fill="none" stroke="#757575" d="M681.72,-256.53C701.86,-261.55 730.47,-267.86 756,-270.5 807.97,-275.87 867.66,-275.16 909.64,-273.53"/>
<polygon fill="#757575" stroke="#757575" points="909.8,-277.02 919.65,-273.11 909.51,-270.03 909.8,-277.02"/>
</g>
<!-- ui.ts&#45;&gt;utils.ts -->
<g id="edge23" class="edge">
<title>ui.ts&#45;&gt;utils.ts</title>
<path fill="none" stroke="#757575" d="M681.82,-243.47C702.02,-239.04 730.65,-233.17 756,-229.5 815.45,-220.89 885.07,-215.45 926.66,-212.7"/>
<polygon fill="#757575" stroke="#757575" points="927.11,-216.18 936.86,-212.04 926.66,-209.19 927.11,-216.18"/>
</g>
<!-- textCSS.ts -->
<g id="node13" class="node">
<title>textCSS.ts</title>
<path fill="none" stroke="#c6c5fe" d="M852.33,-262C852.33,-262 787.67,-262 787.67,-262 783.83,-262 780,-258.17 780,-254.33 780,-254.33 780,-246.67 780,-246.67 780,-242.83 783.83,-239 787.67,-239 787.67,-239 852.33,-239 852.33,-239 856.17,-239 860,-242.83 860,-246.67 860,-246.67 860,-254.33 860,-254.33 860,-258.17 856.17,-262 852.33,-262"/>
<text text-anchor="middle" x="820" y="-246.8" font-family="Arial" font-size="14.00" fill="#c6c5fe">textCSS.ts</text>
</g>
<!-- ui.ts&#45;&gt;textCSS.ts -->
<g id="edge21" class="edge">
<title>ui.ts&#45;&gt;textCSS.ts</title>
<path fill="none" stroke="#757575" d="M681.77,-249.66C705.41,-249.81 740.76,-250.02 769.66,-250.2"/>
<polygon fill="#757575" stroke="#757575" points="769.96,-253.7 779.98,-250.26 770.01,-246.7 769.96,-253.7"/>
</g>
<!-- textHTML.ts -->
<g id="node14" class="node">
<title>textHTML.ts</title>
<path fill="none" stroke="#cfffac" d="M857.33,-182C857.33,-182 782.67,-182 782.67,-182 778.83,-182 775,-178.17 775,-174.33 775,-174.33 775,-166.67 775,-166.67 775,-162.83 778.83,-159 782.67,-159 782.67,-159 857.33,-159 857.33,-159 861.17,-159 865,-162.83 865,-166.67 865,-166.67 865,-174.33 865,-174.33 865,-178.17 861.17,-182 857.33,-182"/>
<text text-anchor="middle" x="820" y="-166.8" font-family="Arial" font-size="14.00" fill="#cfffac">textHTML.ts</text>
</g>
<!-- ui.ts&#45;&gt;textHTML.ts -->
<g id="edge22" class="edge">
<title>ui.ts&#45;&gt;textHTML.ts</title>
<path fill="none" stroke="#757575" d="M676,-237.96C696.11,-226.82 727.78,-209.73 756,-196.5 763.62,-192.93 771.86,-189.34 779.8,-186.01"/>
<polygon fill="#757575" stroke="#757575" points="781.36,-189.15 789.26,-182.1 778.69,-182.68 781.36,-189.15"/>
</g>
<!-- textCSS.ts&#45;&gt;constants.ts -->
<g id="edge18" class="edge">
<title>textCSS.ts&#45;&gt;constants.ts</title>
<path fill="none" stroke="#757575" d="M860.32,-256.02C875.6,-258.16 893.35,-260.65 909.78,-262.96"/>
<polygon fill="#757575" stroke="#757575" points="909.41,-266.44 919.8,-264.37 910.38,-259.51 909.41,-266.44"/>
</g>
<!-- textCSS.ts&#45;&gt;utils.ts -->
<g id="edge19" class="edge">
<title>textCSS.ts&#45;&gt;utils.ts</title>
<path fill="none" stroke="#757575" d="M860.32,-239.46C881.18,-233.61 906.64,-226.46 927.05,-220.73"/>
<polygon fill="#757575" stroke="#757575" points="928.24,-224.03 936.92,-217.96 926.35,-217.29 928.24,-224.03"/>
</g>
</g>
</svg>
